G04 #@! TF.GenerationSoftware,KiCad,Pcbnew,5.1.2-f72e74a~84~ubuntu18.04.1*
G04 #@! TF.CreationDate,2019-08-21T00:14:30+02:00*
G04 #@! TF.ProjectId,Tuareg,54756172-6567-42e6-9b69-6361645f7063,rev?*
G04 #@! TF.SameCoordinates,Original*
G04 #@! TF.FileFunction,Legend,Bot*
G04 #@! TF.FilePolarity,Positive*
%FSLAX46Y46*%
G04 Gerber Fmt 4.6, Leading zero omitted, Abs format (unit mm)*
G04 Created by KiCad (PCBNEW 5.1.2-f72e74a~84~ubuntu18.04.1) date 2019-08-21 00:14:30*
%MOMM*%
%LPD*%
G04 APERTURE LIST*
%ADD10C,0.120000*%
%ADD11C,0.381000*%
%ADD12C,0.150000*%
G04 APERTURE END LIST*
D10*
X97994400Y-74655178D02*
X97994400Y-74138022D01*
X99414400Y-74655178D02*
X99414400Y-74138022D01*
D11*
X162068320Y-61375401D02*
G75*
G03X162068320Y-61375401I-3573780J0D01*
G01*
X110018730Y-61350001D02*
G75*
G03X110018730Y-61350001I-3573870J0D01*
G01*
X176068800Y-51903741D02*
X176068800Y-66303001D01*
X80968660Y-51825001D02*
X80968660Y-66365001D01*
X80971200Y-66365001D02*
X175746220Y-66365001D01*
D10*
X134395978Y-137616000D02*
X133878822Y-137616000D01*
X134395978Y-136196000D02*
X133878822Y-136196000D01*
X140898378Y-137590600D02*
X140381222Y-137590600D01*
X140898378Y-136170600D02*
X140381222Y-136170600D01*
D12*
X125493600Y-70347600D02*
X126893600Y-70347600D01*
X125493600Y-75447600D02*
X121343600Y-75447600D01*
X125493600Y-70297600D02*
X121343600Y-70297600D01*
X125493600Y-75447600D02*
X125493600Y-75302600D01*
X121343600Y-75447600D02*
X121343600Y-75302600D01*
X121343600Y-70297600D02*
X121343600Y-70442600D01*
X125493600Y-70297600D02*
X125493600Y-70347600D01*
D10*
X132104000Y-61974000D02*
X132104000Y-56274000D01*
X135104000Y-61974000D02*
X132104000Y-61974000D01*
X135104000Y-56274000D02*
X135104000Y-61974000D01*
X152658578Y-73354000D02*
X152141422Y-73354000D01*
X152658578Y-71934000D02*
X152141422Y-71934000D01*
X156722578Y-73354000D02*
X156205422Y-73354000D01*
X156722578Y-71934000D02*
X156205422Y-71934000D01*
X160786578Y-73354000D02*
X160269422Y-73354000D01*
X160786578Y-71934000D02*
X160269422Y-71934000D01*
X164850578Y-73354000D02*
X164333422Y-73354000D01*
X164850578Y-71934000D02*
X164333422Y-71934000D01*
X136402578Y-73354000D02*
X135885422Y-73354000D01*
X136402578Y-71934000D02*
X135885422Y-71934000D01*
X140466578Y-73354000D02*
X139949422Y-73354000D01*
X140466578Y-71934000D02*
X139949422Y-71934000D01*
X144530578Y-73354000D02*
X144013422Y-73354000D01*
X144530578Y-71934000D02*
X144013422Y-71934000D01*
X148594578Y-73354000D02*
X148077422Y-73354000D01*
X148594578Y-71934000D02*
X148077422Y-71934000D01*
X153166578Y-83006000D02*
X152649422Y-83006000D01*
X153166578Y-81586000D02*
X152649422Y-81586000D01*
X136656578Y-83514000D02*
X136139422Y-83514000D01*
X136656578Y-82094000D02*
X136139422Y-82094000D01*
X155325578Y-113689200D02*
X154808422Y-113689200D01*
X155325578Y-112269200D02*
X154808422Y-112269200D01*
X158389822Y-112269200D02*
X158906978Y-112269200D01*
X158389822Y-113689200D02*
X158906978Y-113689200D01*
X154334978Y-96874400D02*
X153817822Y-96874400D01*
X154334978Y-95454400D02*
X153817822Y-95454400D01*
X153817822Y-93473200D02*
X154334978Y-93473200D01*
X153817822Y-94893200D02*
X154334978Y-94893200D01*
X150722090Y-107366018D02*
X150722090Y-106848862D01*
X152142090Y-107366018D02*
X152142090Y-106848862D01*
X157763978Y-96874400D02*
X157246822Y-96874400D01*
X157763978Y-95454400D02*
X157246822Y-95454400D01*
X109707178Y-88619400D02*
X109190022Y-88619400D01*
X109707178Y-87199400D02*
X109190022Y-87199400D01*
X109015600Y-84856822D02*
X109015600Y-85373978D01*
X107595600Y-84856822D02*
X107595600Y-85373978D01*
X106802422Y-91669800D02*
X107319578Y-91669800D01*
X106802422Y-93089800D02*
X107319578Y-93089800D01*
X103221022Y-89663200D02*
X103738178Y-89663200D01*
X103221022Y-91083200D02*
X103738178Y-91083200D01*
X98150178Y-87326400D02*
X97633022Y-87326400D01*
X98150178Y-88746400D02*
X97633022Y-88746400D01*
X97458600Y-85009222D02*
X97458600Y-85526378D01*
X96038600Y-85009222D02*
X96038600Y-85526378D01*
X95270822Y-89993400D02*
X95787978Y-89993400D01*
X95270822Y-91413400D02*
X95787978Y-91413400D01*
X91714822Y-89993400D02*
X92231978Y-89993400D01*
X91714822Y-91413400D02*
X92231978Y-91413400D01*
X135783822Y-110669000D02*
X136300978Y-110669000D01*
X135783822Y-112089000D02*
X136300978Y-112089000D01*
X133370822Y-124893000D02*
X133887978Y-124893000D01*
X133370822Y-126313000D02*
X133887978Y-126313000D01*
X132155000Y-128062222D02*
X132155000Y-128579378D01*
X130735000Y-128062222D02*
X130735000Y-128579378D01*
X142168378Y-131469200D02*
X141651222Y-131469200D01*
X142168378Y-130049200D02*
X141651222Y-130049200D01*
X139679178Y-140029000D02*
X139162022Y-140029000D01*
X139679178Y-138609000D02*
X139162022Y-138609000D01*
X143534200Y-127401822D02*
X143534200Y-127918978D01*
X142114200Y-127401822D02*
X142114200Y-127918978D01*
X133049736Y-122508600D02*
X134253864Y-122508600D01*
X133049736Y-124328600D02*
X134253864Y-124328600D01*
X128677600Y-133430778D02*
X128677600Y-132913622D01*
X130097600Y-133430778D02*
X130097600Y-132913622D01*
X130709600Y-133430778D02*
X130709600Y-132913622D01*
X132129600Y-133430778D02*
X132129600Y-132913622D01*
X125502600Y-68533778D02*
X125502600Y-68016622D01*
X126922600Y-68533778D02*
X126922600Y-68016622D01*
X120070378Y-69721800D02*
X119553222Y-69721800D01*
X120070378Y-68301800D02*
X119553222Y-68301800D01*
X151640000Y-77018000D02*
X153100000Y-77018000D01*
X151640000Y-73858000D02*
X153800000Y-73858000D01*
X151640000Y-73858000D02*
X151640000Y-74788000D01*
X151640000Y-77018000D02*
X151640000Y-76088000D01*
X155704000Y-77018000D02*
X157164000Y-77018000D01*
X155704000Y-73858000D02*
X157864000Y-73858000D01*
X155704000Y-73858000D02*
X155704000Y-74788000D01*
X155704000Y-77018000D02*
X155704000Y-76088000D01*
X159768000Y-77018000D02*
X161228000Y-77018000D01*
X159768000Y-73858000D02*
X161928000Y-73858000D01*
X159768000Y-73858000D02*
X159768000Y-74788000D01*
X159768000Y-77018000D02*
X159768000Y-76088000D01*
X163832000Y-77018000D02*
X165292000Y-77018000D01*
X163832000Y-73858000D02*
X165992000Y-73858000D01*
X163832000Y-73858000D02*
X163832000Y-74788000D01*
X163832000Y-77018000D02*
X163832000Y-76088000D01*
X135384000Y-77018000D02*
X136844000Y-77018000D01*
X135384000Y-73858000D02*
X137544000Y-73858000D01*
X135384000Y-73858000D02*
X135384000Y-74788000D01*
X135384000Y-77018000D02*
X135384000Y-76088000D01*
X139448000Y-77018000D02*
X140908000Y-77018000D01*
X139448000Y-73858000D02*
X141608000Y-73858000D01*
X139448000Y-73858000D02*
X139448000Y-74788000D01*
X139448000Y-77018000D02*
X139448000Y-76088000D01*
X143512000Y-77018000D02*
X144972000Y-77018000D01*
X143512000Y-73858000D02*
X145672000Y-73858000D01*
X143512000Y-73858000D02*
X143512000Y-74788000D01*
X143512000Y-77018000D02*
X143512000Y-76088000D01*
X147576000Y-77018000D02*
X149036000Y-77018000D01*
X147576000Y-73858000D02*
X149736000Y-73858000D01*
X147576000Y-73858000D02*
X147576000Y-74788000D01*
X147576000Y-77018000D02*
X147576000Y-76088000D01*
D12*
X153082690Y-99498640D02*
X153082690Y-97698640D01*
X165982690Y-99498640D02*
X165982690Y-107248640D01*
X152832690Y-99498640D02*
X152832690Y-107248640D01*
X165982690Y-99498640D02*
X165647690Y-99498640D01*
X165982690Y-107248640D02*
X165647690Y-107248640D01*
X152832690Y-107248640D02*
X153167690Y-107248640D01*
X152832690Y-99498640D02*
X153082690Y-99498640D01*
D10*
X134285222Y-133732200D02*
X134802378Y-133732200D01*
X134285222Y-135152200D02*
X134802378Y-135152200D01*
D12*
X107020600Y-87063400D02*
X107020600Y-88463400D01*
X101920600Y-87063400D02*
X101920600Y-82913400D01*
X107070600Y-87063400D02*
X107070600Y-82913400D01*
X101920600Y-87063400D02*
X102065600Y-87063400D01*
X101920600Y-82913400D02*
X102065600Y-82913400D01*
X107070600Y-82913400D02*
X106925600Y-82913400D01*
X107070600Y-87063400D02*
X107020600Y-87063400D01*
X95489000Y-87342800D02*
X95489000Y-88742800D01*
X90389000Y-87342800D02*
X90389000Y-83192800D01*
X95539000Y-87342800D02*
X95539000Y-83192800D01*
X90389000Y-87342800D02*
X90534000Y-87342800D01*
X90389000Y-83192800D02*
X90534000Y-83192800D01*
X95539000Y-83192800D02*
X95394000Y-83192800D01*
X95539000Y-87342800D02*
X95489000Y-87342800D01*
D10*
X154126000Y-69591422D02*
X154126000Y-70108578D01*
X152706000Y-69591422D02*
X152706000Y-70108578D01*
X158190000Y-69591422D02*
X158190000Y-70108578D01*
X156770000Y-69591422D02*
X156770000Y-70108578D01*
X162254000Y-69591422D02*
X162254000Y-70108578D01*
X160834000Y-69591422D02*
X160834000Y-70108578D01*
X166318000Y-69591422D02*
X166318000Y-70108578D01*
X164898000Y-69591422D02*
X164898000Y-70108578D01*
X152094000Y-69591422D02*
X152094000Y-70108578D01*
X150674000Y-69591422D02*
X150674000Y-70108578D01*
X156158000Y-69591422D02*
X156158000Y-70108578D01*
X154738000Y-69591422D02*
X154738000Y-70108578D01*
X160222000Y-69591422D02*
X160222000Y-70108578D01*
X158802000Y-69591422D02*
X158802000Y-70108578D01*
X164286000Y-69591422D02*
X164286000Y-70108578D01*
X162866000Y-69591422D02*
X162866000Y-70108578D01*
X153166578Y-86054000D02*
X152649422Y-86054000D01*
X153166578Y-84634000D02*
X152649422Y-84634000D01*
X153166578Y-79704000D02*
X152649422Y-79704000D01*
X153166578Y-78284000D02*
X152649422Y-78284000D01*
X164333422Y-78284000D02*
X164850578Y-78284000D01*
X164333422Y-79704000D02*
X164850578Y-79704000D01*
X164435022Y-84634000D02*
X164952178Y-84634000D01*
X164435022Y-86054000D02*
X164952178Y-86054000D01*
X152649422Y-86666000D02*
X153166578Y-86666000D01*
X152649422Y-88086000D02*
X153166578Y-88086000D01*
X152649422Y-88698000D02*
X153166578Y-88698000D01*
X152649422Y-90118000D02*
X153166578Y-90118000D01*
X164850578Y-81736000D02*
X164333422Y-81736000D01*
X164850578Y-80316000D02*
X164333422Y-80316000D01*
X164952178Y-88086000D02*
X164435022Y-88086000D01*
X164952178Y-86666000D02*
X164435022Y-86666000D01*
X137870000Y-69591422D02*
X137870000Y-70108578D01*
X136450000Y-69591422D02*
X136450000Y-70108578D01*
X141934000Y-69591422D02*
X141934000Y-70108578D01*
X140514000Y-69591422D02*
X140514000Y-70108578D01*
X150062000Y-69591422D02*
X150062000Y-70108578D01*
X148642000Y-69591422D02*
X148642000Y-70108578D01*
X136557936Y-65130000D02*
X137762064Y-65130000D01*
X136557936Y-66950000D02*
X137762064Y-66950000D01*
X145944000Y-68739936D02*
X145944000Y-69944064D01*
X144124000Y-68739936D02*
X144124000Y-69944064D01*
X135838000Y-69591422D02*
X135838000Y-70108578D01*
X134418000Y-69591422D02*
X134418000Y-70108578D01*
X139902000Y-69591422D02*
X139902000Y-70108578D01*
X138482000Y-69591422D02*
X138482000Y-70108578D01*
X148030000Y-69591422D02*
X148030000Y-70108578D01*
X146610000Y-69591422D02*
X146610000Y-70108578D01*
X136656578Y-86054000D02*
X136139422Y-86054000D01*
X136656578Y-84634000D02*
X136139422Y-84634000D01*
X141981422Y-88190000D02*
X142498578Y-88190000D01*
X141981422Y-89610000D02*
X142498578Y-89610000D01*
X147823422Y-78284000D02*
X148340578Y-78284000D01*
X147823422Y-79704000D02*
X148340578Y-79704000D01*
X147823422Y-84634000D02*
X148340578Y-84634000D01*
X147823422Y-86054000D02*
X148340578Y-86054000D01*
X136139422Y-86666000D02*
X136656578Y-86666000D01*
X136139422Y-88086000D02*
X136656578Y-88086000D01*
X142498578Y-91642000D02*
X141981422Y-91642000D01*
X142498578Y-90222000D02*
X141981422Y-90222000D01*
X148340578Y-81736000D02*
X147823422Y-81736000D01*
X148340578Y-80316000D02*
X147823422Y-80316000D01*
X148340578Y-88086000D02*
X147823422Y-88086000D01*
X148340578Y-86666000D02*
X147823422Y-86666000D01*
X151537600Y-112501178D02*
X151537600Y-111984022D01*
X152957600Y-112501178D02*
X152957600Y-111984022D01*
X160783200Y-112501178D02*
X160783200Y-111984022D01*
X162203200Y-112501178D02*
X162203200Y-111984022D01*
X155325578Y-111581000D02*
X154808422Y-111581000D01*
X155325578Y-110161000D02*
X154808422Y-110161000D01*
X158906978Y-111581000D02*
X158389822Y-111581000D01*
X158906978Y-110161000D02*
X158389822Y-110161000D01*
X165104578Y-97103000D02*
X164587422Y-97103000D01*
X165104578Y-95683000D02*
X164587422Y-95683000D01*
X160907800Y-94661222D02*
X160907800Y-95178378D01*
X159487800Y-94661222D02*
X159487800Y-95178378D01*
X157246822Y-93473200D02*
X157763978Y-93473200D01*
X157246822Y-94893200D02*
X157763978Y-94893200D01*
X109024336Y-81284400D02*
X110228464Y-81284400D01*
X109024336Y-83104400D02*
X110228464Y-83104400D01*
X107319578Y-91083200D02*
X106802422Y-91083200D01*
X107319578Y-89663200D02*
X106802422Y-89663200D01*
X103735878Y-93115200D02*
X103218722Y-93115200D01*
X103735878Y-91695200D02*
X103218722Y-91695200D01*
X97492736Y-81436800D02*
X98696864Y-81436800D01*
X97492736Y-83256800D02*
X98696864Y-83256800D01*
X95787978Y-93445400D02*
X95270822Y-93445400D01*
X95787978Y-92025400D02*
X95270822Y-92025400D01*
X92231978Y-92025400D02*
X91714822Y-92025400D01*
X92231978Y-93445400D02*
X91714822Y-93445400D01*
X134751578Y-129767400D02*
X134234422Y-129767400D01*
X134751578Y-128347400D02*
X134234422Y-128347400D01*
X131149649Y-116779295D02*
X131666805Y-116779295D01*
X131149649Y-118199295D02*
X131666805Y-118199295D01*
X131149649Y-114747295D02*
X131666805Y-114747295D01*
X131149649Y-116167295D02*
X131666805Y-116167295D01*
D12*
X156675000Y-87229000D02*
X155300000Y-87229000D01*
X156675000Y-78354000D02*
X160825000Y-78354000D01*
X156675000Y-87254000D02*
X160825000Y-87254000D01*
X156675000Y-78354000D02*
X156675000Y-78469000D01*
X160825000Y-78354000D02*
X160825000Y-78469000D01*
X160825000Y-87254000D02*
X160825000Y-87139000D01*
X156675000Y-87254000D02*
X156675000Y-87229000D01*
X140165000Y-87229000D02*
X138790000Y-87229000D01*
X140165000Y-78354000D02*
X144315000Y-78354000D01*
X140165000Y-87254000D02*
X144315000Y-87254000D01*
X140165000Y-78354000D02*
X140165000Y-78469000D01*
X144315000Y-78354000D02*
X144315000Y-78469000D01*
X144315000Y-87254000D02*
X144315000Y-87139000D01*
X140165000Y-87254000D02*
X140165000Y-87229000D01*
X139525505Y-112754227D02*
X140925505Y-112754227D01*
X139525505Y-117854227D02*
X135375505Y-117854227D01*
X139525505Y-112704227D02*
X135375505Y-112704227D01*
X139525505Y-117854227D02*
X139525505Y-117709227D01*
X135375505Y-117854227D02*
X135375505Y-117709227D01*
X135375505Y-112704227D02*
X135375505Y-112849227D01*
X139525505Y-112704227D02*
X139525505Y-112754227D01*
D10*
X106984200Y-68867000D02*
X106984200Y-76927000D01*
X106984200Y-76927000D02*
X102464200Y-76927000D01*
X102464200Y-76927000D02*
X102464200Y-68867000D01*
X120654536Y-91088800D02*
X121858664Y-91088800D01*
X120654536Y-92908800D02*
X121858664Y-92908800D01*
X122169422Y-94867800D02*
X122686578Y-94867800D01*
X122169422Y-93447800D02*
X122686578Y-93447800D01*
X117058064Y-89031400D02*
X115853936Y-89031400D01*
X117058064Y-90851400D02*
X115853936Y-90851400D01*
X94944600Y-68107000D02*
X94944600Y-76167000D01*
X90424600Y-68107000D02*
X94944600Y-68107000D01*
X90424600Y-76167000D02*
X90424600Y-68107000D01*
X121559822Y-81535200D02*
X122076978Y-81535200D01*
X121559822Y-82955200D02*
X122076978Y-82955200D01*
X98927800Y-69039200D02*
X98927800Y-70499200D01*
X102087800Y-69039200D02*
X102087800Y-71199200D01*
X102087800Y-69039200D02*
X101157800Y-69039200D01*
X98927800Y-69039200D02*
X99857800Y-69039200D01*
X98506400Y-70559200D02*
X97576400Y-70559200D01*
X95346400Y-70559200D02*
X96276400Y-70559200D01*
X95346400Y-70559200D02*
X95346400Y-68399200D01*
X98506400Y-70559200D02*
X98506400Y-69099200D01*
X108105000Y-74819000D02*
X112405000Y-74819000D01*
X112405000Y-74819000D02*
X112405000Y-76819000D01*
X112405000Y-76819000D02*
X108105000Y-76819000D01*
X102010936Y-55824800D02*
X103215064Y-55824800D01*
X102010936Y-54004800D02*
X103215064Y-54004800D01*
X100585200Y-73198222D02*
X100585200Y-73715378D01*
X102005200Y-73198222D02*
X102005200Y-73715378D01*
X96823600Y-76627222D02*
X96823600Y-77144378D01*
X95403600Y-76627222D02*
X95403600Y-77144378D01*
X95403600Y-73198222D02*
X95403600Y-73715378D01*
X96823600Y-73198222D02*
X96823600Y-73715378D01*
X108656622Y-74395400D02*
X109173778Y-74395400D01*
X108656622Y-72975400D02*
X109173778Y-72975400D01*
X112628178Y-72975400D02*
X112111022Y-72975400D01*
X112628178Y-74395400D02*
X112111022Y-74395400D01*
X118130822Y-82955200D02*
X118647978Y-82955200D01*
X118130822Y-81535200D02*
X118647978Y-81535200D01*
X124988822Y-82955200D02*
X125505978Y-82955200D01*
X124988822Y-81535200D02*
X125505978Y-81535200D01*
X117114822Y-87021600D02*
X117631978Y-87021600D01*
X117114822Y-88441600D02*
X117631978Y-88441600D01*
X118820000Y-84755222D02*
X118820000Y-85272378D01*
X117400000Y-84755222D02*
X117400000Y-85272378D01*
X116838800Y-85272378D02*
X116838800Y-84755222D01*
X115418800Y-85272378D02*
X115418800Y-84755222D01*
D12*
X119318800Y-84970800D02*
X119318800Y-83570800D01*
X124418800Y-84970800D02*
X124418800Y-89120800D01*
X119268800Y-84970800D02*
X119268800Y-89120800D01*
X124418800Y-84970800D02*
X124273800Y-84970800D01*
X124418800Y-89120800D02*
X124273800Y-89120800D01*
X119268800Y-89120800D02*
X119413800Y-89120800D01*
X119268800Y-84970800D02*
X119318800Y-84970800D01*
X100806780Y-73753742D02*
X100330590Y-73420409D01*
X100806780Y-73182314D02*
X99806780Y-73182314D01*
X99806780Y-73563266D01*
X99854400Y-73658504D01*
X99902019Y-73706123D01*
X99997257Y-73753742D01*
X100140114Y-73753742D01*
X100235352Y-73706123D01*
X100282971Y-73658504D01*
X100330590Y-73563266D01*
X100330590Y-73182314D01*
X99806780Y-74087076D02*
X99806780Y-74706123D01*
X100187733Y-74372790D01*
X100187733Y-74515647D01*
X100235352Y-74610885D01*
X100282971Y-74658504D01*
X100378209Y-74706123D01*
X100616304Y-74706123D01*
X100711542Y-74658504D01*
X100759161Y-74610885D01*
X100806780Y-74515647D01*
X100806780Y-74229933D01*
X100759161Y-74134695D01*
X100711542Y-74087076D01*
X99806780Y-75610885D02*
X99806780Y-75134695D01*
X100282971Y-75087076D01*
X100235352Y-75134695D01*
X100187733Y-75229933D01*
X100187733Y-75468028D01*
X100235352Y-75563266D01*
X100282971Y-75610885D01*
X100378209Y-75658504D01*
X100616304Y-75658504D01*
X100711542Y-75610885D01*
X100759161Y-75563266D01*
X100806780Y-75468028D01*
X100806780Y-75229933D01*
X100759161Y-75134695D01*
X100711542Y-75087076D01*
X134780257Y-135613142D02*
X134827876Y-135660761D01*
X134970733Y-135708380D01*
X135065971Y-135708380D01*
X135208828Y-135660761D01*
X135304066Y-135565523D01*
X135351685Y-135470285D01*
X135399304Y-135279809D01*
X135399304Y-135136952D01*
X135351685Y-134946476D01*
X135304066Y-134851238D01*
X135208828Y-134756000D01*
X135065971Y-134708380D01*
X134970733Y-134708380D01*
X134827876Y-134756000D01*
X134780257Y-134803619D01*
X133923114Y-134708380D02*
X134113590Y-134708380D01*
X134208828Y-134756000D01*
X134256447Y-134803619D01*
X134351685Y-134946476D01*
X134399304Y-135136952D01*
X134399304Y-135517904D01*
X134351685Y-135613142D01*
X134304066Y-135660761D01*
X134208828Y-135708380D01*
X134018352Y-135708380D01*
X133923114Y-135660761D01*
X133875495Y-135613142D01*
X133827876Y-135517904D01*
X133827876Y-135279809D01*
X133875495Y-135184571D01*
X133923114Y-135136952D01*
X134018352Y-135089333D01*
X134208828Y-135089333D01*
X134304066Y-135136952D01*
X134351685Y-135184571D01*
X134399304Y-135279809D01*
X133208828Y-134708380D02*
X133113590Y-134708380D01*
X133018352Y-134756000D01*
X132970733Y-134803619D01*
X132923114Y-134898857D01*
X132875495Y-135089333D01*
X132875495Y-135327428D01*
X132923114Y-135517904D01*
X132970733Y-135613142D01*
X133018352Y-135660761D01*
X133113590Y-135708380D01*
X133208828Y-135708380D01*
X133304066Y-135660761D01*
X133351685Y-135613142D01*
X133399304Y-135517904D01*
X133446923Y-135327428D01*
X133446923Y-135089333D01*
X133399304Y-134898857D01*
X133351685Y-134803619D01*
X133304066Y-134756000D01*
X133208828Y-134708380D01*
X141282657Y-135587742D02*
X141330276Y-135635361D01*
X141473133Y-135682980D01*
X141568371Y-135682980D01*
X141711228Y-135635361D01*
X141806466Y-135540123D01*
X141854085Y-135444885D01*
X141901704Y-135254409D01*
X141901704Y-135111552D01*
X141854085Y-134921076D01*
X141806466Y-134825838D01*
X141711228Y-134730600D01*
X141568371Y-134682980D01*
X141473133Y-134682980D01*
X141330276Y-134730600D01*
X141282657Y-134778219D01*
X140425514Y-134682980D02*
X140615990Y-134682980D01*
X140711228Y-134730600D01*
X140758847Y-134778219D01*
X140854085Y-134921076D01*
X140901704Y-135111552D01*
X140901704Y-135492504D01*
X140854085Y-135587742D01*
X140806466Y-135635361D01*
X140711228Y-135682980D01*
X140520752Y-135682980D01*
X140425514Y-135635361D01*
X140377895Y-135587742D01*
X140330276Y-135492504D01*
X140330276Y-135254409D01*
X140377895Y-135159171D01*
X140425514Y-135111552D01*
X140520752Y-135063933D01*
X140711228Y-135063933D01*
X140806466Y-135111552D01*
X140854085Y-135159171D01*
X140901704Y-135254409D01*
X139377895Y-135682980D02*
X139949323Y-135682980D01*
X139663609Y-135682980D02*
X139663609Y-134682980D01*
X139758847Y-134825838D01*
X139854085Y-134921076D01*
X139949323Y-134968695D01*
X124156695Y-69824980D02*
X124156695Y-68824980D01*
X123775742Y-68824980D01*
X123680504Y-68872600D01*
X123632885Y-68920219D01*
X123585266Y-69015457D01*
X123585266Y-69158314D01*
X123632885Y-69253552D01*
X123680504Y-69301171D01*
X123775742Y-69348790D01*
X124156695Y-69348790D01*
X122680504Y-68824980D02*
X123156695Y-68824980D01*
X123204314Y-69301171D01*
X123156695Y-69253552D01*
X123061457Y-69205933D01*
X122823361Y-69205933D01*
X122728123Y-69253552D01*
X122680504Y-69301171D01*
X122632885Y-69396409D01*
X122632885Y-69634504D01*
X122680504Y-69729742D01*
X122728123Y-69777361D01*
X122823361Y-69824980D01*
X123061457Y-69824980D01*
X123156695Y-69777361D01*
X123204314Y-69729742D01*
X136556380Y-57459714D02*
X135556380Y-57459714D01*
X135556380Y-57697809D01*
X135604000Y-57840666D01*
X135699238Y-57935904D01*
X135794476Y-57983523D01*
X135984952Y-58031142D01*
X136127809Y-58031142D01*
X136318285Y-57983523D01*
X136413523Y-57935904D01*
X136508761Y-57840666D01*
X136556380Y-57697809D01*
X136556380Y-57459714D01*
X136556380Y-58983523D02*
X136556380Y-58412095D01*
X136556380Y-58697809D02*
X135556380Y-58697809D01*
X135699238Y-58602571D01*
X135794476Y-58507333D01*
X135842095Y-58412095D01*
X136556380Y-59459714D02*
X136556380Y-59650190D01*
X136508761Y-59745428D01*
X136461142Y-59793047D01*
X136318285Y-59888285D01*
X136127809Y-59935904D01*
X135746857Y-59935904D01*
X135651619Y-59888285D01*
X135604000Y-59840666D01*
X135556380Y-59745428D01*
X135556380Y-59554952D01*
X135604000Y-59459714D01*
X135651619Y-59412095D01*
X135746857Y-59364476D01*
X135984952Y-59364476D01*
X136080190Y-59412095D01*
X136127809Y-59459714D01*
X136175428Y-59554952D01*
X136175428Y-59745428D01*
X136127809Y-59840666D01*
X136080190Y-59888285D01*
X135984952Y-59935904D01*
X153042857Y-71351142D02*
X153090476Y-71398761D01*
X153233333Y-71446380D01*
X153328571Y-71446380D01*
X153471428Y-71398761D01*
X153566666Y-71303523D01*
X153614285Y-71208285D01*
X153661904Y-71017809D01*
X153661904Y-70874952D01*
X153614285Y-70684476D01*
X153566666Y-70589238D01*
X153471428Y-70494000D01*
X153328571Y-70446380D01*
X153233333Y-70446380D01*
X153090476Y-70494000D01*
X153042857Y-70541619D01*
X152090476Y-71446380D02*
X152661904Y-71446380D01*
X152376190Y-71446380D02*
X152376190Y-70446380D01*
X152471428Y-70589238D01*
X152566666Y-70684476D01*
X152661904Y-70732095D01*
X151138095Y-71446380D02*
X151709523Y-71446380D01*
X151423809Y-71446380D02*
X151423809Y-70446380D01*
X151519047Y-70589238D01*
X151614285Y-70684476D01*
X151709523Y-70732095D01*
X157106857Y-71351142D02*
X157154476Y-71398761D01*
X157297333Y-71446380D01*
X157392571Y-71446380D01*
X157535428Y-71398761D01*
X157630666Y-71303523D01*
X157678285Y-71208285D01*
X157725904Y-71017809D01*
X157725904Y-70874952D01*
X157678285Y-70684476D01*
X157630666Y-70589238D01*
X157535428Y-70494000D01*
X157392571Y-70446380D01*
X157297333Y-70446380D01*
X157154476Y-70494000D01*
X157106857Y-70541619D01*
X156154476Y-71446380D02*
X156725904Y-71446380D01*
X156440190Y-71446380D02*
X156440190Y-70446380D01*
X156535428Y-70589238D01*
X156630666Y-70684476D01*
X156725904Y-70732095D01*
X155773523Y-70541619D02*
X155725904Y-70494000D01*
X155630666Y-70446380D01*
X155392571Y-70446380D01*
X155297333Y-70494000D01*
X155249714Y-70541619D01*
X155202095Y-70636857D01*
X155202095Y-70732095D01*
X155249714Y-70874952D01*
X155821142Y-71446380D01*
X155202095Y-71446380D01*
X161170857Y-71351142D02*
X161218476Y-71398761D01*
X161361333Y-71446380D01*
X161456571Y-71446380D01*
X161599428Y-71398761D01*
X161694666Y-71303523D01*
X161742285Y-71208285D01*
X161789904Y-71017809D01*
X161789904Y-70874952D01*
X161742285Y-70684476D01*
X161694666Y-70589238D01*
X161599428Y-70494000D01*
X161456571Y-70446380D01*
X161361333Y-70446380D01*
X161218476Y-70494000D01*
X161170857Y-70541619D01*
X160218476Y-71446380D02*
X160789904Y-71446380D01*
X160504190Y-71446380D02*
X160504190Y-70446380D01*
X160599428Y-70589238D01*
X160694666Y-70684476D01*
X160789904Y-70732095D01*
X159885142Y-70446380D02*
X159266095Y-70446380D01*
X159599428Y-70827333D01*
X159456571Y-70827333D01*
X159361333Y-70874952D01*
X159313714Y-70922571D01*
X159266095Y-71017809D01*
X159266095Y-71255904D01*
X159313714Y-71351142D01*
X159361333Y-71398761D01*
X159456571Y-71446380D01*
X159742285Y-71446380D01*
X159837523Y-71398761D01*
X159885142Y-71351142D01*
X165234857Y-71351142D02*
X165282476Y-71398761D01*
X165425333Y-71446380D01*
X165520571Y-71446380D01*
X165663428Y-71398761D01*
X165758666Y-71303523D01*
X165806285Y-71208285D01*
X165853904Y-71017809D01*
X165853904Y-70874952D01*
X165806285Y-70684476D01*
X165758666Y-70589238D01*
X165663428Y-70494000D01*
X165520571Y-70446380D01*
X165425333Y-70446380D01*
X165282476Y-70494000D01*
X165234857Y-70541619D01*
X164282476Y-71446380D02*
X164853904Y-71446380D01*
X164568190Y-71446380D02*
X164568190Y-70446380D01*
X164663428Y-70589238D01*
X164758666Y-70684476D01*
X164853904Y-70732095D01*
X163425333Y-70779714D02*
X163425333Y-71446380D01*
X163663428Y-70398761D02*
X163901523Y-71113047D01*
X163282476Y-71113047D01*
X136786857Y-71351142D02*
X136834476Y-71398761D01*
X136977333Y-71446380D01*
X137072571Y-71446380D01*
X137215428Y-71398761D01*
X137310666Y-71303523D01*
X137358285Y-71208285D01*
X137405904Y-71017809D01*
X137405904Y-70874952D01*
X137358285Y-70684476D01*
X137310666Y-70589238D01*
X137215428Y-70494000D01*
X137072571Y-70446380D01*
X136977333Y-70446380D01*
X136834476Y-70494000D01*
X136786857Y-70541619D01*
X135834476Y-71446380D02*
X136405904Y-71446380D01*
X136120190Y-71446380D02*
X136120190Y-70446380D01*
X136215428Y-70589238D01*
X136310666Y-70684476D01*
X136405904Y-70732095D01*
X134929714Y-70446380D02*
X135405904Y-70446380D01*
X135453523Y-70922571D01*
X135405904Y-70874952D01*
X135310666Y-70827333D01*
X135072571Y-70827333D01*
X134977333Y-70874952D01*
X134929714Y-70922571D01*
X134882095Y-71017809D01*
X134882095Y-71255904D01*
X134929714Y-71351142D01*
X134977333Y-71398761D01*
X135072571Y-71446380D01*
X135310666Y-71446380D01*
X135405904Y-71398761D01*
X135453523Y-71351142D01*
X140850857Y-71351142D02*
X140898476Y-71398761D01*
X141041333Y-71446380D01*
X141136571Y-71446380D01*
X141279428Y-71398761D01*
X141374666Y-71303523D01*
X141422285Y-71208285D01*
X141469904Y-71017809D01*
X141469904Y-70874952D01*
X141422285Y-70684476D01*
X141374666Y-70589238D01*
X141279428Y-70494000D01*
X141136571Y-70446380D01*
X141041333Y-70446380D01*
X140898476Y-70494000D01*
X140850857Y-70541619D01*
X139898476Y-71446380D02*
X140469904Y-71446380D01*
X140184190Y-71446380D02*
X140184190Y-70446380D01*
X140279428Y-70589238D01*
X140374666Y-70684476D01*
X140469904Y-70732095D01*
X139041333Y-70446380D02*
X139231809Y-70446380D01*
X139327047Y-70494000D01*
X139374666Y-70541619D01*
X139469904Y-70684476D01*
X139517523Y-70874952D01*
X139517523Y-71255904D01*
X139469904Y-71351142D01*
X139422285Y-71398761D01*
X139327047Y-71446380D01*
X139136571Y-71446380D01*
X139041333Y-71398761D01*
X138993714Y-71351142D01*
X138946095Y-71255904D01*
X138946095Y-71017809D01*
X138993714Y-70922571D01*
X139041333Y-70874952D01*
X139136571Y-70827333D01*
X139327047Y-70827333D01*
X139422285Y-70874952D01*
X139469904Y-70922571D01*
X139517523Y-71017809D01*
X144914857Y-71351142D02*
X144962476Y-71398761D01*
X145105333Y-71446380D01*
X145200571Y-71446380D01*
X145343428Y-71398761D01*
X145438666Y-71303523D01*
X145486285Y-71208285D01*
X145533904Y-71017809D01*
X145533904Y-70874952D01*
X145486285Y-70684476D01*
X145438666Y-70589238D01*
X145343428Y-70494000D01*
X145200571Y-70446380D01*
X145105333Y-70446380D01*
X144962476Y-70494000D01*
X144914857Y-70541619D01*
X143962476Y-71446380D02*
X144533904Y-71446380D01*
X144248190Y-71446380D02*
X144248190Y-70446380D01*
X144343428Y-70589238D01*
X144438666Y-70684476D01*
X144533904Y-70732095D01*
X143629142Y-70446380D02*
X142962476Y-70446380D01*
X143391047Y-71446380D01*
X148978857Y-71351142D02*
X149026476Y-71398761D01*
X149169333Y-71446380D01*
X149264571Y-71446380D01*
X149407428Y-71398761D01*
X149502666Y-71303523D01*
X149550285Y-71208285D01*
X149597904Y-71017809D01*
X149597904Y-70874952D01*
X149550285Y-70684476D01*
X149502666Y-70589238D01*
X149407428Y-70494000D01*
X149264571Y-70446380D01*
X149169333Y-70446380D01*
X149026476Y-70494000D01*
X148978857Y-70541619D01*
X148026476Y-71446380D02*
X148597904Y-71446380D01*
X148312190Y-71446380D02*
X148312190Y-70446380D01*
X148407428Y-70589238D01*
X148502666Y-70684476D01*
X148597904Y-70732095D01*
X147455047Y-70874952D02*
X147550285Y-70827333D01*
X147597904Y-70779714D01*
X147645523Y-70684476D01*
X147645523Y-70636857D01*
X147597904Y-70541619D01*
X147550285Y-70494000D01*
X147455047Y-70446380D01*
X147264571Y-70446380D01*
X147169333Y-70494000D01*
X147121714Y-70541619D01*
X147074095Y-70636857D01*
X147074095Y-70684476D01*
X147121714Y-70779714D01*
X147169333Y-70827333D01*
X147264571Y-70874952D01*
X147455047Y-70874952D01*
X147550285Y-70922571D01*
X147597904Y-70970190D01*
X147645523Y-71065428D01*
X147645523Y-71255904D01*
X147597904Y-71351142D01*
X147550285Y-71398761D01*
X147455047Y-71446380D01*
X147264571Y-71446380D01*
X147169333Y-71398761D01*
X147121714Y-71351142D01*
X147074095Y-71255904D01*
X147074095Y-71065428D01*
X147121714Y-70970190D01*
X147169333Y-70922571D01*
X147264571Y-70874952D01*
X153550857Y-81003142D02*
X153598476Y-81050761D01*
X153741333Y-81098380D01*
X153836571Y-81098380D01*
X153979428Y-81050761D01*
X154074666Y-80955523D01*
X154122285Y-80860285D01*
X154169904Y-80669809D01*
X154169904Y-80526952D01*
X154122285Y-80336476D01*
X154074666Y-80241238D01*
X153979428Y-80146000D01*
X153836571Y-80098380D01*
X153741333Y-80098380D01*
X153598476Y-80146000D01*
X153550857Y-80193619D01*
X152598476Y-81098380D02*
X153169904Y-81098380D01*
X152884190Y-81098380D02*
X152884190Y-80098380D01*
X152979428Y-80241238D01*
X153074666Y-80336476D01*
X153169904Y-80384095D01*
X152122285Y-81098380D02*
X151931809Y-81098380D01*
X151836571Y-81050761D01*
X151788952Y-81003142D01*
X151693714Y-80860285D01*
X151646095Y-80669809D01*
X151646095Y-80288857D01*
X151693714Y-80193619D01*
X151741333Y-80146000D01*
X151836571Y-80098380D01*
X152027047Y-80098380D01*
X152122285Y-80146000D01*
X152169904Y-80193619D01*
X152217523Y-80288857D01*
X152217523Y-80526952D01*
X152169904Y-80622190D01*
X152122285Y-80669809D01*
X152027047Y-80717428D01*
X151836571Y-80717428D01*
X151741333Y-80669809D01*
X151693714Y-80622190D01*
X151646095Y-80526952D01*
X137040857Y-81511142D02*
X137088476Y-81558761D01*
X137231333Y-81606380D01*
X137326571Y-81606380D01*
X137469428Y-81558761D01*
X137564666Y-81463523D01*
X137612285Y-81368285D01*
X137659904Y-81177809D01*
X137659904Y-81034952D01*
X137612285Y-80844476D01*
X137564666Y-80749238D01*
X137469428Y-80654000D01*
X137326571Y-80606380D01*
X137231333Y-80606380D01*
X137088476Y-80654000D01*
X137040857Y-80701619D01*
X136659904Y-80701619D02*
X136612285Y-80654000D01*
X136517047Y-80606380D01*
X136278952Y-80606380D01*
X136183714Y-80654000D01*
X136136095Y-80701619D01*
X136088476Y-80796857D01*
X136088476Y-80892095D01*
X136136095Y-81034952D01*
X136707523Y-81606380D01*
X136088476Y-81606380D01*
X135469428Y-80606380D02*
X135374190Y-80606380D01*
X135278952Y-80654000D01*
X135231333Y-80701619D01*
X135183714Y-80796857D01*
X135136095Y-80987333D01*
X135136095Y-81225428D01*
X135183714Y-81415904D01*
X135231333Y-81511142D01*
X135278952Y-81558761D01*
X135374190Y-81606380D01*
X135469428Y-81606380D01*
X135564666Y-81558761D01*
X135612285Y-81511142D01*
X135659904Y-81415904D01*
X135707523Y-81225428D01*
X135707523Y-80987333D01*
X135659904Y-80796857D01*
X135612285Y-80701619D01*
X135564666Y-80654000D01*
X135469428Y-80606380D01*
X155709857Y-111686342D02*
X155757476Y-111733961D01*
X155900333Y-111781580D01*
X155995571Y-111781580D01*
X156138428Y-111733961D01*
X156233666Y-111638723D01*
X156281285Y-111543485D01*
X156328904Y-111353009D01*
X156328904Y-111210152D01*
X156281285Y-111019676D01*
X156233666Y-110924438D01*
X156138428Y-110829200D01*
X155995571Y-110781580D01*
X155900333Y-110781580D01*
X155757476Y-110829200D01*
X155709857Y-110876819D01*
X155328904Y-110876819D02*
X155281285Y-110829200D01*
X155186047Y-110781580D01*
X154947952Y-110781580D01*
X154852714Y-110829200D01*
X154805095Y-110876819D01*
X154757476Y-110972057D01*
X154757476Y-111067295D01*
X154805095Y-111210152D01*
X155376523Y-111781580D01*
X154757476Y-111781580D01*
X154281285Y-111781580D02*
X154090809Y-111781580D01*
X153995571Y-111733961D01*
X153947952Y-111686342D01*
X153852714Y-111543485D01*
X153805095Y-111353009D01*
X153805095Y-110972057D01*
X153852714Y-110876819D01*
X153900333Y-110829200D01*
X153995571Y-110781580D01*
X154186047Y-110781580D01*
X154281285Y-110829200D01*
X154328904Y-110876819D01*
X154376523Y-110972057D01*
X154376523Y-111210152D01*
X154328904Y-111305390D01*
X154281285Y-111353009D01*
X154186047Y-111400628D01*
X153995571Y-111400628D01*
X153900333Y-111353009D01*
X153852714Y-111305390D01*
X153805095Y-111210152D01*
X159291257Y-114986342D02*
X159338876Y-115033961D01*
X159481733Y-115081580D01*
X159576971Y-115081580D01*
X159719828Y-115033961D01*
X159815066Y-114938723D01*
X159862685Y-114843485D01*
X159910304Y-114653009D01*
X159910304Y-114510152D01*
X159862685Y-114319676D01*
X159815066Y-114224438D01*
X159719828Y-114129200D01*
X159576971Y-114081580D01*
X159481733Y-114081580D01*
X159338876Y-114129200D01*
X159291257Y-114176819D01*
X158957923Y-114081580D02*
X158338876Y-114081580D01*
X158672209Y-114462533D01*
X158529352Y-114462533D01*
X158434114Y-114510152D01*
X158386495Y-114557771D01*
X158338876Y-114653009D01*
X158338876Y-114891104D01*
X158386495Y-114986342D01*
X158434114Y-115033961D01*
X158529352Y-115081580D01*
X158815066Y-115081580D01*
X158910304Y-115033961D01*
X158957923Y-114986342D01*
X157719828Y-114081580D02*
X157624590Y-114081580D01*
X157529352Y-114129200D01*
X157481733Y-114176819D01*
X157434114Y-114272057D01*
X157386495Y-114462533D01*
X157386495Y-114700628D01*
X157434114Y-114891104D01*
X157481733Y-114986342D01*
X157529352Y-115033961D01*
X157624590Y-115081580D01*
X157719828Y-115081580D01*
X157815066Y-115033961D01*
X157862685Y-114986342D01*
X157910304Y-114891104D01*
X157957923Y-114700628D01*
X157957923Y-114462533D01*
X157910304Y-114272057D01*
X157862685Y-114176819D01*
X157815066Y-114129200D01*
X157719828Y-114081580D01*
X154719257Y-94871542D02*
X154766876Y-94919161D01*
X154909733Y-94966780D01*
X155004971Y-94966780D01*
X155147828Y-94919161D01*
X155243066Y-94823923D01*
X155290685Y-94728685D01*
X155338304Y-94538209D01*
X155338304Y-94395352D01*
X155290685Y-94204876D01*
X155243066Y-94109638D01*
X155147828Y-94014400D01*
X155004971Y-93966780D01*
X154909733Y-93966780D01*
X154766876Y-94014400D01*
X154719257Y-94062019D01*
X154385923Y-93966780D02*
X153766876Y-93966780D01*
X154100209Y-94347733D01*
X153957352Y-94347733D01*
X153862114Y-94395352D01*
X153814495Y-94442971D01*
X153766876Y-94538209D01*
X153766876Y-94776304D01*
X153814495Y-94871542D01*
X153862114Y-94919161D01*
X153957352Y-94966780D01*
X154243066Y-94966780D01*
X154338304Y-94919161D01*
X154385923Y-94871542D01*
X152814495Y-94966780D02*
X153385923Y-94966780D01*
X153100209Y-94966780D02*
X153100209Y-93966780D01*
X153195447Y-94109638D01*
X153290685Y-94204876D01*
X153385923Y-94252495D01*
X154719257Y-96190342D02*
X154766876Y-96237961D01*
X154909733Y-96285580D01*
X155004971Y-96285580D01*
X155147828Y-96237961D01*
X155243066Y-96142723D01*
X155290685Y-96047485D01*
X155338304Y-95857009D01*
X155338304Y-95714152D01*
X155290685Y-95523676D01*
X155243066Y-95428438D01*
X155147828Y-95333200D01*
X155004971Y-95285580D01*
X154909733Y-95285580D01*
X154766876Y-95333200D01*
X154719257Y-95380819D01*
X154385923Y-95285580D02*
X153766876Y-95285580D01*
X154100209Y-95666533D01*
X153957352Y-95666533D01*
X153862114Y-95714152D01*
X153814495Y-95761771D01*
X153766876Y-95857009D01*
X153766876Y-96095104D01*
X153814495Y-96190342D01*
X153862114Y-96237961D01*
X153957352Y-96285580D01*
X154243066Y-96285580D01*
X154338304Y-96237961D01*
X154385923Y-96190342D01*
X153385923Y-95380819D02*
X153338304Y-95333200D01*
X153243066Y-95285580D01*
X153004971Y-95285580D01*
X152909733Y-95333200D01*
X152862114Y-95380819D01*
X152814495Y-95476057D01*
X152814495Y-95571295D01*
X152862114Y-95714152D01*
X153433542Y-96285580D01*
X152814495Y-96285580D01*
X153439232Y-106464582D02*
X153486851Y-106416963D01*
X153534470Y-106274106D01*
X153534470Y-106178868D01*
X153486851Y-106036011D01*
X153391613Y-105940773D01*
X153296375Y-105893154D01*
X153105899Y-105845535D01*
X152963042Y-105845535D01*
X152772566Y-105893154D01*
X152677328Y-105940773D01*
X152582090Y-106036011D01*
X152534470Y-106178868D01*
X152534470Y-106274106D01*
X152582090Y-106416963D01*
X152629709Y-106464582D01*
X152534470Y-106797916D02*
X152534470Y-107416963D01*
X152915423Y-107083630D01*
X152915423Y-107226487D01*
X152963042Y-107321725D01*
X153010661Y-107369344D01*
X153105899Y-107416963D01*
X153343994Y-107416963D01*
X153439232Y-107369344D01*
X153486851Y-107321725D01*
X153534470Y-107226487D01*
X153534470Y-106940773D01*
X153486851Y-106845535D01*
X153439232Y-106797916D01*
X152534470Y-107750297D02*
X152534470Y-108369344D01*
X152915423Y-108036011D01*
X152915423Y-108178868D01*
X152963042Y-108274106D01*
X153010661Y-108321725D01*
X153105899Y-108369344D01*
X153343994Y-108369344D01*
X153439232Y-108321725D01*
X153486851Y-108274106D01*
X153534470Y-108178868D01*
X153534470Y-107893154D01*
X153486851Y-107797916D01*
X153439232Y-107750297D01*
X158148257Y-94871542D02*
X158195876Y-94919161D01*
X158338733Y-94966780D01*
X158433971Y-94966780D01*
X158576828Y-94919161D01*
X158672066Y-94823923D01*
X158719685Y-94728685D01*
X158767304Y-94538209D01*
X158767304Y-94395352D01*
X158719685Y-94204876D01*
X158672066Y-94109638D01*
X158576828Y-94014400D01*
X158433971Y-93966780D01*
X158338733Y-93966780D01*
X158195876Y-94014400D01*
X158148257Y-94062019D01*
X157814923Y-93966780D02*
X157195876Y-93966780D01*
X157529209Y-94347733D01*
X157386352Y-94347733D01*
X157291114Y-94395352D01*
X157243495Y-94442971D01*
X157195876Y-94538209D01*
X157195876Y-94776304D01*
X157243495Y-94871542D01*
X157291114Y-94919161D01*
X157386352Y-94966780D01*
X157672066Y-94966780D01*
X157767304Y-94919161D01*
X157814923Y-94871542D01*
X156291114Y-93966780D02*
X156767304Y-93966780D01*
X156814923Y-94442971D01*
X156767304Y-94395352D01*
X156672066Y-94347733D01*
X156433971Y-94347733D01*
X156338733Y-94395352D01*
X156291114Y-94442971D01*
X156243495Y-94538209D01*
X156243495Y-94776304D01*
X156291114Y-94871542D01*
X156338733Y-94919161D01*
X156433971Y-94966780D01*
X156672066Y-94966780D01*
X156767304Y-94919161D01*
X156814923Y-94871542D01*
X110091457Y-86616542D02*
X110139076Y-86664161D01*
X110281933Y-86711780D01*
X110377171Y-86711780D01*
X110520028Y-86664161D01*
X110615266Y-86568923D01*
X110662885Y-86473685D01*
X110710504Y-86283209D01*
X110710504Y-86140352D01*
X110662885Y-85949876D01*
X110615266Y-85854638D01*
X110520028Y-85759400D01*
X110377171Y-85711780D01*
X110281933Y-85711780D01*
X110139076Y-85759400D01*
X110091457Y-85807019D01*
X109758123Y-85711780D02*
X109139076Y-85711780D01*
X109472409Y-86092733D01*
X109329552Y-86092733D01*
X109234314Y-86140352D01*
X109186695Y-86187971D01*
X109139076Y-86283209D01*
X109139076Y-86521304D01*
X109186695Y-86616542D01*
X109234314Y-86664161D01*
X109329552Y-86711780D01*
X109615266Y-86711780D01*
X109710504Y-86664161D01*
X109758123Y-86616542D01*
X108281933Y-85711780D02*
X108472409Y-85711780D01*
X108567647Y-85759400D01*
X108615266Y-85807019D01*
X108710504Y-85949876D01*
X108758123Y-86140352D01*
X108758123Y-86521304D01*
X108710504Y-86616542D01*
X108662885Y-86664161D01*
X108567647Y-86711780D01*
X108377171Y-86711780D01*
X108281933Y-86664161D01*
X108234314Y-86616542D01*
X108186695Y-86521304D01*
X108186695Y-86283209D01*
X108234314Y-86187971D01*
X108281933Y-86140352D01*
X108377171Y-86092733D01*
X108567647Y-86092733D01*
X108662885Y-86140352D01*
X108710504Y-86187971D01*
X108758123Y-86283209D01*
X107012742Y-84472542D02*
X107060361Y-84424923D01*
X107107980Y-84282066D01*
X107107980Y-84186828D01*
X107060361Y-84043971D01*
X106965123Y-83948733D01*
X106869885Y-83901114D01*
X106679409Y-83853495D01*
X106536552Y-83853495D01*
X106346076Y-83901114D01*
X106250838Y-83948733D01*
X106155600Y-84043971D01*
X106107980Y-84186828D01*
X106107980Y-84282066D01*
X106155600Y-84424923D01*
X106203219Y-84472542D01*
X106107980Y-84805876D02*
X106107980Y-85424923D01*
X106488933Y-85091590D01*
X106488933Y-85234447D01*
X106536552Y-85329685D01*
X106584171Y-85377304D01*
X106679409Y-85424923D01*
X106917504Y-85424923D01*
X107012742Y-85377304D01*
X107060361Y-85329685D01*
X107107980Y-85234447D01*
X107107980Y-84948733D01*
X107060361Y-84853495D01*
X107012742Y-84805876D01*
X106107980Y-85758257D02*
X106107980Y-86424923D01*
X107107980Y-85996352D01*
X107703857Y-94386942D02*
X107751476Y-94434561D01*
X107894333Y-94482180D01*
X107989571Y-94482180D01*
X108132428Y-94434561D01*
X108227666Y-94339323D01*
X108275285Y-94244085D01*
X108322904Y-94053609D01*
X108322904Y-93910752D01*
X108275285Y-93720276D01*
X108227666Y-93625038D01*
X108132428Y-93529800D01*
X107989571Y-93482180D01*
X107894333Y-93482180D01*
X107751476Y-93529800D01*
X107703857Y-93577419D01*
X107370523Y-93482180D02*
X106751476Y-93482180D01*
X107084809Y-93863133D01*
X106941952Y-93863133D01*
X106846714Y-93910752D01*
X106799095Y-93958371D01*
X106751476Y-94053609D01*
X106751476Y-94291704D01*
X106799095Y-94386942D01*
X106846714Y-94434561D01*
X106941952Y-94482180D01*
X107227666Y-94482180D01*
X107322904Y-94434561D01*
X107370523Y-94386942D01*
X106180047Y-93910752D02*
X106275285Y-93863133D01*
X106322904Y-93815514D01*
X106370523Y-93720276D01*
X106370523Y-93672657D01*
X106322904Y-93577419D01*
X106275285Y-93529800D01*
X106180047Y-93482180D01*
X105989571Y-93482180D01*
X105894333Y-93529800D01*
X105846714Y-93577419D01*
X105799095Y-93672657D01*
X105799095Y-93720276D01*
X105846714Y-93815514D01*
X105894333Y-93863133D01*
X105989571Y-93910752D01*
X106180047Y-93910752D01*
X106275285Y-93958371D01*
X106322904Y-94005990D01*
X106370523Y-94101228D01*
X106370523Y-94291704D01*
X106322904Y-94386942D01*
X106275285Y-94434561D01*
X106180047Y-94482180D01*
X105989571Y-94482180D01*
X105894333Y-94434561D01*
X105846714Y-94386942D01*
X105799095Y-94291704D01*
X105799095Y-94101228D01*
X105846714Y-94005990D01*
X105894333Y-93958371D01*
X105989571Y-93910752D01*
X104122457Y-92380342D02*
X104170076Y-92427961D01*
X104312933Y-92475580D01*
X104408171Y-92475580D01*
X104551028Y-92427961D01*
X104646266Y-92332723D01*
X104693885Y-92237485D01*
X104741504Y-92047009D01*
X104741504Y-91904152D01*
X104693885Y-91713676D01*
X104646266Y-91618438D01*
X104551028Y-91523200D01*
X104408171Y-91475580D01*
X104312933Y-91475580D01*
X104170076Y-91523200D01*
X104122457Y-91570819D01*
X103789123Y-91475580D02*
X103170076Y-91475580D01*
X103503409Y-91856533D01*
X103360552Y-91856533D01*
X103265314Y-91904152D01*
X103217695Y-91951771D01*
X103170076Y-92047009D01*
X103170076Y-92285104D01*
X103217695Y-92380342D01*
X103265314Y-92427961D01*
X103360552Y-92475580D01*
X103646266Y-92475580D01*
X103741504Y-92427961D01*
X103789123Y-92380342D01*
X102693885Y-92475580D02*
X102503409Y-92475580D01*
X102408171Y-92427961D01*
X102360552Y-92380342D01*
X102265314Y-92237485D01*
X102217695Y-92047009D01*
X102217695Y-91666057D01*
X102265314Y-91570819D01*
X102312933Y-91523200D01*
X102408171Y-91475580D01*
X102598647Y-91475580D01*
X102693885Y-91523200D01*
X102741504Y-91570819D01*
X102789123Y-91666057D01*
X102789123Y-91904152D01*
X102741504Y-91999390D01*
X102693885Y-92047009D01*
X102598647Y-92094628D01*
X102408171Y-92094628D01*
X102312933Y-92047009D01*
X102265314Y-91999390D01*
X102217695Y-91904152D01*
X98534457Y-86743542D02*
X98582076Y-86791161D01*
X98724933Y-86838780D01*
X98820171Y-86838780D01*
X98963028Y-86791161D01*
X99058266Y-86695923D01*
X99105885Y-86600685D01*
X99153504Y-86410209D01*
X99153504Y-86267352D01*
X99105885Y-86076876D01*
X99058266Y-85981638D01*
X98963028Y-85886400D01*
X98820171Y-85838780D01*
X98724933Y-85838780D01*
X98582076Y-85886400D01*
X98534457Y-85934019D01*
X97677314Y-86172114D02*
X97677314Y-86838780D01*
X97915409Y-85791161D02*
X98153504Y-86505447D01*
X97534457Y-86505447D01*
X96963028Y-85838780D02*
X96867790Y-85838780D01*
X96772552Y-85886400D01*
X96724933Y-85934019D01*
X96677314Y-86029257D01*
X96629695Y-86219733D01*
X96629695Y-86457828D01*
X96677314Y-86648304D01*
X96724933Y-86743542D01*
X96772552Y-86791161D01*
X96867790Y-86838780D01*
X96963028Y-86838780D01*
X97058266Y-86791161D01*
X97105885Y-86743542D01*
X97153504Y-86648304D01*
X97201123Y-86457828D01*
X97201123Y-86219733D01*
X97153504Y-86029257D01*
X97105885Y-85934019D01*
X97058266Y-85886400D01*
X96963028Y-85838780D01*
X95455742Y-84624942D02*
X95503361Y-84577323D01*
X95550980Y-84434466D01*
X95550980Y-84339228D01*
X95503361Y-84196371D01*
X95408123Y-84101133D01*
X95312885Y-84053514D01*
X95122409Y-84005895D01*
X94979552Y-84005895D01*
X94789076Y-84053514D01*
X94693838Y-84101133D01*
X94598600Y-84196371D01*
X94550980Y-84339228D01*
X94550980Y-84434466D01*
X94598600Y-84577323D01*
X94646219Y-84624942D01*
X94884314Y-85482085D02*
X95550980Y-85482085D01*
X94503361Y-85243990D02*
X95217647Y-85005895D01*
X95217647Y-85624942D01*
X95550980Y-86529704D02*
X95550980Y-85958276D01*
X95550980Y-86243990D02*
X94550980Y-86243990D01*
X94693838Y-86148752D01*
X94789076Y-86053514D01*
X94836695Y-85958276D01*
X96172257Y-92710542D02*
X96219876Y-92758161D01*
X96362733Y-92805780D01*
X96457971Y-92805780D01*
X96600828Y-92758161D01*
X96696066Y-92662923D01*
X96743685Y-92567685D01*
X96791304Y-92377209D01*
X96791304Y-92234352D01*
X96743685Y-92043876D01*
X96696066Y-91948638D01*
X96600828Y-91853400D01*
X96457971Y-91805780D01*
X96362733Y-91805780D01*
X96219876Y-91853400D01*
X96172257Y-91901019D01*
X95315114Y-92139114D02*
X95315114Y-92805780D01*
X95553209Y-91758161D02*
X95791304Y-92472447D01*
X95172257Y-92472447D01*
X94838923Y-91901019D02*
X94791304Y-91853400D01*
X94696066Y-91805780D01*
X94457971Y-91805780D01*
X94362733Y-91853400D01*
X94315114Y-91901019D01*
X94267495Y-91996257D01*
X94267495Y-92091495D01*
X94315114Y-92234352D01*
X94886542Y-92805780D01*
X94267495Y-92805780D01*
X92616257Y-92710542D02*
X92663876Y-92758161D01*
X92806733Y-92805780D01*
X92901971Y-92805780D01*
X93044828Y-92758161D01*
X93140066Y-92662923D01*
X93187685Y-92567685D01*
X93235304Y-92377209D01*
X93235304Y-92234352D01*
X93187685Y-92043876D01*
X93140066Y-91948638D01*
X93044828Y-91853400D01*
X92901971Y-91805780D01*
X92806733Y-91805780D01*
X92663876Y-91853400D01*
X92616257Y-91901019D01*
X91759114Y-92139114D02*
X91759114Y-92805780D01*
X91997209Y-91758161D02*
X92235304Y-92472447D01*
X91616257Y-92472447D01*
X91330542Y-91805780D02*
X90711495Y-91805780D01*
X91044828Y-92186733D01*
X90901971Y-92186733D01*
X90806733Y-92234352D01*
X90759114Y-92281971D01*
X90711495Y-92377209D01*
X90711495Y-92615304D01*
X90759114Y-92710542D01*
X90806733Y-92758161D01*
X90901971Y-92805780D01*
X91187685Y-92805780D01*
X91282923Y-92758161D01*
X91330542Y-92710542D01*
X136685257Y-113386142D02*
X136732876Y-113433761D01*
X136875733Y-113481380D01*
X136970971Y-113481380D01*
X137113828Y-113433761D01*
X137209066Y-113338523D01*
X137256685Y-113243285D01*
X137304304Y-113052809D01*
X137304304Y-112909952D01*
X137256685Y-112719476D01*
X137209066Y-112624238D01*
X137113828Y-112529000D01*
X136970971Y-112481380D01*
X136875733Y-112481380D01*
X136732876Y-112529000D01*
X136685257Y-112576619D01*
X135828114Y-112814714D02*
X135828114Y-113481380D01*
X136066209Y-112433761D02*
X136304304Y-113148047D01*
X135685257Y-113148047D01*
X134875733Y-112814714D02*
X134875733Y-113481380D01*
X135113828Y-112433761D02*
X135351923Y-113148047D01*
X134732876Y-113148047D01*
X134272257Y-127610142D02*
X134319876Y-127657761D01*
X134462733Y-127705380D01*
X134557971Y-127705380D01*
X134700828Y-127657761D01*
X134796066Y-127562523D01*
X134843685Y-127467285D01*
X134891304Y-127276809D01*
X134891304Y-127133952D01*
X134843685Y-126943476D01*
X134796066Y-126848238D01*
X134700828Y-126753000D01*
X134557971Y-126705380D01*
X134462733Y-126705380D01*
X134319876Y-126753000D01*
X134272257Y-126800619D01*
X133415114Y-127038714D02*
X133415114Y-127705380D01*
X133653209Y-126657761D02*
X133891304Y-127372047D01*
X133272257Y-127372047D01*
X132748447Y-127133952D02*
X132843685Y-127086333D01*
X132891304Y-127038714D01*
X132938923Y-126943476D01*
X132938923Y-126895857D01*
X132891304Y-126800619D01*
X132843685Y-126753000D01*
X132748447Y-126705380D01*
X132557971Y-126705380D01*
X132462733Y-126753000D01*
X132415114Y-126800619D01*
X132367495Y-126895857D01*
X132367495Y-126943476D01*
X132415114Y-127038714D01*
X132462733Y-127086333D01*
X132557971Y-127133952D01*
X132748447Y-127133952D01*
X132843685Y-127181571D01*
X132891304Y-127229190D01*
X132938923Y-127324428D01*
X132938923Y-127514904D01*
X132891304Y-127610142D01*
X132843685Y-127657761D01*
X132748447Y-127705380D01*
X132557971Y-127705380D01*
X132462733Y-127657761D01*
X132415114Y-127610142D01*
X132367495Y-127514904D01*
X132367495Y-127324428D01*
X132415114Y-127229190D01*
X132462733Y-127181571D01*
X132557971Y-127133952D01*
X130152142Y-127677942D02*
X130199761Y-127630323D01*
X130247380Y-127487466D01*
X130247380Y-127392228D01*
X130199761Y-127249371D01*
X130104523Y-127154133D01*
X130009285Y-127106514D01*
X129818809Y-127058895D01*
X129675952Y-127058895D01*
X129485476Y-127106514D01*
X129390238Y-127154133D01*
X129295000Y-127249371D01*
X129247380Y-127392228D01*
X129247380Y-127487466D01*
X129295000Y-127630323D01*
X129342619Y-127677942D01*
X129580714Y-128535085D02*
X130247380Y-128535085D01*
X129199761Y-128296990D02*
X129914047Y-128058895D01*
X129914047Y-128677942D01*
X130247380Y-129106514D02*
X130247380Y-129296990D01*
X130199761Y-129392228D01*
X130152142Y-129439847D01*
X130009285Y-129535085D01*
X129818809Y-129582704D01*
X129437857Y-129582704D01*
X129342619Y-129535085D01*
X129295000Y-129487466D01*
X129247380Y-129392228D01*
X129247380Y-129201752D01*
X129295000Y-129106514D01*
X129342619Y-129058895D01*
X129437857Y-129011276D01*
X129675952Y-129011276D01*
X129771190Y-129058895D01*
X129818809Y-129106514D01*
X129866428Y-129201752D01*
X129866428Y-129392228D01*
X129818809Y-129487466D01*
X129771190Y-129535085D01*
X129675952Y-129582704D01*
X142552657Y-129466342D02*
X142600276Y-129513961D01*
X142743133Y-129561580D01*
X142838371Y-129561580D01*
X142981228Y-129513961D01*
X143076466Y-129418723D01*
X143124085Y-129323485D01*
X143171704Y-129133009D01*
X143171704Y-128990152D01*
X143124085Y-128799676D01*
X143076466Y-128704438D01*
X142981228Y-128609200D01*
X142838371Y-128561580D01*
X142743133Y-128561580D01*
X142600276Y-128609200D01*
X142552657Y-128656819D01*
X141647895Y-128561580D02*
X142124085Y-128561580D01*
X142171704Y-129037771D01*
X142124085Y-128990152D01*
X142028847Y-128942533D01*
X141790752Y-128942533D01*
X141695514Y-128990152D01*
X141647895Y-129037771D01*
X141600276Y-129133009D01*
X141600276Y-129371104D01*
X141647895Y-129466342D01*
X141695514Y-129513961D01*
X141790752Y-129561580D01*
X142028847Y-129561580D01*
X142124085Y-129513961D01*
X142171704Y-129466342D01*
X140981228Y-128561580D02*
X140885990Y-128561580D01*
X140790752Y-128609200D01*
X140743133Y-128656819D01*
X140695514Y-128752057D01*
X140647895Y-128942533D01*
X140647895Y-129180628D01*
X140695514Y-129371104D01*
X140743133Y-129466342D01*
X140790752Y-129513961D01*
X140885990Y-129561580D01*
X140981228Y-129561580D01*
X141076466Y-129513961D01*
X141124085Y-129466342D01*
X141171704Y-129371104D01*
X141219323Y-129180628D01*
X141219323Y-128942533D01*
X141171704Y-128752057D01*
X141124085Y-128656819D01*
X141076466Y-128609200D01*
X140981228Y-128561580D01*
X140063457Y-138026142D02*
X140111076Y-138073761D01*
X140253933Y-138121380D01*
X140349171Y-138121380D01*
X140492028Y-138073761D01*
X140587266Y-137978523D01*
X140634885Y-137883285D01*
X140682504Y-137692809D01*
X140682504Y-137549952D01*
X140634885Y-137359476D01*
X140587266Y-137264238D01*
X140492028Y-137169000D01*
X140349171Y-137121380D01*
X140253933Y-137121380D01*
X140111076Y-137169000D01*
X140063457Y-137216619D01*
X139158695Y-137121380D02*
X139634885Y-137121380D01*
X139682504Y-137597571D01*
X139634885Y-137549952D01*
X139539647Y-137502333D01*
X139301552Y-137502333D01*
X139206314Y-137549952D01*
X139158695Y-137597571D01*
X139111076Y-137692809D01*
X139111076Y-137930904D01*
X139158695Y-138026142D01*
X139206314Y-138073761D01*
X139301552Y-138121380D01*
X139539647Y-138121380D01*
X139634885Y-138073761D01*
X139682504Y-138026142D01*
X138158695Y-138121380D02*
X138730123Y-138121380D01*
X138444409Y-138121380D02*
X138444409Y-137121380D01*
X138539647Y-137264238D01*
X138634885Y-137359476D01*
X138730123Y-137407095D01*
X141531342Y-127017542D02*
X141578961Y-126969923D01*
X141626580Y-126827066D01*
X141626580Y-126731828D01*
X141578961Y-126588971D01*
X141483723Y-126493733D01*
X141388485Y-126446114D01*
X141198009Y-126398495D01*
X141055152Y-126398495D01*
X140864676Y-126446114D01*
X140769438Y-126493733D01*
X140674200Y-126588971D01*
X140626580Y-126731828D01*
X140626580Y-126827066D01*
X140674200Y-126969923D01*
X140721819Y-127017542D01*
X140626580Y-127922304D02*
X140626580Y-127446114D01*
X141102771Y-127398495D01*
X141055152Y-127446114D01*
X141007533Y-127541352D01*
X141007533Y-127779447D01*
X141055152Y-127874685D01*
X141102771Y-127922304D01*
X141198009Y-127969923D01*
X141436104Y-127969923D01*
X141531342Y-127922304D01*
X141578961Y-127874685D01*
X141626580Y-127779447D01*
X141626580Y-127541352D01*
X141578961Y-127446114D01*
X141531342Y-127398495D01*
X140721819Y-128350876D02*
X140674200Y-128398495D01*
X140626580Y-128493733D01*
X140626580Y-128731828D01*
X140674200Y-128827066D01*
X140721819Y-128874685D01*
X140817057Y-128922304D01*
X140912295Y-128922304D01*
X141055152Y-128874685D01*
X141626580Y-128303257D01*
X141626580Y-128922304D01*
X134294657Y-125595742D02*
X134342276Y-125643361D01*
X134485133Y-125690980D01*
X134580371Y-125690980D01*
X134723228Y-125643361D01*
X134818466Y-125548123D01*
X134866085Y-125452885D01*
X134913704Y-125262409D01*
X134913704Y-125119552D01*
X134866085Y-124929076D01*
X134818466Y-124833838D01*
X134723228Y-124738600D01*
X134580371Y-124690980D01*
X134485133Y-124690980D01*
X134342276Y-124738600D01*
X134294657Y-124786219D01*
X133389895Y-124690980D02*
X133866085Y-124690980D01*
X133913704Y-125167171D01*
X133866085Y-125119552D01*
X133770847Y-125071933D01*
X133532752Y-125071933D01*
X133437514Y-125119552D01*
X133389895Y-125167171D01*
X133342276Y-125262409D01*
X133342276Y-125500504D01*
X133389895Y-125595742D01*
X133437514Y-125643361D01*
X133532752Y-125690980D01*
X133770847Y-125690980D01*
X133866085Y-125643361D01*
X133913704Y-125595742D01*
X133008942Y-124690980D02*
X132389895Y-124690980D01*
X132723228Y-125071933D01*
X132580371Y-125071933D01*
X132485133Y-125119552D01*
X132437514Y-125167171D01*
X132389895Y-125262409D01*
X132389895Y-125500504D01*
X132437514Y-125595742D01*
X132485133Y-125643361D01*
X132580371Y-125690980D01*
X132866085Y-125690980D01*
X132961323Y-125643361D01*
X133008942Y-125595742D01*
X131394742Y-132529342D02*
X131442361Y-132481723D01*
X131489980Y-132338866D01*
X131489980Y-132243628D01*
X131442361Y-132100771D01*
X131347123Y-132005533D01*
X131251885Y-131957914D01*
X131061409Y-131910295D01*
X130918552Y-131910295D01*
X130728076Y-131957914D01*
X130632838Y-132005533D01*
X130537600Y-132100771D01*
X130489980Y-132243628D01*
X130489980Y-132338866D01*
X130537600Y-132481723D01*
X130585219Y-132529342D01*
X130489980Y-133434104D02*
X130489980Y-132957914D01*
X130966171Y-132910295D01*
X130918552Y-132957914D01*
X130870933Y-133053152D01*
X130870933Y-133291247D01*
X130918552Y-133386485D01*
X130966171Y-133434104D01*
X131061409Y-133481723D01*
X131299504Y-133481723D01*
X131394742Y-133434104D01*
X131442361Y-133386485D01*
X131489980Y-133291247D01*
X131489980Y-133053152D01*
X131442361Y-132957914D01*
X131394742Y-132910295D01*
X130823314Y-134338866D02*
X131489980Y-134338866D01*
X130442361Y-134100771D02*
X131156647Y-133862676D01*
X131156647Y-134481723D01*
X133426742Y-132529342D02*
X133474361Y-132481723D01*
X133521980Y-132338866D01*
X133521980Y-132243628D01*
X133474361Y-132100771D01*
X133379123Y-132005533D01*
X133283885Y-131957914D01*
X133093409Y-131910295D01*
X132950552Y-131910295D01*
X132760076Y-131957914D01*
X132664838Y-132005533D01*
X132569600Y-132100771D01*
X132521980Y-132243628D01*
X132521980Y-132338866D01*
X132569600Y-132481723D01*
X132617219Y-132529342D01*
X132521980Y-133434104D02*
X132521980Y-132957914D01*
X132998171Y-132910295D01*
X132950552Y-132957914D01*
X132902933Y-133053152D01*
X132902933Y-133291247D01*
X132950552Y-133386485D01*
X132998171Y-133434104D01*
X133093409Y-133481723D01*
X133331504Y-133481723D01*
X133426742Y-133434104D01*
X133474361Y-133386485D01*
X133521980Y-133291247D01*
X133521980Y-133053152D01*
X133474361Y-132957914D01*
X133426742Y-132910295D01*
X132521980Y-134386485D02*
X132521980Y-133910295D01*
X132998171Y-133862676D01*
X132950552Y-133910295D01*
X132902933Y-134005533D01*
X132902933Y-134243628D01*
X132950552Y-134338866D01*
X132998171Y-134386485D01*
X133093409Y-134434104D01*
X133331504Y-134434104D01*
X133426742Y-134386485D01*
X133474361Y-134338866D01*
X133521980Y-134243628D01*
X133521980Y-134005533D01*
X133474361Y-133910295D01*
X133426742Y-133862676D01*
X128219742Y-67632342D02*
X128267361Y-67584723D01*
X128314980Y-67441866D01*
X128314980Y-67346628D01*
X128267361Y-67203771D01*
X128172123Y-67108533D01*
X128076885Y-67060914D01*
X127886409Y-67013295D01*
X127743552Y-67013295D01*
X127553076Y-67060914D01*
X127457838Y-67108533D01*
X127362600Y-67203771D01*
X127314980Y-67346628D01*
X127314980Y-67441866D01*
X127362600Y-67584723D01*
X127410219Y-67632342D01*
X127314980Y-68537104D02*
X127314980Y-68060914D01*
X127791171Y-68013295D01*
X127743552Y-68060914D01*
X127695933Y-68156152D01*
X127695933Y-68394247D01*
X127743552Y-68489485D01*
X127791171Y-68537104D01*
X127886409Y-68584723D01*
X128124504Y-68584723D01*
X128219742Y-68537104D01*
X128267361Y-68489485D01*
X128314980Y-68394247D01*
X128314980Y-68156152D01*
X128267361Y-68060914D01*
X128219742Y-68013295D01*
X127314980Y-69441866D02*
X127314980Y-69251390D01*
X127362600Y-69156152D01*
X127410219Y-69108533D01*
X127553076Y-69013295D01*
X127743552Y-68965676D01*
X128124504Y-68965676D01*
X128219742Y-69013295D01*
X128267361Y-69060914D01*
X128314980Y-69156152D01*
X128314980Y-69346628D01*
X128267361Y-69441866D01*
X128219742Y-69489485D01*
X128124504Y-69537104D01*
X127886409Y-69537104D01*
X127791171Y-69489485D01*
X127743552Y-69441866D01*
X127695933Y-69346628D01*
X127695933Y-69156152D01*
X127743552Y-69060914D01*
X127791171Y-69013295D01*
X127886409Y-68965676D01*
X120454657Y-67718942D02*
X120502276Y-67766561D01*
X120645133Y-67814180D01*
X120740371Y-67814180D01*
X120883228Y-67766561D01*
X120978466Y-67671323D01*
X121026085Y-67576085D01*
X121073704Y-67385609D01*
X121073704Y-67242752D01*
X121026085Y-67052276D01*
X120978466Y-66957038D01*
X120883228Y-66861800D01*
X120740371Y-66814180D01*
X120645133Y-66814180D01*
X120502276Y-66861800D01*
X120454657Y-66909419D01*
X119549895Y-66814180D02*
X120026085Y-66814180D01*
X120073704Y-67290371D01*
X120026085Y-67242752D01*
X119930847Y-67195133D01*
X119692752Y-67195133D01*
X119597514Y-67242752D01*
X119549895Y-67290371D01*
X119502276Y-67385609D01*
X119502276Y-67623704D01*
X119549895Y-67718942D01*
X119597514Y-67766561D01*
X119692752Y-67814180D01*
X119930847Y-67814180D01*
X120026085Y-67766561D01*
X120073704Y-67718942D01*
X119168942Y-66814180D02*
X118502276Y-66814180D01*
X118930847Y-67814180D01*
X153138095Y-73390380D02*
X153138095Y-72390380D01*
X152900000Y-72390380D01*
X152757142Y-72438000D01*
X152661904Y-72533238D01*
X152614285Y-72628476D01*
X152566666Y-72818952D01*
X152566666Y-72961809D01*
X152614285Y-73152285D01*
X152661904Y-73247523D01*
X152757142Y-73342761D01*
X152900000Y-73390380D01*
X153138095Y-73390380D01*
X151709523Y-72723714D02*
X151709523Y-73390380D01*
X151947619Y-72342761D02*
X152185714Y-73057047D01*
X151566666Y-73057047D01*
X157202095Y-73390380D02*
X157202095Y-72390380D01*
X156964000Y-72390380D01*
X156821142Y-72438000D01*
X156725904Y-72533238D01*
X156678285Y-72628476D01*
X156630666Y-72818952D01*
X156630666Y-72961809D01*
X156678285Y-73152285D01*
X156725904Y-73247523D01*
X156821142Y-73342761D01*
X156964000Y-73390380D01*
X157202095Y-73390380D01*
X155725904Y-72390380D02*
X156202095Y-72390380D01*
X156249714Y-72866571D01*
X156202095Y-72818952D01*
X156106857Y-72771333D01*
X155868761Y-72771333D01*
X155773523Y-72818952D01*
X155725904Y-72866571D01*
X155678285Y-72961809D01*
X155678285Y-73199904D01*
X155725904Y-73295142D01*
X155773523Y-73342761D01*
X155868761Y-73390380D01*
X156106857Y-73390380D01*
X156202095Y-73342761D01*
X156249714Y-73295142D01*
X161266095Y-73390380D02*
X161266095Y-72390380D01*
X161028000Y-72390380D01*
X160885142Y-72438000D01*
X160789904Y-72533238D01*
X160742285Y-72628476D01*
X160694666Y-72818952D01*
X160694666Y-72961809D01*
X160742285Y-73152285D01*
X160789904Y-73247523D01*
X160885142Y-73342761D01*
X161028000Y-73390380D01*
X161266095Y-73390380D01*
X159837523Y-72390380D02*
X160028000Y-72390380D01*
X160123238Y-72438000D01*
X160170857Y-72485619D01*
X160266095Y-72628476D01*
X160313714Y-72818952D01*
X160313714Y-73199904D01*
X160266095Y-73295142D01*
X160218476Y-73342761D01*
X160123238Y-73390380D01*
X159932761Y-73390380D01*
X159837523Y-73342761D01*
X159789904Y-73295142D01*
X159742285Y-73199904D01*
X159742285Y-72961809D01*
X159789904Y-72866571D01*
X159837523Y-72818952D01*
X159932761Y-72771333D01*
X160123238Y-72771333D01*
X160218476Y-72818952D01*
X160266095Y-72866571D01*
X160313714Y-72961809D01*
X165330095Y-73390380D02*
X165330095Y-72390380D01*
X165092000Y-72390380D01*
X164949142Y-72438000D01*
X164853904Y-72533238D01*
X164806285Y-72628476D01*
X164758666Y-72818952D01*
X164758666Y-72961809D01*
X164806285Y-73152285D01*
X164853904Y-73247523D01*
X164949142Y-73342761D01*
X165092000Y-73390380D01*
X165330095Y-73390380D01*
X164425333Y-72390380D02*
X163758666Y-72390380D01*
X164187238Y-73390380D01*
X136882095Y-73390380D02*
X136882095Y-72390380D01*
X136644000Y-72390380D01*
X136501142Y-72438000D01*
X136405904Y-72533238D01*
X136358285Y-72628476D01*
X136310666Y-72818952D01*
X136310666Y-72961809D01*
X136358285Y-73152285D01*
X136405904Y-73247523D01*
X136501142Y-73342761D01*
X136644000Y-73390380D01*
X136882095Y-73390380D01*
X135739238Y-72818952D02*
X135834476Y-72771333D01*
X135882095Y-72723714D01*
X135929714Y-72628476D01*
X135929714Y-72580857D01*
X135882095Y-72485619D01*
X135834476Y-72438000D01*
X135739238Y-72390380D01*
X135548761Y-72390380D01*
X135453523Y-72438000D01*
X135405904Y-72485619D01*
X135358285Y-72580857D01*
X135358285Y-72628476D01*
X135405904Y-72723714D01*
X135453523Y-72771333D01*
X135548761Y-72818952D01*
X135739238Y-72818952D01*
X135834476Y-72866571D01*
X135882095Y-72914190D01*
X135929714Y-73009428D01*
X135929714Y-73199904D01*
X135882095Y-73295142D01*
X135834476Y-73342761D01*
X135739238Y-73390380D01*
X135548761Y-73390380D01*
X135453523Y-73342761D01*
X135405904Y-73295142D01*
X135358285Y-73199904D01*
X135358285Y-73009428D01*
X135405904Y-72914190D01*
X135453523Y-72866571D01*
X135548761Y-72818952D01*
X140946095Y-73390380D02*
X140946095Y-72390380D01*
X140708000Y-72390380D01*
X140565142Y-72438000D01*
X140469904Y-72533238D01*
X140422285Y-72628476D01*
X140374666Y-72818952D01*
X140374666Y-72961809D01*
X140422285Y-73152285D01*
X140469904Y-73247523D01*
X140565142Y-73342761D01*
X140708000Y-73390380D01*
X140946095Y-73390380D01*
X139898476Y-73390380D02*
X139708000Y-73390380D01*
X139612761Y-73342761D01*
X139565142Y-73295142D01*
X139469904Y-73152285D01*
X139422285Y-72961809D01*
X139422285Y-72580857D01*
X139469904Y-72485619D01*
X139517523Y-72438000D01*
X139612761Y-72390380D01*
X139803238Y-72390380D01*
X139898476Y-72438000D01*
X139946095Y-72485619D01*
X139993714Y-72580857D01*
X139993714Y-72818952D01*
X139946095Y-72914190D01*
X139898476Y-72961809D01*
X139803238Y-73009428D01*
X139612761Y-73009428D01*
X139517523Y-72961809D01*
X139469904Y-72914190D01*
X139422285Y-72818952D01*
X145486285Y-73390380D02*
X145486285Y-72390380D01*
X145248190Y-72390380D01*
X145105333Y-72438000D01*
X145010095Y-72533238D01*
X144962476Y-72628476D01*
X144914857Y-72818952D01*
X144914857Y-72961809D01*
X144962476Y-73152285D01*
X145010095Y-73247523D01*
X145105333Y-73342761D01*
X145248190Y-73390380D01*
X145486285Y-73390380D01*
X143962476Y-73390380D02*
X144533904Y-73390380D01*
X144248190Y-73390380D02*
X144248190Y-72390380D01*
X144343428Y-72533238D01*
X144438666Y-72628476D01*
X144533904Y-72676095D01*
X143343428Y-72390380D02*
X143248190Y-72390380D01*
X143152952Y-72438000D01*
X143105333Y-72485619D01*
X143057714Y-72580857D01*
X143010095Y-72771333D01*
X143010095Y-73009428D01*
X143057714Y-73199904D01*
X143105333Y-73295142D01*
X143152952Y-73342761D01*
X143248190Y-73390380D01*
X143343428Y-73390380D01*
X143438666Y-73342761D01*
X143486285Y-73295142D01*
X143533904Y-73199904D01*
X143581523Y-73009428D01*
X143581523Y-72771333D01*
X143533904Y-72580857D01*
X143486285Y-72485619D01*
X143438666Y-72438000D01*
X143343428Y-72390380D01*
X149550285Y-73390380D02*
X149550285Y-72390380D01*
X149312190Y-72390380D01*
X149169333Y-72438000D01*
X149074095Y-72533238D01*
X149026476Y-72628476D01*
X148978857Y-72818952D01*
X148978857Y-72961809D01*
X149026476Y-73152285D01*
X149074095Y-73247523D01*
X149169333Y-73342761D01*
X149312190Y-73390380D01*
X149550285Y-73390380D01*
X148026476Y-73390380D02*
X148597904Y-73390380D01*
X148312190Y-73390380D02*
X148312190Y-72390380D01*
X148407428Y-72533238D01*
X148502666Y-72628476D01*
X148597904Y-72676095D01*
X147074095Y-73390380D02*
X147645523Y-73390380D01*
X147359809Y-73390380D02*
X147359809Y-72390380D01*
X147455047Y-72533238D01*
X147550285Y-72628476D01*
X147645523Y-72676095D01*
X135377133Y-136020771D02*
X135710466Y-136020771D01*
X135710466Y-136544580D02*
X135710466Y-135544580D01*
X135234276Y-135544580D01*
X134519990Y-136020771D02*
X134377133Y-136068390D01*
X134329514Y-136116009D01*
X134281895Y-136211247D01*
X134281895Y-136354104D01*
X134329514Y-136449342D01*
X134377133Y-136496961D01*
X134472371Y-136544580D01*
X134853323Y-136544580D01*
X134853323Y-135544580D01*
X134519990Y-135544580D01*
X134424752Y-135592200D01*
X134377133Y-135639819D01*
X134329514Y-135735057D01*
X134329514Y-135830295D01*
X134377133Y-135925533D01*
X134424752Y-135973152D01*
X134519990Y-136020771D01*
X134853323Y-136020771D01*
X133900942Y-135639819D02*
X133853323Y-135592200D01*
X133758085Y-135544580D01*
X133519990Y-135544580D01*
X133424752Y-135592200D01*
X133377133Y-135639819D01*
X133329514Y-135735057D01*
X133329514Y-135830295D01*
X133377133Y-135973152D01*
X133948561Y-136544580D01*
X133329514Y-136544580D01*
X108447980Y-84250304D02*
X107447980Y-84250304D01*
X107447980Y-84631257D01*
X107495600Y-84726495D01*
X107543219Y-84774114D01*
X107638457Y-84821733D01*
X107781314Y-84821733D01*
X107876552Y-84774114D01*
X107924171Y-84726495D01*
X107971790Y-84631257D01*
X107971790Y-84250304D01*
X107543219Y-85202685D02*
X107495600Y-85250304D01*
X107447980Y-85345542D01*
X107447980Y-85583638D01*
X107495600Y-85678876D01*
X107543219Y-85726495D01*
X107638457Y-85774114D01*
X107733695Y-85774114D01*
X107876552Y-85726495D01*
X108447980Y-85155066D01*
X108447980Y-85774114D01*
X96916380Y-84529704D02*
X95916380Y-84529704D01*
X95916380Y-84910657D01*
X95964000Y-85005895D01*
X96011619Y-85053514D01*
X96106857Y-85101133D01*
X96249714Y-85101133D01*
X96344952Y-85053514D01*
X96392571Y-85005895D01*
X96440190Y-84910657D01*
X96440190Y-84529704D01*
X96249714Y-85958276D02*
X96916380Y-85958276D01*
X95868761Y-85720180D02*
X96583047Y-85482085D01*
X96583047Y-86101133D01*
X152218380Y-69683333D02*
X151742190Y-69350000D01*
X152218380Y-69111904D02*
X151218380Y-69111904D01*
X151218380Y-69492857D01*
X151266000Y-69588095D01*
X151313619Y-69635714D01*
X151408857Y-69683333D01*
X151551714Y-69683333D01*
X151646952Y-69635714D01*
X151694571Y-69588095D01*
X151742190Y-69492857D01*
X151742190Y-69111904D01*
X151313619Y-70064285D02*
X151266000Y-70111904D01*
X151218380Y-70207142D01*
X151218380Y-70445238D01*
X151266000Y-70540476D01*
X151313619Y-70588095D01*
X151408857Y-70635714D01*
X151504095Y-70635714D01*
X151646952Y-70588095D01*
X152218380Y-70016666D01*
X152218380Y-70635714D01*
X156282380Y-69683333D02*
X155806190Y-69350000D01*
X156282380Y-69111904D02*
X155282380Y-69111904D01*
X155282380Y-69492857D01*
X155330000Y-69588095D01*
X155377619Y-69635714D01*
X155472857Y-69683333D01*
X155615714Y-69683333D01*
X155710952Y-69635714D01*
X155758571Y-69588095D01*
X155806190Y-69492857D01*
X155806190Y-69111904D01*
X155282380Y-70016666D02*
X155282380Y-70635714D01*
X155663333Y-70302380D01*
X155663333Y-70445238D01*
X155710952Y-70540476D01*
X155758571Y-70588095D01*
X155853809Y-70635714D01*
X156091904Y-70635714D01*
X156187142Y-70588095D01*
X156234761Y-70540476D01*
X156282380Y-70445238D01*
X156282380Y-70159523D01*
X156234761Y-70064285D01*
X156187142Y-70016666D01*
X160346380Y-69683333D02*
X159870190Y-69350000D01*
X160346380Y-69111904D02*
X159346380Y-69111904D01*
X159346380Y-69492857D01*
X159394000Y-69588095D01*
X159441619Y-69635714D01*
X159536857Y-69683333D01*
X159679714Y-69683333D01*
X159774952Y-69635714D01*
X159822571Y-69588095D01*
X159870190Y-69492857D01*
X159870190Y-69111904D01*
X159679714Y-70540476D02*
X160346380Y-70540476D01*
X159298761Y-70302380D02*
X160013047Y-70064285D01*
X160013047Y-70683333D01*
X164410380Y-69683333D02*
X163934190Y-69350000D01*
X164410380Y-69111904D02*
X163410380Y-69111904D01*
X163410380Y-69492857D01*
X163458000Y-69588095D01*
X163505619Y-69635714D01*
X163600857Y-69683333D01*
X163743714Y-69683333D01*
X163838952Y-69635714D01*
X163886571Y-69588095D01*
X163934190Y-69492857D01*
X163934190Y-69111904D01*
X163410380Y-70588095D02*
X163410380Y-70111904D01*
X163886571Y-70064285D01*
X163838952Y-70111904D01*
X163791333Y-70207142D01*
X163791333Y-70445238D01*
X163838952Y-70540476D01*
X163886571Y-70588095D01*
X163981809Y-70635714D01*
X164219904Y-70635714D01*
X164315142Y-70588095D01*
X164362761Y-70540476D01*
X164410380Y-70445238D01*
X164410380Y-70207142D01*
X164362761Y-70111904D01*
X164315142Y-70064285D01*
X150186380Y-69683333D02*
X149710190Y-69350000D01*
X150186380Y-69111904D02*
X149186380Y-69111904D01*
X149186380Y-69492857D01*
X149234000Y-69588095D01*
X149281619Y-69635714D01*
X149376857Y-69683333D01*
X149519714Y-69683333D01*
X149614952Y-69635714D01*
X149662571Y-69588095D01*
X149710190Y-69492857D01*
X149710190Y-69111904D01*
X149186380Y-70540476D02*
X149186380Y-70350000D01*
X149234000Y-70254761D01*
X149281619Y-70207142D01*
X149424476Y-70111904D01*
X149614952Y-70064285D01*
X149995904Y-70064285D01*
X150091142Y-70111904D01*
X150138761Y-70159523D01*
X150186380Y-70254761D01*
X150186380Y-70445238D01*
X150138761Y-70540476D01*
X150091142Y-70588095D01*
X149995904Y-70635714D01*
X149757809Y-70635714D01*
X149662571Y-70588095D01*
X149614952Y-70540476D01*
X149567333Y-70445238D01*
X149567333Y-70254761D01*
X149614952Y-70159523D01*
X149662571Y-70111904D01*
X149757809Y-70064285D01*
X154250380Y-69683333D02*
X153774190Y-69350000D01*
X154250380Y-69111904D02*
X153250380Y-69111904D01*
X153250380Y-69492857D01*
X153298000Y-69588095D01*
X153345619Y-69635714D01*
X153440857Y-69683333D01*
X153583714Y-69683333D01*
X153678952Y-69635714D01*
X153726571Y-69588095D01*
X153774190Y-69492857D01*
X153774190Y-69111904D01*
X153250380Y-70016666D02*
X153250380Y-70683333D01*
X154250380Y-70254761D01*
X158314380Y-69683333D02*
X157838190Y-69350000D01*
X158314380Y-69111904D02*
X157314380Y-69111904D01*
X157314380Y-69492857D01*
X157362000Y-69588095D01*
X157409619Y-69635714D01*
X157504857Y-69683333D01*
X157647714Y-69683333D01*
X157742952Y-69635714D01*
X157790571Y-69588095D01*
X157838190Y-69492857D01*
X157838190Y-69111904D01*
X157742952Y-70254761D02*
X157695333Y-70159523D01*
X157647714Y-70111904D01*
X157552476Y-70064285D01*
X157504857Y-70064285D01*
X157409619Y-70111904D01*
X157362000Y-70159523D01*
X157314380Y-70254761D01*
X157314380Y-70445238D01*
X157362000Y-70540476D01*
X157409619Y-70588095D01*
X157504857Y-70635714D01*
X157552476Y-70635714D01*
X157647714Y-70588095D01*
X157695333Y-70540476D01*
X157742952Y-70445238D01*
X157742952Y-70254761D01*
X157790571Y-70159523D01*
X157838190Y-70111904D01*
X157933428Y-70064285D01*
X158123904Y-70064285D01*
X158219142Y-70111904D01*
X158266761Y-70159523D01*
X158314380Y-70254761D01*
X158314380Y-70445238D01*
X158266761Y-70540476D01*
X158219142Y-70588095D01*
X158123904Y-70635714D01*
X157933428Y-70635714D01*
X157838190Y-70588095D01*
X157790571Y-70540476D01*
X157742952Y-70445238D01*
X162378380Y-69683333D02*
X161902190Y-69350000D01*
X162378380Y-69111904D02*
X161378380Y-69111904D01*
X161378380Y-69492857D01*
X161426000Y-69588095D01*
X161473619Y-69635714D01*
X161568857Y-69683333D01*
X161711714Y-69683333D01*
X161806952Y-69635714D01*
X161854571Y-69588095D01*
X161902190Y-69492857D01*
X161902190Y-69111904D01*
X162378380Y-70159523D02*
X162378380Y-70350000D01*
X162330761Y-70445238D01*
X162283142Y-70492857D01*
X162140285Y-70588095D01*
X161949809Y-70635714D01*
X161568857Y-70635714D01*
X161473619Y-70588095D01*
X161426000Y-70540476D01*
X161378380Y-70445238D01*
X161378380Y-70254761D01*
X161426000Y-70159523D01*
X161473619Y-70111904D01*
X161568857Y-70064285D01*
X161806952Y-70064285D01*
X161902190Y-70111904D01*
X161949809Y-70159523D01*
X161997428Y-70254761D01*
X161997428Y-70445238D01*
X161949809Y-70540476D01*
X161902190Y-70588095D01*
X161806952Y-70635714D01*
X153550857Y-84146380D02*
X153884190Y-83670190D01*
X154122285Y-84146380D02*
X154122285Y-83146380D01*
X153741333Y-83146380D01*
X153646095Y-83194000D01*
X153598476Y-83241619D01*
X153550857Y-83336857D01*
X153550857Y-83479714D01*
X153598476Y-83574952D01*
X153646095Y-83622571D01*
X153741333Y-83670190D01*
X154122285Y-83670190D01*
X152598476Y-84146380D02*
X153169904Y-84146380D01*
X152884190Y-84146380D02*
X152884190Y-83146380D01*
X152979428Y-83289238D01*
X153074666Y-83384476D01*
X153169904Y-83432095D01*
X151979428Y-83146380D02*
X151884190Y-83146380D01*
X151788952Y-83194000D01*
X151741333Y-83241619D01*
X151693714Y-83336857D01*
X151646095Y-83527333D01*
X151646095Y-83765428D01*
X151693714Y-83955904D01*
X151741333Y-84051142D01*
X151788952Y-84098761D01*
X151884190Y-84146380D01*
X151979428Y-84146380D01*
X152074666Y-84098761D01*
X152122285Y-84051142D01*
X152169904Y-83955904D01*
X152217523Y-83765428D01*
X152217523Y-83527333D01*
X152169904Y-83336857D01*
X152122285Y-83241619D01*
X152074666Y-83194000D01*
X151979428Y-83146380D01*
X153550857Y-77796380D02*
X153884190Y-77320190D01*
X154122285Y-77796380D02*
X154122285Y-76796380D01*
X153741333Y-76796380D01*
X153646095Y-76844000D01*
X153598476Y-76891619D01*
X153550857Y-76986857D01*
X153550857Y-77129714D01*
X153598476Y-77224952D01*
X153646095Y-77272571D01*
X153741333Y-77320190D01*
X154122285Y-77320190D01*
X152598476Y-77796380D02*
X153169904Y-77796380D01*
X152884190Y-77796380D02*
X152884190Y-76796380D01*
X152979428Y-76939238D01*
X153074666Y-77034476D01*
X153169904Y-77082095D01*
X151646095Y-77796380D02*
X152217523Y-77796380D01*
X151931809Y-77796380D02*
X151931809Y-76796380D01*
X152027047Y-76939238D01*
X152122285Y-77034476D01*
X152217523Y-77082095D01*
X165234857Y-81096380D02*
X165568190Y-80620190D01*
X165806285Y-81096380D02*
X165806285Y-80096380D01*
X165425333Y-80096380D01*
X165330095Y-80144000D01*
X165282476Y-80191619D01*
X165234857Y-80286857D01*
X165234857Y-80429714D01*
X165282476Y-80524952D01*
X165330095Y-80572571D01*
X165425333Y-80620190D01*
X165806285Y-80620190D01*
X164282476Y-81096380D02*
X164853904Y-81096380D01*
X164568190Y-81096380D02*
X164568190Y-80096380D01*
X164663428Y-80239238D01*
X164758666Y-80334476D01*
X164853904Y-80382095D01*
X163901523Y-80191619D02*
X163853904Y-80144000D01*
X163758666Y-80096380D01*
X163520571Y-80096380D01*
X163425333Y-80144000D01*
X163377714Y-80191619D01*
X163330095Y-80286857D01*
X163330095Y-80382095D01*
X163377714Y-80524952D01*
X163949142Y-81096380D01*
X163330095Y-81096380D01*
X165336457Y-87446380D02*
X165669790Y-86970190D01*
X165907885Y-87446380D02*
X165907885Y-86446380D01*
X165526933Y-86446380D01*
X165431695Y-86494000D01*
X165384076Y-86541619D01*
X165336457Y-86636857D01*
X165336457Y-86779714D01*
X165384076Y-86874952D01*
X165431695Y-86922571D01*
X165526933Y-86970190D01*
X165907885Y-86970190D01*
X164384076Y-87446380D02*
X164955504Y-87446380D01*
X164669790Y-87446380D02*
X164669790Y-86446380D01*
X164765028Y-86589238D01*
X164860266Y-86684476D01*
X164955504Y-86732095D01*
X164050742Y-86446380D02*
X163431695Y-86446380D01*
X163765028Y-86827333D01*
X163622171Y-86827333D01*
X163526933Y-86874952D01*
X163479314Y-86922571D01*
X163431695Y-87017809D01*
X163431695Y-87255904D01*
X163479314Y-87351142D01*
X163526933Y-87398761D01*
X163622171Y-87446380D01*
X163907885Y-87446380D01*
X164003123Y-87398761D01*
X164050742Y-87351142D01*
X153550857Y-89478380D02*
X153884190Y-89002190D01*
X154122285Y-89478380D02*
X154122285Y-88478380D01*
X153741333Y-88478380D01*
X153646095Y-88526000D01*
X153598476Y-88573619D01*
X153550857Y-88668857D01*
X153550857Y-88811714D01*
X153598476Y-88906952D01*
X153646095Y-88954571D01*
X153741333Y-89002190D01*
X154122285Y-89002190D01*
X152598476Y-89478380D02*
X153169904Y-89478380D01*
X152884190Y-89478380D02*
X152884190Y-88478380D01*
X152979428Y-88621238D01*
X153074666Y-88716476D01*
X153169904Y-88764095D01*
X151741333Y-88811714D02*
X151741333Y-89478380D01*
X151979428Y-88430761D02*
X152217523Y-89145047D01*
X151598476Y-89145047D01*
X153550857Y-91510380D02*
X153884190Y-91034190D01*
X154122285Y-91510380D02*
X154122285Y-90510380D01*
X153741333Y-90510380D01*
X153646095Y-90558000D01*
X153598476Y-90605619D01*
X153550857Y-90700857D01*
X153550857Y-90843714D01*
X153598476Y-90938952D01*
X153646095Y-90986571D01*
X153741333Y-91034190D01*
X154122285Y-91034190D01*
X152598476Y-91510380D02*
X153169904Y-91510380D01*
X152884190Y-91510380D02*
X152884190Y-90510380D01*
X152979428Y-90653238D01*
X153074666Y-90748476D01*
X153169904Y-90796095D01*
X151693714Y-90510380D02*
X152169904Y-90510380D01*
X152217523Y-90986571D01*
X152169904Y-90938952D01*
X152074666Y-90891333D01*
X151836571Y-90891333D01*
X151741333Y-90938952D01*
X151693714Y-90986571D01*
X151646095Y-91081809D01*
X151646095Y-91319904D01*
X151693714Y-91415142D01*
X151741333Y-91462761D01*
X151836571Y-91510380D01*
X152074666Y-91510380D01*
X152169904Y-91462761D01*
X152217523Y-91415142D01*
X165234857Y-79828380D02*
X165568190Y-79352190D01*
X165806285Y-79828380D02*
X165806285Y-78828380D01*
X165425333Y-78828380D01*
X165330095Y-78876000D01*
X165282476Y-78923619D01*
X165234857Y-79018857D01*
X165234857Y-79161714D01*
X165282476Y-79256952D01*
X165330095Y-79304571D01*
X165425333Y-79352190D01*
X165806285Y-79352190D01*
X164282476Y-79828380D02*
X164853904Y-79828380D01*
X164568190Y-79828380D02*
X164568190Y-78828380D01*
X164663428Y-78971238D01*
X164758666Y-79066476D01*
X164853904Y-79114095D01*
X163425333Y-78828380D02*
X163615809Y-78828380D01*
X163711047Y-78876000D01*
X163758666Y-78923619D01*
X163853904Y-79066476D01*
X163901523Y-79256952D01*
X163901523Y-79637904D01*
X163853904Y-79733142D01*
X163806285Y-79780761D01*
X163711047Y-79828380D01*
X163520571Y-79828380D01*
X163425333Y-79780761D01*
X163377714Y-79733142D01*
X163330095Y-79637904D01*
X163330095Y-79399809D01*
X163377714Y-79304571D01*
X163425333Y-79256952D01*
X163520571Y-79209333D01*
X163711047Y-79209333D01*
X163806285Y-79256952D01*
X163853904Y-79304571D01*
X163901523Y-79399809D01*
X165336457Y-86178380D02*
X165669790Y-85702190D01*
X165907885Y-86178380D02*
X165907885Y-85178380D01*
X165526933Y-85178380D01*
X165431695Y-85226000D01*
X165384076Y-85273619D01*
X165336457Y-85368857D01*
X165336457Y-85511714D01*
X165384076Y-85606952D01*
X165431695Y-85654571D01*
X165526933Y-85702190D01*
X165907885Y-85702190D01*
X164384076Y-86178380D02*
X164955504Y-86178380D01*
X164669790Y-86178380D02*
X164669790Y-85178380D01*
X164765028Y-85321238D01*
X164860266Y-85416476D01*
X164955504Y-85464095D01*
X164050742Y-85178380D02*
X163384076Y-85178380D01*
X163812647Y-86178380D01*
X135962380Y-69207142D02*
X135486190Y-68873809D01*
X135962380Y-68635714D02*
X134962380Y-68635714D01*
X134962380Y-69016666D01*
X135010000Y-69111904D01*
X135057619Y-69159523D01*
X135152857Y-69207142D01*
X135295714Y-69207142D01*
X135390952Y-69159523D01*
X135438571Y-69111904D01*
X135486190Y-69016666D01*
X135486190Y-68635714D01*
X135962380Y-70159523D02*
X135962380Y-69588095D01*
X135962380Y-69873809D02*
X134962380Y-69873809D01*
X135105238Y-69778571D01*
X135200476Y-69683333D01*
X135248095Y-69588095D01*
X135390952Y-70730952D02*
X135343333Y-70635714D01*
X135295714Y-70588095D01*
X135200476Y-70540476D01*
X135152857Y-70540476D01*
X135057619Y-70588095D01*
X135010000Y-70635714D01*
X134962380Y-70730952D01*
X134962380Y-70921428D01*
X135010000Y-71016666D01*
X135057619Y-71064285D01*
X135152857Y-71111904D01*
X135200476Y-71111904D01*
X135295714Y-71064285D01*
X135343333Y-71016666D01*
X135390952Y-70921428D01*
X135390952Y-70730952D01*
X135438571Y-70635714D01*
X135486190Y-70588095D01*
X135581428Y-70540476D01*
X135771904Y-70540476D01*
X135867142Y-70588095D01*
X135914761Y-70635714D01*
X135962380Y-70730952D01*
X135962380Y-70921428D01*
X135914761Y-71016666D01*
X135867142Y-71064285D01*
X135771904Y-71111904D01*
X135581428Y-71111904D01*
X135486190Y-71064285D01*
X135438571Y-71016666D01*
X135390952Y-70921428D01*
X140026380Y-69207142D02*
X139550190Y-68873809D01*
X140026380Y-68635714D02*
X139026380Y-68635714D01*
X139026380Y-69016666D01*
X139074000Y-69111904D01*
X139121619Y-69159523D01*
X139216857Y-69207142D01*
X139359714Y-69207142D01*
X139454952Y-69159523D01*
X139502571Y-69111904D01*
X139550190Y-69016666D01*
X139550190Y-68635714D01*
X140026380Y-70159523D02*
X140026380Y-69588095D01*
X140026380Y-69873809D02*
X139026380Y-69873809D01*
X139169238Y-69778571D01*
X139264476Y-69683333D01*
X139312095Y-69588095D01*
X140026380Y-70635714D02*
X140026380Y-70826190D01*
X139978761Y-70921428D01*
X139931142Y-70969047D01*
X139788285Y-71064285D01*
X139597809Y-71111904D01*
X139216857Y-71111904D01*
X139121619Y-71064285D01*
X139074000Y-71016666D01*
X139026380Y-70921428D01*
X139026380Y-70730952D01*
X139074000Y-70635714D01*
X139121619Y-70588095D01*
X139216857Y-70540476D01*
X139454952Y-70540476D01*
X139550190Y-70588095D01*
X139597809Y-70635714D01*
X139645428Y-70730952D01*
X139645428Y-70921428D01*
X139597809Y-71016666D01*
X139550190Y-71064285D01*
X139454952Y-71111904D01*
X148154380Y-69207142D02*
X147678190Y-68873809D01*
X148154380Y-68635714D02*
X147154380Y-68635714D01*
X147154380Y-69016666D01*
X147202000Y-69111904D01*
X147249619Y-69159523D01*
X147344857Y-69207142D01*
X147487714Y-69207142D01*
X147582952Y-69159523D01*
X147630571Y-69111904D01*
X147678190Y-69016666D01*
X147678190Y-68635714D01*
X147249619Y-69588095D02*
X147202000Y-69635714D01*
X147154380Y-69730952D01*
X147154380Y-69969047D01*
X147202000Y-70064285D01*
X147249619Y-70111904D01*
X147344857Y-70159523D01*
X147440095Y-70159523D01*
X147582952Y-70111904D01*
X148154380Y-69540476D01*
X148154380Y-70159523D01*
X147154380Y-70778571D02*
X147154380Y-70873809D01*
X147202000Y-70969047D01*
X147249619Y-71016666D01*
X147344857Y-71064285D01*
X147535333Y-71111904D01*
X147773428Y-71111904D01*
X147963904Y-71064285D01*
X148059142Y-71016666D01*
X148106761Y-70969047D01*
X148154380Y-70873809D01*
X148154380Y-70778571D01*
X148106761Y-70683333D01*
X148059142Y-70635714D01*
X147963904Y-70588095D01*
X147773428Y-70540476D01*
X147535333Y-70540476D01*
X147344857Y-70588095D01*
X147249619Y-70635714D01*
X147202000Y-70683333D01*
X147154380Y-70778571D01*
X137802857Y-68312380D02*
X138136190Y-67836190D01*
X138374285Y-68312380D02*
X138374285Y-67312380D01*
X137993333Y-67312380D01*
X137898095Y-67360000D01*
X137850476Y-67407619D01*
X137802857Y-67502857D01*
X137802857Y-67645714D01*
X137850476Y-67740952D01*
X137898095Y-67788571D01*
X137993333Y-67836190D01*
X138374285Y-67836190D01*
X137421904Y-67407619D02*
X137374285Y-67360000D01*
X137279047Y-67312380D01*
X137040952Y-67312380D01*
X136945714Y-67360000D01*
X136898095Y-67407619D01*
X136850476Y-67502857D01*
X136850476Y-67598095D01*
X136898095Y-67740952D01*
X137469523Y-68312380D01*
X136850476Y-68312380D01*
X135898095Y-68312380D02*
X136469523Y-68312380D01*
X136183809Y-68312380D02*
X136183809Y-67312380D01*
X136279047Y-67455238D01*
X136374285Y-67550476D01*
X136469523Y-67598095D01*
X143666380Y-68699142D02*
X143190190Y-68365809D01*
X143666380Y-68127714D02*
X142666380Y-68127714D01*
X142666380Y-68508666D01*
X142714000Y-68603904D01*
X142761619Y-68651523D01*
X142856857Y-68699142D01*
X142999714Y-68699142D01*
X143094952Y-68651523D01*
X143142571Y-68603904D01*
X143190190Y-68508666D01*
X143190190Y-68127714D01*
X142761619Y-69080095D02*
X142714000Y-69127714D01*
X142666380Y-69222952D01*
X142666380Y-69461047D01*
X142714000Y-69556285D01*
X142761619Y-69603904D01*
X142856857Y-69651523D01*
X142952095Y-69651523D01*
X143094952Y-69603904D01*
X143666380Y-69032476D01*
X143666380Y-69651523D01*
X142761619Y-70032476D02*
X142714000Y-70080095D01*
X142666380Y-70175333D01*
X142666380Y-70413428D01*
X142714000Y-70508666D01*
X142761619Y-70556285D01*
X142856857Y-70603904D01*
X142952095Y-70603904D01*
X143094952Y-70556285D01*
X143666380Y-69984857D01*
X143666380Y-70603904D01*
X133930380Y-69207142D02*
X133454190Y-68873809D01*
X133930380Y-68635714D02*
X132930380Y-68635714D01*
X132930380Y-69016666D01*
X132978000Y-69111904D01*
X133025619Y-69159523D01*
X133120857Y-69207142D01*
X133263714Y-69207142D01*
X133358952Y-69159523D01*
X133406571Y-69111904D01*
X133454190Y-69016666D01*
X133454190Y-68635714D01*
X133025619Y-69588095D02*
X132978000Y-69635714D01*
X132930380Y-69730952D01*
X132930380Y-69969047D01*
X132978000Y-70064285D01*
X133025619Y-70111904D01*
X133120857Y-70159523D01*
X133216095Y-70159523D01*
X133358952Y-70111904D01*
X133930380Y-69540476D01*
X133930380Y-70159523D01*
X132930380Y-70492857D02*
X132930380Y-71111904D01*
X133311333Y-70778571D01*
X133311333Y-70921428D01*
X133358952Y-71016666D01*
X133406571Y-71064285D01*
X133501809Y-71111904D01*
X133739904Y-71111904D01*
X133835142Y-71064285D01*
X133882761Y-71016666D01*
X133930380Y-70921428D01*
X133930380Y-70635714D01*
X133882761Y-70540476D01*
X133835142Y-70492857D01*
X137994380Y-69207142D02*
X137518190Y-68873809D01*
X137994380Y-68635714D02*
X136994380Y-68635714D01*
X136994380Y-69016666D01*
X137042000Y-69111904D01*
X137089619Y-69159523D01*
X137184857Y-69207142D01*
X137327714Y-69207142D01*
X137422952Y-69159523D01*
X137470571Y-69111904D01*
X137518190Y-69016666D01*
X137518190Y-68635714D01*
X137089619Y-69588095D02*
X137042000Y-69635714D01*
X136994380Y-69730952D01*
X136994380Y-69969047D01*
X137042000Y-70064285D01*
X137089619Y-70111904D01*
X137184857Y-70159523D01*
X137280095Y-70159523D01*
X137422952Y-70111904D01*
X137994380Y-69540476D01*
X137994380Y-70159523D01*
X137327714Y-71016666D02*
X137994380Y-71016666D01*
X136946761Y-70778571D02*
X137661047Y-70540476D01*
X137661047Y-71159523D01*
X146122380Y-69207142D02*
X145646190Y-68873809D01*
X146122380Y-68635714D02*
X145122380Y-68635714D01*
X145122380Y-69016666D01*
X145170000Y-69111904D01*
X145217619Y-69159523D01*
X145312857Y-69207142D01*
X145455714Y-69207142D01*
X145550952Y-69159523D01*
X145598571Y-69111904D01*
X145646190Y-69016666D01*
X145646190Y-68635714D01*
X145217619Y-69588095D02*
X145170000Y-69635714D01*
X145122380Y-69730952D01*
X145122380Y-69969047D01*
X145170000Y-70064285D01*
X145217619Y-70111904D01*
X145312857Y-70159523D01*
X145408095Y-70159523D01*
X145550952Y-70111904D01*
X146122380Y-69540476D01*
X146122380Y-70159523D01*
X145122380Y-71064285D02*
X145122380Y-70588095D01*
X145598571Y-70540476D01*
X145550952Y-70588095D01*
X145503333Y-70683333D01*
X145503333Y-70921428D01*
X145550952Y-71016666D01*
X145598571Y-71064285D01*
X145693809Y-71111904D01*
X145931904Y-71111904D01*
X146027142Y-71064285D01*
X146074761Y-71016666D01*
X146122380Y-70921428D01*
X146122380Y-70683333D01*
X146074761Y-70588095D01*
X146027142Y-70540476D01*
X137040857Y-84146380D02*
X137374190Y-83670190D01*
X137612285Y-84146380D02*
X137612285Y-83146380D01*
X137231333Y-83146380D01*
X137136095Y-83194000D01*
X137088476Y-83241619D01*
X137040857Y-83336857D01*
X137040857Y-83479714D01*
X137088476Y-83574952D01*
X137136095Y-83622571D01*
X137231333Y-83670190D01*
X137612285Y-83670190D01*
X136659904Y-83241619D02*
X136612285Y-83194000D01*
X136517047Y-83146380D01*
X136278952Y-83146380D01*
X136183714Y-83194000D01*
X136136095Y-83241619D01*
X136088476Y-83336857D01*
X136088476Y-83432095D01*
X136136095Y-83574952D01*
X136707523Y-84146380D01*
X136088476Y-84146380D01*
X135231333Y-83146380D02*
X135421809Y-83146380D01*
X135517047Y-83194000D01*
X135564666Y-83241619D01*
X135659904Y-83384476D01*
X135707523Y-83574952D01*
X135707523Y-83955904D01*
X135659904Y-84051142D01*
X135612285Y-84098761D01*
X135517047Y-84146380D01*
X135326571Y-84146380D01*
X135231333Y-84098761D01*
X135183714Y-84051142D01*
X135136095Y-83955904D01*
X135136095Y-83717809D01*
X135183714Y-83622571D01*
X135231333Y-83574952D01*
X135326571Y-83527333D01*
X135517047Y-83527333D01*
X135612285Y-83574952D01*
X135659904Y-83622571D01*
X135707523Y-83717809D01*
X142882857Y-91002380D02*
X143216190Y-90526190D01*
X143454285Y-91002380D02*
X143454285Y-90002380D01*
X143073333Y-90002380D01*
X142978095Y-90050000D01*
X142930476Y-90097619D01*
X142882857Y-90192857D01*
X142882857Y-90335714D01*
X142930476Y-90430952D01*
X142978095Y-90478571D01*
X143073333Y-90526190D01*
X143454285Y-90526190D01*
X142501904Y-90097619D02*
X142454285Y-90050000D01*
X142359047Y-90002380D01*
X142120952Y-90002380D01*
X142025714Y-90050000D01*
X141978095Y-90097619D01*
X141930476Y-90192857D01*
X141930476Y-90288095D01*
X141978095Y-90430952D01*
X142549523Y-91002380D01*
X141930476Y-91002380D01*
X141597142Y-90002380D02*
X140930476Y-90002380D01*
X141359047Y-91002380D01*
X148724857Y-81096380D02*
X149058190Y-80620190D01*
X149296285Y-81096380D02*
X149296285Y-80096380D01*
X148915333Y-80096380D01*
X148820095Y-80144000D01*
X148772476Y-80191619D01*
X148724857Y-80286857D01*
X148724857Y-80429714D01*
X148772476Y-80524952D01*
X148820095Y-80572571D01*
X148915333Y-80620190D01*
X149296285Y-80620190D01*
X148343904Y-80191619D02*
X148296285Y-80144000D01*
X148201047Y-80096380D01*
X147962952Y-80096380D01*
X147867714Y-80144000D01*
X147820095Y-80191619D01*
X147772476Y-80286857D01*
X147772476Y-80382095D01*
X147820095Y-80524952D01*
X148391523Y-81096380D01*
X147772476Y-81096380D01*
X147201047Y-80524952D02*
X147296285Y-80477333D01*
X147343904Y-80429714D01*
X147391523Y-80334476D01*
X147391523Y-80286857D01*
X147343904Y-80191619D01*
X147296285Y-80144000D01*
X147201047Y-80096380D01*
X147010571Y-80096380D01*
X146915333Y-80144000D01*
X146867714Y-80191619D01*
X146820095Y-80286857D01*
X146820095Y-80334476D01*
X146867714Y-80429714D01*
X146915333Y-80477333D01*
X147010571Y-80524952D01*
X147201047Y-80524952D01*
X147296285Y-80572571D01*
X147343904Y-80620190D01*
X147391523Y-80715428D01*
X147391523Y-80905904D01*
X147343904Y-81001142D01*
X147296285Y-81048761D01*
X147201047Y-81096380D01*
X147010571Y-81096380D01*
X146915333Y-81048761D01*
X146867714Y-81001142D01*
X146820095Y-80905904D01*
X146820095Y-80715428D01*
X146867714Y-80620190D01*
X146915333Y-80572571D01*
X147010571Y-80524952D01*
X148724857Y-87446380D02*
X149058190Y-86970190D01*
X149296285Y-87446380D02*
X149296285Y-86446380D01*
X148915333Y-86446380D01*
X148820095Y-86494000D01*
X148772476Y-86541619D01*
X148724857Y-86636857D01*
X148724857Y-86779714D01*
X148772476Y-86874952D01*
X148820095Y-86922571D01*
X148915333Y-86970190D01*
X149296285Y-86970190D01*
X148343904Y-86541619D02*
X148296285Y-86494000D01*
X148201047Y-86446380D01*
X147962952Y-86446380D01*
X147867714Y-86494000D01*
X147820095Y-86541619D01*
X147772476Y-86636857D01*
X147772476Y-86732095D01*
X147820095Y-86874952D01*
X148391523Y-87446380D01*
X147772476Y-87446380D01*
X147296285Y-87446380D02*
X147105809Y-87446380D01*
X147010571Y-87398761D01*
X146962952Y-87351142D01*
X146867714Y-87208285D01*
X146820095Y-87017809D01*
X146820095Y-86636857D01*
X146867714Y-86541619D01*
X146915333Y-86494000D01*
X147010571Y-86446380D01*
X147201047Y-86446380D01*
X147296285Y-86494000D01*
X147343904Y-86541619D01*
X147391523Y-86636857D01*
X147391523Y-86874952D01*
X147343904Y-86970190D01*
X147296285Y-87017809D01*
X147201047Y-87065428D01*
X147010571Y-87065428D01*
X146915333Y-87017809D01*
X146867714Y-86970190D01*
X146820095Y-86874952D01*
X137040857Y-89478380D02*
X137374190Y-89002190D01*
X137612285Y-89478380D02*
X137612285Y-88478380D01*
X137231333Y-88478380D01*
X137136095Y-88526000D01*
X137088476Y-88573619D01*
X137040857Y-88668857D01*
X137040857Y-88811714D01*
X137088476Y-88906952D01*
X137136095Y-88954571D01*
X137231333Y-89002190D01*
X137612285Y-89002190D01*
X136707523Y-88478380D02*
X136088476Y-88478380D01*
X136421809Y-88859333D01*
X136278952Y-88859333D01*
X136183714Y-88906952D01*
X136136095Y-88954571D01*
X136088476Y-89049809D01*
X136088476Y-89287904D01*
X136136095Y-89383142D01*
X136183714Y-89430761D01*
X136278952Y-89478380D01*
X136564666Y-89478380D01*
X136659904Y-89430761D01*
X136707523Y-89383142D01*
X135469428Y-88478380D02*
X135374190Y-88478380D01*
X135278952Y-88526000D01*
X135231333Y-88573619D01*
X135183714Y-88668857D01*
X135136095Y-88859333D01*
X135136095Y-89097428D01*
X135183714Y-89287904D01*
X135231333Y-89383142D01*
X135278952Y-89430761D01*
X135374190Y-89478380D01*
X135469428Y-89478380D01*
X135564666Y-89430761D01*
X135612285Y-89383142D01*
X135659904Y-89287904D01*
X135707523Y-89097428D01*
X135707523Y-88859333D01*
X135659904Y-88668857D01*
X135612285Y-88573619D01*
X135564666Y-88526000D01*
X135469428Y-88478380D01*
X142882857Y-89734380D02*
X143216190Y-89258190D01*
X143454285Y-89734380D02*
X143454285Y-88734380D01*
X143073333Y-88734380D01*
X142978095Y-88782000D01*
X142930476Y-88829619D01*
X142882857Y-88924857D01*
X142882857Y-89067714D01*
X142930476Y-89162952D01*
X142978095Y-89210571D01*
X143073333Y-89258190D01*
X143454285Y-89258190D01*
X142549523Y-88734380D02*
X141930476Y-88734380D01*
X142263809Y-89115333D01*
X142120952Y-89115333D01*
X142025714Y-89162952D01*
X141978095Y-89210571D01*
X141930476Y-89305809D01*
X141930476Y-89543904D01*
X141978095Y-89639142D01*
X142025714Y-89686761D01*
X142120952Y-89734380D01*
X142406666Y-89734380D01*
X142501904Y-89686761D01*
X142549523Y-89639142D01*
X140978095Y-89734380D02*
X141549523Y-89734380D01*
X141263809Y-89734380D02*
X141263809Y-88734380D01*
X141359047Y-88877238D01*
X141454285Y-88972476D01*
X141549523Y-89020095D01*
X148724857Y-79828380D02*
X149058190Y-79352190D01*
X149296285Y-79828380D02*
X149296285Y-78828380D01*
X148915333Y-78828380D01*
X148820095Y-78876000D01*
X148772476Y-78923619D01*
X148724857Y-79018857D01*
X148724857Y-79161714D01*
X148772476Y-79256952D01*
X148820095Y-79304571D01*
X148915333Y-79352190D01*
X149296285Y-79352190D01*
X148391523Y-78828380D02*
X147772476Y-78828380D01*
X148105809Y-79209333D01*
X147962952Y-79209333D01*
X147867714Y-79256952D01*
X147820095Y-79304571D01*
X147772476Y-79399809D01*
X147772476Y-79637904D01*
X147820095Y-79733142D01*
X147867714Y-79780761D01*
X147962952Y-79828380D01*
X148248666Y-79828380D01*
X148343904Y-79780761D01*
X148391523Y-79733142D01*
X147391523Y-78923619D02*
X147343904Y-78876000D01*
X147248666Y-78828380D01*
X147010571Y-78828380D01*
X146915333Y-78876000D01*
X146867714Y-78923619D01*
X146820095Y-79018857D01*
X146820095Y-79114095D01*
X146867714Y-79256952D01*
X147439142Y-79828380D01*
X146820095Y-79828380D01*
X148724857Y-86178380D02*
X149058190Y-85702190D01*
X149296285Y-86178380D02*
X149296285Y-85178380D01*
X148915333Y-85178380D01*
X148820095Y-85226000D01*
X148772476Y-85273619D01*
X148724857Y-85368857D01*
X148724857Y-85511714D01*
X148772476Y-85606952D01*
X148820095Y-85654571D01*
X148915333Y-85702190D01*
X149296285Y-85702190D01*
X148391523Y-85178380D02*
X147772476Y-85178380D01*
X148105809Y-85559333D01*
X147962952Y-85559333D01*
X147867714Y-85606952D01*
X147820095Y-85654571D01*
X147772476Y-85749809D01*
X147772476Y-85987904D01*
X147820095Y-86083142D01*
X147867714Y-86130761D01*
X147962952Y-86178380D01*
X148248666Y-86178380D01*
X148343904Y-86130761D01*
X148391523Y-86083142D01*
X147439142Y-85178380D02*
X146820095Y-85178380D01*
X147153428Y-85559333D01*
X147010571Y-85559333D01*
X146915333Y-85606952D01*
X146867714Y-85654571D01*
X146820095Y-85749809D01*
X146820095Y-85987904D01*
X146867714Y-86083142D01*
X146915333Y-86130761D01*
X147010571Y-86178380D01*
X147296285Y-86178380D01*
X147391523Y-86130761D01*
X147439142Y-86083142D01*
X154349980Y-111599742D02*
X153873790Y-111266409D01*
X154349980Y-111028314D02*
X153349980Y-111028314D01*
X153349980Y-111409266D01*
X153397600Y-111504504D01*
X153445219Y-111552123D01*
X153540457Y-111599742D01*
X153683314Y-111599742D01*
X153778552Y-111552123D01*
X153826171Y-111504504D01*
X153873790Y-111409266D01*
X153873790Y-111028314D01*
X153349980Y-112504504D02*
X153349980Y-112028314D01*
X153826171Y-111980695D01*
X153778552Y-112028314D01*
X153730933Y-112123552D01*
X153730933Y-112361647D01*
X153778552Y-112456885D01*
X153826171Y-112504504D01*
X153921409Y-112552123D01*
X154159504Y-112552123D01*
X154254742Y-112504504D01*
X154302361Y-112456885D01*
X154349980Y-112361647D01*
X154349980Y-112123552D01*
X154302361Y-112028314D01*
X154254742Y-111980695D01*
X153683314Y-113409266D02*
X154349980Y-113409266D01*
X153302361Y-113171171D02*
X154016647Y-112933076D01*
X154016647Y-113552123D01*
X155709857Y-109673380D02*
X156043190Y-109197190D01*
X156281285Y-109673380D02*
X156281285Y-108673380D01*
X155900333Y-108673380D01*
X155805095Y-108721000D01*
X155757476Y-108768619D01*
X155709857Y-108863857D01*
X155709857Y-109006714D01*
X155757476Y-109101952D01*
X155805095Y-109149571D01*
X155900333Y-109197190D01*
X156281285Y-109197190D01*
X154805095Y-108673380D02*
X155281285Y-108673380D01*
X155328904Y-109149571D01*
X155281285Y-109101952D01*
X155186047Y-109054333D01*
X154947952Y-109054333D01*
X154852714Y-109101952D01*
X154805095Y-109149571D01*
X154757476Y-109244809D01*
X154757476Y-109482904D01*
X154805095Y-109578142D01*
X154852714Y-109625761D01*
X154947952Y-109673380D01*
X155186047Y-109673380D01*
X155281285Y-109625761D01*
X155328904Y-109578142D01*
X153900333Y-108673380D02*
X154090809Y-108673380D01*
X154186047Y-108721000D01*
X154233666Y-108768619D01*
X154328904Y-108911476D01*
X154376523Y-109101952D01*
X154376523Y-109482904D01*
X154328904Y-109578142D01*
X154281285Y-109625761D01*
X154186047Y-109673380D01*
X153995571Y-109673380D01*
X153900333Y-109625761D01*
X153852714Y-109578142D01*
X153805095Y-109482904D01*
X153805095Y-109244809D01*
X153852714Y-109149571D01*
X153900333Y-109101952D01*
X153995571Y-109054333D01*
X154186047Y-109054333D01*
X154281285Y-109101952D01*
X154328904Y-109149571D01*
X154376523Y-109244809D01*
X159291257Y-109673380D02*
X159624590Y-109197190D01*
X159862685Y-109673380D02*
X159862685Y-108673380D01*
X159481733Y-108673380D01*
X159386495Y-108721000D01*
X159338876Y-108768619D01*
X159291257Y-108863857D01*
X159291257Y-109006714D01*
X159338876Y-109101952D01*
X159386495Y-109149571D01*
X159481733Y-109197190D01*
X159862685Y-109197190D01*
X158386495Y-108673380D02*
X158862685Y-108673380D01*
X158910304Y-109149571D01*
X158862685Y-109101952D01*
X158767447Y-109054333D01*
X158529352Y-109054333D01*
X158434114Y-109101952D01*
X158386495Y-109149571D01*
X158338876Y-109244809D01*
X158338876Y-109482904D01*
X158386495Y-109578142D01*
X158434114Y-109625761D01*
X158529352Y-109673380D01*
X158767447Y-109673380D01*
X158862685Y-109625761D01*
X158910304Y-109578142D01*
X158005542Y-108673380D02*
X157338876Y-108673380D01*
X157767447Y-109673380D01*
X165488857Y-95195380D02*
X165822190Y-94719190D01*
X166060285Y-95195380D02*
X166060285Y-94195380D01*
X165679333Y-94195380D01*
X165584095Y-94243000D01*
X165536476Y-94290619D01*
X165488857Y-94385857D01*
X165488857Y-94528714D01*
X165536476Y-94623952D01*
X165584095Y-94671571D01*
X165679333Y-94719190D01*
X166060285Y-94719190D01*
X164584095Y-94195380D02*
X165060285Y-94195380D01*
X165107904Y-94671571D01*
X165060285Y-94623952D01*
X164965047Y-94576333D01*
X164726952Y-94576333D01*
X164631714Y-94623952D01*
X164584095Y-94671571D01*
X164536476Y-94766809D01*
X164536476Y-95004904D01*
X164584095Y-95100142D01*
X164631714Y-95147761D01*
X164726952Y-95195380D01*
X164965047Y-95195380D01*
X165060285Y-95147761D01*
X165107904Y-95100142D01*
X164060285Y-95195380D02*
X163869809Y-95195380D01*
X163774571Y-95147761D01*
X163726952Y-95100142D01*
X163631714Y-94957285D01*
X163584095Y-94766809D01*
X163584095Y-94385857D01*
X163631714Y-94290619D01*
X163679333Y-94243000D01*
X163774571Y-94195380D01*
X163965047Y-94195380D01*
X164060285Y-94243000D01*
X164107904Y-94290619D01*
X164155523Y-94385857D01*
X164155523Y-94623952D01*
X164107904Y-94719190D01*
X164060285Y-94766809D01*
X163965047Y-94814428D01*
X163774571Y-94814428D01*
X163679333Y-94766809D01*
X163631714Y-94719190D01*
X163584095Y-94623952D01*
X159000180Y-94276942D02*
X158523990Y-93943609D01*
X159000180Y-93705514D02*
X158000180Y-93705514D01*
X158000180Y-94086466D01*
X158047800Y-94181704D01*
X158095419Y-94229323D01*
X158190657Y-94276942D01*
X158333514Y-94276942D01*
X158428752Y-94229323D01*
X158476371Y-94181704D01*
X158523990Y-94086466D01*
X158523990Y-93705514D01*
X158000180Y-95134085D02*
X158000180Y-94943609D01*
X158047800Y-94848371D01*
X158095419Y-94800752D01*
X158238276Y-94705514D01*
X158428752Y-94657895D01*
X158809704Y-94657895D01*
X158904942Y-94705514D01*
X158952561Y-94753133D01*
X159000180Y-94848371D01*
X159000180Y-95038847D01*
X158952561Y-95134085D01*
X158904942Y-95181704D01*
X158809704Y-95229323D01*
X158571609Y-95229323D01*
X158476371Y-95181704D01*
X158428752Y-95134085D01*
X158381133Y-95038847D01*
X158381133Y-94848371D01*
X158428752Y-94753133D01*
X158476371Y-94705514D01*
X158571609Y-94657895D01*
X158000180Y-95848371D02*
X158000180Y-95943609D01*
X158047800Y-96038847D01*
X158095419Y-96086466D01*
X158190657Y-96134085D01*
X158381133Y-96181704D01*
X158619228Y-96181704D01*
X158809704Y-96134085D01*
X158904942Y-96086466D01*
X158952561Y-96038847D01*
X159000180Y-95943609D01*
X159000180Y-95848371D01*
X158952561Y-95753133D01*
X158904942Y-95705514D01*
X158809704Y-95657895D01*
X158619228Y-95610276D01*
X158381133Y-95610276D01*
X158190657Y-95657895D01*
X158095419Y-95705514D01*
X158047800Y-95753133D01*
X158000180Y-95848371D01*
X158148257Y-96285580D02*
X158481590Y-95809390D01*
X158719685Y-96285580D02*
X158719685Y-95285580D01*
X158338733Y-95285580D01*
X158243495Y-95333200D01*
X158195876Y-95380819D01*
X158148257Y-95476057D01*
X158148257Y-95618914D01*
X158195876Y-95714152D01*
X158243495Y-95761771D01*
X158338733Y-95809390D01*
X158719685Y-95809390D01*
X157291114Y-95285580D02*
X157481590Y-95285580D01*
X157576828Y-95333200D01*
X157624447Y-95380819D01*
X157719685Y-95523676D01*
X157767304Y-95714152D01*
X157767304Y-96095104D01*
X157719685Y-96190342D01*
X157672066Y-96237961D01*
X157576828Y-96285580D01*
X157386352Y-96285580D01*
X157291114Y-96237961D01*
X157243495Y-96190342D01*
X157195876Y-96095104D01*
X157195876Y-95857009D01*
X157243495Y-95761771D01*
X157291114Y-95714152D01*
X157386352Y-95666533D01*
X157576828Y-95666533D01*
X157672066Y-95714152D01*
X157719685Y-95761771D01*
X157767304Y-95857009D01*
X156243495Y-96285580D02*
X156814923Y-96285580D01*
X156529209Y-96285580D02*
X156529209Y-95285580D01*
X156624447Y-95428438D01*
X156719685Y-95523676D01*
X156814923Y-95571295D01*
X110269257Y-84466780D02*
X110602590Y-83990590D01*
X110840685Y-84466780D02*
X110840685Y-83466780D01*
X110459733Y-83466780D01*
X110364495Y-83514400D01*
X110316876Y-83562019D01*
X110269257Y-83657257D01*
X110269257Y-83800114D01*
X110316876Y-83895352D01*
X110364495Y-83942971D01*
X110459733Y-83990590D01*
X110840685Y-83990590D01*
X109412114Y-83466780D02*
X109602590Y-83466780D01*
X109697828Y-83514400D01*
X109745447Y-83562019D01*
X109840685Y-83704876D01*
X109888304Y-83895352D01*
X109888304Y-84276304D01*
X109840685Y-84371542D01*
X109793066Y-84419161D01*
X109697828Y-84466780D01*
X109507352Y-84466780D01*
X109412114Y-84419161D01*
X109364495Y-84371542D01*
X109316876Y-84276304D01*
X109316876Y-84038209D01*
X109364495Y-83942971D01*
X109412114Y-83895352D01*
X109507352Y-83847733D01*
X109697828Y-83847733D01*
X109793066Y-83895352D01*
X109840685Y-83942971D01*
X109888304Y-84038209D01*
X108935923Y-83562019D02*
X108888304Y-83514400D01*
X108793066Y-83466780D01*
X108554971Y-83466780D01*
X108459733Y-83514400D01*
X108412114Y-83562019D01*
X108364495Y-83657257D01*
X108364495Y-83752495D01*
X108412114Y-83895352D01*
X108983542Y-84466780D01*
X108364495Y-84466780D01*
X107703857Y-89175580D02*
X108037190Y-88699390D01*
X108275285Y-89175580D02*
X108275285Y-88175580D01*
X107894333Y-88175580D01*
X107799095Y-88223200D01*
X107751476Y-88270819D01*
X107703857Y-88366057D01*
X107703857Y-88508914D01*
X107751476Y-88604152D01*
X107799095Y-88651771D01*
X107894333Y-88699390D01*
X108275285Y-88699390D01*
X106846714Y-88175580D02*
X107037190Y-88175580D01*
X107132428Y-88223200D01*
X107180047Y-88270819D01*
X107275285Y-88413676D01*
X107322904Y-88604152D01*
X107322904Y-88985104D01*
X107275285Y-89080342D01*
X107227666Y-89127961D01*
X107132428Y-89175580D01*
X106941952Y-89175580D01*
X106846714Y-89127961D01*
X106799095Y-89080342D01*
X106751476Y-88985104D01*
X106751476Y-88747009D01*
X106799095Y-88651771D01*
X106846714Y-88604152D01*
X106941952Y-88556533D01*
X107132428Y-88556533D01*
X107227666Y-88604152D01*
X107275285Y-88651771D01*
X107322904Y-88747009D01*
X105894333Y-88175580D02*
X106084809Y-88175580D01*
X106180047Y-88223200D01*
X106227666Y-88270819D01*
X106322904Y-88413676D01*
X106370523Y-88604152D01*
X106370523Y-88985104D01*
X106322904Y-89080342D01*
X106275285Y-89127961D01*
X106180047Y-89175580D01*
X105989571Y-89175580D01*
X105894333Y-89127961D01*
X105846714Y-89080342D01*
X105799095Y-88985104D01*
X105799095Y-88747009D01*
X105846714Y-88651771D01*
X105894333Y-88604152D01*
X105989571Y-88556533D01*
X106180047Y-88556533D01*
X106275285Y-88604152D01*
X106322904Y-88651771D01*
X106370523Y-88747009D01*
X104120157Y-91207580D02*
X104453490Y-90731390D01*
X104691585Y-91207580D02*
X104691585Y-90207580D01*
X104310633Y-90207580D01*
X104215395Y-90255200D01*
X104167776Y-90302819D01*
X104120157Y-90398057D01*
X104120157Y-90540914D01*
X104167776Y-90636152D01*
X104215395Y-90683771D01*
X104310633Y-90731390D01*
X104691585Y-90731390D01*
X103263014Y-90207580D02*
X103453490Y-90207580D01*
X103548728Y-90255200D01*
X103596347Y-90302819D01*
X103691585Y-90445676D01*
X103739204Y-90636152D01*
X103739204Y-91017104D01*
X103691585Y-91112342D01*
X103643966Y-91159961D01*
X103548728Y-91207580D01*
X103358252Y-91207580D01*
X103263014Y-91159961D01*
X103215395Y-91112342D01*
X103167776Y-91017104D01*
X103167776Y-90779009D01*
X103215395Y-90683771D01*
X103263014Y-90636152D01*
X103358252Y-90588533D01*
X103548728Y-90588533D01*
X103643966Y-90636152D01*
X103691585Y-90683771D01*
X103739204Y-90779009D01*
X102834442Y-90207580D02*
X102167776Y-90207580D01*
X102596347Y-91207580D01*
X98737657Y-84619180D02*
X99070990Y-84142990D01*
X99309085Y-84619180D02*
X99309085Y-83619180D01*
X98928133Y-83619180D01*
X98832895Y-83666800D01*
X98785276Y-83714419D01*
X98737657Y-83809657D01*
X98737657Y-83952514D01*
X98785276Y-84047752D01*
X98832895Y-84095371D01*
X98928133Y-84142990D01*
X99309085Y-84142990D01*
X98404323Y-83619180D02*
X97737657Y-83619180D01*
X98166228Y-84619180D01*
X96880514Y-83619180D02*
X97356704Y-83619180D01*
X97404323Y-84095371D01*
X97356704Y-84047752D01*
X97261466Y-84000133D01*
X97023371Y-84000133D01*
X96928133Y-84047752D01*
X96880514Y-84095371D01*
X96832895Y-84190609D01*
X96832895Y-84428704D01*
X96880514Y-84523942D01*
X96928133Y-84571561D01*
X97023371Y-84619180D01*
X97261466Y-84619180D01*
X97356704Y-84571561D01*
X97404323Y-84523942D01*
X96389058Y-91975379D02*
X96722391Y-91499189D01*
X96960486Y-91975379D02*
X96960486Y-90975379D01*
X96579534Y-90975379D01*
X96484296Y-91022999D01*
X96436677Y-91070618D01*
X96389058Y-91165856D01*
X96389058Y-91308713D01*
X96436677Y-91403951D01*
X96484296Y-91451570D01*
X96579534Y-91499189D01*
X96960486Y-91499189D01*
X96055724Y-90975379D02*
X95389058Y-90975379D01*
X95817629Y-91975379D01*
X94865248Y-91403951D02*
X94960486Y-91356332D01*
X95008105Y-91308713D01*
X95055724Y-91213475D01*
X95055724Y-91165856D01*
X95008105Y-91070618D01*
X94960486Y-91022999D01*
X94865248Y-90975379D01*
X94674772Y-90975379D01*
X94579534Y-91022999D01*
X94531915Y-91070618D01*
X94484296Y-91165856D01*
X94484296Y-91213475D01*
X94531915Y-91308713D01*
X94579534Y-91356332D01*
X94674772Y-91403951D01*
X94865248Y-91403951D01*
X94960486Y-91451570D01*
X95008105Y-91499189D01*
X95055724Y-91594427D01*
X95055724Y-91784903D01*
X95008105Y-91880141D01*
X94960486Y-91927760D01*
X94865248Y-91975379D01*
X94674772Y-91975379D01*
X94579534Y-91927760D01*
X94531915Y-91880141D01*
X94484296Y-91784903D01*
X94484296Y-91594427D01*
X94531915Y-91499189D01*
X94579534Y-91451570D01*
X94674772Y-91403951D01*
X92616257Y-91537780D02*
X92949590Y-91061590D01*
X93187685Y-91537780D02*
X93187685Y-90537780D01*
X92806733Y-90537780D01*
X92711495Y-90585400D01*
X92663876Y-90633019D01*
X92616257Y-90728257D01*
X92616257Y-90871114D01*
X92663876Y-90966352D01*
X92711495Y-91013971D01*
X92806733Y-91061590D01*
X93187685Y-91061590D01*
X92282923Y-90537780D02*
X91616257Y-90537780D01*
X92044828Y-91537780D01*
X91187685Y-91537780D02*
X90997209Y-91537780D01*
X90901971Y-91490161D01*
X90854352Y-91442542D01*
X90759114Y-91299685D01*
X90711495Y-91109209D01*
X90711495Y-90728257D01*
X90759114Y-90633019D01*
X90806733Y-90585400D01*
X90901971Y-90537780D01*
X91092447Y-90537780D01*
X91187685Y-90585400D01*
X91235304Y-90633019D01*
X91282923Y-90728257D01*
X91282923Y-90966352D01*
X91235304Y-91061590D01*
X91187685Y-91109209D01*
X91092447Y-91156828D01*
X90901971Y-91156828D01*
X90806733Y-91109209D01*
X90759114Y-91061590D01*
X90711495Y-90966352D01*
X135135857Y-127859780D02*
X135469190Y-127383590D01*
X135707285Y-127859780D02*
X135707285Y-126859780D01*
X135326333Y-126859780D01*
X135231095Y-126907400D01*
X135183476Y-126955019D01*
X135135857Y-127050257D01*
X135135857Y-127193114D01*
X135183476Y-127288352D01*
X135231095Y-127335971D01*
X135326333Y-127383590D01*
X135707285Y-127383590D01*
X134564428Y-127288352D02*
X134659666Y-127240733D01*
X134707285Y-127193114D01*
X134754904Y-127097876D01*
X134754904Y-127050257D01*
X134707285Y-126955019D01*
X134659666Y-126907400D01*
X134564428Y-126859780D01*
X134373952Y-126859780D01*
X134278714Y-126907400D01*
X134231095Y-126955019D01*
X134183476Y-127050257D01*
X134183476Y-127097876D01*
X134231095Y-127193114D01*
X134278714Y-127240733D01*
X134373952Y-127288352D01*
X134564428Y-127288352D01*
X134659666Y-127335971D01*
X134707285Y-127383590D01*
X134754904Y-127478828D01*
X134754904Y-127669304D01*
X134707285Y-127764542D01*
X134659666Y-127812161D01*
X134564428Y-127859780D01*
X134373952Y-127859780D01*
X134278714Y-127812161D01*
X134231095Y-127764542D01*
X134183476Y-127669304D01*
X134183476Y-127478828D01*
X134231095Y-127383590D01*
X134278714Y-127335971D01*
X134373952Y-127288352D01*
X133231095Y-127859780D02*
X133802523Y-127859780D01*
X133516809Y-127859780D02*
X133516809Y-126859780D01*
X133612047Y-127002638D01*
X133707285Y-127097876D01*
X133802523Y-127145495D01*
X132051084Y-119591675D02*
X132384417Y-119115485D01*
X132622512Y-119591675D02*
X132622512Y-118591675D01*
X132241560Y-118591675D01*
X132146322Y-118639295D01*
X132098703Y-118686914D01*
X132051084Y-118782152D01*
X132051084Y-118925009D01*
X132098703Y-119020247D01*
X132146322Y-119067866D01*
X132241560Y-119115485D01*
X132622512Y-119115485D01*
X131479655Y-119020247D02*
X131574893Y-118972628D01*
X131622512Y-118925009D01*
X131670131Y-118829771D01*
X131670131Y-118782152D01*
X131622512Y-118686914D01*
X131574893Y-118639295D01*
X131479655Y-118591675D01*
X131289179Y-118591675D01*
X131193941Y-118639295D01*
X131146322Y-118686914D01*
X131098703Y-118782152D01*
X131098703Y-118829771D01*
X131146322Y-118925009D01*
X131193941Y-118972628D01*
X131289179Y-119020247D01*
X131479655Y-119020247D01*
X131574893Y-119067866D01*
X131622512Y-119115485D01*
X131670131Y-119210723D01*
X131670131Y-119401199D01*
X131622512Y-119496437D01*
X131574893Y-119544056D01*
X131479655Y-119591675D01*
X131289179Y-119591675D01*
X131193941Y-119544056D01*
X131146322Y-119496437D01*
X131098703Y-119401199D01*
X131098703Y-119210723D01*
X131146322Y-119115485D01*
X131193941Y-119067866D01*
X131289179Y-119020247D01*
X130717750Y-118686914D02*
X130670131Y-118639295D01*
X130574893Y-118591675D01*
X130336798Y-118591675D01*
X130241560Y-118639295D01*
X130193941Y-118686914D01*
X130146322Y-118782152D01*
X130146322Y-118877390D01*
X130193941Y-119020247D01*
X130765369Y-119591675D01*
X130146322Y-119591675D01*
X132051084Y-117559675D02*
X132384417Y-117083485D01*
X132622512Y-117559675D02*
X132622512Y-116559675D01*
X132241560Y-116559675D01*
X132146322Y-116607295D01*
X132098703Y-116654914D01*
X132051084Y-116750152D01*
X132051084Y-116893009D01*
X132098703Y-116988247D01*
X132146322Y-117035866D01*
X132241560Y-117083485D01*
X132622512Y-117083485D01*
X131479655Y-116988247D02*
X131574893Y-116940628D01*
X131622512Y-116893009D01*
X131670131Y-116797771D01*
X131670131Y-116750152D01*
X131622512Y-116654914D01*
X131574893Y-116607295D01*
X131479655Y-116559675D01*
X131289179Y-116559675D01*
X131193941Y-116607295D01*
X131146322Y-116654914D01*
X131098703Y-116750152D01*
X131098703Y-116797771D01*
X131146322Y-116893009D01*
X131193941Y-116940628D01*
X131289179Y-116988247D01*
X131479655Y-116988247D01*
X131574893Y-117035866D01*
X131622512Y-117083485D01*
X131670131Y-117178723D01*
X131670131Y-117369199D01*
X131622512Y-117464437D01*
X131574893Y-117512056D01*
X131479655Y-117559675D01*
X131289179Y-117559675D01*
X131193941Y-117512056D01*
X131146322Y-117464437D01*
X131098703Y-117369199D01*
X131098703Y-117178723D01*
X131146322Y-117083485D01*
X131193941Y-117035866D01*
X131289179Y-116988247D01*
X130765369Y-116559675D02*
X130146322Y-116559675D01*
X130479655Y-116940628D01*
X130336798Y-116940628D01*
X130241560Y-116988247D01*
X130193941Y-117035866D01*
X130146322Y-117131104D01*
X130146322Y-117369199D01*
X130193941Y-117464437D01*
X130241560Y-117512056D01*
X130336798Y-117559675D01*
X130622512Y-117559675D01*
X130717750Y-117512056D01*
X130765369Y-117464437D01*
X159511904Y-87631380D02*
X159511904Y-88440904D01*
X159464285Y-88536142D01*
X159416666Y-88583761D01*
X159321428Y-88631380D01*
X159130952Y-88631380D01*
X159035714Y-88583761D01*
X158988095Y-88536142D01*
X158940476Y-88440904D01*
X158940476Y-87631380D01*
X158559523Y-87631380D02*
X157940476Y-87631380D01*
X158273809Y-88012333D01*
X158130952Y-88012333D01*
X158035714Y-88059952D01*
X157988095Y-88107571D01*
X157940476Y-88202809D01*
X157940476Y-88440904D01*
X157988095Y-88536142D01*
X158035714Y-88583761D01*
X158130952Y-88631380D01*
X158416666Y-88631380D01*
X158511904Y-88583761D01*
X158559523Y-88536142D01*
X143001904Y-87631380D02*
X143001904Y-88440904D01*
X142954285Y-88536142D01*
X142906666Y-88583761D01*
X142811428Y-88631380D01*
X142620952Y-88631380D01*
X142525714Y-88583761D01*
X142478095Y-88536142D01*
X142430476Y-88440904D01*
X142430476Y-87631380D01*
X141525714Y-87964714D02*
X141525714Y-88631380D01*
X141763809Y-87583761D02*
X142001904Y-88298047D01*
X141382857Y-88298047D01*
X138212409Y-111231607D02*
X138212409Y-112041131D01*
X138164790Y-112136369D01*
X138117171Y-112183988D01*
X138021933Y-112231607D01*
X137831457Y-112231607D01*
X137736219Y-112183988D01*
X137688600Y-112136369D01*
X137640981Y-112041131D01*
X137640981Y-111231607D01*
X137260028Y-111231607D02*
X136593362Y-111231607D01*
X137021933Y-112231607D01*
X108181342Y-71874142D02*
X108228961Y-71826523D01*
X108276580Y-71683666D01*
X108276580Y-71588428D01*
X108228961Y-71445571D01*
X108133723Y-71350333D01*
X108038485Y-71302714D01*
X107848009Y-71255095D01*
X107705152Y-71255095D01*
X107514676Y-71302714D01*
X107419438Y-71350333D01*
X107324200Y-71445571D01*
X107276580Y-71588428D01*
X107276580Y-71683666D01*
X107324200Y-71826523D01*
X107371819Y-71874142D01*
X107371819Y-72255095D02*
X107324200Y-72302714D01*
X107276580Y-72397952D01*
X107276580Y-72636047D01*
X107324200Y-72731285D01*
X107371819Y-72778904D01*
X107467057Y-72826523D01*
X107562295Y-72826523D01*
X107705152Y-72778904D01*
X108276580Y-72207476D01*
X108276580Y-72826523D01*
X108276580Y-73778904D02*
X108276580Y-73207476D01*
X108276580Y-73493190D02*
X107276580Y-73493190D01*
X107419438Y-73397952D01*
X107514676Y-73302714D01*
X107562295Y-73207476D01*
X121899457Y-94175942D02*
X121947076Y-94223561D01*
X122089933Y-94271180D01*
X122185171Y-94271180D01*
X122328028Y-94223561D01*
X122423266Y-94128323D01*
X122470885Y-94033085D01*
X122518504Y-93842609D01*
X122518504Y-93699752D01*
X122470885Y-93509276D01*
X122423266Y-93414038D01*
X122328028Y-93318800D01*
X122185171Y-93271180D01*
X122089933Y-93271180D01*
X121947076Y-93318800D01*
X121899457Y-93366419D01*
X121518504Y-93366419D02*
X121470885Y-93318800D01*
X121375647Y-93271180D01*
X121137552Y-93271180D01*
X121042314Y-93318800D01*
X120994695Y-93366419D01*
X120947076Y-93461657D01*
X120947076Y-93556895D01*
X120994695Y-93699752D01*
X121566123Y-94271180D01*
X120947076Y-94271180D01*
X120566123Y-93366419D02*
X120518504Y-93318800D01*
X120423266Y-93271180D01*
X120185171Y-93271180D01*
X120089933Y-93318800D01*
X120042314Y-93366419D01*
X119994695Y-93461657D01*
X119994695Y-93556895D01*
X120042314Y-93699752D01*
X120613742Y-94271180D01*
X119994695Y-94271180D01*
X123070857Y-96164942D02*
X123118476Y-96212561D01*
X123261333Y-96260180D01*
X123356571Y-96260180D01*
X123499428Y-96212561D01*
X123594666Y-96117323D01*
X123642285Y-96022085D01*
X123689904Y-95831609D01*
X123689904Y-95688752D01*
X123642285Y-95498276D01*
X123594666Y-95403038D01*
X123499428Y-95307800D01*
X123356571Y-95260180D01*
X123261333Y-95260180D01*
X123118476Y-95307800D01*
X123070857Y-95355419D01*
X122213714Y-95260180D02*
X122404190Y-95260180D01*
X122499428Y-95307800D01*
X122547047Y-95355419D01*
X122642285Y-95498276D01*
X122689904Y-95688752D01*
X122689904Y-96069704D01*
X122642285Y-96164942D01*
X122594666Y-96212561D01*
X122499428Y-96260180D01*
X122308952Y-96260180D01*
X122213714Y-96212561D01*
X122166095Y-96164942D01*
X122118476Y-96069704D01*
X122118476Y-95831609D01*
X122166095Y-95736371D01*
X122213714Y-95688752D01*
X122308952Y-95641133D01*
X122499428Y-95641133D01*
X122594666Y-95688752D01*
X122642285Y-95736371D01*
X122689904Y-95831609D01*
X121785142Y-95260180D02*
X121166095Y-95260180D01*
X121499428Y-95641133D01*
X121356571Y-95641133D01*
X121261333Y-95688752D01*
X121213714Y-95736371D01*
X121166095Y-95831609D01*
X121166095Y-96069704D01*
X121213714Y-96164942D01*
X121261333Y-96212561D01*
X121356571Y-96260180D01*
X121642285Y-96260180D01*
X121737523Y-96212561D01*
X121785142Y-96164942D01*
X117098857Y-88478542D02*
X117146476Y-88526161D01*
X117289333Y-88573780D01*
X117384571Y-88573780D01*
X117527428Y-88526161D01*
X117622666Y-88430923D01*
X117670285Y-88335685D01*
X117717904Y-88145209D01*
X117717904Y-88002352D01*
X117670285Y-87811876D01*
X117622666Y-87716638D01*
X117527428Y-87621400D01*
X117384571Y-87573780D01*
X117289333Y-87573780D01*
X117146476Y-87621400D01*
X117098857Y-87669019D01*
X116241714Y-87573780D02*
X116432190Y-87573780D01*
X116527428Y-87621400D01*
X116575047Y-87669019D01*
X116670285Y-87811876D01*
X116717904Y-88002352D01*
X116717904Y-88383304D01*
X116670285Y-88478542D01*
X116622666Y-88526161D01*
X116527428Y-88573780D01*
X116336952Y-88573780D01*
X116241714Y-88526161D01*
X116194095Y-88478542D01*
X116146476Y-88383304D01*
X116146476Y-88145209D01*
X116194095Y-88049971D01*
X116241714Y-88002352D01*
X116336952Y-87954733D01*
X116527428Y-87954733D01*
X116622666Y-88002352D01*
X116670285Y-88049971D01*
X116717904Y-88145209D01*
X115289333Y-87907114D02*
X115289333Y-88573780D01*
X115527428Y-87526161D02*
X115765523Y-88240447D01*
X115146476Y-88240447D01*
X89941742Y-71874142D02*
X89989361Y-71826523D01*
X90036980Y-71683666D01*
X90036980Y-71588428D01*
X89989361Y-71445571D01*
X89894123Y-71350333D01*
X89798885Y-71302714D01*
X89608409Y-71255095D01*
X89465552Y-71255095D01*
X89275076Y-71302714D01*
X89179838Y-71350333D01*
X89084600Y-71445571D01*
X89036980Y-71588428D01*
X89036980Y-71683666D01*
X89084600Y-71826523D01*
X89132219Y-71874142D01*
X89036980Y-72731285D02*
X89036980Y-72540809D01*
X89084600Y-72445571D01*
X89132219Y-72397952D01*
X89275076Y-72302714D01*
X89465552Y-72255095D01*
X89846504Y-72255095D01*
X89941742Y-72302714D01*
X89989361Y-72350333D01*
X90036980Y-72445571D01*
X90036980Y-72636047D01*
X89989361Y-72731285D01*
X89941742Y-72778904D01*
X89846504Y-72826523D01*
X89608409Y-72826523D01*
X89513171Y-72778904D01*
X89465552Y-72731285D01*
X89417933Y-72636047D01*
X89417933Y-72445571D01*
X89465552Y-72350333D01*
X89513171Y-72302714D01*
X89608409Y-72255095D01*
X89036980Y-73731285D02*
X89036980Y-73255095D01*
X89513171Y-73207476D01*
X89465552Y-73255095D01*
X89417933Y-73350333D01*
X89417933Y-73588428D01*
X89465552Y-73683666D01*
X89513171Y-73731285D01*
X89608409Y-73778904D01*
X89846504Y-73778904D01*
X89941742Y-73731285D01*
X89989361Y-73683666D01*
X90036980Y-73588428D01*
X90036980Y-73350333D01*
X89989361Y-73255095D01*
X89941742Y-73207476D01*
X122461257Y-84252342D02*
X122508876Y-84299961D01*
X122651733Y-84347580D01*
X122746971Y-84347580D01*
X122889828Y-84299961D01*
X122985066Y-84204723D01*
X123032685Y-84109485D01*
X123080304Y-83919009D01*
X123080304Y-83776152D01*
X123032685Y-83585676D01*
X122985066Y-83490438D01*
X122889828Y-83395200D01*
X122746971Y-83347580D01*
X122651733Y-83347580D01*
X122508876Y-83395200D01*
X122461257Y-83442819D01*
X121604114Y-83347580D02*
X121794590Y-83347580D01*
X121889828Y-83395200D01*
X121937447Y-83442819D01*
X122032685Y-83585676D01*
X122080304Y-83776152D01*
X122080304Y-84157104D01*
X122032685Y-84252342D01*
X121985066Y-84299961D01*
X121889828Y-84347580D01*
X121699352Y-84347580D01*
X121604114Y-84299961D01*
X121556495Y-84252342D01*
X121508876Y-84157104D01*
X121508876Y-83919009D01*
X121556495Y-83823771D01*
X121604114Y-83776152D01*
X121699352Y-83728533D01*
X121889828Y-83728533D01*
X121985066Y-83776152D01*
X122032685Y-83823771D01*
X122080304Y-83919009D01*
X120651733Y-83347580D02*
X120842209Y-83347580D01*
X120937447Y-83395200D01*
X120985066Y-83442819D01*
X121080304Y-83585676D01*
X121127923Y-83776152D01*
X121127923Y-84157104D01*
X121080304Y-84252342D01*
X121032685Y-84299961D01*
X120937447Y-84347580D01*
X120746971Y-84347580D01*
X120651733Y-84299961D01*
X120604114Y-84252342D01*
X120556495Y-84157104D01*
X120556495Y-83919009D01*
X120604114Y-83823771D01*
X120651733Y-83776152D01*
X120746971Y-83728533D01*
X120937447Y-83728533D01*
X121032685Y-83776152D01*
X121080304Y-83823771D01*
X121127923Y-83919009D01*
X103460180Y-68584914D02*
X102460180Y-68584914D01*
X102460180Y-68823009D01*
X102507800Y-68965866D01*
X102603038Y-69061104D01*
X102698276Y-69108723D01*
X102888752Y-69156342D01*
X103031609Y-69156342D01*
X103222085Y-69108723D01*
X103317323Y-69061104D01*
X103412561Y-68965866D01*
X103460180Y-68823009D01*
X103460180Y-68584914D01*
X102555419Y-69537295D02*
X102507800Y-69584914D01*
X102460180Y-69680152D01*
X102460180Y-69918247D01*
X102507800Y-70013485D01*
X102555419Y-70061104D01*
X102650657Y-70108723D01*
X102745895Y-70108723D01*
X102888752Y-70061104D01*
X103460180Y-69489676D01*
X103460180Y-70108723D01*
X102460180Y-70727771D02*
X102460180Y-70823009D01*
X102507800Y-70918247D01*
X102555419Y-70965866D01*
X102650657Y-71013485D01*
X102841133Y-71061104D01*
X103079228Y-71061104D01*
X103269704Y-71013485D01*
X103364942Y-70965866D01*
X103412561Y-70918247D01*
X103460180Y-70823009D01*
X103460180Y-70727771D01*
X103412561Y-70632533D01*
X103364942Y-70584914D01*
X103269704Y-70537295D01*
X103079228Y-70489676D01*
X102841133Y-70489676D01*
X102650657Y-70537295D01*
X102555419Y-70584914D01*
X102507800Y-70632533D01*
X102460180Y-70727771D01*
X94878780Y-68584914D02*
X93878780Y-68584914D01*
X93878780Y-68823009D01*
X93926400Y-68965866D01*
X94021638Y-69061104D01*
X94116876Y-69108723D01*
X94307352Y-69156342D01*
X94450209Y-69156342D01*
X94640685Y-69108723D01*
X94735923Y-69061104D01*
X94831161Y-68965866D01*
X94878780Y-68823009D01*
X94878780Y-68584914D01*
X93974019Y-69537295D02*
X93926400Y-69584914D01*
X93878780Y-69680152D01*
X93878780Y-69918247D01*
X93926400Y-70013485D01*
X93974019Y-70061104D01*
X94069257Y-70108723D01*
X94164495Y-70108723D01*
X94307352Y-70061104D01*
X94878780Y-69489676D01*
X94878780Y-70108723D01*
X94878780Y-71061104D02*
X94878780Y-70489676D01*
X94878780Y-70775390D02*
X93878780Y-70775390D01*
X94021638Y-70680152D01*
X94116876Y-70584914D01*
X94164495Y-70489676D01*
X111069285Y-74271380D02*
X111069285Y-73271380D01*
X110831190Y-73271380D01*
X110688333Y-73319000D01*
X110593095Y-73414238D01*
X110545476Y-73509476D01*
X110497857Y-73699952D01*
X110497857Y-73842809D01*
X110545476Y-74033285D01*
X110593095Y-74128523D01*
X110688333Y-74223761D01*
X110831190Y-74271380D01*
X111069285Y-74271380D01*
X110116904Y-73366619D02*
X110069285Y-73319000D01*
X109974047Y-73271380D01*
X109735952Y-73271380D01*
X109640714Y-73319000D01*
X109593095Y-73366619D01*
X109545476Y-73461857D01*
X109545476Y-73557095D01*
X109593095Y-73699952D01*
X110164523Y-74271380D01*
X109545476Y-74271380D01*
X109164523Y-73366619D02*
X109116904Y-73319000D01*
X109021666Y-73271380D01*
X108783571Y-73271380D01*
X108688333Y-73319000D01*
X108640714Y-73366619D01*
X108593095Y-73461857D01*
X108593095Y-73557095D01*
X108640714Y-73699952D01*
X109212142Y-74271380D01*
X108593095Y-74271380D01*
X103255857Y-57187180D02*
X103589190Y-56710990D01*
X103827285Y-57187180D02*
X103827285Y-56187180D01*
X103446333Y-56187180D01*
X103351095Y-56234800D01*
X103303476Y-56282419D01*
X103255857Y-56377657D01*
X103255857Y-56520514D01*
X103303476Y-56615752D01*
X103351095Y-56663371D01*
X103446333Y-56710990D01*
X103827285Y-56710990D01*
X102922523Y-56187180D02*
X102303476Y-56187180D01*
X102636809Y-56568133D01*
X102493952Y-56568133D01*
X102398714Y-56615752D01*
X102351095Y-56663371D01*
X102303476Y-56758609D01*
X102303476Y-56996704D01*
X102351095Y-57091942D01*
X102398714Y-57139561D01*
X102493952Y-57187180D01*
X102779666Y-57187180D01*
X102874904Y-57139561D01*
X102922523Y-57091942D01*
X101446333Y-56520514D02*
X101446333Y-57187180D01*
X101684428Y-56139561D02*
X101922523Y-56853847D01*
X101303476Y-56853847D01*
X100097580Y-72813942D02*
X99621390Y-72480609D01*
X100097580Y-72242514D02*
X99097580Y-72242514D01*
X99097580Y-72623466D01*
X99145200Y-72718704D01*
X99192819Y-72766323D01*
X99288057Y-72813942D01*
X99430914Y-72813942D01*
X99526152Y-72766323D01*
X99573771Y-72718704D01*
X99621390Y-72623466D01*
X99621390Y-72242514D01*
X99097580Y-73147276D02*
X99097580Y-73766323D01*
X99478533Y-73432990D01*
X99478533Y-73575847D01*
X99526152Y-73671085D01*
X99573771Y-73718704D01*
X99669009Y-73766323D01*
X99907104Y-73766323D01*
X100002342Y-73718704D01*
X100049961Y-73671085D01*
X100097580Y-73575847D01*
X100097580Y-73290133D01*
X100049961Y-73194895D01*
X100002342Y-73147276D01*
X99097580Y-74623466D02*
X99097580Y-74432990D01*
X99145200Y-74337752D01*
X99192819Y-74290133D01*
X99335676Y-74194895D01*
X99526152Y-74147276D01*
X99907104Y-74147276D01*
X100002342Y-74194895D01*
X100049961Y-74242514D01*
X100097580Y-74337752D01*
X100097580Y-74528228D01*
X100049961Y-74623466D01*
X100002342Y-74671085D01*
X99907104Y-74718704D01*
X99669009Y-74718704D01*
X99573771Y-74671085D01*
X99526152Y-74623466D01*
X99478533Y-74528228D01*
X99478533Y-74337752D01*
X99526152Y-74242514D01*
X99573771Y-74194895D01*
X99669009Y-74147276D01*
X94915980Y-76242942D02*
X94439790Y-75909609D01*
X94915980Y-75671514D02*
X93915980Y-75671514D01*
X93915980Y-76052466D01*
X93963600Y-76147704D01*
X94011219Y-76195323D01*
X94106457Y-76242942D01*
X94249314Y-76242942D01*
X94344552Y-76195323D01*
X94392171Y-76147704D01*
X94439790Y-76052466D01*
X94439790Y-75671514D01*
X93915980Y-76576276D02*
X93915980Y-77195323D01*
X94296933Y-76861990D01*
X94296933Y-77004847D01*
X94344552Y-77100085D01*
X94392171Y-77147704D01*
X94487409Y-77195323D01*
X94725504Y-77195323D01*
X94820742Y-77147704D01*
X94868361Y-77100085D01*
X94915980Y-77004847D01*
X94915980Y-76719133D01*
X94868361Y-76623895D01*
X94820742Y-76576276D01*
X93915980Y-77528657D02*
X93915980Y-78195323D01*
X94915980Y-77766752D01*
X94915980Y-72813942D02*
X94439790Y-72480609D01*
X94915980Y-72242514D02*
X93915980Y-72242514D01*
X93915980Y-72623466D01*
X93963600Y-72718704D01*
X94011219Y-72766323D01*
X94106457Y-72813942D01*
X94249314Y-72813942D01*
X94344552Y-72766323D01*
X94392171Y-72718704D01*
X94439790Y-72623466D01*
X94439790Y-72242514D01*
X93915980Y-73147276D02*
X93915980Y-73766323D01*
X94296933Y-73432990D01*
X94296933Y-73575847D01*
X94344552Y-73671085D01*
X94392171Y-73718704D01*
X94487409Y-73766323D01*
X94725504Y-73766323D01*
X94820742Y-73718704D01*
X94868361Y-73671085D01*
X94915980Y-73575847D01*
X94915980Y-73290133D01*
X94868361Y-73194895D01*
X94820742Y-73147276D01*
X94344552Y-74337752D02*
X94296933Y-74242514D01*
X94249314Y-74194895D01*
X94154076Y-74147276D01*
X94106457Y-74147276D01*
X94011219Y-74194895D01*
X93963600Y-74242514D01*
X93915980Y-74337752D01*
X93915980Y-74528228D01*
X93963600Y-74623466D01*
X94011219Y-74671085D01*
X94106457Y-74718704D01*
X94154076Y-74718704D01*
X94249314Y-74671085D01*
X94296933Y-74623466D01*
X94344552Y-74528228D01*
X94344552Y-74337752D01*
X94392171Y-74242514D01*
X94439790Y-74194895D01*
X94535028Y-74147276D01*
X94725504Y-74147276D01*
X94820742Y-74194895D01*
X94868361Y-74242514D01*
X94915980Y-74337752D01*
X94915980Y-74528228D01*
X94868361Y-74623466D01*
X94820742Y-74671085D01*
X94725504Y-74718704D01*
X94535028Y-74718704D01*
X94439790Y-74671085D01*
X94392171Y-74623466D01*
X94344552Y-74528228D01*
X109558057Y-75787780D02*
X109891390Y-75311590D01*
X110129485Y-75787780D02*
X110129485Y-74787780D01*
X109748533Y-74787780D01*
X109653295Y-74835400D01*
X109605676Y-74883019D01*
X109558057Y-74978257D01*
X109558057Y-75121114D01*
X109605676Y-75216352D01*
X109653295Y-75263971D01*
X109748533Y-75311590D01*
X110129485Y-75311590D01*
X109224723Y-74787780D02*
X108605676Y-74787780D01*
X108939009Y-75168733D01*
X108796152Y-75168733D01*
X108700914Y-75216352D01*
X108653295Y-75263971D01*
X108605676Y-75359209D01*
X108605676Y-75597304D01*
X108653295Y-75692542D01*
X108700914Y-75740161D01*
X108796152Y-75787780D01*
X109081866Y-75787780D01*
X109177104Y-75740161D01*
X109224723Y-75692542D01*
X108129485Y-75787780D02*
X107939009Y-75787780D01*
X107843771Y-75740161D01*
X107796152Y-75692542D01*
X107700914Y-75549685D01*
X107653295Y-75359209D01*
X107653295Y-74978257D01*
X107700914Y-74883019D01*
X107748533Y-74835400D01*
X107843771Y-74787780D01*
X108034247Y-74787780D01*
X108129485Y-74835400D01*
X108177104Y-74883019D01*
X108224723Y-74978257D01*
X108224723Y-75216352D01*
X108177104Y-75311590D01*
X108129485Y-75359209D01*
X108034247Y-75406828D01*
X107843771Y-75406828D01*
X107748533Y-75359209D01*
X107700914Y-75311590D01*
X107653295Y-75216352D01*
X113012457Y-72487780D02*
X113345790Y-72011590D01*
X113583885Y-72487780D02*
X113583885Y-71487780D01*
X113202933Y-71487780D01*
X113107695Y-71535400D01*
X113060076Y-71583019D01*
X113012457Y-71678257D01*
X113012457Y-71821114D01*
X113060076Y-71916352D01*
X113107695Y-71963971D01*
X113202933Y-72011590D01*
X113583885Y-72011590D01*
X112155314Y-71821114D02*
X112155314Y-72487780D01*
X112393409Y-71440161D02*
X112631504Y-72154447D01*
X112012457Y-72154447D01*
X111441028Y-71487780D02*
X111345790Y-71487780D01*
X111250552Y-71535400D01*
X111202933Y-71583019D01*
X111155314Y-71678257D01*
X111107695Y-71868733D01*
X111107695Y-72106828D01*
X111155314Y-72297304D01*
X111202933Y-72392542D01*
X111250552Y-72440161D01*
X111345790Y-72487780D01*
X111441028Y-72487780D01*
X111536266Y-72440161D01*
X111583885Y-72392542D01*
X111631504Y-72297304D01*
X111679123Y-72106828D01*
X111679123Y-71868733D01*
X111631504Y-71678257D01*
X111583885Y-71583019D01*
X111536266Y-71535400D01*
X111441028Y-71487780D01*
X119032257Y-84347580D02*
X119365590Y-83871390D01*
X119603685Y-84347580D02*
X119603685Y-83347580D01*
X119222733Y-83347580D01*
X119127495Y-83395200D01*
X119079876Y-83442819D01*
X119032257Y-83538057D01*
X119032257Y-83680914D01*
X119079876Y-83776152D01*
X119127495Y-83823771D01*
X119222733Y-83871390D01*
X119603685Y-83871390D01*
X118175114Y-83680914D02*
X118175114Y-84347580D01*
X118413209Y-83299961D02*
X118651304Y-84014247D01*
X118032257Y-84014247D01*
X117127495Y-84347580D02*
X117698923Y-84347580D01*
X117413209Y-84347580D02*
X117413209Y-83347580D01*
X117508447Y-83490438D01*
X117603685Y-83585676D01*
X117698923Y-83633295D01*
X125890257Y-84347580D02*
X126223590Y-83871390D01*
X126461685Y-84347580D02*
X126461685Y-83347580D01*
X126080733Y-83347580D01*
X125985495Y-83395200D01*
X125937876Y-83442819D01*
X125890257Y-83538057D01*
X125890257Y-83680914D01*
X125937876Y-83776152D01*
X125985495Y-83823771D01*
X126080733Y-83871390D01*
X126461685Y-83871390D01*
X124985495Y-83347580D02*
X125461685Y-83347580D01*
X125509304Y-83823771D01*
X125461685Y-83776152D01*
X125366447Y-83728533D01*
X125128352Y-83728533D01*
X125033114Y-83776152D01*
X124985495Y-83823771D01*
X124937876Y-83919009D01*
X124937876Y-84157104D01*
X124985495Y-84252342D01*
X125033114Y-84299961D01*
X125128352Y-84347580D01*
X125366447Y-84347580D01*
X125461685Y-84299961D01*
X125509304Y-84252342D01*
X124366447Y-83776152D02*
X124461685Y-83728533D01*
X124509304Y-83680914D01*
X124556923Y-83585676D01*
X124556923Y-83538057D01*
X124509304Y-83442819D01*
X124461685Y-83395200D01*
X124366447Y-83347580D01*
X124175971Y-83347580D01*
X124080733Y-83395200D01*
X124033114Y-83442819D01*
X123985495Y-83538057D01*
X123985495Y-83585676D01*
X124033114Y-83680914D01*
X124080733Y-83728533D01*
X124175971Y-83776152D01*
X124366447Y-83776152D01*
X124461685Y-83823771D01*
X124509304Y-83871390D01*
X124556923Y-83966628D01*
X124556923Y-84157104D01*
X124509304Y-84252342D01*
X124461685Y-84299961D01*
X124366447Y-84347580D01*
X124175971Y-84347580D01*
X124080733Y-84299961D01*
X124033114Y-84252342D01*
X123985495Y-84157104D01*
X123985495Y-83966628D01*
X124033114Y-83871390D01*
X124080733Y-83823771D01*
X124175971Y-83776152D01*
X118016257Y-89833980D02*
X118349590Y-89357790D01*
X118587685Y-89833980D02*
X118587685Y-88833980D01*
X118206733Y-88833980D01*
X118111495Y-88881600D01*
X118063876Y-88929219D01*
X118016257Y-89024457D01*
X118016257Y-89167314D01*
X118063876Y-89262552D01*
X118111495Y-89310171D01*
X118206733Y-89357790D01*
X118587685Y-89357790D01*
X117444828Y-89262552D02*
X117540066Y-89214933D01*
X117587685Y-89167314D01*
X117635304Y-89072076D01*
X117635304Y-89024457D01*
X117587685Y-88929219D01*
X117540066Y-88881600D01*
X117444828Y-88833980D01*
X117254352Y-88833980D01*
X117159114Y-88881600D01*
X117111495Y-88929219D01*
X117063876Y-89024457D01*
X117063876Y-89072076D01*
X117111495Y-89167314D01*
X117159114Y-89214933D01*
X117254352Y-89262552D01*
X117444828Y-89262552D01*
X117540066Y-89310171D01*
X117587685Y-89357790D01*
X117635304Y-89453028D01*
X117635304Y-89643504D01*
X117587685Y-89738742D01*
X117540066Y-89786361D01*
X117444828Y-89833980D01*
X117254352Y-89833980D01*
X117159114Y-89786361D01*
X117111495Y-89738742D01*
X117063876Y-89643504D01*
X117063876Y-89453028D01*
X117111495Y-89357790D01*
X117159114Y-89310171D01*
X117254352Y-89262552D01*
X116159114Y-88833980D02*
X116635304Y-88833980D01*
X116682923Y-89310171D01*
X116635304Y-89262552D01*
X116540066Y-89214933D01*
X116301971Y-89214933D01*
X116206733Y-89262552D01*
X116159114Y-89310171D01*
X116111495Y-89405409D01*
X116111495Y-89643504D01*
X116159114Y-89738742D01*
X116206733Y-89786361D01*
X116301971Y-89833980D01*
X116540066Y-89833980D01*
X116635304Y-89786361D01*
X116682923Y-89738742D01*
X116912380Y-84370942D02*
X116436190Y-84037609D01*
X116912380Y-83799514D02*
X115912380Y-83799514D01*
X115912380Y-84180466D01*
X115960000Y-84275704D01*
X116007619Y-84323323D01*
X116102857Y-84370942D01*
X116245714Y-84370942D01*
X116340952Y-84323323D01*
X116388571Y-84275704D01*
X116436190Y-84180466D01*
X116436190Y-83799514D01*
X116340952Y-84942371D02*
X116293333Y-84847133D01*
X116245714Y-84799514D01*
X116150476Y-84751895D01*
X116102857Y-84751895D01*
X116007619Y-84799514D01*
X115960000Y-84847133D01*
X115912380Y-84942371D01*
X115912380Y-85132847D01*
X115960000Y-85228085D01*
X116007619Y-85275704D01*
X116102857Y-85323323D01*
X116150476Y-85323323D01*
X116245714Y-85275704D01*
X116293333Y-85228085D01*
X116340952Y-85132847D01*
X116340952Y-84942371D01*
X116388571Y-84847133D01*
X116436190Y-84799514D01*
X116531428Y-84751895D01*
X116721904Y-84751895D01*
X116817142Y-84799514D01*
X116864761Y-84847133D01*
X116912380Y-84942371D01*
X116912380Y-85132847D01*
X116864761Y-85228085D01*
X116817142Y-85275704D01*
X116721904Y-85323323D01*
X116531428Y-85323323D01*
X116436190Y-85275704D01*
X116388571Y-85228085D01*
X116340952Y-85132847D01*
X115912380Y-86180466D02*
X115912380Y-85989990D01*
X115960000Y-85894752D01*
X116007619Y-85847133D01*
X116150476Y-85751895D01*
X116340952Y-85704276D01*
X116721904Y-85704276D01*
X116817142Y-85751895D01*
X116864761Y-85799514D01*
X116912380Y-85894752D01*
X116912380Y-86085228D01*
X116864761Y-86180466D01*
X116817142Y-86228085D01*
X116721904Y-86275704D01*
X116483809Y-86275704D01*
X116388571Y-86228085D01*
X116340952Y-86180466D01*
X116293333Y-86085228D01*
X116293333Y-85894752D01*
X116340952Y-85799514D01*
X116388571Y-85751895D01*
X116483809Y-85704276D01*
X118231180Y-84370942D02*
X117754990Y-84037609D01*
X118231180Y-83799514D02*
X117231180Y-83799514D01*
X117231180Y-84180466D01*
X117278800Y-84275704D01*
X117326419Y-84323323D01*
X117421657Y-84370942D01*
X117564514Y-84370942D01*
X117659752Y-84323323D01*
X117707371Y-84275704D01*
X117754990Y-84180466D01*
X117754990Y-83799514D01*
X117659752Y-84942371D02*
X117612133Y-84847133D01*
X117564514Y-84799514D01*
X117469276Y-84751895D01*
X117421657Y-84751895D01*
X117326419Y-84799514D01*
X117278800Y-84847133D01*
X117231180Y-84942371D01*
X117231180Y-85132847D01*
X117278800Y-85228085D01*
X117326419Y-85275704D01*
X117421657Y-85323323D01*
X117469276Y-85323323D01*
X117564514Y-85275704D01*
X117612133Y-85228085D01*
X117659752Y-85132847D01*
X117659752Y-84942371D01*
X117707371Y-84847133D01*
X117754990Y-84799514D01*
X117850228Y-84751895D01*
X118040704Y-84751895D01*
X118135942Y-84799514D01*
X118183561Y-84847133D01*
X118231180Y-84942371D01*
X118231180Y-85132847D01*
X118183561Y-85228085D01*
X118135942Y-85275704D01*
X118040704Y-85323323D01*
X117850228Y-85323323D01*
X117754990Y-85275704D01*
X117707371Y-85228085D01*
X117659752Y-85132847D01*
X117231180Y-85656657D02*
X117231180Y-86323323D01*
X118231180Y-85894752D01*
X117796180Y-86283895D02*
X118605704Y-86283895D01*
X118700942Y-86331514D01*
X118748561Y-86379133D01*
X118796180Y-86474371D01*
X118796180Y-86664847D01*
X118748561Y-86760085D01*
X118700942Y-86807704D01*
X118605704Y-86855323D01*
X117796180Y-86855323D01*
X117796180Y-87807704D02*
X117796180Y-87331514D01*
X118272371Y-87283895D01*
X118224752Y-87331514D01*
X118177133Y-87426752D01*
X118177133Y-87664847D01*
X118224752Y-87760085D01*
X118272371Y-87807704D01*
X118367609Y-87855323D01*
X118605704Y-87855323D01*
X118700942Y-87807704D01*
X118748561Y-87760085D01*
X118796180Y-87664847D01*
X118796180Y-87426752D01*
X118748561Y-87331514D01*
X118700942Y-87283895D01*
M02*
