G04 #@! TF.GenerationSoftware,KiCad,Pcbnew,5.1.2-f72e74a~84~ubuntu18.04.1*
G04 #@! TF.CreationDate,2019-08-21T00:14:30+02:00*
G04 #@! TF.ProjectId,Tuareg,54756172-6567-42e6-9b69-6361645f7063,rev?*
G04 #@! TF.SameCoordinates,Original*
G04 #@! TF.FileFunction,Legend,Top*
G04 #@! TF.FilePolarity,Positive*
%FSLAX46Y46*%
G04 Gerber Fmt 4.6, Leading zero omitted, Abs format (unit mm)*
G04 Created by KiCad (PCBNEW 5.1.2-f72e74a~84~ubuntu18.04.1) date 2019-08-21 00:14:30*
%MOMM*%
%LPD*%
G04 APERTURE LIST*
%ADD10C,0.120000*%
%ADD11C,0.381000*%
%ADD12C,0.150000*%
%ADD13C,0.304800*%
G04 APERTURE END LIST*
D10*
X152541200Y-132003800D02*
G75*
G03X152541200Y-132003800I-700000J0D01*
G01*
X150458400Y-133019800D02*
G75*
G03X150458400Y-133019800I-700000J0D01*
G01*
X150839400Y-135077200D02*
G75*
G03X150839400Y-135077200I-700000J0D01*
G01*
X148832800Y-134416800D02*
G75*
G03X148832800Y-134416800I-700000J0D01*
G01*
X137936200Y-141960600D02*
G75*
G03X137936200Y-141960600I-700000J0D01*
G01*
X138164800Y-139827000D02*
G75*
G03X138164800Y-139827000I-700000J0D01*
G01*
X136082000Y-140843000D02*
G75*
G03X136082000Y-140843000I-700000J0D01*
G01*
X128893800Y-137845800D02*
G75*
G03X128893800Y-137845800I-700000J0D01*
G01*
X130671800Y-139369800D02*
G75*
G03X130671800Y-139369800I-700000J0D01*
G01*
X127268200Y-136321800D02*
G75*
G03X127268200Y-136321800I-700000J0D01*
G01*
X133364200Y-139776200D02*
G75*
G03X133364200Y-139776200I-700000J0D01*
G01*
X139866600Y-141122400D02*
G75*
G03X139866600Y-141122400I-700000J0D01*
G01*
X144997400Y-124612400D02*
G75*
G03X144997400Y-124612400I-700000J0D01*
G01*
D11*
X162200400Y-65769601D02*
X162200400Y-51845321D01*
X154732800Y-65774681D02*
X154732800Y-51825001D01*
X154819160Y-65850881D02*
X162119120Y-65850881D01*
X102736460Y-65795001D02*
X110102460Y-65795001D01*
X110071980Y-65784841D02*
X110071980Y-51814841D01*
X102784720Y-51825001D02*
X102784720Y-65795001D01*
D10*
X165579800Y-103809800D02*
X166039800Y-103809800D01*
X160045400Y-99974400D02*
X160020000Y-104013000D01*
X165579400Y-105646400D02*
X165579400Y-105706400D01*
X166039400Y-105646400D02*
X165579400Y-105646400D01*
X165582600Y-103809800D02*
X165582600Y-100203000D01*
X150612800Y-123242800D02*
X150612800Y-122222800D01*
X155812800Y-123242800D02*
X155812800Y-122222800D01*
X150612800Y-125782800D02*
X150612800Y-124762800D01*
X155812800Y-125782800D02*
X155812800Y-124762800D01*
X150612800Y-128322800D02*
X150612800Y-127302800D01*
X155812800Y-128322800D02*
X155812800Y-127302800D01*
X150612800Y-120702800D02*
X150612800Y-120132800D01*
X155812800Y-120702800D02*
X155812800Y-120132800D01*
X150612800Y-130412800D02*
X150612800Y-129842800D01*
X155812800Y-130412800D02*
X155812800Y-129842800D01*
X157252800Y-129842800D02*
X155812800Y-129842800D01*
X155812800Y-120132800D02*
X150612800Y-120132800D01*
X155812800Y-130412800D02*
X150612800Y-130412800D01*
X112066000Y-97785422D02*
X112066000Y-98302578D01*
X113486000Y-97785422D02*
X113486000Y-98302578D01*
X114098000Y-97785422D02*
X114098000Y-98302578D01*
X115518000Y-97785422D02*
X115518000Y-98302578D01*
X110692000Y-103068622D02*
X110692000Y-103585778D01*
X109272000Y-103068622D02*
X109272000Y-103585778D01*
X108622000Y-98051536D02*
X108622000Y-99255664D01*
X111342000Y-98051536D02*
X111342000Y-99255664D01*
X143000000Y-77018000D02*
X141540000Y-77018000D01*
X143000000Y-73858000D02*
X140840000Y-73858000D01*
X143000000Y-73858000D02*
X143000000Y-74788000D01*
X143000000Y-77018000D02*
X143000000Y-76088000D01*
X91943422Y-119074000D02*
X92460578Y-119074000D01*
X91943422Y-117654000D02*
X92460578Y-117654000D01*
X91943422Y-121360000D02*
X92460578Y-121360000D01*
X91943422Y-119940000D02*
X92460578Y-119940000D01*
X140208000Y-77988000D02*
X140208000Y-73688000D01*
X138208000Y-77988000D02*
X140208000Y-77988000D01*
X138208000Y-73688000D02*
X138208000Y-77988000D01*
X116844578Y-80316000D02*
X116327422Y-80316000D01*
X116844578Y-81736000D02*
X116327422Y-81736000D01*
X93467422Y-100024000D02*
X93984578Y-100024000D01*
X93467422Y-98604000D02*
X93984578Y-98604000D01*
X93467422Y-97992000D02*
X93984578Y-97992000D01*
X93467422Y-96572000D02*
X93984578Y-96572000D01*
X108169500Y-104637500D02*
X107544500Y-104637500D01*
X107857000Y-104325000D02*
X107857000Y-104950000D01*
X104476437Y-105190000D02*
X103412000Y-106254437D01*
X107867563Y-105190000D02*
X108932000Y-106254437D01*
X107867563Y-105190000D02*
X107232000Y-105190000D01*
X104476437Y-105190000D02*
X105112000Y-105190000D01*
X103412000Y-106254437D02*
X103412000Y-110710000D01*
X108932000Y-106254437D02*
X108932000Y-110710000D01*
X108932000Y-110710000D02*
X107232000Y-110710000D01*
X103412000Y-110710000D02*
X105112000Y-110710000D01*
X98774000Y-111208000D02*
X99274000Y-111208000D01*
X99024000Y-111458000D02*
X99024000Y-110958000D01*
X101779563Y-110718000D02*
X102844000Y-109653563D01*
X99388437Y-110718000D02*
X98324000Y-109653563D01*
X99388437Y-110718000D02*
X99524000Y-110718000D01*
X101779563Y-110718000D02*
X101644000Y-110718000D01*
X102844000Y-109653563D02*
X102844000Y-106198000D01*
X98324000Y-109653563D02*
X98324000Y-106198000D01*
X98324000Y-106198000D02*
X99524000Y-106198000D01*
X102844000Y-106198000D02*
X101644000Y-106198000D01*
X90952250Y-82594750D02*
X90952250Y-83382250D01*
X90558500Y-82988500D02*
X91346000Y-82988500D01*
X91586000Y-87181563D02*
X92650437Y-88246000D01*
X91586000Y-82490437D02*
X92650437Y-81426000D01*
X91586000Y-82490437D02*
X91586000Y-83776000D01*
X91586000Y-87181563D02*
X91586000Y-85896000D01*
X92650437Y-88246000D02*
X98406000Y-88246000D01*
X92650437Y-81426000D02*
X98406000Y-81426000D01*
X98406000Y-81426000D02*
X98406000Y-83776000D01*
X98406000Y-88246000D02*
X98406000Y-85896000D01*
X101595422Y-113740000D02*
X102112578Y-113740000D01*
X101595422Y-112320000D02*
X102112578Y-112320000D01*
X90952250Y-90214750D02*
X90952250Y-91002250D01*
X90558500Y-90608500D02*
X91346000Y-90608500D01*
X91586000Y-94801563D02*
X92650437Y-95866000D01*
X91586000Y-90110437D02*
X92650437Y-89046000D01*
X91586000Y-90110437D02*
X91586000Y-91396000D01*
X91586000Y-94801563D02*
X91586000Y-93516000D01*
X92650437Y-95866000D02*
X98406000Y-95866000D01*
X92650437Y-89046000D02*
X98406000Y-89046000D01*
X98406000Y-89046000D02*
X98406000Y-91396000D01*
X98406000Y-95866000D02*
X98406000Y-93516000D01*
X138434578Y-78538000D02*
X137917422Y-78538000D01*
X138434578Y-79958000D02*
X137917422Y-79958000D01*
X166064000Y-75696578D02*
X166064000Y-75179422D01*
X164644000Y-75696578D02*
X164644000Y-75179422D01*
X164079422Y-73354000D02*
X164596578Y-73354000D01*
X164079422Y-71934000D02*
X164596578Y-71934000D01*
X160015422Y-73354000D02*
X160532578Y-73354000D01*
X160015422Y-71934000D02*
X160532578Y-71934000D01*
X143759422Y-73354000D02*
X144276578Y-73354000D01*
X143759422Y-71934000D02*
X144276578Y-71934000D01*
X151887422Y-73354000D02*
X152404578Y-73354000D01*
X151887422Y-71934000D02*
X152404578Y-71934000D01*
X147823422Y-73354000D02*
X148340578Y-73354000D01*
X147823422Y-71934000D02*
X148340578Y-71934000D01*
X155951422Y-73354000D02*
X156468578Y-73354000D01*
X155951422Y-71934000D02*
X156468578Y-71934000D01*
X162580822Y-107542400D02*
X163097978Y-107542400D01*
X162580822Y-106122400D02*
X163097978Y-106122400D01*
X160882400Y-128071378D02*
X160882400Y-127554222D01*
X159462400Y-128071378D02*
X159462400Y-127554222D01*
X125954022Y-134237800D02*
X126471178Y-134237800D01*
X125954022Y-132817800D02*
X126471178Y-132817800D01*
X125928622Y-126059000D02*
X126445778Y-126059000D01*
X125928622Y-124639000D02*
X126445778Y-124639000D01*
X122272000Y-91782000D02*
X121172000Y-91782000D01*
X122272000Y-93592000D02*
X122272000Y-91782000D01*
X123772000Y-93592000D02*
X122272000Y-93592000D01*
X122272000Y-85002000D02*
X117147000Y-85002000D01*
X122272000Y-83192000D02*
X122272000Y-85002000D01*
X123772000Y-83192000D02*
X122272000Y-83192000D01*
X115872800Y-104958000D02*
X114412800Y-104958000D01*
X115872800Y-101798000D02*
X113712800Y-101798000D01*
X115872800Y-101798000D02*
X115872800Y-102728000D01*
X115872800Y-104958000D02*
X115872800Y-104028000D01*
X163320000Y-77018000D02*
X161860000Y-77018000D01*
X163320000Y-73858000D02*
X161160000Y-73858000D01*
X163320000Y-73858000D02*
X163320000Y-74788000D01*
X163320000Y-77018000D02*
X163320000Y-76088000D01*
X159256000Y-77018000D02*
X157796000Y-77018000D01*
X159256000Y-73858000D02*
X157096000Y-73858000D01*
X159256000Y-73858000D02*
X159256000Y-74788000D01*
X159256000Y-77018000D02*
X159256000Y-76088000D01*
X151128000Y-77018000D02*
X149668000Y-77018000D01*
X151128000Y-73858000D02*
X148968000Y-73858000D01*
X151128000Y-73858000D02*
X151128000Y-74788000D01*
X151128000Y-77018000D02*
X151128000Y-76088000D01*
X147064000Y-77018000D02*
X145604000Y-77018000D01*
X147064000Y-73858000D02*
X144904000Y-73858000D01*
X147064000Y-73858000D02*
X147064000Y-74788000D01*
X147064000Y-77018000D02*
X147064000Y-76088000D01*
X155192000Y-77018000D02*
X153732000Y-77018000D01*
X155192000Y-73858000D02*
X153032000Y-73858000D01*
X155192000Y-73858000D02*
X155192000Y-74788000D01*
X155192000Y-77018000D02*
X155192000Y-76088000D01*
X111558000Y-103094022D02*
X111558000Y-103611178D01*
X112978000Y-103094022D02*
X112978000Y-103611178D01*
X102412000Y-95708000D02*
X102412000Y-92708000D01*
X115012000Y-95708000D02*
X102412000Y-95708000D01*
X115012000Y-92708000D02*
X115012000Y-95708000D01*
X115012000Y-83108000D02*
X115012000Y-86108000D01*
X102412000Y-83108000D02*
X115012000Y-83108000D01*
X102412000Y-86108000D02*
X102412000Y-83108000D01*
D12*
X100373000Y-121397000D02*
X101773000Y-121397000D01*
X100373000Y-116297000D02*
X96223000Y-116297000D01*
X100373000Y-121447000D02*
X96223000Y-121447000D01*
X100373000Y-116297000D02*
X100373000Y-116442000D01*
X96223000Y-116297000D02*
X96223000Y-116442000D01*
X96223000Y-121447000D02*
X96223000Y-121302000D01*
X100373000Y-121447000D02*
X100373000Y-121397000D01*
X100373000Y-129779000D02*
X101773000Y-129779000D01*
X100373000Y-124679000D02*
X96223000Y-124679000D01*
X100373000Y-129829000D02*
X96223000Y-129829000D01*
X100373000Y-124679000D02*
X100373000Y-124824000D01*
X96223000Y-124679000D02*
X96223000Y-124824000D01*
X96223000Y-129829000D02*
X96223000Y-129684000D01*
X100373000Y-129829000D02*
X100373000Y-129779000D01*
D10*
X127387000Y-75841000D02*
X127387000Y-76941000D01*
X127657000Y-75841000D02*
X127387000Y-75841000D01*
X127657000Y-74341000D02*
X127657000Y-75841000D01*
X121027000Y-75841000D02*
X121027000Y-78671000D01*
X120757000Y-75841000D02*
X121027000Y-75841000D01*
X120757000Y-74341000D02*
X120757000Y-75841000D01*
X135260000Y-75944000D02*
X135260000Y-77044000D01*
X135530000Y-75944000D02*
X135260000Y-75944000D01*
X135530000Y-74444000D02*
X135530000Y-75944000D01*
X128900000Y-75944000D02*
X128900000Y-78774000D01*
X128630000Y-75944000D02*
X128900000Y-75944000D01*
X128630000Y-74444000D02*
X128630000Y-75944000D01*
X103586200Y-75485400D02*
X103586200Y-76585400D01*
X103856200Y-75485400D02*
X103586200Y-75485400D01*
X103856200Y-73985400D02*
X103856200Y-75485400D01*
X97226200Y-75485400D02*
X97226200Y-78315400D01*
X96956200Y-75485400D02*
X97226200Y-75485400D01*
X96956200Y-73985400D02*
X96956200Y-75485400D01*
X115449000Y-75793000D02*
X115449000Y-76893000D01*
X115719000Y-75793000D02*
X115449000Y-75793000D01*
X115719000Y-74293000D02*
X115719000Y-75793000D01*
X109089000Y-75793000D02*
X109089000Y-78623000D01*
X108819000Y-75793000D02*
X109089000Y-75793000D01*
X108819000Y-74293000D02*
X108819000Y-75793000D01*
X95839200Y-75513600D02*
X95839200Y-76613600D01*
X96109200Y-75513600D02*
X95839200Y-75513600D01*
X96109200Y-74013600D02*
X96109200Y-75513600D01*
X89479200Y-75513600D02*
X89479200Y-78343600D01*
X89209200Y-75513600D02*
X89479200Y-75513600D01*
X89209200Y-74013600D02*
X89209200Y-75513600D01*
X119270864Y-96633200D02*
X118066736Y-96633200D01*
X119270864Y-99353200D02*
X118066736Y-99353200D01*
X164079422Y-69290000D02*
X164596578Y-69290000D01*
X164079422Y-67870000D02*
X164596578Y-67870000D01*
X160015422Y-69290000D02*
X160532578Y-69290000D01*
X160015422Y-67870000D02*
X160532578Y-67870000D01*
X143759422Y-69290000D02*
X144276578Y-69290000D01*
X143759422Y-67870000D02*
X144276578Y-67870000D01*
X164596578Y-69902000D02*
X164079422Y-69902000D01*
X164596578Y-71322000D02*
X164079422Y-71322000D01*
X160532578Y-69902000D02*
X160015422Y-69902000D01*
X160532578Y-71322000D02*
X160015422Y-71322000D01*
X144276578Y-69902000D02*
X143759422Y-69902000D01*
X144276578Y-71322000D02*
X143759422Y-71322000D01*
X151887422Y-69290000D02*
X152404578Y-69290000D01*
X151887422Y-67870000D02*
X152404578Y-67870000D01*
X147823422Y-69290000D02*
X148340578Y-69290000D01*
X147823422Y-67870000D02*
X148340578Y-67870000D01*
X155951422Y-69290000D02*
X156468578Y-69290000D01*
X155951422Y-67870000D02*
X156468578Y-67870000D01*
X152404578Y-69902000D02*
X151887422Y-69902000D01*
X152404578Y-71322000D02*
X151887422Y-71322000D01*
X148340578Y-69902000D02*
X147823422Y-69902000D01*
X148340578Y-71322000D02*
X147823422Y-71322000D01*
X156468578Y-69902000D02*
X155951422Y-69902000D01*
X156468578Y-71322000D02*
X155951422Y-71322000D01*
X122652022Y-81329600D02*
X123169178Y-81329600D01*
X122652022Y-79909600D02*
X123169178Y-79909600D01*
X104398578Y-116384000D02*
X103881422Y-116384000D01*
X104398578Y-117804000D02*
X103881422Y-117804000D01*
X104398578Y-119940000D02*
X103881422Y-119940000D01*
X104398578Y-121360000D02*
X103881422Y-121360000D01*
X96007422Y-123747600D02*
X96524578Y-123747600D01*
X96007422Y-122327600D02*
X96524578Y-122327600D01*
X130551422Y-81736000D02*
X131068578Y-81736000D01*
X130551422Y-80316000D02*
X131068578Y-80316000D01*
X104398578Y-126036000D02*
X103881422Y-126036000D01*
X104398578Y-127456000D02*
X103881422Y-127456000D01*
X104398578Y-128322000D02*
X103881422Y-128322000D01*
X104398578Y-129742000D02*
X103881422Y-129742000D01*
X110663222Y-81736000D02*
X111180378Y-81736000D01*
X110663222Y-80316000D02*
X111180378Y-80316000D01*
X93562000Y-131158064D02*
X93562000Y-129953936D01*
X90842000Y-131158064D02*
X90842000Y-129953936D01*
X90842000Y-124619936D02*
X90842000Y-125824064D01*
X93562000Y-124619936D02*
X93562000Y-125824064D01*
X129462600Y-129696978D02*
X129462600Y-129179822D01*
X128042600Y-129696978D02*
X128042600Y-129179822D01*
X100630000Y-96372000D02*
X99130000Y-96372000D01*
X99130000Y-96372000D02*
X99130000Y-96642000D01*
X99130000Y-96642000D02*
X96300000Y-96642000D01*
X100630000Y-103272000D02*
X99130000Y-103272000D01*
X99130000Y-103272000D02*
X99130000Y-103002000D01*
X99130000Y-103002000D02*
X98030000Y-103002000D01*
X97644000Y-104104000D02*
X97644000Y-110114000D01*
X90824000Y-106354000D02*
X90824000Y-110114000D01*
X97644000Y-110114000D02*
X96384000Y-110114000D01*
X90824000Y-110114000D02*
X92084000Y-110114000D01*
D12*
X131959600Y-127016000D02*
X130934600Y-127016000D01*
X142309600Y-126016000D02*
X141234600Y-126016000D01*
X142309600Y-136366000D02*
X141234600Y-136366000D01*
X131959600Y-136366000D02*
X133034600Y-136366000D01*
X131959600Y-126016000D02*
X133034600Y-126016000D01*
X131959600Y-136366000D02*
X131959600Y-135291000D01*
X142309600Y-136366000D02*
X142309600Y-135291000D01*
X142309600Y-126016000D02*
X142309600Y-127091000D01*
X131959600Y-126016000D02*
X131959600Y-127016000D01*
D10*
X163097978Y-96470400D02*
X162580822Y-96470400D01*
X163097978Y-97890400D02*
X162580822Y-97890400D01*
X126844200Y-129068400D02*
X126844200Y-129808400D01*
X123244200Y-132138400D02*
X123244200Y-131748400D01*
X126844200Y-132138400D02*
X123244200Y-132138400D01*
X126844200Y-131748400D02*
X126844200Y-132138400D01*
X123244200Y-129808400D02*
X123244200Y-129068400D01*
X126844200Y-126738400D02*
X126844200Y-127128400D01*
X123244200Y-126738400D02*
X126844200Y-126738400D01*
X123244200Y-127128400D02*
X123244200Y-126738400D01*
D12*
X132126123Y-141708142D02*
X132078504Y-141755761D01*
X131935647Y-141803380D01*
X131840409Y-141803380D01*
X131697552Y-141755761D01*
X131602314Y-141660523D01*
X131554695Y-141565285D01*
X131507076Y-141374809D01*
X131507076Y-141231952D01*
X131554695Y-141041476D01*
X131602314Y-140946238D01*
X131697552Y-140851000D01*
X131840409Y-140803380D01*
X131935647Y-140803380D01*
X132078504Y-140851000D01*
X132126123Y-140898619D01*
X132554695Y-141803380D02*
X132554695Y-140803380D01*
X132554695Y-141279571D02*
X133126123Y-141279571D01*
X133126123Y-141803380D02*
X133126123Y-140803380D01*
X134126123Y-141803380D02*
X133554695Y-141803380D01*
X133840409Y-141803380D02*
X133840409Y-140803380D01*
X133745171Y-140946238D01*
X133649933Y-141041476D01*
X133554695Y-141089095D01*
X92570466Y-147475980D02*
X92237133Y-146999790D01*
X91999038Y-147475980D02*
X91999038Y-146475980D01*
X92379990Y-146475980D01*
X92475228Y-146523600D01*
X92522847Y-146571219D01*
X92570466Y-146666457D01*
X92570466Y-146809314D01*
X92522847Y-146904552D01*
X92475228Y-146952171D01*
X92379990Y-146999790D01*
X91999038Y-146999790D01*
X92999038Y-146952171D02*
X93332371Y-146952171D01*
X93475228Y-147475980D02*
X92999038Y-147475980D01*
X92999038Y-146475980D01*
X93475228Y-146475980D01*
X94237133Y-146952171D02*
X93903800Y-146952171D01*
X93903800Y-147475980D02*
X93903800Y-146475980D01*
X94379990Y-146475980D01*
X94903800Y-146475980D02*
X94903800Y-146714076D01*
X94665704Y-146618838D02*
X94903800Y-146714076D01*
X95141895Y-146618838D01*
X94760942Y-146904552D02*
X94903800Y-146714076D01*
X95046657Y-146904552D01*
X95665704Y-146475980D02*
X95665704Y-146714076D01*
X95427609Y-146618838D02*
X95665704Y-146714076D01*
X95903800Y-146618838D01*
X95522847Y-146904552D02*
X95665704Y-146714076D01*
X95808561Y-146904552D01*
D13*
X66729057Y-43802229D02*
X66729057Y-42278229D01*
X67237057Y-43366801D01*
X67745057Y-42278229D01*
X67745057Y-43802229D01*
X68688485Y-43802229D02*
X68543342Y-43729658D01*
X68470771Y-43657086D01*
X68398200Y-43511943D01*
X68398200Y-43076515D01*
X68470771Y-42931372D01*
X68543342Y-42858801D01*
X68688485Y-42786229D01*
X68906200Y-42786229D01*
X69051342Y-42858801D01*
X69123914Y-42931372D01*
X69196485Y-43076515D01*
X69196485Y-43511943D01*
X69123914Y-43657086D01*
X69051342Y-43729658D01*
X68906200Y-43802229D01*
X68688485Y-43802229D01*
X70502771Y-43802229D02*
X70502771Y-42278229D01*
X70502771Y-43729658D02*
X70357628Y-43802229D01*
X70067342Y-43802229D01*
X69922200Y-43729658D01*
X69849628Y-43657086D01*
X69777057Y-43511943D01*
X69777057Y-43076515D01*
X69849628Y-42931372D01*
X69922200Y-42858801D01*
X70067342Y-42786229D01*
X70357628Y-42786229D01*
X70502771Y-42858801D01*
X71228485Y-43802229D02*
X71228485Y-42278229D01*
X72825057Y-43657086D02*
X72752485Y-43729658D01*
X72534771Y-43802229D01*
X72389628Y-43802229D01*
X72171914Y-43729658D01*
X72026771Y-43584515D01*
X71954200Y-43439372D01*
X71881628Y-43149086D01*
X71881628Y-42931372D01*
X71954200Y-42641086D01*
X72026771Y-42495943D01*
X72171914Y-42350801D01*
X72389628Y-42278229D01*
X72534771Y-42278229D01*
X72752485Y-42350801D01*
X72825057Y-42423372D01*
X73478200Y-43003943D02*
X73986200Y-43003943D01*
X74203914Y-43802229D02*
X73478200Y-43802229D01*
X73478200Y-42278229D01*
X74203914Y-42278229D01*
X74494200Y-43947372D02*
X75655342Y-43947372D01*
X76671342Y-42786229D02*
X76671342Y-43802229D01*
X76308485Y-42205658D02*
X75945628Y-43294229D01*
X76889057Y-43294229D01*
X77687342Y-42931372D02*
X77542200Y-42858801D01*
X77469628Y-42786229D01*
X77397057Y-42641086D01*
X77397057Y-42568515D01*
X77469628Y-42423372D01*
X77542200Y-42350801D01*
X77687342Y-42278229D01*
X77977628Y-42278229D01*
X78122771Y-42350801D01*
X78195342Y-42423372D01*
X78267914Y-42568515D01*
X78267914Y-42641086D01*
X78195342Y-42786229D01*
X78122771Y-42858801D01*
X77977628Y-42931372D01*
X77687342Y-42931372D01*
X77542200Y-43003943D01*
X77469628Y-43076515D01*
X77397057Y-43221658D01*
X77397057Y-43511943D01*
X77469628Y-43657086D01*
X77542200Y-43729658D01*
X77687342Y-43802229D01*
X77977628Y-43802229D01*
X78122771Y-43729658D01*
X78195342Y-43657086D01*
X78267914Y-43511943D01*
X78267914Y-43221658D01*
X78195342Y-43076515D01*
X78122771Y-43003943D01*
X77977628Y-42931372D01*
D12*
X158815590Y-102482590D02*
X159291780Y-102482590D01*
X158291780Y-102815923D02*
X158815590Y-102482590D01*
X158291780Y-102149257D01*
X159291780Y-101292114D02*
X159291780Y-101863542D01*
X159291780Y-101577828D02*
X158291780Y-101577828D01*
X158434638Y-101673066D01*
X158529876Y-101768304D01*
X158577495Y-101863542D01*
X157740314Y-131998980D02*
X157168885Y-131998980D01*
X157454600Y-131998980D02*
X157454600Y-130998980D01*
X157359361Y-131141838D01*
X157264123Y-131237076D01*
X157168885Y-131284695D01*
X113158542Y-94876857D02*
X113206161Y-94924476D01*
X113253780Y-95067333D01*
X113253780Y-95162571D01*
X113206161Y-95305428D01*
X113110923Y-95400666D01*
X113015685Y-95448285D01*
X112825209Y-95495904D01*
X112682352Y-95495904D01*
X112491876Y-95448285D01*
X112396638Y-95400666D01*
X112301400Y-95305428D01*
X112253780Y-95162571D01*
X112253780Y-95067333D01*
X112301400Y-94924476D01*
X112349019Y-94876857D01*
X112253780Y-93972095D02*
X112253780Y-94448285D01*
X112729971Y-94495904D01*
X112682352Y-94448285D01*
X112634733Y-94353047D01*
X112634733Y-94114952D01*
X112682352Y-94019714D01*
X112729971Y-93972095D01*
X112825209Y-93924476D01*
X113063304Y-93924476D01*
X113158542Y-93972095D01*
X113206161Y-94019714D01*
X113253780Y-94114952D01*
X113253780Y-94353047D01*
X113206161Y-94448285D01*
X113158542Y-94495904D01*
X112682352Y-93353047D02*
X112634733Y-93448285D01*
X112587114Y-93495904D01*
X112491876Y-93543523D01*
X112444257Y-93543523D01*
X112349019Y-93495904D01*
X112301400Y-93448285D01*
X112253780Y-93353047D01*
X112253780Y-93162571D01*
X112301400Y-93067333D01*
X112349019Y-93019714D01*
X112444257Y-92972095D01*
X112491876Y-92972095D01*
X112587114Y-93019714D01*
X112634733Y-93067333D01*
X112682352Y-93162571D01*
X112682352Y-93353047D01*
X112729971Y-93448285D01*
X112777590Y-93495904D01*
X112872828Y-93543523D01*
X113063304Y-93543523D01*
X113158542Y-93495904D01*
X113206161Y-93448285D01*
X113253780Y-93353047D01*
X113253780Y-93162571D01*
X113206161Y-93067333D01*
X113158542Y-93019714D01*
X113063304Y-92972095D01*
X112872828Y-92972095D01*
X112777590Y-93019714D01*
X112729971Y-93067333D01*
X112682352Y-93162571D01*
X114631742Y-94800657D02*
X114679361Y-94848276D01*
X114726980Y-94991133D01*
X114726980Y-95086371D01*
X114679361Y-95229228D01*
X114584123Y-95324466D01*
X114488885Y-95372085D01*
X114298409Y-95419704D01*
X114155552Y-95419704D01*
X113965076Y-95372085D01*
X113869838Y-95324466D01*
X113774600Y-95229228D01*
X113726980Y-95086371D01*
X113726980Y-94991133D01*
X113774600Y-94848276D01*
X113822219Y-94800657D01*
X113726980Y-93895895D02*
X113726980Y-94372085D01*
X114203171Y-94419704D01*
X114155552Y-94372085D01*
X114107933Y-94276847D01*
X114107933Y-94038752D01*
X114155552Y-93943514D01*
X114203171Y-93895895D01*
X114298409Y-93848276D01*
X114536504Y-93848276D01*
X114631742Y-93895895D01*
X114679361Y-93943514D01*
X114726980Y-94038752D01*
X114726980Y-94276847D01*
X114679361Y-94372085D01*
X114631742Y-94419704D01*
X114726980Y-93372085D02*
X114726980Y-93181609D01*
X114679361Y-93086371D01*
X114631742Y-93038752D01*
X114488885Y-92943514D01*
X114298409Y-92895895D01*
X113917457Y-92895895D01*
X113822219Y-92943514D01*
X113774600Y-92991133D01*
X113726980Y-93086371D01*
X113726980Y-93276847D01*
X113774600Y-93372085D01*
X113822219Y-93419704D01*
X113917457Y-93467323D01*
X114155552Y-93467323D01*
X114250790Y-93419704D01*
X114298409Y-93372085D01*
X114346028Y-93276847D01*
X114346028Y-93086371D01*
X114298409Y-92991133D01*
X114250790Y-92943514D01*
X114155552Y-92895895D01*
X110189971Y-108478533D02*
X110189971Y-108811866D01*
X110713780Y-108811866D02*
X109713780Y-108811866D01*
X109713780Y-108335676D01*
X110189971Y-107621390D02*
X110237590Y-107478533D01*
X110285209Y-107430914D01*
X110380447Y-107383295D01*
X110523304Y-107383295D01*
X110618542Y-107430914D01*
X110666161Y-107478533D01*
X110713780Y-107573771D01*
X110713780Y-107954723D01*
X109713780Y-107954723D01*
X109713780Y-107621390D01*
X109761400Y-107526152D01*
X109809019Y-107478533D01*
X109904257Y-107430914D01*
X109999495Y-107430914D01*
X110094733Y-107478533D01*
X110142352Y-107526152D01*
X110189971Y-107621390D01*
X110189971Y-107954723D01*
X109713780Y-107049961D02*
X109713780Y-106430914D01*
X110094733Y-106764247D01*
X110094733Y-106621390D01*
X110142352Y-106526152D01*
X110189971Y-106478533D01*
X110285209Y-106430914D01*
X110523304Y-106430914D01*
X110618542Y-106478533D01*
X110666161Y-106526152D01*
X110713780Y-106621390D01*
X110713780Y-106907104D01*
X110666161Y-107002342D01*
X110618542Y-107049961D01*
X110281980Y-94927657D02*
X109805790Y-95260990D01*
X110281980Y-95499085D02*
X109281980Y-95499085D01*
X109281980Y-95118133D01*
X109329600Y-95022895D01*
X109377219Y-94975276D01*
X109472457Y-94927657D01*
X109615314Y-94927657D01*
X109710552Y-94975276D01*
X109758171Y-95022895D01*
X109805790Y-95118133D01*
X109805790Y-95499085D01*
X109710552Y-94356228D02*
X109662933Y-94451466D01*
X109615314Y-94499085D01*
X109520076Y-94546704D01*
X109472457Y-94546704D01*
X109377219Y-94499085D01*
X109329600Y-94451466D01*
X109281980Y-94356228D01*
X109281980Y-94165752D01*
X109329600Y-94070514D01*
X109377219Y-94022895D01*
X109472457Y-93975276D01*
X109520076Y-93975276D01*
X109615314Y-94022895D01*
X109662933Y-94070514D01*
X109710552Y-94165752D01*
X109710552Y-94356228D01*
X109758171Y-94451466D01*
X109805790Y-94499085D01*
X109901028Y-94546704D01*
X110091504Y-94546704D01*
X110186742Y-94499085D01*
X110234361Y-94451466D01*
X110281980Y-94356228D01*
X110281980Y-94165752D01*
X110234361Y-94070514D01*
X110186742Y-94022895D01*
X110091504Y-93975276D01*
X109901028Y-93975276D01*
X109805790Y-94022895D01*
X109758171Y-94070514D01*
X109710552Y-94165752D01*
X109615314Y-93118133D02*
X110281980Y-93118133D01*
X109234361Y-93356228D02*
X109948647Y-93594323D01*
X109948647Y-92975276D01*
X141025714Y-73390380D02*
X141025714Y-72390380D01*
X141263809Y-72390380D01*
X141406666Y-72438000D01*
X141501904Y-72533238D01*
X141549523Y-72628476D01*
X141597142Y-72818952D01*
X141597142Y-72961809D01*
X141549523Y-73152285D01*
X141501904Y-73247523D01*
X141406666Y-73342761D01*
X141263809Y-73390380D01*
X141025714Y-73390380D01*
X142549523Y-73390380D02*
X141978095Y-73390380D01*
X142263809Y-73390380D02*
X142263809Y-72390380D01*
X142168571Y-72533238D01*
X142073333Y-72628476D01*
X141978095Y-72676095D01*
X143406666Y-72723714D02*
X143406666Y-73390380D01*
X143168571Y-72342761D02*
X142930476Y-73057047D01*
X143549523Y-73057047D01*
X91559142Y-117166380D02*
X91225809Y-116690190D01*
X90987714Y-117166380D02*
X90987714Y-116166380D01*
X91368666Y-116166380D01*
X91463904Y-116214000D01*
X91511523Y-116261619D01*
X91559142Y-116356857D01*
X91559142Y-116499714D01*
X91511523Y-116594952D01*
X91463904Y-116642571D01*
X91368666Y-116690190D01*
X90987714Y-116690190D01*
X91892476Y-116166380D02*
X92559142Y-116166380D01*
X92130571Y-117166380D01*
X93130571Y-116166380D02*
X93225809Y-116166380D01*
X93321047Y-116214000D01*
X93368666Y-116261619D01*
X93416285Y-116356857D01*
X93463904Y-116547333D01*
X93463904Y-116785428D01*
X93416285Y-116975904D01*
X93368666Y-117071142D01*
X93321047Y-117118761D01*
X93225809Y-117166380D01*
X93130571Y-117166380D01*
X93035333Y-117118761D01*
X92987714Y-117071142D01*
X92940095Y-116975904D01*
X92892476Y-116785428D01*
X92892476Y-116547333D01*
X92940095Y-116356857D01*
X92987714Y-116261619D01*
X93035333Y-116214000D01*
X93130571Y-116166380D01*
X91559142Y-119452380D02*
X91225809Y-118976190D01*
X90987714Y-119452380D02*
X90987714Y-118452380D01*
X91368666Y-118452380D01*
X91463904Y-118500000D01*
X91511523Y-118547619D01*
X91559142Y-118642857D01*
X91559142Y-118785714D01*
X91511523Y-118880952D01*
X91463904Y-118928571D01*
X91368666Y-118976190D01*
X90987714Y-118976190D01*
X92416285Y-118452380D02*
X92225809Y-118452380D01*
X92130571Y-118500000D01*
X92082952Y-118547619D01*
X91987714Y-118690476D01*
X91940095Y-118880952D01*
X91940095Y-119261904D01*
X91987714Y-119357142D01*
X92035333Y-119404761D01*
X92130571Y-119452380D01*
X92321047Y-119452380D01*
X92416285Y-119404761D01*
X92463904Y-119357142D01*
X92511523Y-119261904D01*
X92511523Y-119023809D01*
X92463904Y-118928571D01*
X92416285Y-118880952D01*
X92321047Y-118833333D01*
X92130571Y-118833333D01*
X92035333Y-118880952D01*
X91987714Y-118928571D01*
X91940095Y-119023809D01*
X92987714Y-119452380D02*
X93178190Y-119452380D01*
X93273428Y-119404761D01*
X93321047Y-119357142D01*
X93416285Y-119214285D01*
X93463904Y-119023809D01*
X93463904Y-118642857D01*
X93416285Y-118547619D01*
X93368666Y-118500000D01*
X93273428Y-118452380D01*
X93082952Y-118452380D01*
X92987714Y-118500000D01*
X92940095Y-118547619D01*
X92892476Y-118642857D01*
X92892476Y-118880952D01*
X92940095Y-118976190D01*
X92987714Y-119023809D01*
X93082952Y-119071428D01*
X93273428Y-119071428D01*
X93368666Y-119023809D01*
X93416285Y-118976190D01*
X93463904Y-118880952D01*
X137660380Y-76176095D02*
X136660380Y-76176095D01*
X136660380Y-75938000D01*
X136708000Y-75795142D01*
X136803238Y-75699904D01*
X136898476Y-75652285D01*
X137088952Y-75604666D01*
X137231809Y-75604666D01*
X137422285Y-75652285D01*
X137517523Y-75699904D01*
X137612761Y-75795142D01*
X137660380Y-75938000D01*
X137660380Y-76176095D01*
X136660380Y-75271333D02*
X136660380Y-74652285D01*
X137041333Y-74985619D01*
X137041333Y-74842761D01*
X137088952Y-74747523D01*
X137136571Y-74699904D01*
X137231809Y-74652285D01*
X137469904Y-74652285D01*
X137565142Y-74699904D01*
X137612761Y-74747523D01*
X137660380Y-74842761D01*
X137660380Y-75128476D01*
X137612761Y-75223714D01*
X137565142Y-75271333D01*
X119264133Y-81967342D02*
X119216514Y-82014961D01*
X119073657Y-82062580D01*
X118978419Y-82062580D01*
X118835561Y-82014961D01*
X118740323Y-81919723D01*
X118692704Y-81824485D01*
X118645085Y-81634009D01*
X118645085Y-81491152D01*
X118692704Y-81300676D01*
X118740323Y-81205438D01*
X118835561Y-81110200D01*
X118978419Y-81062580D01*
X119073657Y-81062580D01*
X119216514Y-81110200D01*
X119264133Y-81157819D01*
X120216514Y-82062580D02*
X119645085Y-82062580D01*
X119930800Y-82062580D02*
X119930800Y-81062580D01*
X119835561Y-81205438D01*
X119740323Y-81300676D01*
X119645085Y-81348295D01*
X89241333Y-99671142D02*
X89193714Y-99718761D01*
X89050857Y-99766380D01*
X88955619Y-99766380D01*
X88812761Y-99718761D01*
X88717523Y-99623523D01*
X88669904Y-99528285D01*
X88622285Y-99337809D01*
X88622285Y-99194952D01*
X88669904Y-99004476D01*
X88717523Y-98909238D01*
X88812761Y-98814000D01*
X88955619Y-98766380D01*
X89050857Y-98766380D01*
X89193714Y-98814000D01*
X89241333Y-98861619D01*
X89622285Y-98861619D02*
X89669904Y-98814000D01*
X89765142Y-98766380D01*
X90003238Y-98766380D01*
X90098476Y-98814000D01*
X90146095Y-98861619D01*
X90193714Y-98956857D01*
X90193714Y-99052095D01*
X90146095Y-99194952D01*
X89574666Y-99766380D01*
X90193714Y-99766380D01*
X89165133Y-97639142D02*
X89117514Y-97686761D01*
X88974657Y-97734380D01*
X88879419Y-97734380D01*
X88736561Y-97686761D01*
X88641323Y-97591523D01*
X88593704Y-97496285D01*
X88546085Y-97305809D01*
X88546085Y-97162952D01*
X88593704Y-96972476D01*
X88641323Y-96877238D01*
X88736561Y-96782000D01*
X88879419Y-96734380D01*
X88974657Y-96734380D01*
X89117514Y-96782000D01*
X89165133Y-96829619D01*
X89498466Y-96734380D02*
X90117514Y-96734380D01*
X89784180Y-97115333D01*
X89927038Y-97115333D01*
X90022276Y-97162952D01*
X90069895Y-97210571D01*
X90117514Y-97305809D01*
X90117514Y-97543904D01*
X90069895Y-97639142D01*
X90022276Y-97686761D01*
X89927038Y-97734380D01*
X89641323Y-97734380D01*
X89546085Y-97686761D01*
X89498466Y-97639142D01*
X103592333Y-104674942D02*
X103544714Y-104722561D01*
X103401857Y-104770180D01*
X103306619Y-104770180D01*
X103163761Y-104722561D01*
X103068523Y-104627323D01*
X103020904Y-104532085D01*
X102973285Y-104341609D01*
X102973285Y-104198752D01*
X103020904Y-104008276D01*
X103068523Y-103913038D01*
X103163761Y-103817800D01*
X103306619Y-103770180D01*
X103401857Y-103770180D01*
X103544714Y-103817800D01*
X103592333Y-103865419D01*
X104449476Y-104103514D02*
X104449476Y-104770180D01*
X104211380Y-103722561D02*
X103973285Y-104436847D01*
X104592333Y-104436847D01*
X100442733Y-104827342D02*
X100395114Y-104874961D01*
X100252257Y-104922580D01*
X100157019Y-104922580D01*
X100014161Y-104874961D01*
X99918923Y-104779723D01*
X99871304Y-104684485D01*
X99823685Y-104494009D01*
X99823685Y-104351152D01*
X99871304Y-104160676D01*
X99918923Y-104065438D01*
X100014161Y-103970200D01*
X100157019Y-103922580D01*
X100252257Y-103922580D01*
X100395114Y-103970200D01*
X100442733Y-104017819D01*
X101347495Y-103922580D02*
X100871304Y-103922580D01*
X100823685Y-104398771D01*
X100871304Y-104351152D01*
X100966542Y-104303533D01*
X101204638Y-104303533D01*
X101299876Y-104351152D01*
X101347495Y-104398771D01*
X101395114Y-104494009D01*
X101395114Y-104732104D01*
X101347495Y-104827342D01*
X101299876Y-104874961D01*
X101204638Y-104922580D01*
X100966542Y-104922580D01*
X100871304Y-104874961D01*
X100823685Y-104827342D01*
X87564933Y-85345542D02*
X87517314Y-85393161D01*
X87374457Y-85440780D01*
X87279219Y-85440780D01*
X87136361Y-85393161D01*
X87041123Y-85297923D01*
X86993504Y-85202685D01*
X86945885Y-85012209D01*
X86945885Y-84869352D01*
X86993504Y-84678876D01*
X87041123Y-84583638D01*
X87136361Y-84488400D01*
X87279219Y-84440780D01*
X87374457Y-84440780D01*
X87517314Y-84488400D01*
X87564933Y-84536019D01*
X88422076Y-84440780D02*
X88231600Y-84440780D01*
X88136361Y-84488400D01*
X88088742Y-84536019D01*
X87993504Y-84678876D01*
X87945885Y-84869352D01*
X87945885Y-85250304D01*
X87993504Y-85345542D01*
X88041123Y-85393161D01*
X88136361Y-85440780D01*
X88326838Y-85440780D01*
X88422076Y-85393161D01*
X88469695Y-85345542D01*
X88517314Y-85250304D01*
X88517314Y-85012209D01*
X88469695Y-84916971D01*
X88422076Y-84869352D01*
X88326838Y-84821733D01*
X88136361Y-84821733D01*
X88041123Y-84869352D01*
X87993504Y-84916971D01*
X87945885Y-85012209D01*
X101661933Y-115114342D02*
X101614314Y-115161961D01*
X101471457Y-115209580D01*
X101376219Y-115209580D01*
X101233361Y-115161961D01*
X101138123Y-115066723D01*
X101090504Y-114971485D01*
X101042885Y-114781009D01*
X101042885Y-114638152D01*
X101090504Y-114447676D01*
X101138123Y-114352438D01*
X101233361Y-114257200D01*
X101376219Y-114209580D01*
X101471457Y-114209580D01*
X101614314Y-114257200D01*
X101661933Y-114304819D01*
X101995266Y-114209580D02*
X102661933Y-114209580D01*
X102233361Y-115209580D01*
X87615733Y-92813142D02*
X87568114Y-92860761D01*
X87425257Y-92908380D01*
X87330019Y-92908380D01*
X87187161Y-92860761D01*
X87091923Y-92765523D01*
X87044304Y-92670285D01*
X86996685Y-92479809D01*
X86996685Y-92336952D01*
X87044304Y-92146476D01*
X87091923Y-92051238D01*
X87187161Y-91956000D01*
X87330019Y-91908380D01*
X87425257Y-91908380D01*
X87568114Y-91956000D01*
X87615733Y-92003619D01*
X88187161Y-92336952D02*
X88091923Y-92289333D01*
X88044304Y-92241714D01*
X87996685Y-92146476D01*
X87996685Y-92098857D01*
X88044304Y-92003619D01*
X88091923Y-91956000D01*
X88187161Y-91908380D01*
X88377638Y-91908380D01*
X88472876Y-91956000D01*
X88520495Y-92003619D01*
X88568114Y-92098857D01*
X88568114Y-92146476D01*
X88520495Y-92241714D01*
X88472876Y-92289333D01*
X88377638Y-92336952D01*
X88187161Y-92336952D01*
X88091923Y-92384571D01*
X88044304Y-92432190D01*
X87996685Y-92527428D01*
X87996685Y-92717904D01*
X88044304Y-92813142D01*
X88091923Y-92860761D01*
X88187161Y-92908380D01*
X88377638Y-92908380D01*
X88472876Y-92860761D01*
X88520495Y-92813142D01*
X88568114Y-92717904D01*
X88568114Y-92527428D01*
X88520495Y-92432190D01*
X88472876Y-92384571D01*
X88377638Y-92336952D01*
X138009333Y-81255142D02*
X137961714Y-81302761D01*
X137818857Y-81350380D01*
X137723619Y-81350380D01*
X137580761Y-81302761D01*
X137485523Y-81207523D01*
X137437904Y-81112285D01*
X137390285Y-80921809D01*
X137390285Y-80778952D01*
X137437904Y-80588476D01*
X137485523Y-80493238D01*
X137580761Y-80398000D01*
X137723619Y-80350380D01*
X137818857Y-80350380D01*
X137961714Y-80398000D01*
X138009333Y-80445619D01*
X138485523Y-81350380D02*
X138676000Y-81350380D01*
X138771238Y-81302761D01*
X138818857Y-81255142D01*
X138914095Y-81112285D01*
X138961714Y-80921809D01*
X138961714Y-80540857D01*
X138914095Y-80445619D01*
X138866476Y-80398000D01*
X138771238Y-80350380D01*
X138580761Y-80350380D01*
X138485523Y-80398000D01*
X138437904Y-80445619D01*
X138390285Y-80540857D01*
X138390285Y-80778952D01*
X138437904Y-80874190D01*
X138485523Y-80921809D01*
X138580761Y-80969428D01*
X138771238Y-80969428D01*
X138866476Y-80921809D01*
X138914095Y-80874190D01*
X138961714Y-80778952D01*
X164061142Y-76080857D02*
X164108761Y-76128476D01*
X164156380Y-76271333D01*
X164156380Y-76366571D01*
X164108761Y-76509428D01*
X164013523Y-76604666D01*
X163918285Y-76652285D01*
X163727809Y-76699904D01*
X163584952Y-76699904D01*
X163394476Y-76652285D01*
X163299238Y-76604666D01*
X163204000Y-76509428D01*
X163156380Y-76366571D01*
X163156380Y-76271333D01*
X163204000Y-76128476D01*
X163251619Y-76080857D01*
X164156380Y-75128476D02*
X164156380Y-75699904D01*
X164156380Y-75414190D02*
X163156380Y-75414190D01*
X163299238Y-75509428D01*
X163394476Y-75604666D01*
X163442095Y-75699904D01*
X163156380Y-74509428D02*
X163156380Y-74414190D01*
X163204000Y-74318952D01*
X163251619Y-74271333D01*
X163346857Y-74223714D01*
X163537333Y-74176095D01*
X163775428Y-74176095D01*
X163965904Y-74223714D01*
X164061142Y-74271333D01*
X164108761Y-74318952D01*
X164156380Y-74414190D01*
X164156380Y-74509428D01*
X164108761Y-74604666D01*
X164061142Y-74652285D01*
X163965904Y-74699904D01*
X163775428Y-74747523D01*
X163537333Y-74747523D01*
X163346857Y-74699904D01*
X163251619Y-74652285D01*
X163204000Y-74604666D01*
X163156380Y-74509428D01*
X163695142Y-71351142D02*
X163647523Y-71398761D01*
X163504666Y-71446380D01*
X163409428Y-71446380D01*
X163266571Y-71398761D01*
X163171333Y-71303523D01*
X163123714Y-71208285D01*
X163076095Y-71017809D01*
X163076095Y-70874952D01*
X163123714Y-70684476D01*
X163171333Y-70589238D01*
X163266571Y-70494000D01*
X163409428Y-70446380D01*
X163504666Y-70446380D01*
X163647523Y-70494000D01*
X163695142Y-70541619D01*
X164076095Y-70541619D02*
X164123714Y-70494000D01*
X164218952Y-70446380D01*
X164457047Y-70446380D01*
X164552285Y-70494000D01*
X164599904Y-70541619D01*
X164647523Y-70636857D01*
X164647523Y-70732095D01*
X164599904Y-70874952D01*
X164028476Y-71446380D01*
X164647523Y-71446380D01*
X164980857Y-70446380D02*
X165599904Y-70446380D01*
X165266571Y-70827333D01*
X165409428Y-70827333D01*
X165504666Y-70874952D01*
X165552285Y-70922571D01*
X165599904Y-71017809D01*
X165599904Y-71255904D01*
X165552285Y-71351142D01*
X165504666Y-71398761D01*
X165409428Y-71446380D01*
X165123714Y-71446380D01*
X165028476Y-71398761D01*
X164980857Y-71351142D01*
X159631142Y-71351142D02*
X159583523Y-71398761D01*
X159440666Y-71446380D01*
X159345428Y-71446380D01*
X159202571Y-71398761D01*
X159107333Y-71303523D01*
X159059714Y-71208285D01*
X159012095Y-71017809D01*
X159012095Y-70874952D01*
X159059714Y-70684476D01*
X159107333Y-70589238D01*
X159202571Y-70494000D01*
X159345428Y-70446380D01*
X159440666Y-70446380D01*
X159583523Y-70494000D01*
X159631142Y-70541619D01*
X160012095Y-70541619D02*
X160059714Y-70494000D01*
X160154952Y-70446380D01*
X160393047Y-70446380D01*
X160488285Y-70494000D01*
X160535904Y-70541619D01*
X160583523Y-70636857D01*
X160583523Y-70732095D01*
X160535904Y-70874952D01*
X159964476Y-71446380D01*
X160583523Y-71446380D01*
X161440666Y-70779714D02*
X161440666Y-71446380D01*
X161202571Y-70398761D02*
X160964476Y-71113047D01*
X161583523Y-71113047D01*
X143375142Y-71351142D02*
X143327523Y-71398761D01*
X143184666Y-71446380D01*
X143089428Y-71446380D01*
X142946571Y-71398761D01*
X142851333Y-71303523D01*
X142803714Y-71208285D01*
X142756095Y-71017809D01*
X142756095Y-70874952D01*
X142803714Y-70684476D01*
X142851333Y-70589238D01*
X142946571Y-70494000D01*
X143089428Y-70446380D01*
X143184666Y-70446380D01*
X143327523Y-70494000D01*
X143375142Y-70541619D01*
X143756095Y-70541619D02*
X143803714Y-70494000D01*
X143898952Y-70446380D01*
X144137047Y-70446380D01*
X144232285Y-70494000D01*
X144279904Y-70541619D01*
X144327523Y-70636857D01*
X144327523Y-70732095D01*
X144279904Y-70874952D01*
X143708476Y-71446380D01*
X144327523Y-71446380D01*
X145232285Y-70446380D02*
X144756095Y-70446380D01*
X144708476Y-70922571D01*
X144756095Y-70874952D01*
X144851333Y-70827333D01*
X145089428Y-70827333D01*
X145184666Y-70874952D01*
X145232285Y-70922571D01*
X145279904Y-71017809D01*
X145279904Y-71255904D01*
X145232285Y-71351142D01*
X145184666Y-71398761D01*
X145089428Y-71446380D01*
X144851333Y-71446380D01*
X144756095Y-71398761D01*
X144708476Y-71351142D01*
X151503142Y-71351142D02*
X151455523Y-71398761D01*
X151312666Y-71446380D01*
X151217428Y-71446380D01*
X151074571Y-71398761D01*
X150979333Y-71303523D01*
X150931714Y-71208285D01*
X150884095Y-71017809D01*
X150884095Y-70874952D01*
X150931714Y-70684476D01*
X150979333Y-70589238D01*
X151074571Y-70494000D01*
X151217428Y-70446380D01*
X151312666Y-70446380D01*
X151455523Y-70494000D01*
X151503142Y-70541619D01*
X151884095Y-70541619D02*
X151931714Y-70494000D01*
X152026952Y-70446380D01*
X152265047Y-70446380D01*
X152360285Y-70494000D01*
X152407904Y-70541619D01*
X152455523Y-70636857D01*
X152455523Y-70732095D01*
X152407904Y-70874952D01*
X151836476Y-71446380D01*
X152455523Y-71446380D01*
X153312666Y-70446380D02*
X153122190Y-70446380D01*
X153026952Y-70494000D01*
X152979333Y-70541619D01*
X152884095Y-70684476D01*
X152836476Y-70874952D01*
X152836476Y-71255904D01*
X152884095Y-71351142D01*
X152931714Y-71398761D01*
X153026952Y-71446380D01*
X153217428Y-71446380D01*
X153312666Y-71398761D01*
X153360285Y-71351142D01*
X153407904Y-71255904D01*
X153407904Y-71017809D01*
X153360285Y-70922571D01*
X153312666Y-70874952D01*
X153217428Y-70827333D01*
X153026952Y-70827333D01*
X152931714Y-70874952D01*
X152884095Y-70922571D01*
X152836476Y-71017809D01*
X147439142Y-71351142D02*
X147391523Y-71398761D01*
X147248666Y-71446380D01*
X147153428Y-71446380D01*
X147010571Y-71398761D01*
X146915333Y-71303523D01*
X146867714Y-71208285D01*
X146820095Y-71017809D01*
X146820095Y-70874952D01*
X146867714Y-70684476D01*
X146915333Y-70589238D01*
X147010571Y-70494000D01*
X147153428Y-70446380D01*
X147248666Y-70446380D01*
X147391523Y-70494000D01*
X147439142Y-70541619D01*
X147820095Y-70541619D02*
X147867714Y-70494000D01*
X147962952Y-70446380D01*
X148201047Y-70446380D01*
X148296285Y-70494000D01*
X148343904Y-70541619D01*
X148391523Y-70636857D01*
X148391523Y-70732095D01*
X148343904Y-70874952D01*
X147772476Y-71446380D01*
X148391523Y-71446380D01*
X148724857Y-70446380D02*
X149391523Y-70446380D01*
X148962952Y-71446380D01*
X155567142Y-71351142D02*
X155519523Y-71398761D01*
X155376666Y-71446380D01*
X155281428Y-71446380D01*
X155138571Y-71398761D01*
X155043333Y-71303523D01*
X154995714Y-71208285D01*
X154948095Y-71017809D01*
X154948095Y-70874952D01*
X154995714Y-70684476D01*
X155043333Y-70589238D01*
X155138571Y-70494000D01*
X155281428Y-70446380D01*
X155376666Y-70446380D01*
X155519523Y-70494000D01*
X155567142Y-70541619D01*
X155948095Y-70541619D02*
X155995714Y-70494000D01*
X156090952Y-70446380D01*
X156329047Y-70446380D01*
X156424285Y-70494000D01*
X156471904Y-70541619D01*
X156519523Y-70636857D01*
X156519523Y-70732095D01*
X156471904Y-70874952D01*
X155900476Y-71446380D01*
X156519523Y-71446380D01*
X157090952Y-70874952D02*
X156995714Y-70827333D01*
X156948095Y-70779714D01*
X156900476Y-70684476D01*
X156900476Y-70636857D01*
X156948095Y-70541619D01*
X156995714Y-70494000D01*
X157090952Y-70446380D01*
X157281428Y-70446380D01*
X157376666Y-70494000D01*
X157424285Y-70541619D01*
X157471904Y-70636857D01*
X157471904Y-70684476D01*
X157424285Y-70779714D01*
X157376666Y-70827333D01*
X157281428Y-70874952D01*
X157090952Y-70874952D01*
X156995714Y-70922571D01*
X156948095Y-70970190D01*
X156900476Y-71065428D01*
X156900476Y-71255904D01*
X156948095Y-71351142D01*
X156995714Y-71398761D01*
X157090952Y-71446380D01*
X157281428Y-71446380D01*
X157376666Y-71398761D01*
X157424285Y-71351142D01*
X157471904Y-71255904D01*
X157471904Y-71065428D01*
X157424285Y-70970190D01*
X157376666Y-70922571D01*
X157281428Y-70874952D01*
X162196542Y-105539542D02*
X162148923Y-105587161D01*
X162006066Y-105634780D01*
X161910828Y-105634780D01*
X161767971Y-105587161D01*
X161672733Y-105491923D01*
X161625114Y-105396685D01*
X161577495Y-105206209D01*
X161577495Y-105063352D01*
X161625114Y-104872876D01*
X161672733Y-104777638D01*
X161767971Y-104682400D01*
X161910828Y-104634780D01*
X162006066Y-104634780D01*
X162148923Y-104682400D01*
X162196542Y-104730019D01*
X162529876Y-104634780D02*
X163148923Y-104634780D01*
X162815590Y-105015733D01*
X162958447Y-105015733D01*
X163053685Y-105063352D01*
X163101304Y-105110971D01*
X163148923Y-105206209D01*
X163148923Y-105444304D01*
X163101304Y-105539542D01*
X163053685Y-105587161D01*
X162958447Y-105634780D01*
X162672733Y-105634780D01*
X162577495Y-105587161D01*
X162529876Y-105539542D01*
X164006066Y-104968114D02*
X164006066Y-105634780D01*
X163767971Y-104587161D02*
X163529876Y-105301447D01*
X164148923Y-105301447D01*
X162815542Y-128354057D02*
X162863161Y-128401676D01*
X162910780Y-128544533D01*
X162910780Y-128639771D01*
X162863161Y-128782628D01*
X162767923Y-128877866D01*
X162672685Y-128925485D01*
X162482209Y-128973104D01*
X162339352Y-128973104D01*
X162148876Y-128925485D01*
X162053638Y-128877866D01*
X161958400Y-128782628D01*
X161910780Y-128639771D01*
X161910780Y-128544533D01*
X161958400Y-128401676D01*
X162006019Y-128354057D01*
X162244114Y-127496914D02*
X162910780Y-127496914D01*
X161863161Y-127735009D02*
X162577447Y-127973104D01*
X162577447Y-127354057D01*
X161910780Y-126496914D02*
X161910780Y-126973104D01*
X162386971Y-127020723D01*
X162339352Y-126973104D01*
X162291733Y-126877866D01*
X162291733Y-126639771D01*
X162339352Y-126544533D01*
X162386971Y-126496914D01*
X162482209Y-126449295D01*
X162720304Y-126449295D01*
X162815542Y-126496914D01*
X162863161Y-126544533D01*
X162910780Y-126639771D01*
X162910780Y-126877866D01*
X162863161Y-126973104D01*
X162815542Y-127020723D01*
X125569742Y-132234942D02*
X125522123Y-132282561D01*
X125379266Y-132330180D01*
X125284028Y-132330180D01*
X125141171Y-132282561D01*
X125045933Y-132187323D01*
X124998314Y-132092085D01*
X124950695Y-131901609D01*
X124950695Y-131758752D01*
X124998314Y-131568276D01*
X125045933Y-131473038D01*
X125141171Y-131377800D01*
X125284028Y-131330180D01*
X125379266Y-131330180D01*
X125522123Y-131377800D01*
X125569742Y-131425419D01*
X126426885Y-131663514D02*
X126426885Y-132330180D01*
X126188790Y-131282561D02*
X125950695Y-131996847D01*
X126569742Y-131996847D01*
X127379266Y-131330180D02*
X127188790Y-131330180D01*
X127093552Y-131377800D01*
X127045933Y-131425419D01*
X126950695Y-131568276D01*
X126903076Y-131758752D01*
X126903076Y-132139704D01*
X126950695Y-132234942D01*
X126998314Y-132282561D01*
X127093552Y-132330180D01*
X127284028Y-132330180D01*
X127379266Y-132282561D01*
X127426885Y-132234942D01*
X127474504Y-132139704D01*
X127474504Y-131901609D01*
X127426885Y-131806371D01*
X127379266Y-131758752D01*
X127284028Y-131711133D01*
X127093552Y-131711133D01*
X126998314Y-131758752D01*
X126950695Y-131806371D01*
X126903076Y-131901609D01*
X125544342Y-124056142D02*
X125496723Y-124103761D01*
X125353866Y-124151380D01*
X125258628Y-124151380D01*
X125115771Y-124103761D01*
X125020533Y-124008523D01*
X124972914Y-123913285D01*
X124925295Y-123722809D01*
X124925295Y-123579952D01*
X124972914Y-123389476D01*
X125020533Y-123294238D01*
X125115771Y-123199000D01*
X125258628Y-123151380D01*
X125353866Y-123151380D01*
X125496723Y-123199000D01*
X125544342Y-123246619D01*
X126401485Y-123484714D02*
X126401485Y-124151380D01*
X126163390Y-123103761D02*
X125925295Y-123818047D01*
X126544342Y-123818047D01*
X126830057Y-123151380D02*
X127496723Y-123151380D01*
X127068152Y-124151380D01*
X134999504Y-87371180D02*
X134999504Y-86371180D01*
X135237600Y-86371180D01*
X135380457Y-86418800D01*
X135475695Y-86514038D01*
X135523314Y-86609276D01*
X135570933Y-86799752D01*
X135570933Y-86942609D01*
X135523314Y-87133085D01*
X135475695Y-87228323D01*
X135380457Y-87323561D01*
X135237600Y-87371180D01*
X134999504Y-87371180D01*
X136523314Y-87371180D02*
X135951885Y-87371180D01*
X136237600Y-87371180D02*
X136237600Y-86371180D01*
X136142361Y-86514038D01*
X136047123Y-86609276D01*
X135951885Y-86656895D01*
X114222304Y-106675180D02*
X114222304Y-105675180D01*
X114460400Y-105675180D01*
X114603257Y-105722800D01*
X114698495Y-105818038D01*
X114746114Y-105913276D01*
X114793733Y-106103752D01*
X114793733Y-106246609D01*
X114746114Y-106437085D01*
X114698495Y-106532323D01*
X114603257Y-106627561D01*
X114460400Y-106675180D01*
X114222304Y-106675180D01*
X115174685Y-105770419D02*
X115222304Y-105722800D01*
X115317542Y-105675180D01*
X115555638Y-105675180D01*
X115650876Y-105722800D01*
X115698495Y-105770419D01*
X115746114Y-105865657D01*
X115746114Y-105960895D01*
X115698495Y-106103752D01*
X115127066Y-106675180D01*
X115746114Y-106675180D01*
X161345714Y-73390380D02*
X161345714Y-72390380D01*
X161583809Y-72390380D01*
X161726666Y-72438000D01*
X161821904Y-72533238D01*
X161869523Y-72628476D01*
X161917142Y-72818952D01*
X161917142Y-72961809D01*
X161869523Y-73152285D01*
X161821904Y-73247523D01*
X161726666Y-73342761D01*
X161583809Y-73390380D01*
X161345714Y-73390380D01*
X162869523Y-73390380D02*
X162298095Y-73390380D01*
X162583809Y-73390380D02*
X162583809Y-72390380D01*
X162488571Y-72533238D01*
X162393333Y-72628476D01*
X162298095Y-72676095D01*
X163250476Y-72485619D02*
X163298095Y-72438000D01*
X163393333Y-72390380D01*
X163631428Y-72390380D01*
X163726666Y-72438000D01*
X163774285Y-72485619D01*
X163821904Y-72580857D01*
X163821904Y-72676095D01*
X163774285Y-72818952D01*
X163202857Y-73390380D01*
X163821904Y-73390380D01*
X157281714Y-73390380D02*
X157281714Y-72390380D01*
X157519809Y-72390380D01*
X157662666Y-72438000D01*
X157757904Y-72533238D01*
X157805523Y-72628476D01*
X157853142Y-72818952D01*
X157853142Y-72961809D01*
X157805523Y-73152285D01*
X157757904Y-73247523D01*
X157662666Y-73342761D01*
X157519809Y-73390380D01*
X157281714Y-73390380D01*
X158805523Y-73390380D02*
X158234095Y-73390380D01*
X158519809Y-73390380D02*
X158519809Y-72390380D01*
X158424571Y-72533238D01*
X158329333Y-72628476D01*
X158234095Y-72676095D01*
X159138857Y-72390380D02*
X159757904Y-72390380D01*
X159424571Y-72771333D01*
X159567428Y-72771333D01*
X159662666Y-72818952D01*
X159710285Y-72866571D01*
X159757904Y-72961809D01*
X159757904Y-73199904D01*
X159710285Y-73295142D01*
X159662666Y-73342761D01*
X159567428Y-73390380D01*
X159281714Y-73390380D01*
X159186476Y-73342761D01*
X159138857Y-73295142D01*
X149153714Y-73390380D02*
X149153714Y-72390380D01*
X149391809Y-72390380D01*
X149534666Y-72438000D01*
X149629904Y-72533238D01*
X149677523Y-72628476D01*
X149725142Y-72818952D01*
X149725142Y-72961809D01*
X149677523Y-73152285D01*
X149629904Y-73247523D01*
X149534666Y-73342761D01*
X149391809Y-73390380D01*
X149153714Y-73390380D01*
X150677523Y-73390380D02*
X150106095Y-73390380D01*
X150391809Y-73390380D02*
X150391809Y-72390380D01*
X150296571Y-72533238D01*
X150201333Y-72628476D01*
X150106095Y-72676095D01*
X151582285Y-72390380D02*
X151106095Y-72390380D01*
X151058476Y-72866571D01*
X151106095Y-72818952D01*
X151201333Y-72771333D01*
X151439428Y-72771333D01*
X151534666Y-72818952D01*
X151582285Y-72866571D01*
X151629904Y-72961809D01*
X151629904Y-73199904D01*
X151582285Y-73295142D01*
X151534666Y-73342761D01*
X151439428Y-73390380D01*
X151201333Y-73390380D01*
X151106095Y-73342761D01*
X151058476Y-73295142D01*
X145089714Y-73390380D02*
X145089714Y-72390380D01*
X145327809Y-72390380D01*
X145470666Y-72438000D01*
X145565904Y-72533238D01*
X145613523Y-72628476D01*
X145661142Y-72818952D01*
X145661142Y-72961809D01*
X145613523Y-73152285D01*
X145565904Y-73247523D01*
X145470666Y-73342761D01*
X145327809Y-73390380D01*
X145089714Y-73390380D01*
X146613523Y-73390380D02*
X146042095Y-73390380D01*
X146327809Y-73390380D02*
X146327809Y-72390380D01*
X146232571Y-72533238D01*
X146137333Y-72628476D01*
X146042095Y-72676095D01*
X147470666Y-72390380D02*
X147280190Y-72390380D01*
X147184952Y-72438000D01*
X147137333Y-72485619D01*
X147042095Y-72628476D01*
X146994476Y-72818952D01*
X146994476Y-73199904D01*
X147042095Y-73295142D01*
X147089714Y-73342761D01*
X147184952Y-73390380D01*
X147375428Y-73390380D01*
X147470666Y-73342761D01*
X147518285Y-73295142D01*
X147565904Y-73199904D01*
X147565904Y-72961809D01*
X147518285Y-72866571D01*
X147470666Y-72818952D01*
X147375428Y-72771333D01*
X147184952Y-72771333D01*
X147089714Y-72818952D01*
X147042095Y-72866571D01*
X146994476Y-72961809D01*
X153217714Y-73390380D02*
X153217714Y-72390380D01*
X153455809Y-72390380D01*
X153598666Y-72438000D01*
X153693904Y-72533238D01*
X153741523Y-72628476D01*
X153789142Y-72818952D01*
X153789142Y-72961809D01*
X153741523Y-73152285D01*
X153693904Y-73247523D01*
X153598666Y-73342761D01*
X153455809Y-73390380D01*
X153217714Y-73390380D01*
X154741523Y-73390380D02*
X154170095Y-73390380D01*
X154455809Y-73390380D02*
X154455809Y-72390380D01*
X154360571Y-72533238D01*
X154265333Y-72628476D01*
X154170095Y-72676095D01*
X155074857Y-72390380D02*
X155741523Y-72390380D01*
X155312952Y-73390380D01*
X112171171Y-108326133D02*
X112171171Y-108659466D01*
X112694980Y-108659466D02*
X111694980Y-108659466D01*
X111694980Y-108183276D01*
X112171171Y-107468990D02*
X112218790Y-107326133D01*
X112266409Y-107278514D01*
X112361647Y-107230895D01*
X112504504Y-107230895D01*
X112599742Y-107278514D01*
X112647361Y-107326133D01*
X112694980Y-107421371D01*
X112694980Y-107802323D01*
X111694980Y-107802323D01*
X111694980Y-107468990D01*
X111742600Y-107373752D01*
X111790219Y-107326133D01*
X111885457Y-107278514D01*
X111980695Y-107278514D01*
X112075933Y-107326133D01*
X112123552Y-107373752D01*
X112171171Y-107468990D01*
X112171171Y-107802323D01*
X112694980Y-106278514D02*
X112694980Y-106849942D01*
X112694980Y-106564228D02*
X111694980Y-106564228D01*
X111837838Y-106659466D01*
X111933076Y-106754704D01*
X111980695Y-106849942D01*
X100391933Y-87650580D02*
X99915742Y-87650580D01*
X99915742Y-86650580D01*
X101249076Y-87650580D02*
X100677647Y-87650580D01*
X100963361Y-87650580D02*
X100963361Y-86650580D01*
X100868123Y-86793438D01*
X100772885Y-86888676D01*
X100677647Y-86936295D01*
X97559904Y-122824380D02*
X97559904Y-121824380D01*
X97940857Y-121824380D01*
X98036095Y-121872000D01*
X98083714Y-121919619D01*
X98131333Y-122014857D01*
X98131333Y-122157714D01*
X98083714Y-122252952D01*
X98036095Y-122300571D01*
X97940857Y-122348190D01*
X97559904Y-122348190D01*
X99083714Y-122824380D02*
X98512285Y-122824380D01*
X98798000Y-122824380D02*
X98798000Y-121824380D01*
X98702761Y-121967238D01*
X98607523Y-122062476D01*
X98512285Y-122110095D01*
X97559904Y-131206380D02*
X97559904Y-130206380D01*
X97940857Y-130206380D01*
X98036095Y-130254000D01*
X98083714Y-130301619D01*
X98131333Y-130396857D01*
X98131333Y-130539714D01*
X98083714Y-130634952D01*
X98036095Y-130682571D01*
X97940857Y-130730190D01*
X97559904Y-130730190D01*
X98464666Y-130206380D02*
X99083714Y-130206380D01*
X98750380Y-130587333D01*
X98893238Y-130587333D01*
X98988476Y-130634952D01*
X99036095Y-130682571D01*
X99083714Y-130777809D01*
X99083714Y-131015904D01*
X99036095Y-131111142D01*
X98988476Y-131158761D01*
X98893238Y-131206380D01*
X98607523Y-131206380D01*
X98512285Y-131158761D01*
X98464666Y-131111142D01*
X124110761Y-67527419D02*
X124015523Y-67479800D01*
X123920285Y-67384561D01*
X123777428Y-67241704D01*
X123682190Y-67194085D01*
X123586952Y-67194085D01*
X123634571Y-67432180D02*
X123539333Y-67384561D01*
X123444095Y-67289323D01*
X123396476Y-67098847D01*
X123396476Y-66765514D01*
X123444095Y-66575038D01*
X123539333Y-66479800D01*
X123634571Y-66432180D01*
X123825047Y-66432180D01*
X123920285Y-66479800D01*
X124015523Y-66575038D01*
X124063142Y-66765514D01*
X124063142Y-67098847D01*
X124015523Y-67289323D01*
X123920285Y-67384561D01*
X123825047Y-67432180D01*
X123634571Y-67432180D01*
X125015523Y-67432180D02*
X124444095Y-67432180D01*
X124729809Y-67432180D02*
X124729809Y-66432180D01*
X124634571Y-66575038D01*
X124539333Y-66670276D01*
X124444095Y-66717895D01*
X131959361Y-67679819D02*
X131864123Y-67632200D01*
X131768885Y-67536961D01*
X131626028Y-67394104D01*
X131530790Y-67346485D01*
X131435552Y-67346485D01*
X131483171Y-67584580D02*
X131387933Y-67536961D01*
X131292695Y-67441723D01*
X131245076Y-67251247D01*
X131245076Y-66917914D01*
X131292695Y-66727438D01*
X131387933Y-66632200D01*
X131483171Y-66584580D01*
X131673647Y-66584580D01*
X131768885Y-66632200D01*
X131864123Y-66727438D01*
X131911742Y-66917914D01*
X131911742Y-67251247D01*
X131864123Y-67441723D01*
X131768885Y-67536961D01*
X131673647Y-67584580D01*
X131483171Y-67584580D01*
X132292695Y-66679819D02*
X132340314Y-66632200D01*
X132435552Y-66584580D01*
X132673647Y-66584580D01*
X132768885Y-66632200D01*
X132816504Y-66679819D01*
X132864123Y-66775057D01*
X132864123Y-66870295D01*
X132816504Y-67013152D01*
X132245076Y-67584580D01*
X132864123Y-67584580D01*
X100336361Y-67221219D02*
X100241123Y-67173600D01*
X100145885Y-67078361D01*
X100003028Y-66935504D01*
X99907790Y-66887885D01*
X99812552Y-66887885D01*
X99860171Y-67125980D02*
X99764933Y-67078361D01*
X99669695Y-66983123D01*
X99622076Y-66792647D01*
X99622076Y-66459314D01*
X99669695Y-66268838D01*
X99764933Y-66173600D01*
X99860171Y-66125980D01*
X100050647Y-66125980D01*
X100145885Y-66173600D01*
X100241123Y-66268838D01*
X100288742Y-66459314D01*
X100288742Y-66792647D01*
X100241123Y-66983123D01*
X100145885Y-67078361D01*
X100050647Y-67125980D01*
X99860171Y-67125980D01*
X100622076Y-66125980D02*
X101241123Y-66125980D01*
X100907790Y-66506933D01*
X101050647Y-66506933D01*
X101145885Y-66554552D01*
X101193504Y-66602171D01*
X101241123Y-66697409D01*
X101241123Y-66935504D01*
X101193504Y-67030742D01*
X101145885Y-67078361D01*
X101050647Y-67125980D01*
X100764933Y-67125980D01*
X100669695Y-67078361D01*
X100622076Y-67030742D01*
X111791761Y-67121019D02*
X111696523Y-67073400D01*
X111601285Y-66978161D01*
X111458428Y-66835304D01*
X111363190Y-66787685D01*
X111267952Y-66787685D01*
X111315571Y-67025780D02*
X111220333Y-66978161D01*
X111125095Y-66882923D01*
X111077476Y-66692447D01*
X111077476Y-66359114D01*
X111125095Y-66168638D01*
X111220333Y-66073400D01*
X111315571Y-66025780D01*
X111506047Y-66025780D01*
X111601285Y-66073400D01*
X111696523Y-66168638D01*
X111744142Y-66359114D01*
X111744142Y-66692447D01*
X111696523Y-66882923D01*
X111601285Y-66978161D01*
X111506047Y-67025780D01*
X111315571Y-67025780D01*
X112601285Y-66359114D02*
X112601285Y-67025780D01*
X112363190Y-65978161D02*
X112125095Y-66692447D01*
X112744142Y-66692447D01*
X92486761Y-67121019D02*
X92391523Y-67073400D01*
X92296285Y-66978161D01*
X92153428Y-66835304D01*
X92058190Y-66787685D01*
X91962952Y-66787685D01*
X92010571Y-67025780D02*
X91915333Y-66978161D01*
X91820095Y-66882923D01*
X91772476Y-66692447D01*
X91772476Y-66359114D01*
X91820095Y-66168638D01*
X91915333Y-66073400D01*
X92010571Y-66025780D01*
X92201047Y-66025780D01*
X92296285Y-66073400D01*
X92391523Y-66168638D01*
X92439142Y-66359114D01*
X92439142Y-66692447D01*
X92391523Y-66882923D01*
X92296285Y-66978161D01*
X92201047Y-67025780D01*
X92010571Y-67025780D01*
X93343904Y-66025780D02*
X92867714Y-66025780D01*
X92820095Y-66501971D01*
X92867714Y-66454352D01*
X92962952Y-66406733D01*
X93201047Y-66406733D01*
X93296285Y-66454352D01*
X93343904Y-66501971D01*
X93391523Y-66597209D01*
X93391523Y-66835304D01*
X93343904Y-66930542D01*
X93296285Y-66978161D01*
X93201047Y-67025780D01*
X92962952Y-67025780D01*
X92867714Y-66978161D01*
X92820095Y-66930542D01*
X121981933Y-99359980D02*
X121648600Y-98883790D01*
X121410504Y-99359980D02*
X121410504Y-98359980D01*
X121791457Y-98359980D01*
X121886695Y-98407600D01*
X121934314Y-98455219D01*
X121981933Y-98550457D01*
X121981933Y-98693314D01*
X121934314Y-98788552D01*
X121886695Y-98836171D01*
X121791457Y-98883790D01*
X121410504Y-98883790D01*
X122934314Y-99359980D02*
X122362885Y-99359980D01*
X122648600Y-99359980D02*
X122648600Y-98359980D01*
X122553361Y-98502838D01*
X122458123Y-98598076D01*
X122362885Y-98645695D01*
X163695142Y-67382380D02*
X163361809Y-66906190D01*
X163123714Y-67382380D02*
X163123714Y-66382380D01*
X163504666Y-66382380D01*
X163599904Y-66430000D01*
X163647523Y-66477619D01*
X163695142Y-66572857D01*
X163695142Y-66715714D01*
X163647523Y-66810952D01*
X163599904Y-66858571D01*
X163504666Y-66906190D01*
X163123714Y-66906190D01*
X164552285Y-66715714D02*
X164552285Y-67382380D01*
X164314190Y-66334761D02*
X164076095Y-67049047D01*
X164695142Y-67049047D01*
X165028476Y-66477619D02*
X165076095Y-66430000D01*
X165171333Y-66382380D01*
X165409428Y-66382380D01*
X165504666Y-66430000D01*
X165552285Y-66477619D01*
X165599904Y-66572857D01*
X165599904Y-66668095D01*
X165552285Y-66810952D01*
X164980857Y-67382380D01*
X165599904Y-67382380D01*
X159631142Y-67382380D02*
X159297809Y-66906190D01*
X159059714Y-67382380D02*
X159059714Y-66382380D01*
X159440666Y-66382380D01*
X159535904Y-66430000D01*
X159583523Y-66477619D01*
X159631142Y-66572857D01*
X159631142Y-66715714D01*
X159583523Y-66810952D01*
X159535904Y-66858571D01*
X159440666Y-66906190D01*
X159059714Y-66906190D01*
X160488285Y-66715714D02*
X160488285Y-67382380D01*
X160250190Y-66334761D02*
X160012095Y-67049047D01*
X160631142Y-67049047D01*
X160916857Y-66382380D02*
X161535904Y-66382380D01*
X161202571Y-66763333D01*
X161345428Y-66763333D01*
X161440666Y-66810952D01*
X161488285Y-66858571D01*
X161535904Y-66953809D01*
X161535904Y-67191904D01*
X161488285Y-67287142D01*
X161440666Y-67334761D01*
X161345428Y-67382380D01*
X161059714Y-67382380D01*
X160964476Y-67334761D01*
X160916857Y-67287142D01*
X143375142Y-67382380D02*
X143041809Y-66906190D01*
X142803714Y-67382380D02*
X142803714Y-66382380D01*
X143184666Y-66382380D01*
X143279904Y-66430000D01*
X143327523Y-66477619D01*
X143375142Y-66572857D01*
X143375142Y-66715714D01*
X143327523Y-66810952D01*
X143279904Y-66858571D01*
X143184666Y-66906190D01*
X142803714Y-66906190D01*
X144232285Y-66715714D02*
X144232285Y-67382380D01*
X143994190Y-66334761D02*
X143756095Y-67049047D01*
X144375142Y-67049047D01*
X145184666Y-66715714D02*
X145184666Y-67382380D01*
X144946571Y-66334761D02*
X144708476Y-67049047D01*
X145327523Y-67049047D01*
X163695142Y-72714380D02*
X163361809Y-72238190D01*
X163123714Y-72714380D02*
X163123714Y-71714380D01*
X163504666Y-71714380D01*
X163599904Y-71762000D01*
X163647523Y-71809619D01*
X163695142Y-71904857D01*
X163695142Y-72047714D01*
X163647523Y-72142952D01*
X163599904Y-72190571D01*
X163504666Y-72238190D01*
X163123714Y-72238190D01*
X164552285Y-72047714D02*
X164552285Y-72714380D01*
X164314190Y-71666761D02*
X164076095Y-72381047D01*
X164695142Y-72381047D01*
X165552285Y-71714380D02*
X165076095Y-71714380D01*
X165028476Y-72190571D01*
X165076095Y-72142952D01*
X165171333Y-72095333D01*
X165409428Y-72095333D01*
X165504666Y-72142952D01*
X165552285Y-72190571D01*
X165599904Y-72285809D01*
X165599904Y-72523904D01*
X165552285Y-72619142D01*
X165504666Y-72666761D01*
X165409428Y-72714380D01*
X165171333Y-72714380D01*
X165076095Y-72666761D01*
X165028476Y-72619142D01*
X159631142Y-72714380D02*
X159297809Y-72238190D01*
X159059714Y-72714380D02*
X159059714Y-71714380D01*
X159440666Y-71714380D01*
X159535904Y-71762000D01*
X159583523Y-71809619D01*
X159631142Y-71904857D01*
X159631142Y-72047714D01*
X159583523Y-72142952D01*
X159535904Y-72190571D01*
X159440666Y-72238190D01*
X159059714Y-72238190D01*
X160488285Y-72047714D02*
X160488285Y-72714380D01*
X160250190Y-71666761D02*
X160012095Y-72381047D01*
X160631142Y-72381047D01*
X161440666Y-71714380D02*
X161250190Y-71714380D01*
X161154952Y-71762000D01*
X161107333Y-71809619D01*
X161012095Y-71952476D01*
X160964476Y-72142952D01*
X160964476Y-72523904D01*
X161012095Y-72619142D01*
X161059714Y-72666761D01*
X161154952Y-72714380D01*
X161345428Y-72714380D01*
X161440666Y-72666761D01*
X161488285Y-72619142D01*
X161535904Y-72523904D01*
X161535904Y-72285809D01*
X161488285Y-72190571D01*
X161440666Y-72142952D01*
X161345428Y-72095333D01*
X161154952Y-72095333D01*
X161059714Y-72142952D01*
X161012095Y-72190571D01*
X160964476Y-72285809D01*
X143375142Y-72714380D02*
X143041809Y-72238190D01*
X142803714Y-72714380D02*
X142803714Y-71714380D01*
X143184666Y-71714380D01*
X143279904Y-71762000D01*
X143327523Y-71809619D01*
X143375142Y-71904857D01*
X143375142Y-72047714D01*
X143327523Y-72142952D01*
X143279904Y-72190571D01*
X143184666Y-72238190D01*
X142803714Y-72238190D01*
X144232285Y-72047714D02*
X144232285Y-72714380D01*
X143994190Y-71666761D02*
X143756095Y-72381047D01*
X144375142Y-72381047D01*
X144660857Y-71714380D02*
X145327523Y-71714380D01*
X144898952Y-72714380D01*
X151503142Y-67382380D02*
X151169809Y-66906190D01*
X150931714Y-67382380D02*
X150931714Y-66382380D01*
X151312666Y-66382380D01*
X151407904Y-66430000D01*
X151455523Y-66477619D01*
X151503142Y-66572857D01*
X151503142Y-66715714D01*
X151455523Y-66810952D01*
X151407904Y-66858571D01*
X151312666Y-66906190D01*
X150931714Y-66906190D01*
X152360285Y-66715714D02*
X152360285Y-67382380D01*
X152122190Y-66334761D02*
X151884095Y-67049047D01*
X152503142Y-67049047D01*
X153026952Y-66810952D02*
X152931714Y-66763333D01*
X152884095Y-66715714D01*
X152836476Y-66620476D01*
X152836476Y-66572857D01*
X152884095Y-66477619D01*
X152931714Y-66430000D01*
X153026952Y-66382380D01*
X153217428Y-66382380D01*
X153312666Y-66430000D01*
X153360285Y-66477619D01*
X153407904Y-66572857D01*
X153407904Y-66620476D01*
X153360285Y-66715714D01*
X153312666Y-66763333D01*
X153217428Y-66810952D01*
X153026952Y-66810952D01*
X152931714Y-66858571D01*
X152884095Y-66906190D01*
X152836476Y-67001428D01*
X152836476Y-67191904D01*
X152884095Y-67287142D01*
X152931714Y-67334761D01*
X153026952Y-67382380D01*
X153217428Y-67382380D01*
X153312666Y-67334761D01*
X153360285Y-67287142D01*
X153407904Y-67191904D01*
X153407904Y-67001428D01*
X153360285Y-66906190D01*
X153312666Y-66858571D01*
X153217428Y-66810952D01*
X147439142Y-67382380D02*
X147105809Y-66906190D01*
X146867714Y-67382380D02*
X146867714Y-66382380D01*
X147248666Y-66382380D01*
X147343904Y-66430000D01*
X147391523Y-66477619D01*
X147439142Y-66572857D01*
X147439142Y-66715714D01*
X147391523Y-66810952D01*
X147343904Y-66858571D01*
X147248666Y-66906190D01*
X146867714Y-66906190D01*
X148296285Y-66715714D02*
X148296285Y-67382380D01*
X148058190Y-66334761D02*
X147820095Y-67049047D01*
X148439142Y-67049047D01*
X148867714Y-67382380D02*
X149058190Y-67382380D01*
X149153428Y-67334761D01*
X149201047Y-67287142D01*
X149296285Y-67144285D01*
X149343904Y-66953809D01*
X149343904Y-66572857D01*
X149296285Y-66477619D01*
X149248666Y-66430000D01*
X149153428Y-66382380D01*
X148962952Y-66382380D01*
X148867714Y-66430000D01*
X148820095Y-66477619D01*
X148772476Y-66572857D01*
X148772476Y-66810952D01*
X148820095Y-66906190D01*
X148867714Y-66953809D01*
X148962952Y-67001428D01*
X149153428Y-67001428D01*
X149248666Y-66953809D01*
X149296285Y-66906190D01*
X149343904Y-66810952D01*
X155567142Y-67382380D02*
X155233809Y-66906190D01*
X154995714Y-67382380D02*
X154995714Y-66382380D01*
X155376666Y-66382380D01*
X155471904Y-66430000D01*
X155519523Y-66477619D01*
X155567142Y-66572857D01*
X155567142Y-66715714D01*
X155519523Y-66810952D01*
X155471904Y-66858571D01*
X155376666Y-66906190D01*
X154995714Y-66906190D01*
X156471904Y-66382380D02*
X155995714Y-66382380D01*
X155948095Y-66858571D01*
X155995714Y-66810952D01*
X156090952Y-66763333D01*
X156329047Y-66763333D01*
X156424285Y-66810952D01*
X156471904Y-66858571D01*
X156519523Y-66953809D01*
X156519523Y-67191904D01*
X156471904Y-67287142D01*
X156424285Y-67334761D01*
X156329047Y-67382380D01*
X156090952Y-67382380D01*
X155995714Y-67334761D01*
X155948095Y-67287142D01*
X157138571Y-66382380D02*
X157233809Y-66382380D01*
X157329047Y-66430000D01*
X157376666Y-66477619D01*
X157424285Y-66572857D01*
X157471904Y-66763333D01*
X157471904Y-67001428D01*
X157424285Y-67191904D01*
X157376666Y-67287142D01*
X157329047Y-67334761D01*
X157233809Y-67382380D01*
X157138571Y-67382380D01*
X157043333Y-67334761D01*
X156995714Y-67287142D01*
X156948095Y-67191904D01*
X156900476Y-67001428D01*
X156900476Y-66763333D01*
X156948095Y-66572857D01*
X156995714Y-66477619D01*
X157043333Y-66430000D01*
X157138571Y-66382380D01*
X151503142Y-72714380D02*
X151169809Y-72238190D01*
X150931714Y-72714380D02*
X150931714Y-71714380D01*
X151312666Y-71714380D01*
X151407904Y-71762000D01*
X151455523Y-71809619D01*
X151503142Y-71904857D01*
X151503142Y-72047714D01*
X151455523Y-72142952D01*
X151407904Y-72190571D01*
X151312666Y-72238190D01*
X150931714Y-72238190D01*
X152407904Y-71714380D02*
X151931714Y-71714380D01*
X151884095Y-72190571D01*
X151931714Y-72142952D01*
X152026952Y-72095333D01*
X152265047Y-72095333D01*
X152360285Y-72142952D01*
X152407904Y-72190571D01*
X152455523Y-72285809D01*
X152455523Y-72523904D01*
X152407904Y-72619142D01*
X152360285Y-72666761D01*
X152265047Y-72714380D01*
X152026952Y-72714380D01*
X151931714Y-72666761D01*
X151884095Y-72619142D01*
X153407904Y-72714380D02*
X152836476Y-72714380D01*
X153122190Y-72714380D02*
X153122190Y-71714380D01*
X153026952Y-71857238D01*
X152931714Y-71952476D01*
X152836476Y-72000095D01*
X147439142Y-72714380D02*
X147105809Y-72238190D01*
X146867714Y-72714380D02*
X146867714Y-71714380D01*
X147248666Y-71714380D01*
X147343904Y-71762000D01*
X147391523Y-71809619D01*
X147439142Y-71904857D01*
X147439142Y-72047714D01*
X147391523Y-72142952D01*
X147343904Y-72190571D01*
X147248666Y-72238190D01*
X146867714Y-72238190D01*
X148343904Y-71714380D02*
X147867714Y-71714380D01*
X147820095Y-72190571D01*
X147867714Y-72142952D01*
X147962952Y-72095333D01*
X148201047Y-72095333D01*
X148296285Y-72142952D01*
X148343904Y-72190571D01*
X148391523Y-72285809D01*
X148391523Y-72523904D01*
X148343904Y-72619142D01*
X148296285Y-72666761D01*
X148201047Y-72714380D01*
X147962952Y-72714380D01*
X147867714Y-72666761D01*
X147820095Y-72619142D01*
X148772476Y-71809619D02*
X148820095Y-71762000D01*
X148915333Y-71714380D01*
X149153428Y-71714380D01*
X149248666Y-71762000D01*
X149296285Y-71809619D01*
X149343904Y-71904857D01*
X149343904Y-72000095D01*
X149296285Y-72142952D01*
X148724857Y-72714380D01*
X149343904Y-72714380D01*
X155567142Y-72714380D02*
X155233809Y-72238190D01*
X154995714Y-72714380D02*
X154995714Y-71714380D01*
X155376666Y-71714380D01*
X155471904Y-71762000D01*
X155519523Y-71809619D01*
X155567142Y-71904857D01*
X155567142Y-72047714D01*
X155519523Y-72142952D01*
X155471904Y-72190571D01*
X155376666Y-72238190D01*
X154995714Y-72238190D01*
X156471904Y-71714380D02*
X155995714Y-71714380D01*
X155948095Y-72190571D01*
X155995714Y-72142952D01*
X156090952Y-72095333D01*
X156329047Y-72095333D01*
X156424285Y-72142952D01*
X156471904Y-72190571D01*
X156519523Y-72285809D01*
X156519523Y-72523904D01*
X156471904Y-72619142D01*
X156424285Y-72666761D01*
X156329047Y-72714380D01*
X156090952Y-72714380D01*
X155995714Y-72666761D01*
X155948095Y-72619142D01*
X156852857Y-71714380D02*
X157471904Y-71714380D01*
X157138571Y-72095333D01*
X157281428Y-72095333D01*
X157376666Y-72142952D01*
X157424285Y-72190571D01*
X157471904Y-72285809D01*
X157471904Y-72523904D01*
X157424285Y-72619142D01*
X157376666Y-72666761D01*
X157281428Y-72714380D01*
X156995714Y-72714380D01*
X156900476Y-72666761D01*
X156852857Y-72619142D01*
X125671342Y-81656180D02*
X125338009Y-81179990D01*
X125099914Y-81656180D02*
X125099914Y-80656180D01*
X125480866Y-80656180D01*
X125576104Y-80703800D01*
X125623723Y-80751419D01*
X125671342Y-80846657D01*
X125671342Y-80989514D01*
X125623723Y-81084752D01*
X125576104Y-81132371D01*
X125480866Y-81179990D01*
X125099914Y-81179990D01*
X126528485Y-80656180D02*
X126338009Y-80656180D01*
X126242771Y-80703800D01*
X126195152Y-80751419D01*
X126099914Y-80894276D01*
X126052295Y-81084752D01*
X126052295Y-81465704D01*
X126099914Y-81560942D01*
X126147533Y-81608561D01*
X126242771Y-81656180D01*
X126433247Y-81656180D01*
X126528485Y-81608561D01*
X126576104Y-81560942D01*
X126623723Y-81465704D01*
X126623723Y-81227609D01*
X126576104Y-81132371D01*
X126528485Y-81084752D01*
X126433247Y-81037133D01*
X126242771Y-81037133D01*
X126147533Y-81084752D01*
X126099914Y-81132371D01*
X126052295Y-81227609D01*
X126957057Y-80656180D02*
X127576104Y-80656180D01*
X127242771Y-81037133D01*
X127385628Y-81037133D01*
X127480866Y-81084752D01*
X127528485Y-81132371D01*
X127576104Y-81227609D01*
X127576104Y-81465704D01*
X127528485Y-81560942D01*
X127480866Y-81608561D01*
X127385628Y-81656180D01*
X127099914Y-81656180D01*
X127004676Y-81608561D01*
X126957057Y-81560942D01*
X103497142Y-119196380D02*
X103163809Y-118720190D01*
X102925714Y-119196380D02*
X102925714Y-118196380D01*
X103306666Y-118196380D01*
X103401904Y-118244000D01*
X103449523Y-118291619D01*
X103497142Y-118386857D01*
X103497142Y-118529714D01*
X103449523Y-118624952D01*
X103401904Y-118672571D01*
X103306666Y-118720190D01*
X102925714Y-118720190D01*
X104354285Y-118196380D02*
X104163809Y-118196380D01*
X104068571Y-118244000D01*
X104020952Y-118291619D01*
X103925714Y-118434476D01*
X103878095Y-118624952D01*
X103878095Y-119005904D01*
X103925714Y-119101142D01*
X103973333Y-119148761D01*
X104068571Y-119196380D01*
X104259047Y-119196380D01*
X104354285Y-119148761D01*
X104401904Y-119101142D01*
X104449523Y-119005904D01*
X104449523Y-118767809D01*
X104401904Y-118672571D01*
X104354285Y-118624952D01*
X104259047Y-118577333D01*
X104068571Y-118577333D01*
X103973333Y-118624952D01*
X103925714Y-118672571D01*
X103878095Y-118767809D01*
X105306666Y-118529714D02*
X105306666Y-119196380D01*
X105068571Y-118148761D02*
X104830476Y-118863047D01*
X105449523Y-118863047D01*
X103497142Y-122752380D02*
X103163809Y-122276190D01*
X102925714Y-122752380D02*
X102925714Y-121752380D01*
X103306666Y-121752380D01*
X103401904Y-121800000D01*
X103449523Y-121847619D01*
X103497142Y-121942857D01*
X103497142Y-122085714D01*
X103449523Y-122180952D01*
X103401904Y-122228571D01*
X103306666Y-122276190D01*
X102925714Y-122276190D01*
X104354285Y-121752380D02*
X104163809Y-121752380D01*
X104068571Y-121800000D01*
X104020952Y-121847619D01*
X103925714Y-121990476D01*
X103878095Y-122180952D01*
X103878095Y-122561904D01*
X103925714Y-122657142D01*
X103973333Y-122704761D01*
X104068571Y-122752380D01*
X104259047Y-122752380D01*
X104354285Y-122704761D01*
X104401904Y-122657142D01*
X104449523Y-122561904D01*
X104449523Y-122323809D01*
X104401904Y-122228571D01*
X104354285Y-122180952D01*
X104259047Y-122133333D01*
X104068571Y-122133333D01*
X103973333Y-122180952D01*
X103925714Y-122228571D01*
X103878095Y-122323809D01*
X105354285Y-121752380D02*
X104878095Y-121752380D01*
X104830476Y-122228571D01*
X104878095Y-122180952D01*
X104973333Y-122133333D01*
X105211428Y-122133333D01*
X105306666Y-122180952D01*
X105354285Y-122228571D01*
X105401904Y-122323809D01*
X105401904Y-122561904D01*
X105354285Y-122657142D01*
X105306666Y-122704761D01*
X105211428Y-122752380D01*
X104973333Y-122752380D01*
X104878095Y-122704761D01*
X104830476Y-122657142D01*
X95623142Y-121839980D02*
X95289809Y-121363790D01*
X95051714Y-121839980D02*
X95051714Y-120839980D01*
X95432666Y-120839980D01*
X95527904Y-120887600D01*
X95575523Y-120935219D01*
X95623142Y-121030457D01*
X95623142Y-121173314D01*
X95575523Y-121268552D01*
X95527904Y-121316171D01*
X95432666Y-121363790D01*
X95051714Y-121363790D01*
X96480285Y-120839980D02*
X96289809Y-120839980D01*
X96194571Y-120887600D01*
X96146952Y-120935219D01*
X96051714Y-121078076D01*
X96004095Y-121268552D01*
X96004095Y-121649504D01*
X96051714Y-121744742D01*
X96099333Y-121792361D01*
X96194571Y-121839980D01*
X96385047Y-121839980D01*
X96480285Y-121792361D01*
X96527904Y-121744742D01*
X96575523Y-121649504D01*
X96575523Y-121411409D01*
X96527904Y-121316171D01*
X96480285Y-121268552D01*
X96385047Y-121220933D01*
X96194571Y-121220933D01*
X96099333Y-121268552D01*
X96051714Y-121316171D01*
X96004095Y-121411409D01*
X97146952Y-121268552D02*
X97051714Y-121220933D01*
X97004095Y-121173314D01*
X96956476Y-121078076D01*
X96956476Y-121030457D01*
X97004095Y-120935219D01*
X97051714Y-120887600D01*
X97146952Y-120839980D01*
X97337428Y-120839980D01*
X97432666Y-120887600D01*
X97480285Y-120935219D01*
X97527904Y-121030457D01*
X97527904Y-121078076D01*
X97480285Y-121173314D01*
X97432666Y-121220933D01*
X97337428Y-121268552D01*
X97146952Y-121268552D01*
X97051714Y-121316171D01*
X97004095Y-121363790D01*
X96956476Y-121459028D01*
X96956476Y-121649504D01*
X97004095Y-121744742D01*
X97051714Y-121792361D01*
X97146952Y-121839980D01*
X97337428Y-121839980D01*
X97432666Y-121792361D01*
X97480285Y-121744742D01*
X97527904Y-121649504D01*
X97527904Y-121459028D01*
X97480285Y-121363790D01*
X97432666Y-121316171D01*
X97337428Y-121268552D01*
X133570742Y-82138780D02*
X133237409Y-81662590D01*
X132999314Y-82138780D02*
X132999314Y-81138780D01*
X133380266Y-81138780D01*
X133475504Y-81186400D01*
X133523123Y-81234019D01*
X133570742Y-81329257D01*
X133570742Y-81472114D01*
X133523123Y-81567352D01*
X133475504Y-81614971D01*
X133380266Y-81662590D01*
X132999314Y-81662590D01*
X133904076Y-81138780D02*
X134570742Y-81138780D01*
X134142171Y-82138780D01*
X135475504Y-82138780D02*
X134904076Y-82138780D01*
X135189790Y-82138780D02*
X135189790Y-81138780D01*
X135094552Y-81281638D01*
X134999314Y-81376876D01*
X134904076Y-81424495D01*
X103497142Y-128848380D02*
X103163809Y-128372190D01*
X102925714Y-128848380D02*
X102925714Y-127848380D01*
X103306666Y-127848380D01*
X103401904Y-127896000D01*
X103449523Y-127943619D01*
X103497142Y-128038857D01*
X103497142Y-128181714D01*
X103449523Y-128276952D01*
X103401904Y-128324571D01*
X103306666Y-128372190D01*
X102925714Y-128372190D01*
X103830476Y-127848380D02*
X104497142Y-127848380D01*
X104068571Y-128848380D01*
X104830476Y-127943619D02*
X104878095Y-127896000D01*
X104973333Y-127848380D01*
X105211428Y-127848380D01*
X105306666Y-127896000D01*
X105354285Y-127943619D01*
X105401904Y-128038857D01*
X105401904Y-128134095D01*
X105354285Y-128276952D01*
X104782857Y-128848380D01*
X105401904Y-128848380D01*
X103497142Y-131134380D02*
X103163809Y-130658190D01*
X102925714Y-131134380D02*
X102925714Y-130134380D01*
X103306666Y-130134380D01*
X103401904Y-130182000D01*
X103449523Y-130229619D01*
X103497142Y-130324857D01*
X103497142Y-130467714D01*
X103449523Y-130562952D01*
X103401904Y-130610571D01*
X103306666Y-130658190D01*
X102925714Y-130658190D01*
X103830476Y-130134380D02*
X104497142Y-130134380D01*
X104068571Y-131134380D01*
X104782857Y-130134380D02*
X105401904Y-130134380D01*
X105068571Y-130515333D01*
X105211428Y-130515333D01*
X105306666Y-130562952D01*
X105354285Y-130610571D01*
X105401904Y-130705809D01*
X105401904Y-130943904D01*
X105354285Y-131039142D01*
X105306666Y-131086761D01*
X105211428Y-131134380D01*
X104925714Y-131134380D01*
X104830476Y-131086761D01*
X104782857Y-131039142D01*
X106189542Y-81605380D02*
X105856209Y-81129190D01*
X105618114Y-81605380D02*
X105618114Y-80605380D01*
X105999066Y-80605380D01*
X106094304Y-80653000D01*
X106141923Y-80700619D01*
X106189542Y-80795857D01*
X106189542Y-80938714D01*
X106141923Y-81033952D01*
X106094304Y-81081571D01*
X105999066Y-81129190D01*
X105618114Y-81129190D01*
X106522876Y-80605380D02*
X107189542Y-80605380D01*
X106760971Y-81605380D01*
X107999066Y-80938714D02*
X107999066Y-81605380D01*
X107760971Y-80557761D02*
X107522876Y-81272047D01*
X108141923Y-81272047D01*
X90374380Y-131198857D02*
X89898190Y-131532190D01*
X90374380Y-131770285D02*
X89374380Y-131770285D01*
X89374380Y-131389333D01*
X89422000Y-131294095D01*
X89469619Y-131246476D01*
X89564857Y-131198857D01*
X89707714Y-131198857D01*
X89802952Y-131246476D01*
X89850571Y-131294095D01*
X89898190Y-131389333D01*
X89898190Y-131770285D01*
X89374380Y-130865523D02*
X89374380Y-130198857D01*
X90374380Y-130627428D01*
X89374380Y-129389333D02*
X89374380Y-129579809D01*
X89422000Y-129675047D01*
X89469619Y-129722666D01*
X89612476Y-129817904D01*
X89802952Y-129865523D01*
X90183904Y-129865523D01*
X90279142Y-129817904D01*
X90326761Y-129770285D01*
X90374380Y-129675047D01*
X90374380Y-129484571D01*
X90326761Y-129389333D01*
X90279142Y-129341714D01*
X90183904Y-129294095D01*
X89945809Y-129294095D01*
X89850571Y-129341714D01*
X89802952Y-129389333D01*
X89755333Y-129484571D01*
X89755333Y-129675047D01*
X89802952Y-129770285D01*
X89850571Y-129817904D01*
X89945809Y-129865523D01*
X94934380Y-125864857D02*
X94458190Y-126198190D01*
X94934380Y-126436285D02*
X93934380Y-126436285D01*
X93934380Y-126055333D01*
X93982000Y-125960095D01*
X94029619Y-125912476D01*
X94124857Y-125864857D01*
X94267714Y-125864857D01*
X94362952Y-125912476D01*
X94410571Y-125960095D01*
X94458190Y-126055333D01*
X94458190Y-126436285D01*
X93934380Y-125531523D02*
X93934380Y-124864857D01*
X94934380Y-125293428D01*
X93934380Y-124579142D02*
X93934380Y-123912476D01*
X94934380Y-124341047D01*
X127554980Y-130081257D02*
X127078790Y-130414590D01*
X127554980Y-130652685D02*
X126554980Y-130652685D01*
X126554980Y-130271733D01*
X126602600Y-130176495D01*
X126650219Y-130128876D01*
X126745457Y-130081257D01*
X126888314Y-130081257D01*
X126983552Y-130128876D01*
X127031171Y-130176495D01*
X127078790Y-130271733D01*
X127078790Y-130652685D01*
X126983552Y-129509828D02*
X126935933Y-129605066D01*
X126888314Y-129652685D01*
X126793076Y-129700304D01*
X126745457Y-129700304D01*
X126650219Y-129652685D01*
X126602600Y-129605066D01*
X126554980Y-129509828D01*
X126554980Y-129319352D01*
X126602600Y-129224114D01*
X126650219Y-129176495D01*
X126745457Y-129128876D01*
X126793076Y-129128876D01*
X126888314Y-129176495D01*
X126935933Y-129224114D01*
X126983552Y-129319352D01*
X126983552Y-129509828D01*
X127031171Y-129605066D01*
X127078790Y-129652685D01*
X127174028Y-129700304D01*
X127364504Y-129700304D01*
X127459742Y-129652685D01*
X127507361Y-129605066D01*
X127554980Y-129509828D01*
X127554980Y-129319352D01*
X127507361Y-129224114D01*
X127459742Y-129176495D01*
X127364504Y-129128876D01*
X127174028Y-129128876D01*
X127078790Y-129176495D01*
X127031171Y-129224114D01*
X126983552Y-129319352D01*
X126554980Y-128509828D02*
X126554980Y-128414590D01*
X126602600Y-128319352D01*
X126650219Y-128271733D01*
X126745457Y-128224114D01*
X126935933Y-128176495D01*
X127174028Y-128176495D01*
X127364504Y-128224114D01*
X127459742Y-128271733D01*
X127507361Y-128319352D01*
X127554980Y-128414590D01*
X127554980Y-128509828D01*
X127507361Y-128605066D01*
X127459742Y-128652685D01*
X127364504Y-128700304D01*
X127174028Y-128747923D01*
X126935933Y-128747923D01*
X126745457Y-128700304D01*
X126650219Y-128652685D01*
X126602600Y-128605066D01*
X126554980Y-128509828D01*
X96469295Y-99502980D02*
X96469295Y-100312504D01*
X96516914Y-100407742D01*
X96564533Y-100455361D01*
X96659771Y-100502980D01*
X96850247Y-100502980D01*
X96945485Y-100455361D01*
X96993104Y-100407742D01*
X97040723Y-100312504D01*
X97040723Y-99502980D01*
X98040723Y-100502980D02*
X97469295Y-100502980D01*
X97755009Y-100502980D02*
X97755009Y-99502980D01*
X97659771Y-99645838D01*
X97564533Y-99741076D01*
X97469295Y-99788695D01*
X88936580Y-108838904D02*
X89746104Y-108838904D01*
X89841342Y-108791285D01*
X89888961Y-108743666D01*
X89936580Y-108648428D01*
X89936580Y-108457952D01*
X89888961Y-108362714D01*
X89841342Y-108315095D01*
X89746104Y-108267476D01*
X88936580Y-108267476D01*
X89031819Y-107838904D02*
X88984200Y-107791285D01*
X88936580Y-107696047D01*
X88936580Y-107457952D01*
X88984200Y-107362714D01*
X89031819Y-107315095D01*
X89127057Y-107267476D01*
X89222295Y-107267476D01*
X89365152Y-107315095D01*
X89936580Y-107886523D01*
X89936580Y-107267476D01*
X144703895Y-137094980D02*
X144703895Y-137904504D01*
X144751514Y-137999742D01*
X144799133Y-138047361D01*
X144894371Y-138094980D01*
X145084847Y-138094980D01*
X145180085Y-138047361D01*
X145227704Y-137999742D01*
X145275323Y-137904504D01*
X145275323Y-137094980D01*
X146180085Y-137094980D02*
X145989609Y-137094980D01*
X145894371Y-137142600D01*
X145846752Y-137190219D01*
X145751514Y-137333076D01*
X145703895Y-137523552D01*
X145703895Y-137904504D01*
X145751514Y-137999742D01*
X145799133Y-138047361D01*
X145894371Y-138094980D01*
X146084847Y-138094980D01*
X146180085Y-138047361D01*
X146227704Y-137999742D01*
X146275323Y-137904504D01*
X146275323Y-137666409D01*
X146227704Y-137571171D01*
X146180085Y-137523552D01*
X146084847Y-137475933D01*
X145894371Y-137475933D01*
X145799133Y-137523552D01*
X145751514Y-137571171D01*
X145703895Y-137666409D01*
X162196542Y-99187542D02*
X162148923Y-99235161D01*
X162006066Y-99282780D01*
X161910828Y-99282780D01*
X161767971Y-99235161D01*
X161672733Y-99139923D01*
X161625114Y-99044685D01*
X161577495Y-98854209D01*
X161577495Y-98711352D01*
X161625114Y-98520876D01*
X161672733Y-98425638D01*
X161767971Y-98330400D01*
X161910828Y-98282780D01*
X162006066Y-98282780D01*
X162148923Y-98330400D01*
X162196542Y-98378019D01*
X163053685Y-98282780D02*
X162863209Y-98282780D01*
X162767971Y-98330400D01*
X162720352Y-98378019D01*
X162625114Y-98520876D01*
X162577495Y-98711352D01*
X162577495Y-99092304D01*
X162625114Y-99187542D01*
X162672733Y-99235161D01*
X162767971Y-99282780D01*
X162958447Y-99282780D01*
X163053685Y-99235161D01*
X163101304Y-99187542D01*
X163148923Y-99092304D01*
X163148923Y-98854209D01*
X163101304Y-98758971D01*
X163053685Y-98711352D01*
X162958447Y-98663733D01*
X162767971Y-98663733D01*
X162672733Y-98711352D01*
X162625114Y-98758971D01*
X162577495Y-98854209D01*
X163529876Y-98378019D02*
X163577495Y-98330400D01*
X163672733Y-98282780D01*
X163910828Y-98282780D01*
X164006066Y-98330400D01*
X164053685Y-98378019D01*
X164101304Y-98473257D01*
X164101304Y-98568495D01*
X164053685Y-98711352D01*
X163482257Y-99282780D01*
X164101304Y-99282780D01*
X121720390Y-129914590D02*
X122196580Y-129914590D01*
X121196580Y-130247923D02*
X121720390Y-129914590D01*
X121196580Y-129581257D01*
X121291819Y-129295542D02*
X121244200Y-129247923D01*
X121196580Y-129152685D01*
X121196580Y-128914590D01*
X121244200Y-128819352D01*
X121291819Y-128771733D01*
X121387057Y-128724114D01*
X121482295Y-128724114D01*
X121625152Y-128771733D01*
X122196580Y-129343161D01*
X122196580Y-128724114D01*
M02*
