G04 #@! TF.GenerationSoftware,KiCad,Pcbnew,5.1.2-f72e74a~84~ubuntu18.04.1*
G04 #@! TF.CreationDate,2019-08-21T00:14:30+02:00*
G04 #@! TF.ProjectId,Tuareg,54756172-6567-42e6-9b69-6361645f7063,rev?*
G04 #@! TF.SameCoordinates,Original*
G04 #@! TF.FileFunction,Soldermask,Top*
G04 #@! TF.FilePolarity,Negative*
%FSLAX46Y46*%
G04 Gerber Fmt 4.6, Leading zero omitted, Abs format (unit mm)*
G04 Created by KiCad (PCBNEW 5.1.2-f72e74a~84~ubuntu18.04.1) date 2019-08-21 00:14:30*
%MOMM*%
%LPD*%
G04 APERTURE LIST*
%ADD10C,0.100000*%
G04 APERTURE END LIST*
D10*
G36*
X137396921Y-141430774D02*
G01*
X137497195Y-141472309D01*
X137542012Y-141502255D01*
X137587442Y-141532610D01*
X137664190Y-141609358D01*
X137692833Y-141652225D01*
X137724491Y-141699605D01*
X137766026Y-141799879D01*
X137787200Y-141906330D01*
X137787200Y-142014870D01*
X137766026Y-142121321D01*
X137724491Y-142221595D01*
X137724490Y-142221596D01*
X137664190Y-142311842D01*
X137587442Y-142388590D01*
X137542012Y-142418945D01*
X137497195Y-142448891D01*
X137396921Y-142490426D01*
X137290470Y-142511600D01*
X137181930Y-142511600D01*
X137075479Y-142490426D01*
X136975205Y-142448891D01*
X136930388Y-142418945D01*
X136884958Y-142388590D01*
X136808210Y-142311842D01*
X136747910Y-142221596D01*
X136747909Y-142221595D01*
X136706374Y-142121321D01*
X136685200Y-142014870D01*
X136685200Y-141906330D01*
X136706374Y-141799879D01*
X136747909Y-141699605D01*
X136779567Y-141652225D01*
X136808210Y-141609358D01*
X136884958Y-141532610D01*
X136930388Y-141502255D01*
X136975205Y-141472309D01*
X137075479Y-141430774D01*
X137181930Y-141409600D01*
X137290470Y-141409600D01*
X137396921Y-141430774D01*
X137396921Y-141430774D01*
G37*
G36*
X139327321Y-140592574D02*
G01*
X139427595Y-140634109D01*
X139427596Y-140634110D01*
X139517842Y-140694410D01*
X139594590Y-140771158D01*
X139594591Y-140771160D01*
X139654891Y-140861405D01*
X139696426Y-140961679D01*
X139717600Y-141068130D01*
X139717600Y-141176670D01*
X139696426Y-141283121D01*
X139654891Y-141383395D01*
X139654890Y-141383396D01*
X139594590Y-141473642D01*
X139517842Y-141550390D01*
X139472412Y-141580745D01*
X139427595Y-141610691D01*
X139327321Y-141652226D01*
X139220870Y-141673400D01*
X139112330Y-141673400D01*
X139005879Y-141652226D01*
X138905605Y-141610691D01*
X138860788Y-141580745D01*
X138815358Y-141550390D01*
X138738610Y-141473642D01*
X138678310Y-141383396D01*
X138678309Y-141383395D01*
X138636774Y-141283121D01*
X138615600Y-141176670D01*
X138615600Y-141068130D01*
X138636774Y-140961679D01*
X138678309Y-140861405D01*
X138738609Y-140771160D01*
X138738610Y-140771158D01*
X138815358Y-140694410D01*
X138905604Y-140634110D01*
X138905605Y-140634109D01*
X139005879Y-140592574D01*
X139112330Y-140571400D01*
X139220870Y-140571400D01*
X139327321Y-140592574D01*
X139327321Y-140592574D01*
G37*
G36*
X135542721Y-140313174D02*
G01*
X135642995Y-140354709D01*
X135646163Y-140356826D01*
X135733242Y-140415010D01*
X135809990Y-140491758D01*
X135809991Y-140491760D01*
X135870291Y-140582005D01*
X135911826Y-140682279D01*
X135933000Y-140788730D01*
X135933000Y-140897270D01*
X135911826Y-141003721D01*
X135870291Y-141103995D01*
X135870290Y-141103996D01*
X135809990Y-141194242D01*
X135733242Y-141270990D01*
X135687812Y-141301345D01*
X135642995Y-141331291D01*
X135542721Y-141372826D01*
X135436270Y-141394000D01*
X135327730Y-141394000D01*
X135221279Y-141372826D01*
X135121005Y-141331291D01*
X135076188Y-141301345D01*
X135030758Y-141270990D01*
X134954010Y-141194242D01*
X134893710Y-141103996D01*
X134893709Y-141103995D01*
X134852174Y-141003721D01*
X134831000Y-140897270D01*
X134831000Y-140788730D01*
X134852174Y-140682279D01*
X134893709Y-140582005D01*
X134954009Y-140491760D01*
X134954010Y-140491758D01*
X135030758Y-140415010D01*
X135117837Y-140356826D01*
X135121005Y-140354709D01*
X135221279Y-140313174D01*
X135327730Y-140292000D01*
X135436270Y-140292000D01*
X135542721Y-140313174D01*
X135542721Y-140313174D01*
G37*
G36*
X137625521Y-139297174D02*
G01*
X137725795Y-139338709D01*
X137740014Y-139348210D01*
X137816042Y-139399010D01*
X137892790Y-139475758D01*
X137892791Y-139475760D01*
X137953091Y-139566005D01*
X137994626Y-139666279D01*
X138015800Y-139772730D01*
X138015800Y-139881270D01*
X137994626Y-139987721D01*
X137953091Y-140087995D01*
X137953090Y-140087996D01*
X137892790Y-140178242D01*
X137816042Y-140254990D01*
X137770612Y-140285345D01*
X137725795Y-140315291D01*
X137625521Y-140356826D01*
X137519070Y-140378000D01*
X137410530Y-140378000D01*
X137304079Y-140356826D01*
X137203805Y-140315291D01*
X137158988Y-140285345D01*
X137113558Y-140254990D01*
X137036810Y-140178242D01*
X136976510Y-140087996D01*
X136976509Y-140087995D01*
X136934974Y-139987721D01*
X136913800Y-139881270D01*
X136913800Y-139772730D01*
X136934974Y-139666279D01*
X136976509Y-139566005D01*
X137036809Y-139475760D01*
X137036810Y-139475758D01*
X137113558Y-139399010D01*
X137189586Y-139348210D01*
X137203805Y-139338709D01*
X137304079Y-139297174D01*
X137410530Y-139276000D01*
X137519070Y-139276000D01*
X137625521Y-139297174D01*
X137625521Y-139297174D01*
G37*
G36*
X132824921Y-139246374D02*
G01*
X132925195Y-139287909D01*
X132925196Y-139287910D01*
X133015442Y-139348210D01*
X133092190Y-139424958D01*
X133092191Y-139424960D01*
X133152491Y-139515205D01*
X133194026Y-139615479D01*
X133215200Y-139721930D01*
X133215200Y-139830470D01*
X133194026Y-139936921D01*
X133152491Y-140037195D01*
X133152490Y-140037196D01*
X133092190Y-140127442D01*
X133015442Y-140204190D01*
X132970012Y-140234545D01*
X132925195Y-140264491D01*
X132824921Y-140306026D01*
X132718470Y-140327200D01*
X132609930Y-140327200D01*
X132503479Y-140306026D01*
X132403205Y-140264491D01*
X132358388Y-140234545D01*
X132312958Y-140204190D01*
X132236210Y-140127442D01*
X132175910Y-140037196D01*
X132175909Y-140037195D01*
X132134374Y-139936921D01*
X132113200Y-139830470D01*
X132113200Y-139721930D01*
X132134374Y-139615479D01*
X132175909Y-139515205D01*
X132236209Y-139424960D01*
X132236210Y-139424958D01*
X132312958Y-139348210D01*
X132403204Y-139287910D01*
X132403205Y-139287909D01*
X132503479Y-139246374D01*
X132609930Y-139225200D01*
X132718470Y-139225200D01*
X132824921Y-139246374D01*
X132824921Y-139246374D01*
G37*
G36*
X130132521Y-138839974D02*
G01*
X130232795Y-138881509D01*
X130232796Y-138881510D01*
X130323042Y-138941810D01*
X130399790Y-139018558D01*
X130399791Y-139018560D01*
X130460091Y-139108805D01*
X130501626Y-139209079D01*
X130522800Y-139315530D01*
X130522800Y-139424070D01*
X130501626Y-139530521D01*
X130460091Y-139630795D01*
X130460090Y-139630796D01*
X130399790Y-139721042D01*
X130323042Y-139797790D01*
X130277612Y-139828145D01*
X130232795Y-139858091D01*
X130132521Y-139899626D01*
X130026070Y-139920800D01*
X129917530Y-139920800D01*
X129811079Y-139899626D01*
X129710805Y-139858091D01*
X129665988Y-139828145D01*
X129620558Y-139797790D01*
X129543810Y-139721042D01*
X129483510Y-139630796D01*
X129483509Y-139630795D01*
X129441974Y-139530521D01*
X129420800Y-139424070D01*
X129420800Y-139315530D01*
X129441974Y-139209079D01*
X129483509Y-139108805D01*
X129543809Y-139018560D01*
X129543810Y-139018558D01*
X129620558Y-138941810D01*
X129710804Y-138881510D01*
X129710805Y-138881509D01*
X129811079Y-138839974D01*
X129917530Y-138818800D01*
X130026070Y-138818800D01*
X130132521Y-138839974D01*
X130132521Y-138839974D01*
G37*
G36*
X128354521Y-137315974D02*
G01*
X128454795Y-137357509D01*
X128454796Y-137357510D01*
X128545042Y-137417810D01*
X128621790Y-137494558D01*
X128621791Y-137494560D01*
X128682091Y-137584805D01*
X128723626Y-137685079D01*
X128744800Y-137791530D01*
X128744800Y-137900070D01*
X128723626Y-138006521D01*
X128682091Y-138106795D01*
X128682090Y-138106796D01*
X128621790Y-138197042D01*
X128545042Y-138273790D01*
X128499612Y-138304145D01*
X128454795Y-138334091D01*
X128354521Y-138375626D01*
X128248070Y-138396800D01*
X128139530Y-138396800D01*
X128033079Y-138375626D01*
X127932805Y-138334091D01*
X127887988Y-138304145D01*
X127842558Y-138273790D01*
X127765810Y-138197042D01*
X127705510Y-138106796D01*
X127705509Y-138106795D01*
X127663974Y-138006521D01*
X127642800Y-137900070D01*
X127642800Y-137791530D01*
X127663974Y-137685079D01*
X127705509Y-137584805D01*
X127765809Y-137494560D01*
X127765810Y-137494558D01*
X127842558Y-137417810D01*
X127932804Y-137357510D01*
X127932805Y-137357509D01*
X128033079Y-137315974D01*
X128139530Y-137294800D01*
X128248070Y-137294800D01*
X128354521Y-137315974D01*
X128354521Y-137315974D01*
G37*
G36*
X141060600Y-137442000D02*
G01*
X133208600Y-137442000D01*
X133208600Y-136340000D01*
X141060600Y-136340000D01*
X141060600Y-137442000D01*
X141060600Y-137442000D01*
G37*
G36*
X126728921Y-135791974D02*
G01*
X126829195Y-135833509D01*
X126829196Y-135833510D01*
X126919442Y-135893810D01*
X126996190Y-135970558D01*
X126996191Y-135970560D01*
X127056491Y-136060805D01*
X127098026Y-136161079D01*
X127119200Y-136267530D01*
X127119200Y-136376070D01*
X127098026Y-136482521D01*
X127056491Y-136582795D01*
X127056490Y-136582796D01*
X126996190Y-136673042D01*
X126919442Y-136749790D01*
X126874012Y-136780145D01*
X126829195Y-136810091D01*
X126728921Y-136851626D01*
X126622470Y-136872800D01*
X126513930Y-136872800D01*
X126407479Y-136851626D01*
X126307205Y-136810091D01*
X126262388Y-136780145D01*
X126216958Y-136749790D01*
X126140210Y-136673042D01*
X126079910Y-136582796D01*
X126079909Y-136582795D01*
X126038374Y-136482521D01*
X126017200Y-136376070D01*
X126017200Y-136267530D01*
X126038374Y-136161079D01*
X126079909Y-136060805D01*
X126140209Y-135970560D01*
X126140210Y-135970558D01*
X126216958Y-135893810D01*
X126307204Y-135833510D01*
X126307205Y-135833509D01*
X126407479Y-135791974D01*
X126513930Y-135770800D01*
X126622470Y-135770800D01*
X126728921Y-135791974D01*
X126728921Y-135791974D01*
G37*
G36*
X150300121Y-134547374D02*
G01*
X150400395Y-134588909D01*
X150400396Y-134588910D01*
X150490642Y-134649210D01*
X150567390Y-134725958D01*
X150567391Y-134725960D01*
X150627691Y-134816205D01*
X150669226Y-134916479D01*
X150690400Y-135022930D01*
X150690400Y-135131470D01*
X150669226Y-135237921D01*
X150627691Y-135338195D01*
X150627690Y-135338196D01*
X150567390Y-135428442D01*
X150490642Y-135505190D01*
X150445212Y-135535545D01*
X150400395Y-135565491D01*
X150300121Y-135607026D01*
X150193670Y-135628200D01*
X150085130Y-135628200D01*
X149978679Y-135607026D01*
X149878405Y-135565491D01*
X149833588Y-135535545D01*
X149788158Y-135505190D01*
X149711410Y-135428442D01*
X149651110Y-135338196D01*
X149651109Y-135338195D01*
X149609574Y-135237921D01*
X149588400Y-135131470D01*
X149588400Y-135022930D01*
X149609574Y-134916479D01*
X149651109Y-134816205D01*
X149711409Y-134725960D01*
X149711410Y-134725958D01*
X149788158Y-134649210D01*
X149878404Y-134588910D01*
X149878405Y-134588909D01*
X149978679Y-134547374D01*
X150085130Y-134526200D01*
X150193670Y-134526200D01*
X150300121Y-134547374D01*
X150300121Y-134547374D01*
G37*
G36*
X143385600Y-135117000D02*
G01*
X142283600Y-135117000D01*
X142283600Y-127265000D01*
X143385600Y-127265000D01*
X143385600Y-135117000D01*
X143385600Y-135117000D01*
G37*
G36*
X131985600Y-135117000D02*
G01*
X130883600Y-135117000D01*
X130883600Y-127265000D01*
X131985600Y-127265000D01*
X131985600Y-135117000D01*
X131985600Y-135117000D01*
G37*
G36*
X148293521Y-133886974D02*
G01*
X148393795Y-133928509D01*
X148393796Y-133928510D01*
X148484042Y-133988810D01*
X148560790Y-134065558D01*
X148591145Y-134110988D01*
X148621091Y-134155805D01*
X148662626Y-134256079D01*
X148683800Y-134362530D01*
X148683800Y-134471070D01*
X148662626Y-134577521D01*
X148621091Y-134677795D01*
X148621090Y-134677796D01*
X148560790Y-134768042D01*
X148484042Y-134844790D01*
X148438612Y-134875145D01*
X148393795Y-134905091D01*
X148293521Y-134946626D01*
X148187070Y-134967800D01*
X148078530Y-134967800D01*
X147972079Y-134946626D01*
X147871805Y-134905091D01*
X147826988Y-134875145D01*
X147781558Y-134844790D01*
X147704810Y-134768042D01*
X147644510Y-134677796D01*
X147644509Y-134677795D01*
X147602974Y-134577521D01*
X147581800Y-134471070D01*
X147581800Y-134362530D01*
X147602974Y-134256079D01*
X147644509Y-134155805D01*
X147674455Y-134110988D01*
X147704810Y-134065558D01*
X147781558Y-133988810D01*
X147871804Y-133928510D01*
X147871805Y-133928509D01*
X147972079Y-133886974D01*
X148078530Y-133865800D01*
X148187070Y-133865800D01*
X148293521Y-133886974D01*
X148293521Y-133886974D01*
G37*
G36*
X125647068Y-132781365D02*
G01*
X125685738Y-132793096D01*
X125721377Y-132812146D01*
X125752617Y-132837783D01*
X125778254Y-132869023D01*
X125797304Y-132904662D01*
X125809035Y-132943332D01*
X125813600Y-132989688D01*
X125813600Y-134065912D01*
X125809035Y-134112268D01*
X125797304Y-134150938D01*
X125778254Y-134186577D01*
X125752617Y-134217817D01*
X125721377Y-134243454D01*
X125685738Y-134262504D01*
X125647068Y-134274235D01*
X125600712Y-134278800D01*
X124949488Y-134278800D01*
X124903132Y-134274235D01*
X124864462Y-134262504D01*
X124828823Y-134243454D01*
X124797583Y-134217817D01*
X124771946Y-134186577D01*
X124752896Y-134150938D01*
X124741165Y-134112268D01*
X124736600Y-134065912D01*
X124736600Y-132989688D01*
X124741165Y-132943332D01*
X124752896Y-132904662D01*
X124771946Y-132869023D01*
X124797583Y-132837783D01*
X124828823Y-132812146D01*
X124864462Y-132793096D01*
X124903132Y-132781365D01*
X124949488Y-132776800D01*
X125600712Y-132776800D01*
X125647068Y-132781365D01*
X125647068Y-132781365D01*
G37*
G36*
X127522068Y-132781365D02*
G01*
X127560738Y-132793096D01*
X127596377Y-132812146D01*
X127627617Y-132837783D01*
X127653254Y-132869023D01*
X127672304Y-132904662D01*
X127684035Y-132943332D01*
X127688600Y-132989688D01*
X127688600Y-134065912D01*
X127684035Y-134112268D01*
X127672304Y-134150938D01*
X127653254Y-134186577D01*
X127627617Y-134217817D01*
X127596377Y-134243454D01*
X127560738Y-134262504D01*
X127522068Y-134274235D01*
X127475712Y-134278800D01*
X126824488Y-134278800D01*
X126778132Y-134274235D01*
X126739462Y-134262504D01*
X126703823Y-134243454D01*
X126672583Y-134217817D01*
X126646946Y-134186577D01*
X126627896Y-134150938D01*
X126616165Y-134112268D01*
X126611600Y-134065912D01*
X126611600Y-132989688D01*
X126616165Y-132943332D01*
X126627896Y-132904662D01*
X126646946Y-132869023D01*
X126672583Y-132837783D01*
X126703823Y-132812146D01*
X126739462Y-132793096D01*
X126778132Y-132781365D01*
X126824488Y-132776800D01*
X127475712Y-132776800D01*
X127522068Y-132781365D01*
X127522068Y-132781365D01*
G37*
G36*
X149919121Y-132489974D02*
G01*
X150019395Y-132531509D01*
X150051262Y-132552802D01*
X150109642Y-132591810D01*
X150186390Y-132668558D01*
X150186391Y-132668560D01*
X150246691Y-132758805D01*
X150288226Y-132859079D01*
X150309400Y-132965530D01*
X150309400Y-133074070D01*
X150288226Y-133180521D01*
X150246691Y-133280795D01*
X150246690Y-133280796D01*
X150186390Y-133371042D01*
X150109642Y-133447790D01*
X150064212Y-133478145D01*
X150019395Y-133508091D01*
X149919121Y-133549626D01*
X149812670Y-133570800D01*
X149704130Y-133570800D01*
X149597679Y-133549626D01*
X149497405Y-133508091D01*
X149452588Y-133478145D01*
X149407158Y-133447790D01*
X149330410Y-133371042D01*
X149270110Y-133280796D01*
X149270109Y-133280795D01*
X149228574Y-133180521D01*
X149207400Y-133074070D01*
X149207400Y-132965530D01*
X149228574Y-132859079D01*
X149270109Y-132758805D01*
X149330409Y-132668560D01*
X149330410Y-132668558D01*
X149407158Y-132591810D01*
X149465538Y-132552802D01*
X149497405Y-132531509D01*
X149597679Y-132489974D01*
X149704130Y-132468800D01*
X149812670Y-132468800D01*
X149919121Y-132489974D01*
X149919121Y-132489974D01*
G37*
G36*
X93420604Y-131284347D02*
G01*
X93457144Y-131295432D01*
X93490821Y-131313433D01*
X93520341Y-131337659D01*
X93544567Y-131367179D01*
X93562568Y-131400856D01*
X93573653Y-131437396D01*
X93578000Y-131481538D01*
X93578000Y-132430462D01*
X93573653Y-132474604D01*
X93562568Y-132511144D01*
X93544567Y-132544821D01*
X93520341Y-132574341D01*
X93490821Y-132598567D01*
X93457144Y-132616568D01*
X93420604Y-132627653D01*
X93376462Y-132632000D01*
X91027538Y-132632000D01*
X90983396Y-132627653D01*
X90946856Y-132616568D01*
X90913179Y-132598567D01*
X90883659Y-132574341D01*
X90859433Y-132544821D01*
X90841432Y-132511144D01*
X90830347Y-132474604D01*
X90826000Y-132430462D01*
X90826000Y-131481538D01*
X90830347Y-131437396D01*
X90841432Y-131400856D01*
X90859433Y-131367179D01*
X90883659Y-131337659D01*
X90913179Y-131313433D01*
X90946856Y-131295432D01*
X90983396Y-131284347D01*
X91027538Y-131280000D01*
X93376462Y-131280000D01*
X93420604Y-131284347D01*
X93420604Y-131284347D01*
G37*
G36*
X152001921Y-131473974D02*
G01*
X152102195Y-131515509D01*
X152102196Y-131515510D01*
X152192442Y-131575810D01*
X152269190Y-131652558D01*
X152269191Y-131652560D01*
X152329491Y-131742805D01*
X152371026Y-131843079D01*
X152392200Y-131949530D01*
X152392200Y-132058070D01*
X152371026Y-132164521D01*
X152329491Y-132264795D01*
X152329490Y-132264796D01*
X152269190Y-132355042D01*
X152192442Y-132431790D01*
X152147012Y-132462145D01*
X152102195Y-132492091D01*
X152001921Y-132533626D01*
X151895470Y-132554800D01*
X151786930Y-132554800D01*
X151680479Y-132533626D01*
X151580205Y-132492091D01*
X151535388Y-132462145D01*
X151489958Y-132431790D01*
X151413210Y-132355042D01*
X151352910Y-132264796D01*
X151352909Y-132264795D01*
X151311374Y-132164521D01*
X151290200Y-132058070D01*
X151290200Y-131949530D01*
X151311374Y-131843079D01*
X151352909Y-131742805D01*
X151413209Y-131652560D01*
X151413210Y-131652558D01*
X151489958Y-131575810D01*
X151580204Y-131515510D01*
X151580205Y-131515509D01*
X151680479Y-131473974D01*
X151786930Y-131452800D01*
X151895470Y-131452800D01*
X152001921Y-131473974D01*
X152001921Y-131473974D01*
G37*
G36*
X126295200Y-132489400D02*
G01*
X123793200Y-132489400D01*
X123793200Y-130487400D01*
X126295200Y-130487400D01*
X126295200Y-132489400D01*
X126295200Y-132489400D01*
G37*
G36*
X129337068Y-129841965D02*
G01*
X129375738Y-129853696D01*
X129411377Y-129872746D01*
X129442617Y-129898383D01*
X129468254Y-129929623D01*
X129487304Y-129965262D01*
X129499035Y-130003932D01*
X129503600Y-130050288D01*
X129503600Y-130701512D01*
X129499035Y-130747868D01*
X129487304Y-130786538D01*
X129468254Y-130822177D01*
X129442617Y-130853417D01*
X129411377Y-130879054D01*
X129375738Y-130898104D01*
X129337068Y-130909835D01*
X129290712Y-130914400D01*
X128214488Y-130914400D01*
X128168132Y-130909835D01*
X128129462Y-130898104D01*
X128093823Y-130879054D01*
X128062583Y-130853417D01*
X128036946Y-130822177D01*
X128017896Y-130786538D01*
X128006165Y-130747868D01*
X128001600Y-130701512D01*
X128001600Y-130050288D01*
X128006165Y-130003932D01*
X128017896Y-129965262D01*
X128036946Y-129929623D01*
X128062583Y-129898383D01*
X128093823Y-129872746D01*
X128129462Y-129853696D01*
X128168132Y-129841965D01*
X128214488Y-129837400D01*
X129290712Y-129837400D01*
X129337068Y-129841965D01*
X129337068Y-129841965D01*
G37*
G36*
X93420604Y-128484347D02*
G01*
X93457144Y-128495432D01*
X93490821Y-128513433D01*
X93520341Y-128537659D01*
X93544567Y-128567179D01*
X93562568Y-128600856D01*
X93573653Y-128637396D01*
X93578000Y-128681538D01*
X93578000Y-129630462D01*
X93573653Y-129674604D01*
X93562568Y-129711144D01*
X93544567Y-129744821D01*
X93520341Y-129774341D01*
X93490821Y-129798567D01*
X93457144Y-129816568D01*
X93420604Y-129827653D01*
X93376462Y-129832000D01*
X91027538Y-129832000D01*
X90983396Y-129827653D01*
X90946856Y-129816568D01*
X90913179Y-129798567D01*
X90883659Y-129774341D01*
X90859433Y-129744821D01*
X90841432Y-129711144D01*
X90830347Y-129674604D01*
X90826000Y-129630462D01*
X90826000Y-128681538D01*
X90830347Y-128637396D01*
X90841432Y-128600856D01*
X90859433Y-128567179D01*
X90883659Y-128537659D01*
X90913179Y-128513433D01*
X90946856Y-128495432D01*
X90983396Y-128484347D01*
X91027538Y-128480000D01*
X93376462Y-128480000D01*
X93420604Y-128484347D01*
X93420604Y-128484347D01*
G37*
G36*
X105449468Y-128285565D02*
G01*
X105488138Y-128297296D01*
X105523777Y-128316346D01*
X105555017Y-128341983D01*
X105580654Y-128373223D01*
X105599704Y-128408862D01*
X105611435Y-128447532D01*
X105616000Y-128493888D01*
X105616000Y-129570112D01*
X105611435Y-129616468D01*
X105599704Y-129655138D01*
X105580654Y-129690777D01*
X105555017Y-129722017D01*
X105523777Y-129747654D01*
X105488138Y-129766704D01*
X105449468Y-129778435D01*
X105403112Y-129783000D01*
X104751888Y-129783000D01*
X104705532Y-129778435D01*
X104666862Y-129766704D01*
X104631223Y-129747654D01*
X104599983Y-129722017D01*
X104574346Y-129690777D01*
X104555296Y-129655138D01*
X104543565Y-129616468D01*
X104539000Y-129570112D01*
X104539000Y-128493888D01*
X104543565Y-128447532D01*
X104555296Y-128408862D01*
X104574346Y-128373223D01*
X104599983Y-128341983D01*
X104631223Y-128316346D01*
X104666862Y-128297296D01*
X104705532Y-128285565D01*
X104751888Y-128281000D01*
X105403112Y-128281000D01*
X105449468Y-128285565D01*
X105449468Y-128285565D01*
G37*
G36*
X103574468Y-128285565D02*
G01*
X103613138Y-128297296D01*
X103648777Y-128316346D01*
X103680017Y-128341983D01*
X103705654Y-128373223D01*
X103724704Y-128408862D01*
X103736435Y-128447532D01*
X103741000Y-128493888D01*
X103741000Y-129570112D01*
X103736435Y-129616468D01*
X103724704Y-129655138D01*
X103705654Y-129690777D01*
X103680017Y-129722017D01*
X103648777Y-129747654D01*
X103613138Y-129766704D01*
X103574468Y-129778435D01*
X103528112Y-129783000D01*
X102876888Y-129783000D01*
X102830532Y-129778435D01*
X102791862Y-129766704D01*
X102756223Y-129747654D01*
X102724983Y-129722017D01*
X102699346Y-129690777D01*
X102680296Y-129655138D01*
X102668565Y-129616468D01*
X102664000Y-129570112D01*
X102664000Y-128493888D01*
X102668565Y-128447532D01*
X102680296Y-128408862D01*
X102699346Y-128373223D01*
X102724983Y-128341983D01*
X102756223Y-128316346D01*
X102791862Y-128297296D01*
X102830532Y-128285565D01*
X102876888Y-128281000D01*
X103528112Y-128281000D01*
X103574468Y-128285565D01*
X103574468Y-128285565D01*
G37*
G36*
X152313800Y-129633800D02*
G01*
X149061800Y-129633800D01*
X149061800Y-128531800D01*
X152313800Y-128531800D01*
X152313800Y-129633800D01*
X152313800Y-129633800D01*
G37*
G36*
X157363800Y-129633800D02*
G01*
X154111800Y-129633800D01*
X154111800Y-128531800D01*
X157363800Y-128531800D01*
X157363800Y-129633800D01*
X157363800Y-129633800D01*
G37*
G36*
X101824000Y-129510000D02*
G01*
X100172000Y-129510000D01*
X100172000Y-128808000D01*
X101824000Y-128808000D01*
X101824000Y-129510000D01*
X101824000Y-129510000D01*
G37*
G36*
X96424000Y-129510000D02*
G01*
X94772000Y-129510000D01*
X94772000Y-128808000D01*
X96424000Y-128808000D01*
X96424000Y-129510000D01*
X96424000Y-129510000D01*
G37*
G36*
X160756868Y-128216365D02*
G01*
X160795538Y-128228096D01*
X160831177Y-128247146D01*
X160862417Y-128272783D01*
X160888054Y-128304023D01*
X160907104Y-128339662D01*
X160918835Y-128378332D01*
X160923400Y-128424688D01*
X160923400Y-129075912D01*
X160918835Y-129122268D01*
X160907104Y-129160938D01*
X160888054Y-129196577D01*
X160862417Y-129227817D01*
X160831177Y-129253454D01*
X160795538Y-129272504D01*
X160756868Y-129284235D01*
X160710512Y-129288800D01*
X159634288Y-129288800D01*
X159587932Y-129284235D01*
X159549262Y-129272504D01*
X159513623Y-129253454D01*
X159482383Y-129227817D01*
X159456746Y-129196577D01*
X159437696Y-129160938D01*
X159425965Y-129122268D01*
X159421400Y-129075912D01*
X159421400Y-128424688D01*
X159425965Y-128378332D01*
X159437696Y-128339662D01*
X159456746Y-128304023D01*
X159482383Y-128272783D01*
X159513623Y-128247146D01*
X159549262Y-128228096D01*
X159587932Y-128216365D01*
X159634288Y-128211800D01*
X160710512Y-128211800D01*
X160756868Y-128216365D01*
X160756868Y-128216365D01*
G37*
G36*
X129337068Y-127966965D02*
G01*
X129375738Y-127978696D01*
X129411377Y-127997746D01*
X129442617Y-128023383D01*
X129468254Y-128054623D01*
X129487304Y-128090262D01*
X129499035Y-128128932D01*
X129503600Y-128175288D01*
X129503600Y-128826512D01*
X129499035Y-128872868D01*
X129487304Y-128911538D01*
X129468254Y-128947177D01*
X129442617Y-128978417D01*
X129411377Y-129004054D01*
X129375738Y-129023104D01*
X129337068Y-129034835D01*
X129290712Y-129039400D01*
X128214488Y-129039400D01*
X128168132Y-129034835D01*
X128129462Y-129023104D01*
X128093823Y-129004054D01*
X128062583Y-128978417D01*
X128036946Y-128947177D01*
X128017896Y-128911538D01*
X128006165Y-128872868D01*
X128001600Y-128826512D01*
X128001600Y-128175288D01*
X128006165Y-128128932D01*
X128017896Y-128090262D01*
X128036946Y-128054623D01*
X128062583Y-128023383D01*
X128093823Y-127997746D01*
X128129462Y-127978696D01*
X128168132Y-127966965D01*
X128214488Y-127962400D01*
X129290712Y-127962400D01*
X129337068Y-127966965D01*
X129337068Y-127966965D01*
G37*
G36*
X126295200Y-128389400D02*
G01*
X123793200Y-128389400D01*
X123793200Y-126387400D01*
X126295200Y-126387400D01*
X126295200Y-128389400D01*
X126295200Y-128389400D01*
G37*
G36*
X96424000Y-128240000D02*
G01*
X94772000Y-128240000D01*
X94772000Y-127538000D01*
X96424000Y-127538000D01*
X96424000Y-128240000D01*
X96424000Y-128240000D01*
G37*
G36*
X101824000Y-128240000D02*
G01*
X100172000Y-128240000D01*
X100172000Y-127538000D01*
X101824000Y-127538000D01*
X101824000Y-128240000D01*
X101824000Y-128240000D01*
G37*
G36*
X103574468Y-125999565D02*
G01*
X103613138Y-126011296D01*
X103648777Y-126030346D01*
X103680017Y-126055983D01*
X103705654Y-126087223D01*
X103724704Y-126122862D01*
X103736435Y-126161532D01*
X103741000Y-126207888D01*
X103741000Y-127284112D01*
X103736435Y-127330468D01*
X103724704Y-127369138D01*
X103705654Y-127404777D01*
X103680017Y-127436017D01*
X103648777Y-127461654D01*
X103613138Y-127480704D01*
X103574468Y-127492435D01*
X103528112Y-127497000D01*
X102876888Y-127497000D01*
X102830532Y-127492435D01*
X102791862Y-127480704D01*
X102756223Y-127461654D01*
X102724983Y-127436017D01*
X102699346Y-127404777D01*
X102680296Y-127369138D01*
X102668565Y-127330468D01*
X102664000Y-127284112D01*
X102664000Y-126207888D01*
X102668565Y-126161532D01*
X102680296Y-126122862D01*
X102699346Y-126087223D01*
X102724983Y-126055983D01*
X102756223Y-126030346D01*
X102791862Y-126011296D01*
X102830532Y-125999565D01*
X102876888Y-125995000D01*
X103528112Y-125995000D01*
X103574468Y-125999565D01*
X103574468Y-125999565D01*
G37*
G36*
X105449468Y-125999565D02*
G01*
X105488138Y-126011296D01*
X105523777Y-126030346D01*
X105555017Y-126055983D01*
X105580654Y-126087223D01*
X105599704Y-126122862D01*
X105611435Y-126161532D01*
X105616000Y-126207888D01*
X105616000Y-127284112D01*
X105611435Y-127330468D01*
X105599704Y-127369138D01*
X105580654Y-127404777D01*
X105555017Y-127436017D01*
X105523777Y-127461654D01*
X105488138Y-127480704D01*
X105449468Y-127492435D01*
X105403112Y-127497000D01*
X104751888Y-127497000D01*
X104705532Y-127492435D01*
X104666862Y-127480704D01*
X104631223Y-127461654D01*
X104599983Y-127436017D01*
X104574346Y-127404777D01*
X104555296Y-127369138D01*
X104543565Y-127330468D01*
X104539000Y-127284112D01*
X104539000Y-126207888D01*
X104543565Y-126161532D01*
X104555296Y-126122862D01*
X104574346Y-126087223D01*
X104599983Y-126055983D01*
X104631223Y-126030346D01*
X104666862Y-126011296D01*
X104705532Y-125999565D01*
X104751888Y-125995000D01*
X105403112Y-125995000D01*
X105449468Y-125999565D01*
X105449468Y-125999565D01*
G37*
G36*
X160756868Y-126341365D02*
G01*
X160795538Y-126353096D01*
X160831177Y-126372146D01*
X160862417Y-126397783D01*
X160888054Y-126429023D01*
X160907104Y-126464662D01*
X160918835Y-126503332D01*
X160923400Y-126549688D01*
X160923400Y-127200912D01*
X160918835Y-127247268D01*
X160907104Y-127285938D01*
X160888054Y-127321577D01*
X160862417Y-127352817D01*
X160831177Y-127378454D01*
X160795538Y-127397504D01*
X160756868Y-127409235D01*
X160710512Y-127413800D01*
X159634288Y-127413800D01*
X159587932Y-127409235D01*
X159549262Y-127397504D01*
X159513623Y-127378454D01*
X159482383Y-127352817D01*
X159456746Y-127321577D01*
X159437696Y-127285938D01*
X159425965Y-127247268D01*
X159421400Y-127200912D01*
X159421400Y-126549688D01*
X159425965Y-126503332D01*
X159437696Y-126464662D01*
X159456746Y-126429023D01*
X159482383Y-126397783D01*
X159513623Y-126372146D01*
X159549262Y-126353096D01*
X159587932Y-126341365D01*
X159634288Y-126336800D01*
X160710512Y-126336800D01*
X160756868Y-126341365D01*
X160756868Y-126341365D01*
G37*
G36*
X93420604Y-125950347D02*
G01*
X93457144Y-125961432D01*
X93490821Y-125979433D01*
X93520341Y-126003659D01*
X93544567Y-126033179D01*
X93562568Y-126066856D01*
X93573653Y-126103396D01*
X93578000Y-126147538D01*
X93578000Y-127096462D01*
X93573653Y-127140604D01*
X93562568Y-127177144D01*
X93544567Y-127210821D01*
X93520341Y-127240341D01*
X93490821Y-127264567D01*
X93457144Y-127282568D01*
X93420604Y-127293653D01*
X93376462Y-127298000D01*
X91027538Y-127298000D01*
X90983396Y-127293653D01*
X90946856Y-127282568D01*
X90913179Y-127264567D01*
X90883659Y-127240341D01*
X90859433Y-127210821D01*
X90841432Y-127177144D01*
X90830347Y-127140604D01*
X90826000Y-127096462D01*
X90826000Y-126147538D01*
X90830347Y-126103396D01*
X90841432Y-126066856D01*
X90859433Y-126033179D01*
X90883659Y-126003659D01*
X90913179Y-125979433D01*
X90946856Y-125961432D01*
X90983396Y-125950347D01*
X91027538Y-125946000D01*
X93376462Y-125946000D01*
X93420604Y-125950347D01*
X93420604Y-125950347D01*
G37*
G36*
X152313800Y-127093800D02*
G01*
X149061800Y-127093800D01*
X149061800Y-125991800D01*
X152313800Y-125991800D01*
X152313800Y-127093800D01*
X152313800Y-127093800D01*
G37*
G36*
X157363800Y-127093800D02*
G01*
X154111800Y-127093800D01*
X154111800Y-125991800D01*
X157363800Y-125991800D01*
X157363800Y-127093800D01*
X157363800Y-127093800D01*
G37*
G36*
X96424000Y-126970000D02*
G01*
X94772000Y-126970000D01*
X94772000Y-126268000D01*
X96424000Y-126268000D01*
X96424000Y-126970000D01*
X96424000Y-126970000D01*
G37*
G36*
X101824000Y-126970000D02*
G01*
X100172000Y-126970000D01*
X100172000Y-126268000D01*
X101824000Y-126268000D01*
X101824000Y-126970000D01*
X101824000Y-126970000D01*
G37*
G36*
X125621668Y-124602565D02*
G01*
X125660338Y-124614296D01*
X125695977Y-124633346D01*
X125727217Y-124658983D01*
X125752854Y-124690223D01*
X125771904Y-124725862D01*
X125783635Y-124764532D01*
X125788200Y-124810888D01*
X125788200Y-125887112D01*
X125783635Y-125933468D01*
X125771904Y-125972138D01*
X125752854Y-126007777D01*
X125727217Y-126039017D01*
X125695977Y-126064654D01*
X125660338Y-126083704D01*
X125621668Y-126095435D01*
X125575312Y-126100000D01*
X124924088Y-126100000D01*
X124877732Y-126095435D01*
X124839062Y-126083704D01*
X124803423Y-126064654D01*
X124772183Y-126039017D01*
X124746546Y-126007777D01*
X124727496Y-125972138D01*
X124715765Y-125933468D01*
X124711200Y-125887112D01*
X124711200Y-124810888D01*
X124715765Y-124764532D01*
X124727496Y-124725862D01*
X124746546Y-124690223D01*
X124772183Y-124658983D01*
X124803423Y-124633346D01*
X124839062Y-124614296D01*
X124877732Y-124602565D01*
X124924088Y-124598000D01*
X125575312Y-124598000D01*
X125621668Y-124602565D01*
X125621668Y-124602565D01*
G37*
G36*
X127496668Y-124602565D02*
G01*
X127535338Y-124614296D01*
X127570977Y-124633346D01*
X127602217Y-124658983D01*
X127627854Y-124690223D01*
X127646904Y-124725862D01*
X127658635Y-124764532D01*
X127663200Y-124810888D01*
X127663200Y-125887112D01*
X127658635Y-125933468D01*
X127646904Y-125972138D01*
X127627854Y-126007777D01*
X127602217Y-126039017D01*
X127570977Y-126064654D01*
X127535338Y-126083704D01*
X127496668Y-126095435D01*
X127450312Y-126100000D01*
X126799088Y-126100000D01*
X126752732Y-126095435D01*
X126714062Y-126083704D01*
X126678423Y-126064654D01*
X126647183Y-126039017D01*
X126621546Y-126007777D01*
X126602496Y-125972138D01*
X126590765Y-125933468D01*
X126586200Y-125887112D01*
X126586200Y-124810888D01*
X126590765Y-124764532D01*
X126602496Y-124725862D01*
X126621546Y-124690223D01*
X126647183Y-124658983D01*
X126678423Y-124633346D01*
X126714062Y-124614296D01*
X126752732Y-124602565D01*
X126799088Y-124598000D01*
X127450312Y-124598000D01*
X127496668Y-124602565D01*
X127496668Y-124602565D01*
G37*
G36*
X141060600Y-126042000D02*
G01*
X133208600Y-126042000D01*
X133208600Y-124940000D01*
X141060600Y-124940000D01*
X141060600Y-126042000D01*
X141060600Y-126042000D01*
G37*
G36*
X101824000Y-125700000D02*
G01*
X100172000Y-125700000D01*
X100172000Y-124998000D01*
X101824000Y-124998000D01*
X101824000Y-125700000D01*
X101824000Y-125700000D01*
G37*
G36*
X96424000Y-125700000D02*
G01*
X94772000Y-125700000D01*
X94772000Y-124998000D01*
X96424000Y-124998000D01*
X96424000Y-125700000D01*
X96424000Y-125700000D01*
G37*
G36*
X157363800Y-124553800D02*
G01*
X154111800Y-124553800D01*
X154111800Y-123451800D01*
X157363800Y-123451800D01*
X157363800Y-124553800D01*
X157363800Y-124553800D01*
G37*
G36*
X152313800Y-124553800D02*
G01*
X149061800Y-124553800D01*
X149061800Y-123451800D01*
X152313800Y-123451800D01*
X152313800Y-124553800D01*
X152313800Y-124553800D01*
G37*
G36*
X93420604Y-123150347D02*
G01*
X93457144Y-123161432D01*
X93490821Y-123179433D01*
X93520341Y-123203659D01*
X93544567Y-123233179D01*
X93562568Y-123266856D01*
X93573653Y-123303396D01*
X93578000Y-123347538D01*
X93578000Y-124296462D01*
X93573653Y-124340604D01*
X93562568Y-124377144D01*
X93544567Y-124410821D01*
X93520341Y-124440341D01*
X93490821Y-124464567D01*
X93457144Y-124482568D01*
X93420604Y-124493653D01*
X93376462Y-124498000D01*
X91027538Y-124498000D01*
X90983396Y-124493653D01*
X90946856Y-124482568D01*
X90913179Y-124464567D01*
X90883659Y-124440341D01*
X90859433Y-124410821D01*
X90841432Y-124377144D01*
X90830347Y-124340604D01*
X90826000Y-124296462D01*
X90826000Y-123347538D01*
X90830347Y-123303396D01*
X90841432Y-123266856D01*
X90859433Y-123233179D01*
X90883659Y-123203659D01*
X90913179Y-123179433D01*
X90946856Y-123161432D01*
X90983396Y-123150347D01*
X91027538Y-123146000D01*
X93376462Y-123146000D01*
X93420604Y-123150347D01*
X93420604Y-123150347D01*
G37*
G36*
X95700468Y-122291165D02*
G01*
X95739138Y-122302896D01*
X95774777Y-122321946D01*
X95806017Y-122347583D01*
X95831654Y-122378823D01*
X95850704Y-122414462D01*
X95862435Y-122453132D01*
X95867000Y-122499488D01*
X95867000Y-123575712D01*
X95862435Y-123622068D01*
X95850704Y-123660738D01*
X95831654Y-123696377D01*
X95806017Y-123727617D01*
X95774777Y-123753254D01*
X95739138Y-123772304D01*
X95700468Y-123784035D01*
X95654112Y-123788600D01*
X95002888Y-123788600D01*
X94956532Y-123784035D01*
X94917862Y-123772304D01*
X94882223Y-123753254D01*
X94850983Y-123727617D01*
X94825346Y-123696377D01*
X94806296Y-123660738D01*
X94794565Y-123622068D01*
X94790000Y-123575712D01*
X94790000Y-122499488D01*
X94794565Y-122453132D01*
X94806296Y-122414462D01*
X94825346Y-122378823D01*
X94850983Y-122347583D01*
X94882223Y-122321946D01*
X94917862Y-122302896D01*
X94956532Y-122291165D01*
X95002888Y-122286600D01*
X95654112Y-122286600D01*
X95700468Y-122291165D01*
X95700468Y-122291165D01*
G37*
G36*
X97575468Y-122291165D02*
G01*
X97614138Y-122302896D01*
X97649777Y-122321946D01*
X97681017Y-122347583D01*
X97706654Y-122378823D01*
X97725704Y-122414462D01*
X97737435Y-122453132D01*
X97742000Y-122499488D01*
X97742000Y-123575712D01*
X97737435Y-123622068D01*
X97725704Y-123660738D01*
X97706654Y-123696377D01*
X97681017Y-123727617D01*
X97649777Y-123753254D01*
X97614138Y-123772304D01*
X97575468Y-123784035D01*
X97529112Y-123788600D01*
X96877888Y-123788600D01*
X96831532Y-123784035D01*
X96792862Y-123772304D01*
X96757223Y-123753254D01*
X96725983Y-123727617D01*
X96700346Y-123696377D01*
X96681296Y-123660738D01*
X96669565Y-123622068D01*
X96665000Y-123575712D01*
X96665000Y-122499488D01*
X96669565Y-122453132D01*
X96681296Y-122414462D01*
X96700346Y-122378823D01*
X96725983Y-122347583D01*
X96757223Y-122321946D01*
X96792862Y-122302896D01*
X96831532Y-122291165D01*
X96877888Y-122286600D01*
X97529112Y-122286600D01*
X97575468Y-122291165D01*
X97575468Y-122291165D01*
G37*
G36*
X157363800Y-122013800D02*
G01*
X154111800Y-122013800D01*
X154111800Y-120911800D01*
X157363800Y-120911800D01*
X157363800Y-122013800D01*
X157363800Y-122013800D01*
G37*
G36*
X152313800Y-122013800D02*
G01*
X149061800Y-122013800D01*
X149061800Y-120911800D01*
X152313800Y-120911800D01*
X152313800Y-122013800D01*
X152313800Y-122013800D01*
G37*
G36*
X93511468Y-119903565D02*
G01*
X93550138Y-119915296D01*
X93585777Y-119934346D01*
X93617017Y-119959983D01*
X93642654Y-119991223D01*
X93661704Y-120026862D01*
X93673435Y-120065532D01*
X93678000Y-120111888D01*
X93678000Y-121188112D01*
X93673435Y-121234468D01*
X93661704Y-121273138D01*
X93642654Y-121308777D01*
X93617017Y-121340017D01*
X93585777Y-121365654D01*
X93550138Y-121384704D01*
X93511468Y-121396435D01*
X93465112Y-121401000D01*
X92813888Y-121401000D01*
X92767532Y-121396435D01*
X92728862Y-121384704D01*
X92693223Y-121365654D01*
X92661983Y-121340017D01*
X92636346Y-121308777D01*
X92617296Y-121273138D01*
X92605565Y-121234468D01*
X92601000Y-121188112D01*
X92601000Y-120111888D01*
X92605565Y-120065532D01*
X92617296Y-120026862D01*
X92636346Y-119991223D01*
X92661983Y-119959983D01*
X92693223Y-119934346D01*
X92728862Y-119915296D01*
X92767532Y-119903565D01*
X92813888Y-119899000D01*
X93465112Y-119899000D01*
X93511468Y-119903565D01*
X93511468Y-119903565D01*
G37*
G36*
X105449468Y-119903565D02*
G01*
X105488138Y-119915296D01*
X105523777Y-119934346D01*
X105555017Y-119959983D01*
X105580654Y-119991223D01*
X105599704Y-120026862D01*
X105611435Y-120065532D01*
X105616000Y-120111888D01*
X105616000Y-121188112D01*
X105611435Y-121234468D01*
X105599704Y-121273138D01*
X105580654Y-121308777D01*
X105555017Y-121340017D01*
X105523777Y-121365654D01*
X105488138Y-121384704D01*
X105449468Y-121396435D01*
X105403112Y-121401000D01*
X104751888Y-121401000D01*
X104705532Y-121396435D01*
X104666862Y-121384704D01*
X104631223Y-121365654D01*
X104599983Y-121340017D01*
X104574346Y-121308777D01*
X104555296Y-121273138D01*
X104543565Y-121234468D01*
X104539000Y-121188112D01*
X104539000Y-120111888D01*
X104543565Y-120065532D01*
X104555296Y-120026862D01*
X104574346Y-119991223D01*
X104599983Y-119959983D01*
X104631223Y-119934346D01*
X104666862Y-119915296D01*
X104705532Y-119903565D01*
X104751888Y-119899000D01*
X105403112Y-119899000D01*
X105449468Y-119903565D01*
X105449468Y-119903565D01*
G37*
G36*
X103574468Y-119903565D02*
G01*
X103613138Y-119915296D01*
X103648777Y-119934346D01*
X103680017Y-119959983D01*
X103705654Y-119991223D01*
X103724704Y-120026862D01*
X103736435Y-120065532D01*
X103741000Y-120111888D01*
X103741000Y-121188112D01*
X103736435Y-121234468D01*
X103724704Y-121273138D01*
X103705654Y-121308777D01*
X103680017Y-121340017D01*
X103648777Y-121365654D01*
X103613138Y-121384704D01*
X103574468Y-121396435D01*
X103528112Y-121401000D01*
X102876888Y-121401000D01*
X102830532Y-121396435D01*
X102791862Y-121384704D01*
X102756223Y-121365654D01*
X102724983Y-121340017D01*
X102699346Y-121308777D01*
X102680296Y-121273138D01*
X102668565Y-121234468D01*
X102664000Y-121188112D01*
X102664000Y-120111888D01*
X102668565Y-120065532D01*
X102680296Y-120026862D01*
X102699346Y-119991223D01*
X102724983Y-119959983D01*
X102756223Y-119934346D01*
X102791862Y-119915296D01*
X102830532Y-119903565D01*
X102876888Y-119899000D01*
X103528112Y-119899000D01*
X103574468Y-119903565D01*
X103574468Y-119903565D01*
G37*
G36*
X91636468Y-119903565D02*
G01*
X91675138Y-119915296D01*
X91710777Y-119934346D01*
X91742017Y-119959983D01*
X91767654Y-119991223D01*
X91786704Y-120026862D01*
X91798435Y-120065532D01*
X91803000Y-120111888D01*
X91803000Y-121188112D01*
X91798435Y-121234468D01*
X91786704Y-121273138D01*
X91767654Y-121308777D01*
X91742017Y-121340017D01*
X91710777Y-121365654D01*
X91675138Y-121384704D01*
X91636468Y-121396435D01*
X91590112Y-121401000D01*
X90938888Y-121401000D01*
X90892532Y-121396435D01*
X90853862Y-121384704D01*
X90818223Y-121365654D01*
X90786983Y-121340017D01*
X90761346Y-121308777D01*
X90742296Y-121273138D01*
X90730565Y-121234468D01*
X90726000Y-121188112D01*
X90726000Y-120111888D01*
X90730565Y-120065532D01*
X90742296Y-120026862D01*
X90761346Y-119991223D01*
X90786983Y-119959983D01*
X90818223Y-119934346D01*
X90853862Y-119915296D01*
X90892532Y-119903565D01*
X90938888Y-119899000D01*
X91590112Y-119899000D01*
X91636468Y-119903565D01*
X91636468Y-119903565D01*
G37*
G36*
X101824000Y-121128000D02*
G01*
X100172000Y-121128000D01*
X100172000Y-120426000D01*
X101824000Y-120426000D01*
X101824000Y-121128000D01*
X101824000Y-121128000D01*
G37*
G36*
X96424000Y-121128000D02*
G01*
X94772000Y-121128000D01*
X94772000Y-120426000D01*
X96424000Y-120426000D01*
X96424000Y-121128000D01*
X96424000Y-121128000D01*
G37*
G36*
X101824000Y-119858000D02*
G01*
X100172000Y-119858000D01*
X100172000Y-119156000D01*
X101824000Y-119156000D01*
X101824000Y-119858000D01*
X101824000Y-119858000D01*
G37*
G36*
X96424000Y-119858000D02*
G01*
X94772000Y-119858000D01*
X94772000Y-119156000D01*
X96424000Y-119156000D01*
X96424000Y-119858000D01*
X96424000Y-119858000D01*
G37*
G36*
X93511468Y-117617565D02*
G01*
X93550138Y-117629296D01*
X93585777Y-117648346D01*
X93617017Y-117673983D01*
X93642654Y-117705223D01*
X93661704Y-117740862D01*
X93673435Y-117779532D01*
X93678000Y-117825888D01*
X93678000Y-118902112D01*
X93673435Y-118948468D01*
X93661704Y-118987138D01*
X93642654Y-119022777D01*
X93617017Y-119054017D01*
X93585777Y-119079654D01*
X93550138Y-119098704D01*
X93511468Y-119110435D01*
X93465112Y-119115000D01*
X92813888Y-119115000D01*
X92767532Y-119110435D01*
X92728862Y-119098704D01*
X92693223Y-119079654D01*
X92661983Y-119054017D01*
X92636346Y-119022777D01*
X92617296Y-118987138D01*
X92605565Y-118948468D01*
X92601000Y-118902112D01*
X92601000Y-117825888D01*
X92605565Y-117779532D01*
X92617296Y-117740862D01*
X92636346Y-117705223D01*
X92661983Y-117673983D01*
X92693223Y-117648346D01*
X92728862Y-117629296D01*
X92767532Y-117617565D01*
X92813888Y-117613000D01*
X93465112Y-117613000D01*
X93511468Y-117617565D01*
X93511468Y-117617565D01*
G37*
G36*
X91636468Y-117617565D02*
G01*
X91675138Y-117629296D01*
X91710777Y-117648346D01*
X91742017Y-117673983D01*
X91767654Y-117705223D01*
X91786704Y-117740862D01*
X91798435Y-117779532D01*
X91803000Y-117825888D01*
X91803000Y-118902112D01*
X91798435Y-118948468D01*
X91786704Y-118987138D01*
X91767654Y-119022777D01*
X91742017Y-119054017D01*
X91710777Y-119079654D01*
X91675138Y-119098704D01*
X91636468Y-119110435D01*
X91590112Y-119115000D01*
X90938888Y-119115000D01*
X90892532Y-119110435D01*
X90853862Y-119098704D01*
X90818223Y-119079654D01*
X90786983Y-119054017D01*
X90761346Y-119022777D01*
X90742296Y-118987138D01*
X90730565Y-118948468D01*
X90726000Y-118902112D01*
X90726000Y-117825888D01*
X90730565Y-117779532D01*
X90742296Y-117740862D01*
X90761346Y-117705223D01*
X90786983Y-117673983D01*
X90818223Y-117648346D01*
X90853862Y-117629296D01*
X90892532Y-117617565D01*
X90938888Y-117613000D01*
X91590112Y-117613000D01*
X91636468Y-117617565D01*
X91636468Y-117617565D01*
G37*
G36*
X101824000Y-118588000D02*
G01*
X100172000Y-118588000D01*
X100172000Y-117886000D01*
X101824000Y-117886000D01*
X101824000Y-118588000D01*
X101824000Y-118588000D01*
G37*
G36*
X96424000Y-118588000D02*
G01*
X94772000Y-118588000D01*
X94772000Y-117886000D01*
X96424000Y-117886000D01*
X96424000Y-118588000D01*
X96424000Y-118588000D01*
G37*
G36*
X105449468Y-116347565D02*
G01*
X105488138Y-116359296D01*
X105523777Y-116378346D01*
X105555017Y-116403983D01*
X105580654Y-116435223D01*
X105599704Y-116470862D01*
X105611435Y-116509532D01*
X105616000Y-116555888D01*
X105616000Y-117632112D01*
X105611435Y-117678468D01*
X105599704Y-117717138D01*
X105580654Y-117752777D01*
X105555017Y-117784017D01*
X105523777Y-117809654D01*
X105488138Y-117828704D01*
X105449468Y-117840435D01*
X105403112Y-117845000D01*
X104751888Y-117845000D01*
X104705532Y-117840435D01*
X104666862Y-117828704D01*
X104631223Y-117809654D01*
X104599983Y-117784017D01*
X104574346Y-117752777D01*
X104555296Y-117717138D01*
X104543565Y-117678468D01*
X104539000Y-117632112D01*
X104539000Y-116555888D01*
X104543565Y-116509532D01*
X104555296Y-116470862D01*
X104574346Y-116435223D01*
X104599983Y-116403983D01*
X104631223Y-116378346D01*
X104666862Y-116359296D01*
X104705532Y-116347565D01*
X104751888Y-116343000D01*
X105403112Y-116343000D01*
X105449468Y-116347565D01*
X105449468Y-116347565D01*
G37*
G36*
X103574468Y-116347565D02*
G01*
X103613138Y-116359296D01*
X103648777Y-116378346D01*
X103680017Y-116403983D01*
X103705654Y-116435223D01*
X103724704Y-116470862D01*
X103736435Y-116509532D01*
X103741000Y-116555888D01*
X103741000Y-117632112D01*
X103736435Y-117678468D01*
X103724704Y-117717138D01*
X103705654Y-117752777D01*
X103680017Y-117784017D01*
X103648777Y-117809654D01*
X103613138Y-117828704D01*
X103574468Y-117840435D01*
X103528112Y-117845000D01*
X102876888Y-117845000D01*
X102830532Y-117840435D01*
X102791862Y-117828704D01*
X102756223Y-117809654D01*
X102724983Y-117784017D01*
X102699346Y-117752777D01*
X102680296Y-117717138D01*
X102668565Y-117678468D01*
X102664000Y-117632112D01*
X102664000Y-116555888D01*
X102668565Y-116509532D01*
X102680296Y-116470862D01*
X102699346Y-116435223D01*
X102724983Y-116403983D01*
X102756223Y-116378346D01*
X102791862Y-116359296D01*
X102830532Y-116347565D01*
X102876888Y-116343000D01*
X103528112Y-116343000D01*
X103574468Y-116347565D01*
X103574468Y-116347565D01*
G37*
G36*
X96424000Y-117318000D02*
G01*
X94772000Y-117318000D01*
X94772000Y-116616000D01*
X96424000Y-116616000D01*
X96424000Y-117318000D01*
X96424000Y-117318000D01*
G37*
G36*
X101824000Y-117318000D02*
G01*
X100172000Y-117318000D01*
X100172000Y-116616000D01*
X101824000Y-116616000D01*
X101824000Y-117318000D01*
X101824000Y-117318000D01*
G37*
G36*
X103163468Y-112283565D02*
G01*
X103202138Y-112295296D01*
X103237777Y-112314346D01*
X103269017Y-112339983D01*
X103294654Y-112371223D01*
X103313704Y-112406862D01*
X103325435Y-112445532D01*
X103330000Y-112491888D01*
X103330000Y-113568112D01*
X103325435Y-113614468D01*
X103313704Y-113653138D01*
X103294654Y-113688777D01*
X103269017Y-113720017D01*
X103237777Y-113745654D01*
X103202138Y-113764704D01*
X103163468Y-113776435D01*
X103117112Y-113781000D01*
X102465888Y-113781000D01*
X102419532Y-113776435D01*
X102380862Y-113764704D01*
X102345223Y-113745654D01*
X102313983Y-113720017D01*
X102288346Y-113688777D01*
X102269296Y-113653138D01*
X102257565Y-113614468D01*
X102253000Y-113568112D01*
X102253000Y-112491888D01*
X102257565Y-112445532D01*
X102269296Y-112406862D01*
X102288346Y-112371223D01*
X102313983Y-112339983D01*
X102345223Y-112314346D01*
X102380862Y-112295296D01*
X102419532Y-112283565D01*
X102465888Y-112279000D01*
X103117112Y-112279000D01*
X103163468Y-112283565D01*
X103163468Y-112283565D01*
G37*
G36*
X101288468Y-112283565D02*
G01*
X101327138Y-112295296D01*
X101362777Y-112314346D01*
X101394017Y-112339983D01*
X101419654Y-112371223D01*
X101438704Y-112406862D01*
X101450435Y-112445532D01*
X101455000Y-112491888D01*
X101455000Y-113568112D01*
X101450435Y-113614468D01*
X101438704Y-113653138D01*
X101419654Y-113688777D01*
X101394017Y-113720017D01*
X101362777Y-113745654D01*
X101327138Y-113764704D01*
X101288468Y-113776435D01*
X101242112Y-113781000D01*
X100590888Y-113781000D01*
X100544532Y-113776435D01*
X100505862Y-113764704D01*
X100470223Y-113745654D01*
X100438983Y-113720017D01*
X100413346Y-113688777D01*
X100394296Y-113653138D01*
X100382565Y-113614468D01*
X100378000Y-113568112D01*
X100378000Y-112491888D01*
X100382565Y-112445532D01*
X100394296Y-112406862D01*
X100413346Y-112371223D01*
X100438983Y-112339983D01*
X100470223Y-112314346D01*
X100505862Y-112295296D01*
X100544532Y-112283565D01*
X100590888Y-112279000D01*
X101242112Y-112279000D01*
X101288468Y-112283565D01*
X101288468Y-112283565D01*
G37*
G36*
X96185000Y-112405000D02*
G01*
X92283000Y-112405000D01*
X92283000Y-110303000D01*
X96185000Y-110303000D01*
X96185000Y-112405000D01*
X96185000Y-112405000D01*
G37*
G36*
X107023000Y-111701000D02*
G01*
X105321000Y-111701000D01*
X105321000Y-108599000D01*
X107023000Y-108599000D01*
X107023000Y-111701000D01*
X107023000Y-111701000D01*
G37*
G36*
X101435000Y-111609000D02*
G01*
X99733000Y-111609000D01*
X99733000Y-108907000D01*
X101435000Y-108907000D01*
X101435000Y-111609000D01*
X101435000Y-111609000D01*
G37*
G36*
X101435000Y-108009000D02*
G01*
X99733000Y-108009000D01*
X99733000Y-105307000D01*
X101435000Y-105307000D01*
X101435000Y-108009000D01*
X101435000Y-108009000D01*
G37*
G36*
X164860400Y-105857400D02*
G01*
X164236999Y-105857400D01*
X164212613Y-105859802D01*
X164189164Y-105866915D01*
X164167553Y-105878466D01*
X164148611Y-105894011D01*
X164133066Y-105912953D01*
X164121515Y-105934564D01*
X164114402Y-105958013D01*
X164112000Y-105982399D01*
X164114402Y-106006785D01*
X164121515Y-106030234D01*
X164133066Y-106051845D01*
X164148611Y-106070787D01*
X164178075Y-106092638D01*
X164223177Y-106116746D01*
X164254417Y-106142383D01*
X164280054Y-106173623D01*
X164299104Y-106209262D01*
X164310835Y-106247932D01*
X164315400Y-106294288D01*
X164315400Y-107370512D01*
X164310835Y-107416868D01*
X164299104Y-107455538D01*
X164280054Y-107491177D01*
X164254417Y-107522417D01*
X164223177Y-107548054D01*
X164187538Y-107567104D01*
X164148868Y-107578835D01*
X164102512Y-107583400D01*
X163451288Y-107583400D01*
X163404932Y-107578835D01*
X163366262Y-107567104D01*
X163330623Y-107548054D01*
X163299383Y-107522417D01*
X163273746Y-107491177D01*
X163254696Y-107455538D01*
X163242965Y-107416868D01*
X163238400Y-107370512D01*
X163238400Y-106294288D01*
X163242965Y-106247932D01*
X163254696Y-106209262D01*
X163273746Y-106173623D01*
X163299383Y-106142383D01*
X163330623Y-106116746D01*
X163375725Y-106092638D01*
X163396100Y-106079024D01*
X163413427Y-106061697D01*
X163427040Y-106041323D01*
X163436418Y-106018684D01*
X163441198Y-105994651D01*
X163441198Y-105970147D01*
X163436417Y-105946113D01*
X163427040Y-105923475D01*
X163413426Y-105903100D01*
X163396099Y-105885773D01*
X163375725Y-105872160D01*
X163358400Y-105864983D01*
X163358400Y-103955400D01*
X164860400Y-103955400D01*
X164860400Y-105857400D01*
X164860400Y-105857400D01*
G37*
G36*
X162320400Y-105865023D02*
G01*
X162314164Y-105866915D01*
X162292553Y-105878466D01*
X162273611Y-105894011D01*
X162258066Y-105912953D01*
X162246515Y-105934564D01*
X162239402Y-105958013D01*
X162237000Y-105982399D01*
X162239402Y-106006785D01*
X162246515Y-106030234D01*
X162258066Y-106051845D01*
X162273611Y-106070787D01*
X162303075Y-106092638D01*
X162348177Y-106116746D01*
X162379417Y-106142383D01*
X162405054Y-106173623D01*
X162424104Y-106209262D01*
X162435835Y-106247932D01*
X162440400Y-106294288D01*
X162440400Y-107370512D01*
X162435835Y-107416868D01*
X162424104Y-107455538D01*
X162405054Y-107491177D01*
X162379417Y-107522417D01*
X162348177Y-107548054D01*
X162312538Y-107567104D01*
X162273868Y-107578835D01*
X162227512Y-107583400D01*
X161576288Y-107583400D01*
X161529932Y-107578835D01*
X161491262Y-107567104D01*
X161455623Y-107548054D01*
X161424383Y-107522417D01*
X161398746Y-107491177D01*
X161379696Y-107455538D01*
X161367965Y-107416868D01*
X161363400Y-107370512D01*
X161363400Y-106294288D01*
X161367965Y-106247932D01*
X161379696Y-106209262D01*
X161398746Y-106173623D01*
X161424383Y-106142383D01*
X161455623Y-106116746D01*
X161500725Y-106092638D01*
X161521100Y-106079024D01*
X161538427Y-106061697D01*
X161552040Y-106041323D01*
X161561418Y-106018684D01*
X161566198Y-105994651D01*
X161566198Y-105970147D01*
X161561417Y-105946113D01*
X161552040Y-105923475D01*
X161538426Y-105903100D01*
X161521099Y-105885773D01*
X161500725Y-105872160D01*
X161478086Y-105862782D01*
X161441801Y-105857400D01*
X160818400Y-105857400D01*
X160818400Y-103955400D01*
X162320400Y-103955400D01*
X162320400Y-105865023D01*
X162320400Y-105865023D01*
G37*
G36*
X107023000Y-107301000D02*
G01*
X105321000Y-107301000D01*
X105321000Y-104199000D01*
X107023000Y-104199000D01*
X107023000Y-107301000D01*
X107023000Y-107301000D01*
G37*
G36*
X97335000Y-106105000D02*
G01*
X95733000Y-106105000D01*
X95733000Y-104003000D01*
X97335000Y-104003000D01*
X97335000Y-106105000D01*
X97335000Y-106105000D01*
G37*
G36*
X95035000Y-106105000D02*
G01*
X93433000Y-106105000D01*
X93433000Y-104003000D01*
X95035000Y-104003000D01*
X95035000Y-106105000D01*
X95035000Y-106105000D01*
G37*
G36*
X92735000Y-106105000D02*
G01*
X91133000Y-106105000D01*
X91133000Y-104003000D01*
X92735000Y-104003000D01*
X92735000Y-106105000D01*
X92735000Y-106105000D01*
G37*
G36*
X112852468Y-103756165D02*
G01*
X112891138Y-103767896D01*
X112926777Y-103786946D01*
X112958017Y-103812583D01*
X112983654Y-103843823D01*
X113002704Y-103879462D01*
X113014435Y-103918132D01*
X113019000Y-103964488D01*
X113019000Y-104615712D01*
X113014435Y-104662068D01*
X113002704Y-104700738D01*
X112983654Y-104736377D01*
X112958017Y-104767617D01*
X112926777Y-104793254D01*
X112891138Y-104812304D01*
X112852468Y-104824035D01*
X112806112Y-104828600D01*
X111729888Y-104828600D01*
X111683532Y-104824035D01*
X111644862Y-104812304D01*
X111609223Y-104793254D01*
X111577983Y-104767617D01*
X111552346Y-104736377D01*
X111533296Y-104700738D01*
X111521565Y-104662068D01*
X111517000Y-104615712D01*
X111517000Y-103964488D01*
X111521565Y-103918132D01*
X111533296Y-103879462D01*
X111552346Y-103843823D01*
X111577983Y-103812583D01*
X111609223Y-103786946D01*
X111644862Y-103767896D01*
X111683532Y-103756165D01*
X111729888Y-103751600D01*
X112806112Y-103751600D01*
X112852468Y-103756165D01*
X112852468Y-103756165D01*
G37*
G36*
X110566468Y-103730765D02*
G01*
X110605138Y-103742496D01*
X110640777Y-103761546D01*
X110672017Y-103787183D01*
X110697654Y-103818423D01*
X110716704Y-103854062D01*
X110728435Y-103892732D01*
X110733000Y-103939088D01*
X110733000Y-104590312D01*
X110728435Y-104636668D01*
X110716704Y-104675338D01*
X110697654Y-104710977D01*
X110672017Y-104742217D01*
X110640777Y-104767854D01*
X110605138Y-104786904D01*
X110566468Y-104798635D01*
X110520112Y-104803200D01*
X109443888Y-104803200D01*
X109397532Y-104798635D01*
X109358862Y-104786904D01*
X109323223Y-104767854D01*
X109291983Y-104742217D01*
X109266346Y-104710977D01*
X109247296Y-104675338D01*
X109235565Y-104636668D01*
X109231000Y-104590312D01*
X109231000Y-103939088D01*
X109235565Y-103892732D01*
X109247296Y-103854062D01*
X109266346Y-103818423D01*
X109291983Y-103787183D01*
X109323223Y-103761546D01*
X109358862Y-103742496D01*
X109397532Y-103730765D01*
X109443888Y-103726200D01*
X110520112Y-103726200D01*
X110566468Y-103730765D01*
X110566468Y-103730765D01*
G37*
G36*
X114613800Y-104779000D02*
G01*
X113611800Y-104779000D01*
X113611800Y-103877000D01*
X114613800Y-103877000D01*
X114613800Y-104779000D01*
X114613800Y-104779000D01*
G37*
G36*
X116613800Y-103829000D02*
G01*
X115611800Y-103829000D01*
X115611800Y-102927000D01*
X116613800Y-102927000D01*
X116613800Y-103829000D01*
X116613800Y-103829000D01*
G37*
G36*
X112852468Y-101881165D02*
G01*
X112891138Y-101892896D01*
X112926777Y-101911946D01*
X112958017Y-101937583D01*
X112983654Y-101968823D01*
X113002704Y-102004462D01*
X113014435Y-102043132D01*
X113019000Y-102089488D01*
X113019000Y-102740712D01*
X113014435Y-102787068D01*
X113002704Y-102825738D01*
X112983654Y-102861377D01*
X112958017Y-102892617D01*
X112926777Y-102918254D01*
X112891138Y-102937304D01*
X112852468Y-102949035D01*
X112806112Y-102953600D01*
X111729888Y-102953600D01*
X111683532Y-102949035D01*
X111644862Y-102937304D01*
X111609223Y-102918254D01*
X111577983Y-102892617D01*
X111552346Y-102861377D01*
X111533296Y-102825738D01*
X111521565Y-102787068D01*
X111517000Y-102740712D01*
X111517000Y-102089488D01*
X111521565Y-102043132D01*
X111533296Y-102004462D01*
X111552346Y-101968823D01*
X111577983Y-101937583D01*
X111609223Y-101911946D01*
X111644862Y-101892896D01*
X111683532Y-101881165D01*
X111729888Y-101876600D01*
X112806112Y-101876600D01*
X112852468Y-101881165D01*
X112852468Y-101881165D01*
G37*
G36*
X98951000Y-102953000D02*
G01*
X95849000Y-102953000D01*
X95849000Y-101251000D01*
X98951000Y-101251000D01*
X98951000Y-102953000D01*
X98951000Y-102953000D01*
G37*
G36*
X110566468Y-101855765D02*
G01*
X110605138Y-101867496D01*
X110640777Y-101886546D01*
X110672017Y-101912183D01*
X110697654Y-101943423D01*
X110716704Y-101979062D01*
X110728435Y-102017732D01*
X110733000Y-102064088D01*
X110733000Y-102715312D01*
X110728435Y-102761668D01*
X110716704Y-102800338D01*
X110697654Y-102835977D01*
X110672017Y-102867217D01*
X110640777Y-102892854D01*
X110605138Y-102911904D01*
X110566468Y-102923635D01*
X110520112Y-102928200D01*
X109443888Y-102928200D01*
X109397532Y-102923635D01*
X109358862Y-102911904D01*
X109323223Y-102892854D01*
X109291983Y-102867217D01*
X109266346Y-102835977D01*
X109247296Y-102800338D01*
X109235565Y-102761668D01*
X109231000Y-102715312D01*
X109231000Y-102064088D01*
X109235565Y-102017732D01*
X109247296Y-101979062D01*
X109266346Y-101943423D01*
X109291983Y-101912183D01*
X109323223Y-101886546D01*
X109358862Y-101867496D01*
X109397532Y-101855765D01*
X109443888Y-101851200D01*
X110520112Y-101851200D01*
X110566468Y-101855765D01*
X110566468Y-101855765D01*
G37*
G36*
X114613800Y-102879000D02*
G01*
X113611800Y-102879000D01*
X113611800Y-101977000D01*
X114613800Y-101977000D01*
X114613800Y-102879000D01*
X114613800Y-102879000D01*
G37*
G36*
X107722800Y-102773000D02*
G01*
X101420800Y-102773000D01*
X101420800Y-96871000D01*
X107722800Y-96871000D01*
X107722800Y-102773000D01*
X107722800Y-102773000D01*
G37*
G36*
X111200604Y-99381947D02*
G01*
X111237144Y-99393032D01*
X111270821Y-99411033D01*
X111300341Y-99435259D01*
X111324567Y-99464779D01*
X111342568Y-99498456D01*
X111353653Y-99534996D01*
X111358000Y-99579138D01*
X111358000Y-100528062D01*
X111353653Y-100572204D01*
X111342568Y-100608744D01*
X111324567Y-100642421D01*
X111300341Y-100671941D01*
X111270821Y-100696167D01*
X111237144Y-100714168D01*
X111200604Y-100725253D01*
X111156462Y-100729600D01*
X108807538Y-100729600D01*
X108763396Y-100725253D01*
X108726856Y-100714168D01*
X108693179Y-100696167D01*
X108663659Y-100671941D01*
X108639433Y-100642421D01*
X108621432Y-100608744D01*
X108610347Y-100572204D01*
X108606000Y-100528062D01*
X108606000Y-99579138D01*
X108610347Y-99534996D01*
X108621432Y-99498456D01*
X108639433Y-99464779D01*
X108663659Y-99435259D01*
X108693179Y-99411033D01*
X108726856Y-99393032D01*
X108763396Y-99381947D01*
X108807538Y-99377600D01*
X111156462Y-99377600D01*
X111200604Y-99381947D01*
X111200604Y-99381947D01*
G37*
G36*
X93160468Y-98567565D02*
G01*
X93199138Y-98579296D01*
X93234777Y-98598346D01*
X93266017Y-98623983D01*
X93291654Y-98655223D01*
X93310704Y-98690862D01*
X93322435Y-98729532D01*
X93327000Y-98775888D01*
X93327000Y-99852112D01*
X93322435Y-99898468D01*
X93310704Y-99937138D01*
X93291654Y-99972777D01*
X93266017Y-100004017D01*
X93234777Y-100029654D01*
X93199138Y-100048704D01*
X93160468Y-100060435D01*
X93114112Y-100065000D01*
X92462888Y-100065000D01*
X92416532Y-100060435D01*
X92377862Y-100048704D01*
X92342223Y-100029654D01*
X92310983Y-100004017D01*
X92285346Y-99972777D01*
X92266296Y-99937138D01*
X92254565Y-99898468D01*
X92250000Y-99852112D01*
X92250000Y-98775888D01*
X92254565Y-98729532D01*
X92266296Y-98690862D01*
X92285346Y-98655223D01*
X92310983Y-98623983D01*
X92342223Y-98598346D01*
X92377862Y-98579296D01*
X92416532Y-98567565D01*
X92462888Y-98563000D01*
X93114112Y-98563000D01*
X93160468Y-98567565D01*
X93160468Y-98567565D01*
G37*
G36*
X95035468Y-98567565D02*
G01*
X95074138Y-98579296D01*
X95109777Y-98598346D01*
X95141017Y-98623983D01*
X95166654Y-98655223D01*
X95185704Y-98690862D01*
X95197435Y-98729532D01*
X95202000Y-98775888D01*
X95202000Y-99852112D01*
X95197435Y-99898468D01*
X95185704Y-99937138D01*
X95166654Y-99972777D01*
X95141017Y-100004017D01*
X95109777Y-100029654D01*
X95074138Y-100048704D01*
X95035468Y-100060435D01*
X94989112Y-100065000D01*
X94337888Y-100065000D01*
X94291532Y-100060435D01*
X94252862Y-100048704D01*
X94217223Y-100029654D01*
X94185983Y-100004017D01*
X94160346Y-99972777D01*
X94141296Y-99937138D01*
X94129565Y-99898468D01*
X94125000Y-99852112D01*
X94125000Y-98775888D01*
X94129565Y-98729532D01*
X94141296Y-98690862D01*
X94160346Y-98655223D01*
X94185983Y-98623983D01*
X94217223Y-98598346D01*
X94252862Y-98579296D01*
X94291532Y-98567565D01*
X94337888Y-98563000D01*
X94989112Y-98563000D01*
X95035468Y-98567565D01*
X95035468Y-98567565D01*
G37*
G36*
X162273868Y-96433965D02*
G01*
X162312538Y-96445696D01*
X162348177Y-96464746D01*
X162379417Y-96490383D01*
X162405054Y-96521623D01*
X162424104Y-96557262D01*
X162435835Y-96595932D01*
X162440400Y-96642288D01*
X162440400Y-97718512D01*
X162435835Y-97764868D01*
X162424104Y-97803538D01*
X162405054Y-97839177D01*
X162379417Y-97870417D01*
X162348177Y-97896054D01*
X162303075Y-97920162D01*
X162282700Y-97933776D01*
X162265373Y-97951103D01*
X162251760Y-97971477D01*
X162242382Y-97994116D01*
X162237602Y-98018149D01*
X162237602Y-98042653D01*
X162242383Y-98066687D01*
X162251760Y-98089325D01*
X162265374Y-98109700D01*
X162282701Y-98127027D01*
X162303075Y-98140640D01*
X162320400Y-98147817D01*
X162320400Y-100057400D01*
X160818400Y-100057400D01*
X160818400Y-98155400D01*
X161441801Y-98155400D01*
X161466187Y-98152998D01*
X161489636Y-98145885D01*
X161511247Y-98134334D01*
X161530189Y-98118789D01*
X161545734Y-98099847D01*
X161557285Y-98078236D01*
X161564398Y-98054787D01*
X161566800Y-98030401D01*
X161564398Y-98006015D01*
X161557285Y-97982566D01*
X161545734Y-97960955D01*
X161530189Y-97942013D01*
X161500725Y-97920162D01*
X161455623Y-97896054D01*
X161424383Y-97870417D01*
X161398746Y-97839177D01*
X161379696Y-97803538D01*
X161367965Y-97764868D01*
X161363400Y-97718512D01*
X161363400Y-96642288D01*
X161367965Y-96595932D01*
X161379696Y-96557262D01*
X161398746Y-96521623D01*
X161424383Y-96490383D01*
X161455623Y-96464746D01*
X161491262Y-96445696D01*
X161529932Y-96433965D01*
X161576288Y-96429400D01*
X162227512Y-96429400D01*
X162273868Y-96433965D01*
X162273868Y-96433965D01*
G37*
G36*
X164148868Y-96433965D02*
G01*
X164187538Y-96445696D01*
X164223177Y-96464746D01*
X164254417Y-96490383D01*
X164280054Y-96521623D01*
X164299104Y-96557262D01*
X164310835Y-96595932D01*
X164315400Y-96642288D01*
X164315400Y-97718512D01*
X164310835Y-97764868D01*
X164299104Y-97803538D01*
X164280054Y-97839177D01*
X164254417Y-97870417D01*
X164223177Y-97896054D01*
X164178075Y-97920162D01*
X164157700Y-97933776D01*
X164140373Y-97951103D01*
X164126760Y-97971477D01*
X164117382Y-97994116D01*
X164112602Y-98018149D01*
X164112602Y-98042653D01*
X164117383Y-98066687D01*
X164126760Y-98089325D01*
X164140374Y-98109700D01*
X164157701Y-98127027D01*
X164178075Y-98140640D01*
X164200714Y-98150018D01*
X164236999Y-98155400D01*
X164860400Y-98155400D01*
X164860400Y-100057400D01*
X163358400Y-100057400D01*
X163358400Y-98147777D01*
X163364636Y-98145885D01*
X163386247Y-98134334D01*
X163405189Y-98118789D01*
X163420734Y-98099847D01*
X163432285Y-98078236D01*
X163439398Y-98054787D01*
X163441800Y-98030401D01*
X163439398Y-98006015D01*
X163432285Y-97982566D01*
X163420734Y-97960955D01*
X163405189Y-97942013D01*
X163375725Y-97920162D01*
X163330623Y-97896054D01*
X163299383Y-97870417D01*
X163273746Y-97839177D01*
X163254696Y-97803538D01*
X163242965Y-97764868D01*
X163238400Y-97718512D01*
X163238400Y-96642288D01*
X163242965Y-96595932D01*
X163254696Y-96557262D01*
X163273746Y-96521623D01*
X163299383Y-96490383D01*
X163330623Y-96464746D01*
X163366262Y-96445696D01*
X163404932Y-96433965D01*
X163451288Y-96429400D01*
X164102512Y-96429400D01*
X164148868Y-96433965D01*
X164148868Y-96433965D01*
G37*
G36*
X115392468Y-98447565D02*
G01*
X115431138Y-98459296D01*
X115466777Y-98478346D01*
X115498017Y-98503983D01*
X115523654Y-98535223D01*
X115542704Y-98570862D01*
X115554435Y-98609532D01*
X115559000Y-98655888D01*
X115559000Y-99307112D01*
X115554435Y-99353468D01*
X115542704Y-99392138D01*
X115523654Y-99427777D01*
X115498017Y-99459017D01*
X115466777Y-99484654D01*
X115431138Y-99503704D01*
X115392468Y-99515435D01*
X115346112Y-99520000D01*
X114269888Y-99520000D01*
X114223532Y-99515435D01*
X114184862Y-99503704D01*
X114149223Y-99484654D01*
X114117983Y-99459017D01*
X114092346Y-99427777D01*
X114073296Y-99392138D01*
X114061565Y-99353468D01*
X114057000Y-99307112D01*
X114057000Y-98655888D01*
X114061565Y-98609532D01*
X114073296Y-98570862D01*
X114092346Y-98535223D01*
X114117983Y-98503983D01*
X114149223Y-98478346D01*
X114184862Y-98459296D01*
X114223532Y-98447565D01*
X114269888Y-98443000D01*
X115346112Y-98443000D01*
X115392468Y-98447565D01*
X115392468Y-98447565D01*
G37*
G36*
X113360468Y-98447565D02*
G01*
X113399138Y-98459296D01*
X113434777Y-98478346D01*
X113466017Y-98503983D01*
X113491654Y-98535223D01*
X113510704Y-98570862D01*
X113522435Y-98609532D01*
X113527000Y-98655888D01*
X113527000Y-99307112D01*
X113522435Y-99353468D01*
X113510704Y-99392138D01*
X113491654Y-99427777D01*
X113466017Y-99459017D01*
X113434777Y-99484654D01*
X113399138Y-99503704D01*
X113360468Y-99515435D01*
X113314112Y-99520000D01*
X112237888Y-99520000D01*
X112191532Y-99515435D01*
X112152862Y-99503704D01*
X112117223Y-99484654D01*
X112085983Y-99459017D01*
X112060346Y-99427777D01*
X112041296Y-99392138D01*
X112029565Y-99353468D01*
X112025000Y-99307112D01*
X112025000Y-98655888D01*
X112029565Y-98609532D01*
X112041296Y-98570862D01*
X112060346Y-98535223D01*
X112085983Y-98503983D01*
X112117223Y-98478346D01*
X112152862Y-98459296D01*
X112191532Y-98447565D01*
X112237888Y-98443000D01*
X113314112Y-98443000D01*
X113360468Y-98447565D01*
X113360468Y-98447565D01*
G37*
G36*
X117787404Y-96621547D02*
G01*
X117823944Y-96632632D01*
X117857621Y-96650633D01*
X117887141Y-96674859D01*
X117911367Y-96704379D01*
X117929368Y-96738056D01*
X117940453Y-96774596D01*
X117944800Y-96818738D01*
X117944800Y-99167662D01*
X117940453Y-99211804D01*
X117929368Y-99248344D01*
X117911367Y-99282021D01*
X117887141Y-99311541D01*
X117857621Y-99335767D01*
X117823944Y-99353768D01*
X117787404Y-99364853D01*
X117743262Y-99369200D01*
X116794338Y-99369200D01*
X116750196Y-99364853D01*
X116713656Y-99353768D01*
X116679979Y-99335767D01*
X116650459Y-99311541D01*
X116626233Y-99282021D01*
X116608232Y-99248344D01*
X116597147Y-99211804D01*
X116592800Y-99167662D01*
X116592800Y-96818738D01*
X116597147Y-96774596D01*
X116608232Y-96738056D01*
X116626233Y-96704379D01*
X116650459Y-96674859D01*
X116679979Y-96650633D01*
X116713656Y-96632632D01*
X116750196Y-96621547D01*
X116794338Y-96617200D01*
X117743262Y-96617200D01*
X117787404Y-96621547D01*
X117787404Y-96621547D01*
G37*
G36*
X120587404Y-96621547D02*
G01*
X120623944Y-96632632D01*
X120657621Y-96650633D01*
X120687141Y-96674859D01*
X120711367Y-96704379D01*
X120729368Y-96738056D01*
X120740453Y-96774596D01*
X120744800Y-96818738D01*
X120744800Y-99167662D01*
X120740453Y-99211804D01*
X120729368Y-99248344D01*
X120711367Y-99282021D01*
X120687141Y-99311541D01*
X120657621Y-99335767D01*
X120623944Y-99353768D01*
X120587404Y-99364853D01*
X120543262Y-99369200D01*
X119594338Y-99369200D01*
X119550196Y-99364853D01*
X119513656Y-99353768D01*
X119479979Y-99335767D01*
X119450459Y-99311541D01*
X119426233Y-99282021D01*
X119408232Y-99248344D01*
X119397147Y-99211804D01*
X119392800Y-99167662D01*
X119392800Y-96818738D01*
X119397147Y-96774596D01*
X119408232Y-96738056D01*
X119426233Y-96704379D01*
X119450459Y-96674859D01*
X119479979Y-96650633D01*
X119513656Y-96632632D01*
X119550196Y-96621547D01*
X119594338Y-96617200D01*
X120543262Y-96617200D01*
X120587404Y-96621547D01*
X120587404Y-96621547D01*
G37*
G36*
X98951000Y-98393000D02*
G01*
X95849000Y-98393000D01*
X95849000Y-96691000D01*
X98951000Y-96691000D01*
X98951000Y-98393000D01*
X98951000Y-98393000D01*
G37*
G36*
X93160468Y-96535565D02*
G01*
X93199138Y-96547296D01*
X93234777Y-96566346D01*
X93266017Y-96591983D01*
X93291654Y-96623223D01*
X93310704Y-96658862D01*
X93322435Y-96697532D01*
X93327000Y-96743888D01*
X93327000Y-97820112D01*
X93322435Y-97866468D01*
X93310704Y-97905138D01*
X93291654Y-97940777D01*
X93266017Y-97972017D01*
X93234777Y-97997654D01*
X93199138Y-98016704D01*
X93160468Y-98028435D01*
X93114112Y-98033000D01*
X92462888Y-98033000D01*
X92416532Y-98028435D01*
X92377862Y-98016704D01*
X92342223Y-97997654D01*
X92310983Y-97972017D01*
X92285346Y-97940777D01*
X92266296Y-97905138D01*
X92254565Y-97866468D01*
X92250000Y-97820112D01*
X92250000Y-96743888D01*
X92254565Y-96697532D01*
X92266296Y-96658862D01*
X92285346Y-96623223D01*
X92310983Y-96591983D01*
X92342223Y-96566346D01*
X92377862Y-96547296D01*
X92416532Y-96535565D01*
X92462888Y-96531000D01*
X93114112Y-96531000D01*
X93160468Y-96535565D01*
X93160468Y-96535565D01*
G37*
G36*
X95035468Y-96535565D02*
G01*
X95074138Y-96547296D01*
X95109777Y-96566346D01*
X95141017Y-96591983D01*
X95166654Y-96623223D01*
X95185704Y-96658862D01*
X95197435Y-96697532D01*
X95202000Y-96743888D01*
X95202000Y-97820112D01*
X95197435Y-97866468D01*
X95185704Y-97905138D01*
X95166654Y-97940777D01*
X95141017Y-97972017D01*
X95109777Y-97997654D01*
X95074138Y-98016704D01*
X95035468Y-98028435D01*
X94989112Y-98033000D01*
X94337888Y-98033000D01*
X94291532Y-98028435D01*
X94252862Y-98016704D01*
X94217223Y-97997654D01*
X94185983Y-97972017D01*
X94160346Y-97940777D01*
X94141296Y-97905138D01*
X94129565Y-97866468D01*
X94125000Y-97820112D01*
X94125000Y-96743888D01*
X94129565Y-96697532D01*
X94141296Y-96658862D01*
X94160346Y-96623223D01*
X94185983Y-96591983D01*
X94217223Y-96566346D01*
X94252862Y-96547296D01*
X94291532Y-96535565D01*
X94337888Y-96531000D01*
X94989112Y-96531000D01*
X95035468Y-96535565D01*
X95035468Y-96535565D01*
G37*
G36*
X111200604Y-96581947D02*
G01*
X111237144Y-96593032D01*
X111270821Y-96611033D01*
X111300341Y-96635259D01*
X111324567Y-96664779D01*
X111342568Y-96698456D01*
X111353653Y-96734996D01*
X111358000Y-96779138D01*
X111358000Y-97728062D01*
X111353653Y-97772204D01*
X111342568Y-97808744D01*
X111324567Y-97842421D01*
X111300341Y-97871941D01*
X111270821Y-97896167D01*
X111237144Y-97914168D01*
X111200604Y-97925253D01*
X111156462Y-97929600D01*
X108807538Y-97929600D01*
X108763396Y-97925253D01*
X108726856Y-97914168D01*
X108693179Y-97896167D01*
X108663659Y-97871941D01*
X108639433Y-97842421D01*
X108621432Y-97808744D01*
X108610347Y-97772204D01*
X108606000Y-97728062D01*
X108606000Y-96779138D01*
X108610347Y-96734996D01*
X108621432Y-96698456D01*
X108639433Y-96664779D01*
X108663659Y-96635259D01*
X108693179Y-96611033D01*
X108726856Y-96593032D01*
X108763396Y-96581947D01*
X108807538Y-96577600D01*
X111156462Y-96577600D01*
X111200604Y-96581947D01*
X111200604Y-96581947D01*
G37*
G36*
X115392468Y-96572565D02*
G01*
X115431138Y-96584296D01*
X115466777Y-96603346D01*
X115498017Y-96628983D01*
X115523654Y-96660223D01*
X115542704Y-96695862D01*
X115554435Y-96734532D01*
X115559000Y-96780888D01*
X115559000Y-97432112D01*
X115554435Y-97478468D01*
X115542704Y-97517138D01*
X115523654Y-97552777D01*
X115498017Y-97584017D01*
X115466777Y-97609654D01*
X115431138Y-97628704D01*
X115392468Y-97640435D01*
X115346112Y-97645000D01*
X114269888Y-97645000D01*
X114223532Y-97640435D01*
X114184862Y-97628704D01*
X114149223Y-97609654D01*
X114117983Y-97584017D01*
X114092346Y-97552777D01*
X114073296Y-97517138D01*
X114061565Y-97478468D01*
X114057000Y-97432112D01*
X114057000Y-96780888D01*
X114061565Y-96734532D01*
X114073296Y-96695862D01*
X114092346Y-96660223D01*
X114117983Y-96628983D01*
X114149223Y-96603346D01*
X114184862Y-96584296D01*
X114223532Y-96572565D01*
X114269888Y-96568000D01*
X115346112Y-96568000D01*
X115392468Y-96572565D01*
X115392468Y-96572565D01*
G37*
G36*
X113360468Y-96572565D02*
G01*
X113399138Y-96584296D01*
X113434777Y-96603346D01*
X113466017Y-96628983D01*
X113491654Y-96660223D01*
X113510704Y-96695862D01*
X113522435Y-96734532D01*
X113527000Y-96780888D01*
X113527000Y-97432112D01*
X113522435Y-97478468D01*
X113510704Y-97517138D01*
X113491654Y-97552777D01*
X113466017Y-97584017D01*
X113434777Y-97609654D01*
X113399138Y-97628704D01*
X113360468Y-97640435D01*
X113314112Y-97645000D01*
X112237888Y-97645000D01*
X112191532Y-97640435D01*
X112152862Y-97628704D01*
X112117223Y-97609654D01*
X112085983Y-97584017D01*
X112060346Y-97552777D01*
X112041296Y-97517138D01*
X112029565Y-97478468D01*
X112025000Y-97432112D01*
X112025000Y-96780888D01*
X112029565Y-96734532D01*
X112041296Y-96695862D01*
X112060346Y-96660223D01*
X112085983Y-96628983D01*
X112117223Y-96603346D01*
X112152862Y-96584296D01*
X112191532Y-96572565D01*
X112237888Y-96568000D01*
X113314112Y-96568000D01*
X113360468Y-96572565D01*
X113360468Y-96572565D01*
G37*
G36*
X134599800Y-93542200D02*
G01*
X125597800Y-93542200D01*
X125597800Y-83140200D01*
X134599800Y-83140200D01*
X134599800Y-93542200D01*
X134599800Y-93542200D01*
G37*
G36*
X94097000Y-93307000D02*
G01*
X90495000Y-93307000D01*
X90495000Y-91605000D01*
X94097000Y-91605000D01*
X94097000Y-93307000D01*
X94097000Y-93307000D01*
G37*
G36*
X99497000Y-93307000D02*
G01*
X95895000Y-93307000D01*
X95895000Y-91605000D01*
X99497000Y-91605000D01*
X99497000Y-93307000D01*
X99497000Y-93307000D01*
G37*
G36*
X105133000Y-92159000D02*
G01*
X102131000Y-92159000D01*
X102131000Y-86657000D01*
X105133000Y-86657000D01*
X105133000Y-92159000D01*
X105133000Y-92159000D01*
G37*
G36*
X115318400Y-92159000D02*
G01*
X112316400Y-92159000D01*
X112316400Y-86657000D01*
X115318400Y-86657000D01*
X115318400Y-92159000D01*
X115318400Y-92159000D01*
G37*
G36*
X121348000Y-91633000D02*
G01*
X117546000Y-91633000D01*
X117546000Y-90231000D01*
X121348000Y-90231000D01*
X121348000Y-91633000D01*
X121348000Y-91633000D01*
G37*
G36*
X121348000Y-86553000D02*
G01*
X117546000Y-86553000D01*
X117546000Y-85151000D01*
X121348000Y-85151000D01*
X121348000Y-86553000D01*
X121348000Y-86553000D01*
G37*
G36*
X99497000Y-85687000D02*
G01*
X95895000Y-85687000D01*
X95895000Y-83985000D01*
X99497000Y-83985000D01*
X99497000Y-85687000D01*
X99497000Y-85687000D01*
G37*
G36*
X94097000Y-85687000D02*
G01*
X90495000Y-85687000D01*
X90495000Y-83985000D01*
X94097000Y-83985000D01*
X94097000Y-85687000D01*
X94097000Y-85687000D01*
G37*
G36*
X110356268Y-80279565D02*
G01*
X110394938Y-80291296D01*
X110430577Y-80310346D01*
X110461817Y-80335983D01*
X110487454Y-80367223D01*
X110506504Y-80402862D01*
X110518235Y-80441532D01*
X110522800Y-80487888D01*
X110522800Y-81564112D01*
X110518235Y-81610468D01*
X110506504Y-81649138D01*
X110487454Y-81684777D01*
X110461817Y-81716017D01*
X110430577Y-81741654D01*
X110394938Y-81760704D01*
X110356268Y-81772435D01*
X110309912Y-81777000D01*
X109658688Y-81777000D01*
X109612332Y-81772435D01*
X109573662Y-81760704D01*
X109538023Y-81741654D01*
X109506783Y-81716017D01*
X109481146Y-81684777D01*
X109462096Y-81649138D01*
X109450365Y-81610468D01*
X109445800Y-81564112D01*
X109445800Y-80487888D01*
X109450365Y-80441532D01*
X109462096Y-80402862D01*
X109481146Y-80367223D01*
X109506783Y-80335983D01*
X109538023Y-80310346D01*
X109573662Y-80291296D01*
X109612332Y-80279565D01*
X109658688Y-80275000D01*
X110309912Y-80275000D01*
X110356268Y-80279565D01*
X110356268Y-80279565D01*
G37*
G36*
X117895468Y-80279565D02*
G01*
X117934138Y-80291296D01*
X117969777Y-80310346D01*
X118001017Y-80335983D01*
X118026654Y-80367223D01*
X118045704Y-80402862D01*
X118057435Y-80441532D01*
X118062000Y-80487888D01*
X118062000Y-81564112D01*
X118057435Y-81610468D01*
X118045704Y-81649138D01*
X118026654Y-81684777D01*
X118001017Y-81716017D01*
X117969777Y-81741654D01*
X117934138Y-81760704D01*
X117895468Y-81772435D01*
X117849112Y-81777000D01*
X117197888Y-81777000D01*
X117151532Y-81772435D01*
X117112862Y-81760704D01*
X117077223Y-81741654D01*
X117045983Y-81716017D01*
X117020346Y-81684777D01*
X117001296Y-81649138D01*
X116989565Y-81610468D01*
X116985000Y-81564112D01*
X116985000Y-80487888D01*
X116989565Y-80441532D01*
X117001296Y-80402862D01*
X117020346Y-80367223D01*
X117045983Y-80335983D01*
X117077223Y-80310346D01*
X117112862Y-80291296D01*
X117151532Y-80279565D01*
X117197888Y-80275000D01*
X117849112Y-80275000D01*
X117895468Y-80279565D01*
X117895468Y-80279565D01*
G37*
G36*
X112231268Y-80279565D02*
G01*
X112269938Y-80291296D01*
X112305577Y-80310346D01*
X112336817Y-80335983D01*
X112362454Y-80367223D01*
X112381504Y-80402862D01*
X112393235Y-80441532D01*
X112397800Y-80487888D01*
X112397800Y-81564112D01*
X112393235Y-81610468D01*
X112381504Y-81649138D01*
X112362454Y-81684777D01*
X112336817Y-81716017D01*
X112305577Y-81741654D01*
X112269938Y-81760704D01*
X112231268Y-81772435D01*
X112184912Y-81777000D01*
X111533688Y-81777000D01*
X111487332Y-81772435D01*
X111448662Y-81760704D01*
X111413023Y-81741654D01*
X111381783Y-81716017D01*
X111356146Y-81684777D01*
X111337096Y-81649138D01*
X111325365Y-81610468D01*
X111320800Y-81564112D01*
X111320800Y-80487888D01*
X111325365Y-80441532D01*
X111337096Y-80402862D01*
X111356146Y-80367223D01*
X111381783Y-80335983D01*
X111413023Y-80310346D01*
X111448662Y-80291296D01*
X111487332Y-80279565D01*
X111533688Y-80275000D01*
X112184912Y-80275000D01*
X112231268Y-80279565D01*
X112231268Y-80279565D01*
G37*
G36*
X116020468Y-80279565D02*
G01*
X116059138Y-80291296D01*
X116094777Y-80310346D01*
X116126017Y-80335983D01*
X116151654Y-80367223D01*
X116170704Y-80402862D01*
X116182435Y-80441532D01*
X116187000Y-80487888D01*
X116187000Y-81564112D01*
X116182435Y-81610468D01*
X116170704Y-81649138D01*
X116151654Y-81684777D01*
X116126017Y-81716017D01*
X116094777Y-81741654D01*
X116059138Y-81760704D01*
X116020468Y-81772435D01*
X115974112Y-81777000D01*
X115322888Y-81777000D01*
X115276532Y-81772435D01*
X115237862Y-81760704D01*
X115202223Y-81741654D01*
X115170983Y-81716017D01*
X115145346Y-81684777D01*
X115126296Y-81649138D01*
X115114565Y-81610468D01*
X115110000Y-81564112D01*
X115110000Y-80487888D01*
X115114565Y-80441532D01*
X115126296Y-80402862D01*
X115145346Y-80367223D01*
X115170983Y-80335983D01*
X115202223Y-80310346D01*
X115237862Y-80291296D01*
X115276532Y-80279565D01*
X115322888Y-80275000D01*
X115974112Y-80275000D01*
X116020468Y-80279565D01*
X116020468Y-80279565D01*
G37*
G36*
X130244468Y-80279565D02*
G01*
X130283138Y-80291296D01*
X130318777Y-80310346D01*
X130350017Y-80335983D01*
X130375654Y-80367223D01*
X130394704Y-80402862D01*
X130406435Y-80441532D01*
X130411000Y-80487888D01*
X130411000Y-81564112D01*
X130406435Y-81610468D01*
X130394704Y-81649138D01*
X130375654Y-81684777D01*
X130350017Y-81716017D01*
X130318777Y-81741654D01*
X130283138Y-81760704D01*
X130244468Y-81772435D01*
X130198112Y-81777000D01*
X129546888Y-81777000D01*
X129500532Y-81772435D01*
X129461862Y-81760704D01*
X129426223Y-81741654D01*
X129394983Y-81716017D01*
X129369346Y-81684777D01*
X129350296Y-81649138D01*
X129338565Y-81610468D01*
X129334000Y-81564112D01*
X129334000Y-80487888D01*
X129338565Y-80441532D01*
X129350296Y-80402862D01*
X129369346Y-80367223D01*
X129394983Y-80335983D01*
X129426223Y-80310346D01*
X129461862Y-80291296D01*
X129500532Y-80279565D01*
X129546888Y-80275000D01*
X130198112Y-80275000D01*
X130244468Y-80279565D01*
X130244468Y-80279565D01*
G37*
G36*
X132119468Y-80279565D02*
G01*
X132158138Y-80291296D01*
X132193777Y-80310346D01*
X132225017Y-80335983D01*
X132250654Y-80367223D01*
X132269704Y-80402862D01*
X132281435Y-80441532D01*
X132286000Y-80487888D01*
X132286000Y-81564112D01*
X132281435Y-81610468D01*
X132269704Y-81649138D01*
X132250654Y-81684777D01*
X132225017Y-81716017D01*
X132193777Y-81741654D01*
X132158138Y-81760704D01*
X132119468Y-81772435D01*
X132073112Y-81777000D01*
X131421888Y-81777000D01*
X131375532Y-81772435D01*
X131336862Y-81760704D01*
X131301223Y-81741654D01*
X131269983Y-81716017D01*
X131244346Y-81684777D01*
X131225296Y-81649138D01*
X131213565Y-81610468D01*
X131209000Y-81564112D01*
X131209000Y-80487888D01*
X131213565Y-80441532D01*
X131225296Y-80402862D01*
X131244346Y-80367223D01*
X131269983Y-80335983D01*
X131301223Y-80310346D01*
X131336862Y-80291296D01*
X131375532Y-80279565D01*
X131421888Y-80275000D01*
X132073112Y-80275000D01*
X132119468Y-80279565D01*
X132119468Y-80279565D01*
G37*
G36*
X124220068Y-79873165D02*
G01*
X124258738Y-79884896D01*
X124294377Y-79903946D01*
X124325617Y-79929583D01*
X124351254Y-79960823D01*
X124370304Y-79996462D01*
X124382035Y-80035132D01*
X124386600Y-80081488D01*
X124386600Y-81157712D01*
X124382035Y-81204068D01*
X124370304Y-81242738D01*
X124351254Y-81278377D01*
X124325617Y-81309617D01*
X124294377Y-81335254D01*
X124258738Y-81354304D01*
X124220068Y-81366035D01*
X124173712Y-81370600D01*
X123522488Y-81370600D01*
X123476132Y-81366035D01*
X123437462Y-81354304D01*
X123401823Y-81335254D01*
X123370583Y-81309617D01*
X123344946Y-81278377D01*
X123325896Y-81242738D01*
X123314165Y-81204068D01*
X123309600Y-81157712D01*
X123309600Y-80081488D01*
X123314165Y-80035132D01*
X123325896Y-79996462D01*
X123344946Y-79960823D01*
X123370583Y-79929583D01*
X123401823Y-79903946D01*
X123437462Y-79884896D01*
X123476132Y-79873165D01*
X123522488Y-79868600D01*
X124173712Y-79868600D01*
X124220068Y-79873165D01*
X124220068Y-79873165D01*
G37*
G36*
X122345068Y-79873165D02*
G01*
X122383738Y-79884896D01*
X122419377Y-79903946D01*
X122450617Y-79929583D01*
X122476254Y-79960823D01*
X122495304Y-79996462D01*
X122507035Y-80035132D01*
X122511600Y-80081488D01*
X122511600Y-81157712D01*
X122507035Y-81204068D01*
X122495304Y-81242738D01*
X122476254Y-81278377D01*
X122450617Y-81309617D01*
X122419377Y-81335254D01*
X122383738Y-81354304D01*
X122345068Y-81366035D01*
X122298712Y-81370600D01*
X121647488Y-81370600D01*
X121601132Y-81366035D01*
X121562462Y-81354304D01*
X121526823Y-81335254D01*
X121495583Y-81309617D01*
X121469946Y-81278377D01*
X121450896Y-81242738D01*
X121439165Y-81204068D01*
X121434600Y-81157712D01*
X121434600Y-80081488D01*
X121439165Y-80035132D01*
X121450896Y-79996462D01*
X121469946Y-79960823D01*
X121495583Y-79929583D01*
X121526823Y-79903946D01*
X121562462Y-79884896D01*
X121601132Y-79873165D01*
X121647488Y-79868600D01*
X122298712Y-79868600D01*
X122345068Y-79873165D01*
X122345068Y-79873165D01*
G37*
G36*
X139485468Y-78501565D02*
G01*
X139524138Y-78513296D01*
X139559777Y-78532346D01*
X139591017Y-78557983D01*
X139616654Y-78589223D01*
X139635704Y-78624862D01*
X139647435Y-78663532D01*
X139652000Y-78709888D01*
X139652000Y-79786112D01*
X139647435Y-79832468D01*
X139635704Y-79871138D01*
X139616654Y-79906777D01*
X139591017Y-79938017D01*
X139559777Y-79963654D01*
X139524138Y-79982704D01*
X139485468Y-79994435D01*
X139439112Y-79999000D01*
X138787888Y-79999000D01*
X138741532Y-79994435D01*
X138702862Y-79982704D01*
X138667223Y-79963654D01*
X138635983Y-79938017D01*
X138610346Y-79906777D01*
X138591296Y-79871138D01*
X138579565Y-79832468D01*
X138575000Y-79786112D01*
X138575000Y-78709888D01*
X138579565Y-78663532D01*
X138591296Y-78624862D01*
X138610346Y-78589223D01*
X138635983Y-78557983D01*
X138667223Y-78532346D01*
X138702862Y-78513296D01*
X138741532Y-78501565D01*
X138787888Y-78497000D01*
X139439112Y-78497000D01*
X139485468Y-78501565D01*
X139485468Y-78501565D01*
G37*
G36*
X137610468Y-78501565D02*
G01*
X137649138Y-78513296D01*
X137684777Y-78532346D01*
X137716017Y-78557983D01*
X137741654Y-78589223D01*
X137760704Y-78624862D01*
X137772435Y-78663532D01*
X137777000Y-78709888D01*
X137777000Y-79786112D01*
X137772435Y-79832468D01*
X137760704Y-79871138D01*
X137741654Y-79906777D01*
X137716017Y-79938017D01*
X137684777Y-79963654D01*
X137649138Y-79982704D01*
X137610468Y-79994435D01*
X137564112Y-79999000D01*
X136912888Y-79999000D01*
X136866532Y-79994435D01*
X136827862Y-79982704D01*
X136792223Y-79963654D01*
X136760983Y-79938017D01*
X136735346Y-79906777D01*
X136716296Y-79871138D01*
X136704565Y-79832468D01*
X136700000Y-79786112D01*
X136700000Y-78709888D01*
X136704565Y-78663532D01*
X136716296Y-78624862D01*
X136735346Y-78589223D01*
X136760983Y-78557983D01*
X136792223Y-78532346D01*
X136827862Y-78513296D01*
X136866532Y-78501565D01*
X136912888Y-78497000D01*
X137564112Y-78497000D01*
X137610468Y-78501565D01*
X137610468Y-78501565D01*
G37*
G36*
X135011000Y-78825000D02*
G01*
X133709000Y-78825000D01*
X133709000Y-76523000D01*
X135011000Y-76523000D01*
X135011000Y-78825000D01*
X135011000Y-78825000D01*
G37*
G36*
X130451000Y-78825000D02*
G01*
X129149000Y-78825000D01*
X129149000Y-76523000D01*
X130451000Y-76523000D01*
X130451000Y-78825000D01*
X130451000Y-78825000D01*
G37*
G36*
X132731000Y-78825000D02*
G01*
X131429000Y-78825000D01*
X131429000Y-76523000D01*
X132731000Y-76523000D01*
X132731000Y-78825000D01*
X132731000Y-78825000D01*
G37*
G36*
X124858000Y-78722000D02*
G01*
X123556000Y-78722000D01*
X123556000Y-76420000D01*
X124858000Y-76420000D01*
X124858000Y-78722000D01*
X124858000Y-78722000D01*
G37*
G36*
X122578000Y-78722000D02*
G01*
X121276000Y-78722000D01*
X121276000Y-76420000D01*
X122578000Y-76420000D01*
X122578000Y-78722000D01*
X122578000Y-78722000D01*
G37*
G36*
X127138000Y-78722000D02*
G01*
X125836000Y-78722000D01*
X125836000Y-76420000D01*
X127138000Y-76420000D01*
X127138000Y-78722000D01*
X127138000Y-78722000D01*
G37*
G36*
X115200000Y-78674000D02*
G01*
X113898000Y-78674000D01*
X113898000Y-76372000D01*
X115200000Y-76372000D01*
X115200000Y-78674000D01*
X115200000Y-78674000D01*
G37*
G36*
X112920000Y-78674000D02*
G01*
X111618000Y-78674000D01*
X111618000Y-76372000D01*
X112920000Y-76372000D01*
X112920000Y-78674000D01*
X112920000Y-78674000D01*
G37*
G36*
X110640000Y-78674000D02*
G01*
X109338000Y-78674000D01*
X109338000Y-76372000D01*
X110640000Y-76372000D01*
X110640000Y-78674000D01*
X110640000Y-78674000D01*
G37*
G36*
X95590200Y-78394600D02*
G01*
X94288200Y-78394600D01*
X94288200Y-76092600D01*
X95590200Y-76092600D01*
X95590200Y-78394600D01*
X95590200Y-78394600D01*
G37*
G36*
X91030200Y-78394600D02*
G01*
X89728200Y-78394600D01*
X89728200Y-76092600D01*
X91030200Y-76092600D01*
X91030200Y-78394600D01*
X91030200Y-78394600D01*
G37*
G36*
X103337200Y-78366400D02*
G01*
X102035200Y-78366400D01*
X102035200Y-76064400D01*
X103337200Y-76064400D01*
X103337200Y-78366400D01*
X103337200Y-78366400D01*
G37*
G36*
X98777200Y-78366400D02*
G01*
X97475200Y-78366400D01*
X97475200Y-76064400D01*
X98777200Y-76064400D01*
X98777200Y-78366400D01*
X98777200Y-78366400D01*
G37*
G36*
X140109000Y-77889000D02*
G01*
X138307000Y-77889000D01*
X138307000Y-76487000D01*
X140109000Y-76487000D01*
X140109000Y-77889000D01*
X140109000Y-77889000D01*
G37*
G36*
X165938468Y-75841565D02*
G01*
X165977138Y-75853296D01*
X166012777Y-75872346D01*
X166044017Y-75897983D01*
X166069654Y-75929223D01*
X166088704Y-75964862D01*
X166100435Y-76003532D01*
X166105000Y-76049888D01*
X166105000Y-76701112D01*
X166100435Y-76747468D01*
X166088704Y-76786138D01*
X166069654Y-76821777D01*
X166044017Y-76853017D01*
X166012777Y-76878654D01*
X165977138Y-76897704D01*
X165938468Y-76909435D01*
X165892112Y-76914000D01*
X164815888Y-76914000D01*
X164769532Y-76909435D01*
X164730862Y-76897704D01*
X164695223Y-76878654D01*
X164663983Y-76853017D01*
X164638346Y-76821777D01*
X164619296Y-76786138D01*
X164607565Y-76747468D01*
X164603000Y-76701112D01*
X164603000Y-76049888D01*
X164607565Y-76003532D01*
X164619296Y-75964862D01*
X164638346Y-75929223D01*
X164663983Y-75897983D01*
X164695223Y-75872346D01*
X164730862Y-75853296D01*
X164769532Y-75841565D01*
X164815888Y-75837000D01*
X165892112Y-75837000D01*
X165938468Y-75841565D01*
X165938468Y-75841565D01*
G37*
G36*
X162061000Y-76839000D02*
G01*
X161059000Y-76839000D01*
X161059000Y-75937000D01*
X162061000Y-75937000D01*
X162061000Y-76839000D01*
X162061000Y-76839000D01*
G37*
G36*
X149869000Y-76839000D02*
G01*
X148867000Y-76839000D01*
X148867000Y-75937000D01*
X149869000Y-75937000D01*
X149869000Y-76839000D01*
X149869000Y-76839000D01*
G37*
G36*
X145805000Y-76839000D02*
G01*
X144803000Y-76839000D01*
X144803000Y-75937000D01*
X145805000Y-75937000D01*
X145805000Y-76839000D01*
X145805000Y-76839000D01*
G37*
G36*
X153933000Y-76839000D02*
G01*
X152931000Y-76839000D01*
X152931000Y-75937000D01*
X153933000Y-75937000D01*
X153933000Y-76839000D01*
X153933000Y-76839000D01*
G37*
G36*
X141741000Y-76839000D02*
G01*
X140739000Y-76839000D01*
X140739000Y-75937000D01*
X141741000Y-75937000D01*
X141741000Y-76839000D01*
X141741000Y-76839000D01*
G37*
G36*
X157997000Y-76839000D02*
G01*
X156995000Y-76839000D01*
X156995000Y-75937000D01*
X157997000Y-75937000D01*
X157997000Y-76839000D01*
X157997000Y-76839000D01*
G37*
G36*
X147805000Y-75889000D02*
G01*
X146803000Y-75889000D01*
X146803000Y-74987000D01*
X147805000Y-74987000D01*
X147805000Y-75889000D01*
X147805000Y-75889000D01*
G37*
G36*
X143741000Y-75889000D02*
G01*
X142739000Y-75889000D01*
X142739000Y-74987000D01*
X143741000Y-74987000D01*
X143741000Y-75889000D01*
X143741000Y-75889000D01*
G37*
G36*
X159997000Y-75889000D02*
G01*
X158995000Y-75889000D01*
X158995000Y-74987000D01*
X159997000Y-74987000D01*
X159997000Y-75889000D01*
X159997000Y-75889000D01*
G37*
G36*
X164061000Y-75889000D02*
G01*
X163059000Y-75889000D01*
X163059000Y-74987000D01*
X164061000Y-74987000D01*
X164061000Y-75889000D01*
X164061000Y-75889000D01*
G37*
G36*
X151869000Y-75889000D02*
G01*
X150867000Y-75889000D01*
X150867000Y-74987000D01*
X151869000Y-74987000D01*
X151869000Y-75889000D01*
X151869000Y-75889000D01*
G37*
G36*
X155933000Y-75889000D02*
G01*
X154931000Y-75889000D01*
X154931000Y-74987000D01*
X155933000Y-74987000D01*
X155933000Y-75889000D01*
X155933000Y-75889000D01*
G37*
G36*
X165938468Y-73966565D02*
G01*
X165977138Y-73978296D01*
X166012777Y-73997346D01*
X166044017Y-74022983D01*
X166069654Y-74054223D01*
X166088704Y-74089862D01*
X166100435Y-74128532D01*
X166105000Y-74174888D01*
X166105000Y-74826112D01*
X166100435Y-74872468D01*
X166088704Y-74911138D01*
X166069654Y-74946777D01*
X166044017Y-74978017D01*
X166012777Y-75003654D01*
X165977138Y-75022704D01*
X165938468Y-75034435D01*
X165892112Y-75039000D01*
X164815888Y-75039000D01*
X164769532Y-75034435D01*
X164730862Y-75022704D01*
X164695223Y-75003654D01*
X164663983Y-74978017D01*
X164638346Y-74946777D01*
X164619296Y-74911138D01*
X164607565Y-74872468D01*
X164603000Y-74826112D01*
X164603000Y-74174888D01*
X164607565Y-74128532D01*
X164619296Y-74089862D01*
X164638346Y-74054223D01*
X164663983Y-74022983D01*
X164695223Y-73997346D01*
X164730862Y-73978296D01*
X164769532Y-73966565D01*
X164815888Y-73962000D01*
X165892112Y-73962000D01*
X165938468Y-73966565D01*
X165938468Y-73966565D01*
G37*
G36*
X149869000Y-74939000D02*
G01*
X148867000Y-74939000D01*
X148867000Y-74037000D01*
X149869000Y-74037000D01*
X149869000Y-74939000D01*
X149869000Y-74939000D01*
G37*
G36*
X153933000Y-74939000D02*
G01*
X152931000Y-74939000D01*
X152931000Y-74037000D01*
X153933000Y-74037000D01*
X153933000Y-74939000D01*
X153933000Y-74939000D01*
G37*
G36*
X157997000Y-74939000D02*
G01*
X156995000Y-74939000D01*
X156995000Y-74037000D01*
X157997000Y-74037000D01*
X157997000Y-74939000D01*
X157997000Y-74939000D01*
G37*
G36*
X162061000Y-74939000D02*
G01*
X161059000Y-74939000D01*
X161059000Y-74037000D01*
X162061000Y-74037000D01*
X162061000Y-74939000D01*
X162061000Y-74939000D01*
G37*
G36*
X141741000Y-74939000D02*
G01*
X140739000Y-74939000D01*
X140739000Y-74037000D01*
X141741000Y-74037000D01*
X141741000Y-74939000D01*
X141741000Y-74939000D01*
G37*
G36*
X145805000Y-74939000D02*
G01*
X144803000Y-74939000D01*
X144803000Y-74037000D01*
X145805000Y-74037000D01*
X145805000Y-74939000D01*
X145805000Y-74939000D01*
G37*
G36*
X135031000Y-74625000D02*
G01*
X129129000Y-74625000D01*
X129129000Y-68123000D01*
X135031000Y-68123000D01*
X135031000Y-74625000D01*
X135031000Y-74625000D01*
G37*
G36*
X127158000Y-74522000D02*
G01*
X121256000Y-74522000D01*
X121256000Y-68020000D01*
X127158000Y-68020000D01*
X127158000Y-74522000D01*
X127158000Y-74522000D01*
G37*
G36*
X115220000Y-74474000D02*
G01*
X109318000Y-74474000D01*
X109318000Y-67972000D01*
X115220000Y-67972000D01*
X115220000Y-74474000D01*
X115220000Y-74474000D01*
G37*
G36*
X140109000Y-74389000D02*
G01*
X138307000Y-74389000D01*
X138307000Y-72987000D01*
X140109000Y-72987000D01*
X140109000Y-74389000D01*
X140109000Y-74389000D01*
G37*
G36*
X95610200Y-74194600D02*
G01*
X89708200Y-74194600D01*
X89708200Y-67692600D01*
X95610200Y-67692600D01*
X95610200Y-74194600D01*
X95610200Y-74194600D01*
G37*
G36*
X103357200Y-74166400D02*
G01*
X97455200Y-74166400D01*
X97455200Y-67664400D01*
X103357200Y-67664400D01*
X103357200Y-74166400D01*
X103357200Y-74166400D01*
G37*
G36*
X157519468Y-71897565D02*
G01*
X157558138Y-71909296D01*
X157593777Y-71928346D01*
X157625017Y-71953983D01*
X157650654Y-71985223D01*
X157669704Y-72020862D01*
X157681435Y-72059532D01*
X157686000Y-72105888D01*
X157686000Y-73182112D01*
X157681435Y-73228468D01*
X157669704Y-73267138D01*
X157650654Y-73302777D01*
X157625017Y-73334017D01*
X157593777Y-73359654D01*
X157558138Y-73378704D01*
X157519468Y-73390435D01*
X157473112Y-73395000D01*
X156821888Y-73395000D01*
X156775532Y-73390435D01*
X156736862Y-73378704D01*
X156701223Y-73359654D01*
X156669983Y-73334017D01*
X156644346Y-73302777D01*
X156625296Y-73267138D01*
X156613565Y-73228468D01*
X156609000Y-73182112D01*
X156609000Y-72105888D01*
X156613565Y-72059532D01*
X156625296Y-72020862D01*
X156644346Y-71985223D01*
X156669983Y-71953983D01*
X156701223Y-71928346D01*
X156736862Y-71909296D01*
X156775532Y-71897565D01*
X156821888Y-71893000D01*
X157473112Y-71893000D01*
X157519468Y-71897565D01*
X157519468Y-71897565D01*
G37*
G36*
X165647468Y-71897565D02*
G01*
X165686138Y-71909296D01*
X165721777Y-71928346D01*
X165753017Y-71953983D01*
X165778654Y-71985223D01*
X165797704Y-72020862D01*
X165809435Y-72059532D01*
X165814000Y-72105888D01*
X165814000Y-73182112D01*
X165809435Y-73228468D01*
X165797704Y-73267138D01*
X165778654Y-73302777D01*
X165753017Y-73334017D01*
X165721777Y-73359654D01*
X165686138Y-73378704D01*
X165647468Y-73390435D01*
X165601112Y-73395000D01*
X164949888Y-73395000D01*
X164903532Y-73390435D01*
X164864862Y-73378704D01*
X164829223Y-73359654D01*
X164797983Y-73334017D01*
X164772346Y-73302777D01*
X164753296Y-73267138D01*
X164741565Y-73228468D01*
X164737000Y-73182112D01*
X164737000Y-72105888D01*
X164741565Y-72059532D01*
X164753296Y-72020862D01*
X164772346Y-71985223D01*
X164797983Y-71953983D01*
X164829223Y-71928346D01*
X164864862Y-71909296D01*
X164903532Y-71897565D01*
X164949888Y-71893000D01*
X165601112Y-71893000D01*
X165647468Y-71897565D01*
X165647468Y-71897565D01*
G37*
G36*
X163772468Y-71897565D02*
G01*
X163811138Y-71909296D01*
X163846777Y-71928346D01*
X163878017Y-71953983D01*
X163903654Y-71985223D01*
X163922704Y-72020862D01*
X163934435Y-72059532D01*
X163939000Y-72105888D01*
X163939000Y-73182112D01*
X163934435Y-73228468D01*
X163922704Y-73267138D01*
X163903654Y-73302777D01*
X163878017Y-73334017D01*
X163846777Y-73359654D01*
X163811138Y-73378704D01*
X163772468Y-73390435D01*
X163726112Y-73395000D01*
X163074888Y-73395000D01*
X163028532Y-73390435D01*
X162989862Y-73378704D01*
X162954223Y-73359654D01*
X162922983Y-73334017D01*
X162897346Y-73302777D01*
X162878296Y-73267138D01*
X162866565Y-73228468D01*
X162862000Y-73182112D01*
X162862000Y-72105888D01*
X162866565Y-72059532D01*
X162878296Y-72020862D01*
X162897346Y-71985223D01*
X162922983Y-71953983D01*
X162954223Y-71928346D01*
X162989862Y-71909296D01*
X163028532Y-71897565D01*
X163074888Y-71893000D01*
X163726112Y-71893000D01*
X163772468Y-71897565D01*
X163772468Y-71897565D01*
G37*
G36*
X161583468Y-71897565D02*
G01*
X161622138Y-71909296D01*
X161657777Y-71928346D01*
X161689017Y-71953983D01*
X161714654Y-71985223D01*
X161733704Y-72020862D01*
X161745435Y-72059532D01*
X161750000Y-72105888D01*
X161750000Y-73182112D01*
X161745435Y-73228468D01*
X161733704Y-73267138D01*
X161714654Y-73302777D01*
X161689017Y-73334017D01*
X161657777Y-73359654D01*
X161622138Y-73378704D01*
X161583468Y-73390435D01*
X161537112Y-73395000D01*
X160885888Y-73395000D01*
X160839532Y-73390435D01*
X160800862Y-73378704D01*
X160765223Y-73359654D01*
X160733983Y-73334017D01*
X160708346Y-73302777D01*
X160689296Y-73267138D01*
X160677565Y-73228468D01*
X160673000Y-73182112D01*
X160673000Y-72105888D01*
X160677565Y-72059532D01*
X160689296Y-72020862D01*
X160708346Y-71985223D01*
X160733983Y-71953983D01*
X160765223Y-71928346D01*
X160800862Y-71909296D01*
X160839532Y-71897565D01*
X160885888Y-71893000D01*
X161537112Y-71893000D01*
X161583468Y-71897565D01*
X161583468Y-71897565D01*
G37*
G36*
X159708468Y-71897565D02*
G01*
X159747138Y-71909296D01*
X159782777Y-71928346D01*
X159814017Y-71953983D01*
X159839654Y-71985223D01*
X159858704Y-72020862D01*
X159870435Y-72059532D01*
X159875000Y-72105888D01*
X159875000Y-73182112D01*
X159870435Y-73228468D01*
X159858704Y-73267138D01*
X159839654Y-73302777D01*
X159814017Y-73334017D01*
X159782777Y-73359654D01*
X159747138Y-73378704D01*
X159708468Y-73390435D01*
X159662112Y-73395000D01*
X159010888Y-73395000D01*
X158964532Y-73390435D01*
X158925862Y-73378704D01*
X158890223Y-73359654D01*
X158858983Y-73334017D01*
X158833346Y-73302777D01*
X158814296Y-73267138D01*
X158802565Y-73228468D01*
X158798000Y-73182112D01*
X158798000Y-72105888D01*
X158802565Y-72059532D01*
X158814296Y-72020862D01*
X158833346Y-71985223D01*
X158858983Y-71953983D01*
X158890223Y-71928346D01*
X158925862Y-71909296D01*
X158964532Y-71897565D01*
X159010888Y-71893000D01*
X159662112Y-71893000D01*
X159708468Y-71897565D01*
X159708468Y-71897565D01*
G37*
G36*
X153455468Y-71897565D02*
G01*
X153494138Y-71909296D01*
X153529777Y-71928346D01*
X153561017Y-71953983D01*
X153586654Y-71985223D01*
X153605704Y-72020862D01*
X153617435Y-72059532D01*
X153622000Y-72105888D01*
X153622000Y-73182112D01*
X153617435Y-73228468D01*
X153605704Y-73267138D01*
X153586654Y-73302777D01*
X153561017Y-73334017D01*
X153529777Y-73359654D01*
X153494138Y-73378704D01*
X153455468Y-73390435D01*
X153409112Y-73395000D01*
X152757888Y-73395000D01*
X152711532Y-73390435D01*
X152672862Y-73378704D01*
X152637223Y-73359654D01*
X152605983Y-73334017D01*
X152580346Y-73302777D01*
X152561296Y-73267138D01*
X152549565Y-73228468D01*
X152545000Y-73182112D01*
X152545000Y-72105888D01*
X152549565Y-72059532D01*
X152561296Y-72020862D01*
X152580346Y-71985223D01*
X152605983Y-71953983D01*
X152637223Y-71928346D01*
X152672862Y-71909296D01*
X152711532Y-71897565D01*
X152757888Y-71893000D01*
X153409112Y-71893000D01*
X153455468Y-71897565D01*
X153455468Y-71897565D01*
G37*
G36*
X151580468Y-71897565D02*
G01*
X151619138Y-71909296D01*
X151654777Y-71928346D01*
X151686017Y-71953983D01*
X151711654Y-71985223D01*
X151730704Y-72020862D01*
X151742435Y-72059532D01*
X151747000Y-72105888D01*
X151747000Y-73182112D01*
X151742435Y-73228468D01*
X151730704Y-73267138D01*
X151711654Y-73302777D01*
X151686017Y-73334017D01*
X151654777Y-73359654D01*
X151619138Y-73378704D01*
X151580468Y-73390435D01*
X151534112Y-73395000D01*
X150882888Y-73395000D01*
X150836532Y-73390435D01*
X150797862Y-73378704D01*
X150762223Y-73359654D01*
X150730983Y-73334017D01*
X150705346Y-73302777D01*
X150686296Y-73267138D01*
X150674565Y-73228468D01*
X150670000Y-73182112D01*
X150670000Y-72105888D01*
X150674565Y-72059532D01*
X150686296Y-72020862D01*
X150705346Y-71985223D01*
X150730983Y-71953983D01*
X150762223Y-71928346D01*
X150797862Y-71909296D01*
X150836532Y-71897565D01*
X150882888Y-71893000D01*
X151534112Y-71893000D01*
X151580468Y-71897565D01*
X151580468Y-71897565D01*
G37*
G36*
X149391468Y-71897565D02*
G01*
X149430138Y-71909296D01*
X149465777Y-71928346D01*
X149497017Y-71953983D01*
X149522654Y-71985223D01*
X149541704Y-72020862D01*
X149553435Y-72059532D01*
X149558000Y-72105888D01*
X149558000Y-73182112D01*
X149553435Y-73228468D01*
X149541704Y-73267138D01*
X149522654Y-73302777D01*
X149497017Y-73334017D01*
X149465777Y-73359654D01*
X149430138Y-73378704D01*
X149391468Y-73390435D01*
X149345112Y-73395000D01*
X148693888Y-73395000D01*
X148647532Y-73390435D01*
X148608862Y-73378704D01*
X148573223Y-73359654D01*
X148541983Y-73334017D01*
X148516346Y-73302777D01*
X148497296Y-73267138D01*
X148485565Y-73228468D01*
X148481000Y-73182112D01*
X148481000Y-72105888D01*
X148485565Y-72059532D01*
X148497296Y-72020862D01*
X148516346Y-71985223D01*
X148541983Y-71953983D01*
X148573223Y-71928346D01*
X148608862Y-71909296D01*
X148647532Y-71897565D01*
X148693888Y-71893000D01*
X149345112Y-71893000D01*
X149391468Y-71897565D01*
X149391468Y-71897565D01*
G37*
G36*
X147516468Y-71897565D02*
G01*
X147555138Y-71909296D01*
X147590777Y-71928346D01*
X147622017Y-71953983D01*
X147647654Y-71985223D01*
X147666704Y-72020862D01*
X147678435Y-72059532D01*
X147683000Y-72105888D01*
X147683000Y-73182112D01*
X147678435Y-73228468D01*
X147666704Y-73267138D01*
X147647654Y-73302777D01*
X147622017Y-73334017D01*
X147590777Y-73359654D01*
X147555138Y-73378704D01*
X147516468Y-73390435D01*
X147470112Y-73395000D01*
X146818888Y-73395000D01*
X146772532Y-73390435D01*
X146733862Y-73378704D01*
X146698223Y-73359654D01*
X146666983Y-73334017D01*
X146641346Y-73302777D01*
X146622296Y-73267138D01*
X146610565Y-73228468D01*
X146606000Y-73182112D01*
X146606000Y-72105888D01*
X146610565Y-72059532D01*
X146622296Y-72020862D01*
X146641346Y-71985223D01*
X146666983Y-71953983D01*
X146698223Y-71928346D01*
X146733862Y-71909296D01*
X146772532Y-71897565D01*
X146818888Y-71893000D01*
X147470112Y-71893000D01*
X147516468Y-71897565D01*
X147516468Y-71897565D01*
G37*
G36*
X145327468Y-71897565D02*
G01*
X145366138Y-71909296D01*
X145401777Y-71928346D01*
X145433017Y-71953983D01*
X145458654Y-71985223D01*
X145477704Y-72020862D01*
X145489435Y-72059532D01*
X145494000Y-72105888D01*
X145494000Y-73182112D01*
X145489435Y-73228468D01*
X145477704Y-73267138D01*
X145458654Y-73302777D01*
X145433017Y-73334017D01*
X145401777Y-73359654D01*
X145366138Y-73378704D01*
X145327468Y-73390435D01*
X145281112Y-73395000D01*
X144629888Y-73395000D01*
X144583532Y-73390435D01*
X144544862Y-73378704D01*
X144509223Y-73359654D01*
X144477983Y-73334017D01*
X144452346Y-73302777D01*
X144433296Y-73267138D01*
X144421565Y-73228468D01*
X144417000Y-73182112D01*
X144417000Y-72105888D01*
X144421565Y-72059532D01*
X144433296Y-72020862D01*
X144452346Y-71985223D01*
X144477983Y-71953983D01*
X144509223Y-71928346D01*
X144544862Y-71909296D01*
X144583532Y-71897565D01*
X144629888Y-71893000D01*
X145281112Y-71893000D01*
X145327468Y-71897565D01*
X145327468Y-71897565D01*
G37*
G36*
X143452468Y-71897565D02*
G01*
X143491138Y-71909296D01*
X143526777Y-71928346D01*
X143558017Y-71953983D01*
X143583654Y-71985223D01*
X143602704Y-72020862D01*
X143614435Y-72059532D01*
X143619000Y-72105888D01*
X143619000Y-73182112D01*
X143614435Y-73228468D01*
X143602704Y-73267138D01*
X143583654Y-73302777D01*
X143558017Y-73334017D01*
X143526777Y-73359654D01*
X143491138Y-73378704D01*
X143452468Y-73390435D01*
X143406112Y-73395000D01*
X142754888Y-73395000D01*
X142708532Y-73390435D01*
X142669862Y-73378704D01*
X142634223Y-73359654D01*
X142602983Y-73334017D01*
X142577346Y-73302777D01*
X142558296Y-73267138D01*
X142546565Y-73228468D01*
X142542000Y-73182112D01*
X142542000Y-72105888D01*
X142546565Y-72059532D01*
X142558296Y-72020862D01*
X142577346Y-71985223D01*
X142602983Y-71953983D01*
X142634223Y-71928346D01*
X142669862Y-71909296D01*
X142708532Y-71897565D01*
X142754888Y-71893000D01*
X143406112Y-71893000D01*
X143452468Y-71897565D01*
X143452468Y-71897565D01*
G37*
G36*
X155644468Y-71897565D02*
G01*
X155683138Y-71909296D01*
X155718777Y-71928346D01*
X155750017Y-71953983D01*
X155775654Y-71985223D01*
X155794704Y-72020862D01*
X155806435Y-72059532D01*
X155811000Y-72105888D01*
X155811000Y-73182112D01*
X155806435Y-73228468D01*
X155794704Y-73267138D01*
X155775654Y-73302777D01*
X155750017Y-73334017D01*
X155718777Y-73359654D01*
X155683138Y-73378704D01*
X155644468Y-73390435D01*
X155598112Y-73395000D01*
X154946888Y-73395000D01*
X154900532Y-73390435D01*
X154861862Y-73378704D01*
X154826223Y-73359654D01*
X154794983Y-73334017D01*
X154769346Y-73302777D01*
X154750296Y-73267138D01*
X154738565Y-73228468D01*
X154734000Y-73182112D01*
X154734000Y-72105888D01*
X154738565Y-72059532D01*
X154750296Y-72020862D01*
X154769346Y-71985223D01*
X154794983Y-71953983D01*
X154826223Y-71928346D01*
X154861862Y-71909296D01*
X154900532Y-71897565D01*
X154946888Y-71893000D01*
X155598112Y-71893000D01*
X155644468Y-71897565D01*
X155644468Y-71897565D01*
G37*
G36*
X151580468Y-69865565D02*
G01*
X151619138Y-69877296D01*
X151654777Y-69896346D01*
X151686017Y-69921983D01*
X151711654Y-69953223D01*
X151730704Y-69988862D01*
X151742435Y-70027532D01*
X151747000Y-70073888D01*
X151747000Y-71150112D01*
X151742435Y-71196468D01*
X151730704Y-71235138D01*
X151711654Y-71270777D01*
X151686017Y-71302017D01*
X151654777Y-71327654D01*
X151619138Y-71346704D01*
X151580468Y-71358435D01*
X151534112Y-71363000D01*
X150882888Y-71363000D01*
X150836532Y-71358435D01*
X150797862Y-71346704D01*
X150762223Y-71327654D01*
X150730983Y-71302017D01*
X150705346Y-71270777D01*
X150686296Y-71235138D01*
X150674565Y-71196468D01*
X150670000Y-71150112D01*
X150670000Y-70073888D01*
X150674565Y-70027532D01*
X150686296Y-69988862D01*
X150705346Y-69953223D01*
X150730983Y-69921983D01*
X150762223Y-69896346D01*
X150797862Y-69877296D01*
X150836532Y-69865565D01*
X150882888Y-69861000D01*
X151534112Y-69861000D01*
X151580468Y-69865565D01*
X151580468Y-69865565D01*
G37*
G36*
X143452468Y-69865565D02*
G01*
X143491138Y-69877296D01*
X143526777Y-69896346D01*
X143558017Y-69921983D01*
X143583654Y-69953223D01*
X143602704Y-69988862D01*
X143614435Y-70027532D01*
X143619000Y-70073888D01*
X143619000Y-71150112D01*
X143614435Y-71196468D01*
X143602704Y-71235138D01*
X143583654Y-71270777D01*
X143558017Y-71302017D01*
X143526777Y-71327654D01*
X143491138Y-71346704D01*
X143452468Y-71358435D01*
X143406112Y-71363000D01*
X142754888Y-71363000D01*
X142708532Y-71358435D01*
X142669862Y-71346704D01*
X142634223Y-71327654D01*
X142602983Y-71302017D01*
X142577346Y-71270777D01*
X142558296Y-71235138D01*
X142546565Y-71196468D01*
X142542000Y-71150112D01*
X142542000Y-70073888D01*
X142546565Y-70027532D01*
X142558296Y-69988862D01*
X142577346Y-69953223D01*
X142602983Y-69921983D01*
X142634223Y-69896346D01*
X142669862Y-69877296D01*
X142708532Y-69865565D01*
X142754888Y-69861000D01*
X143406112Y-69861000D01*
X143452468Y-69865565D01*
X143452468Y-69865565D01*
G37*
G36*
X145327468Y-69865565D02*
G01*
X145366138Y-69877296D01*
X145401777Y-69896346D01*
X145433017Y-69921983D01*
X145458654Y-69953223D01*
X145477704Y-69988862D01*
X145489435Y-70027532D01*
X145494000Y-70073888D01*
X145494000Y-71150112D01*
X145489435Y-71196468D01*
X145477704Y-71235138D01*
X145458654Y-71270777D01*
X145433017Y-71302017D01*
X145401777Y-71327654D01*
X145366138Y-71346704D01*
X145327468Y-71358435D01*
X145281112Y-71363000D01*
X144629888Y-71363000D01*
X144583532Y-71358435D01*
X144544862Y-71346704D01*
X144509223Y-71327654D01*
X144477983Y-71302017D01*
X144452346Y-71270777D01*
X144433296Y-71235138D01*
X144421565Y-71196468D01*
X144417000Y-71150112D01*
X144417000Y-70073888D01*
X144421565Y-70027532D01*
X144433296Y-69988862D01*
X144452346Y-69953223D01*
X144477983Y-69921983D01*
X144509223Y-69896346D01*
X144544862Y-69877296D01*
X144583532Y-69865565D01*
X144629888Y-69861000D01*
X145281112Y-69861000D01*
X145327468Y-69865565D01*
X145327468Y-69865565D01*
G37*
G36*
X147516468Y-69865565D02*
G01*
X147555138Y-69877296D01*
X147590777Y-69896346D01*
X147622017Y-69921983D01*
X147647654Y-69953223D01*
X147666704Y-69988862D01*
X147678435Y-70027532D01*
X147683000Y-70073888D01*
X147683000Y-71150112D01*
X147678435Y-71196468D01*
X147666704Y-71235138D01*
X147647654Y-71270777D01*
X147622017Y-71302017D01*
X147590777Y-71327654D01*
X147555138Y-71346704D01*
X147516468Y-71358435D01*
X147470112Y-71363000D01*
X146818888Y-71363000D01*
X146772532Y-71358435D01*
X146733862Y-71346704D01*
X146698223Y-71327654D01*
X146666983Y-71302017D01*
X146641346Y-71270777D01*
X146622296Y-71235138D01*
X146610565Y-71196468D01*
X146606000Y-71150112D01*
X146606000Y-70073888D01*
X146610565Y-70027532D01*
X146622296Y-69988862D01*
X146641346Y-69953223D01*
X146666983Y-69921983D01*
X146698223Y-69896346D01*
X146733862Y-69877296D01*
X146772532Y-69865565D01*
X146818888Y-69861000D01*
X147470112Y-69861000D01*
X147516468Y-69865565D01*
X147516468Y-69865565D01*
G37*
G36*
X165647468Y-69865565D02*
G01*
X165686138Y-69877296D01*
X165721777Y-69896346D01*
X165753017Y-69921983D01*
X165778654Y-69953223D01*
X165797704Y-69988862D01*
X165809435Y-70027532D01*
X165814000Y-70073888D01*
X165814000Y-71150112D01*
X165809435Y-71196468D01*
X165797704Y-71235138D01*
X165778654Y-71270777D01*
X165753017Y-71302017D01*
X165721777Y-71327654D01*
X165686138Y-71346704D01*
X165647468Y-71358435D01*
X165601112Y-71363000D01*
X164949888Y-71363000D01*
X164903532Y-71358435D01*
X164864862Y-71346704D01*
X164829223Y-71327654D01*
X164797983Y-71302017D01*
X164772346Y-71270777D01*
X164753296Y-71235138D01*
X164741565Y-71196468D01*
X164737000Y-71150112D01*
X164737000Y-70073888D01*
X164741565Y-70027532D01*
X164753296Y-69988862D01*
X164772346Y-69953223D01*
X164797983Y-69921983D01*
X164829223Y-69896346D01*
X164864862Y-69877296D01*
X164903532Y-69865565D01*
X164949888Y-69861000D01*
X165601112Y-69861000D01*
X165647468Y-69865565D01*
X165647468Y-69865565D01*
G37*
G36*
X163772468Y-69865565D02*
G01*
X163811138Y-69877296D01*
X163846777Y-69896346D01*
X163878017Y-69921983D01*
X163903654Y-69953223D01*
X163922704Y-69988862D01*
X163934435Y-70027532D01*
X163939000Y-70073888D01*
X163939000Y-71150112D01*
X163934435Y-71196468D01*
X163922704Y-71235138D01*
X163903654Y-71270777D01*
X163878017Y-71302017D01*
X163846777Y-71327654D01*
X163811138Y-71346704D01*
X163772468Y-71358435D01*
X163726112Y-71363000D01*
X163074888Y-71363000D01*
X163028532Y-71358435D01*
X162989862Y-71346704D01*
X162954223Y-71327654D01*
X162922983Y-71302017D01*
X162897346Y-71270777D01*
X162878296Y-71235138D01*
X162866565Y-71196468D01*
X162862000Y-71150112D01*
X162862000Y-70073888D01*
X162866565Y-70027532D01*
X162878296Y-69988862D01*
X162897346Y-69953223D01*
X162922983Y-69921983D01*
X162954223Y-69896346D01*
X162989862Y-69877296D01*
X163028532Y-69865565D01*
X163074888Y-69861000D01*
X163726112Y-69861000D01*
X163772468Y-69865565D01*
X163772468Y-69865565D01*
G37*
G36*
X161583468Y-69865565D02*
G01*
X161622138Y-69877296D01*
X161657777Y-69896346D01*
X161689017Y-69921983D01*
X161714654Y-69953223D01*
X161733704Y-69988862D01*
X161745435Y-70027532D01*
X161750000Y-70073888D01*
X161750000Y-71150112D01*
X161745435Y-71196468D01*
X161733704Y-71235138D01*
X161714654Y-71270777D01*
X161689017Y-71302017D01*
X161657777Y-71327654D01*
X161622138Y-71346704D01*
X161583468Y-71358435D01*
X161537112Y-71363000D01*
X160885888Y-71363000D01*
X160839532Y-71358435D01*
X160800862Y-71346704D01*
X160765223Y-71327654D01*
X160733983Y-71302017D01*
X160708346Y-71270777D01*
X160689296Y-71235138D01*
X160677565Y-71196468D01*
X160673000Y-71150112D01*
X160673000Y-70073888D01*
X160677565Y-70027532D01*
X160689296Y-69988862D01*
X160708346Y-69953223D01*
X160733983Y-69921983D01*
X160765223Y-69896346D01*
X160800862Y-69877296D01*
X160839532Y-69865565D01*
X160885888Y-69861000D01*
X161537112Y-69861000D01*
X161583468Y-69865565D01*
X161583468Y-69865565D01*
G37*
G36*
X159708468Y-69865565D02*
G01*
X159747138Y-69877296D01*
X159782777Y-69896346D01*
X159814017Y-69921983D01*
X159839654Y-69953223D01*
X159858704Y-69988862D01*
X159870435Y-70027532D01*
X159875000Y-70073888D01*
X159875000Y-71150112D01*
X159870435Y-71196468D01*
X159858704Y-71235138D01*
X159839654Y-71270777D01*
X159814017Y-71302017D01*
X159782777Y-71327654D01*
X159747138Y-71346704D01*
X159708468Y-71358435D01*
X159662112Y-71363000D01*
X159010888Y-71363000D01*
X158964532Y-71358435D01*
X158925862Y-71346704D01*
X158890223Y-71327654D01*
X158858983Y-71302017D01*
X158833346Y-71270777D01*
X158814296Y-71235138D01*
X158802565Y-71196468D01*
X158798000Y-71150112D01*
X158798000Y-70073888D01*
X158802565Y-70027532D01*
X158814296Y-69988862D01*
X158833346Y-69953223D01*
X158858983Y-69921983D01*
X158890223Y-69896346D01*
X158925862Y-69877296D01*
X158964532Y-69865565D01*
X159010888Y-69861000D01*
X159662112Y-69861000D01*
X159708468Y-69865565D01*
X159708468Y-69865565D01*
G37*
G36*
X157519468Y-69865565D02*
G01*
X157558138Y-69877296D01*
X157593777Y-69896346D01*
X157625017Y-69921983D01*
X157650654Y-69953223D01*
X157669704Y-69988862D01*
X157681435Y-70027532D01*
X157686000Y-70073888D01*
X157686000Y-71150112D01*
X157681435Y-71196468D01*
X157669704Y-71235138D01*
X157650654Y-71270777D01*
X157625017Y-71302017D01*
X157593777Y-71327654D01*
X157558138Y-71346704D01*
X157519468Y-71358435D01*
X157473112Y-71363000D01*
X156821888Y-71363000D01*
X156775532Y-71358435D01*
X156736862Y-71346704D01*
X156701223Y-71327654D01*
X156669983Y-71302017D01*
X156644346Y-71270777D01*
X156625296Y-71235138D01*
X156613565Y-71196468D01*
X156609000Y-71150112D01*
X156609000Y-70073888D01*
X156613565Y-70027532D01*
X156625296Y-69988862D01*
X156644346Y-69953223D01*
X156669983Y-69921983D01*
X156701223Y-69896346D01*
X156736862Y-69877296D01*
X156775532Y-69865565D01*
X156821888Y-69861000D01*
X157473112Y-69861000D01*
X157519468Y-69865565D01*
X157519468Y-69865565D01*
G37*
G36*
X155644468Y-69865565D02*
G01*
X155683138Y-69877296D01*
X155718777Y-69896346D01*
X155750017Y-69921983D01*
X155775654Y-69953223D01*
X155794704Y-69988862D01*
X155806435Y-70027532D01*
X155811000Y-70073888D01*
X155811000Y-71150112D01*
X155806435Y-71196468D01*
X155794704Y-71235138D01*
X155775654Y-71270777D01*
X155750017Y-71302017D01*
X155718777Y-71327654D01*
X155683138Y-71346704D01*
X155644468Y-71358435D01*
X155598112Y-71363000D01*
X154946888Y-71363000D01*
X154900532Y-71358435D01*
X154861862Y-71346704D01*
X154826223Y-71327654D01*
X154794983Y-71302017D01*
X154769346Y-71270777D01*
X154750296Y-71235138D01*
X154738565Y-71196468D01*
X154734000Y-71150112D01*
X154734000Y-70073888D01*
X154738565Y-70027532D01*
X154750296Y-69988862D01*
X154769346Y-69953223D01*
X154794983Y-69921983D01*
X154826223Y-69896346D01*
X154861862Y-69877296D01*
X154900532Y-69865565D01*
X154946888Y-69861000D01*
X155598112Y-69861000D01*
X155644468Y-69865565D01*
X155644468Y-69865565D01*
G37*
G36*
X153455468Y-69865565D02*
G01*
X153494138Y-69877296D01*
X153529777Y-69896346D01*
X153561017Y-69921983D01*
X153586654Y-69953223D01*
X153605704Y-69988862D01*
X153617435Y-70027532D01*
X153622000Y-70073888D01*
X153622000Y-71150112D01*
X153617435Y-71196468D01*
X153605704Y-71235138D01*
X153586654Y-71270777D01*
X153561017Y-71302017D01*
X153529777Y-71327654D01*
X153494138Y-71346704D01*
X153455468Y-71358435D01*
X153409112Y-71363000D01*
X152757888Y-71363000D01*
X152711532Y-71358435D01*
X152672862Y-71346704D01*
X152637223Y-71327654D01*
X152605983Y-71302017D01*
X152580346Y-71270777D01*
X152561296Y-71235138D01*
X152549565Y-71196468D01*
X152545000Y-71150112D01*
X152545000Y-70073888D01*
X152549565Y-70027532D01*
X152561296Y-69988862D01*
X152580346Y-69953223D01*
X152605983Y-69921983D01*
X152637223Y-69896346D01*
X152672862Y-69877296D01*
X152711532Y-69865565D01*
X152757888Y-69861000D01*
X153409112Y-69861000D01*
X153455468Y-69865565D01*
X153455468Y-69865565D01*
G37*
G36*
X149391468Y-69865565D02*
G01*
X149430138Y-69877296D01*
X149465777Y-69896346D01*
X149497017Y-69921983D01*
X149522654Y-69953223D01*
X149541704Y-69988862D01*
X149553435Y-70027532D01*
X149558000Y-70073888D01*
X149558000Y-71150112D01*
X149553435Y-71196468D01*
X149541704Y-71235138D01*
X149522654Y-71270777D01*
X149497017Y-71302017D01*
X149465777Y-71327654D01*
X149430138Y-71346704D01*
X149391468Y-71358435D01*
X149345112Y-71363000D01*
X148693888Y-71363000D01*
X148647532Y-71358435D01*
X148608862Y-71346704D01*
X148573223Y-71327654D01*
X148541983Y-71302017D01*
X148516346Y-71270777D01*
X148497296Y-71235138D01*
X148485565Y-71196468D01*
X148481000Y-71150112D01*
X148481000Y-70073888D01*
X148485565Y-70027532D01*
X148497296Y-69988862D01*
X148516346Y-69953223D01*
X148541983Y-69921983D01*
X148573223Y-69896346D01*
X148608862Y-69877296D01*
X148647532Y-69865565D01*
X148693888Y-69861000D01*
X149345112Y-69861000D01*
X149391468Y-69865565D01*
X149391468Y-69865565D01*
G37*
G36*
X155644468Y-67833565D02*
G01*
X155683138Y-67845296D01*
X155718777Y-67864346D01*
X155750017Y-67889983D01*
X155775654Y-67921223D01*
X155794704Y-67956862D01*
X155806435Y-67995532D01*
X155811000Y-68041888D01*
X155811000Y-69118112D01*
X155806435Y-69164468D01*
X155794704Y-69203138D01*
X155775654Y-69238777D01*
X155750017Y-69270017D01*
X155718777Y-69295654D01*
X155683138Y-69314704D01*
X155644468Y-69326435D01*
X155598112Y-69331000D01*
X154946888Y-69331000D01*
X154900532Y-69326435D01*
X154861862Y-69314704D01*
X154826223Y-69295654D01*
X154794983Y-69270017D01*
X154769346Y-69238777D01*
X154750296Y-69203138D01*
X154738565Y-69164468D01*
X154734000Y-69118112D01*
X154734000Y-68041888D01*
X154738565Y-67995532D01*
X154750296Y-67956862D01*
X154769346Y-67921223D01*
X154794983Y-67889983D01*
X154826223Y-67864346D01*
X154861862Y-67845296D01*
X154900532Y-67833565D01*
X154946888Y-67829000D01*
X155598112Y-67829000D01*
X155644468Y-67833565D01*
X155644468Y-67833565D01*
G37*
G36*
X165647468Y-67833565D02*
G01*
X165686138Y-67845296D01*
X165721777Y-67864346D01*
X165753017Y-67889983D01*
X165778654Y-67921223D01*
X165797704Y-67956862D01*
X165809435Y-67995532D01*
X165814000Y-68041888D01*
X165814000Y-69118112D01*
X165809435Y-69164468D01*
X165797704Y-69203138D01*
X165778654Y-69238777D01*
X165753017Y-69270017D01*
X165721777Y-69295654D01*
X165686138Y-69314704D01*
X165647468Y-69326435D01*
X165601112Y-69331000D01*
X164949888Y-69331000D01*
X164903532Y-69326435D01*
X164864862Y-69314704D01*
X164829223Y-69295654D01*
X164797983Y-69270017D01*
X164772346Y-69238777D01*
X164753296Y-69203138D01*
X164741565Y-69164468D01*
X164737000Y-69118112D01*
X164737000Y-68041888D01*
X164741565Y-67995532D01*
X164753296Y-67956862D01*
X164772346Y-67921223D01*
X164797983Y-67889983D01*
X164829223Y-67864346D01*
X164864862Y-67845296D01*
X164903532Y-67833565D01*
X164949888Y-67829000D01*
X165601112Y-67829000D01*
X165647468Y-67833565D01*
X165647468Y-67833565D01*
G37*
G36*
X161583468Y-67833565D02*
G01*
X161622138Y-67845296D01*
X161657777Y-67864346D01*
X161689017Y-67889983D01*
X161714654Y-67921223D01*
X161733704Y-67956862D01*
X161745435Y-67995532D01*
X161750000Y-68041888D01*
X161750000Y-69118112D01*
X161745435Y-69164468D01*
X161733704Y-69203138D01*
X161714654Y-69238777D01*
X161689017Y-69270017D01*
X161657777Y-69295654D01*
X161622138Y-69314704D01*
X161583468Y-69326435D01*
X161537112Y-69331000D01*
X160885888Y-69331000D01*
X160839532Y-69326435D01*
X160800862Y-69314704D01*
X160765223Y-69295654D01*
X160733983Y-69270017D01*
X160708346Y-69238777D01*
X160689296Y-69203138D01*
X160677565Y-69164468D01*
X160673000Y-69118112D01*
X160673000Y-68041888D01*
X160677565Y-67995532D01*
X160689296Y-67956862D01*
X160708346Y-67921223D01*
X160733983Y-67889983D01*
X160765223Y-67864346D01*
X160800862Y-67845296D01*
X160839532Y-67833565D01*
X160885888Y-67829000D01*
X161537112Y-67829000D01*
X161583468Y-67833565D01*
X161583468Y-67833565D01*
G37*
G36*
X159708468Y-67833565D02*
G01*
X159747138Y-67845296D01*
X159782777Y-67864346D01*
X159814017Y-67889983D01*
X159839654Y-67921223D01*
X159858704Y-67956862D01*
X159870435Y-67995532D01*
X159875000Y-68041888D01*
X159875000Y-69118112D01*
X159870435Y-69164468D01*
X159858704Y-69203138D01*
X159839654Y-69238777D01*
X159814017Y-69270017D01*
X159782777Y-69295654D01*
X159747138Y-69314704D01*
X159708468Y-69326435D01*
X159662112Y-69331000D01*
X159010888Y-69331000D01*
X158964532Y-69326435D01*
X158925862Y-69314704D01*
X158890223Y-69295654D01*
X158858983Y-69270017D01*
X158833346Y-69238777D01*
X158814296Y-69203138D01*
X158802565Y-69164468D01*
X158798000Y-69118112D01*
X158798000Y-68041888D01*
X158802565Y-67995532D01*
X158814296Y-67956862D01*
X158833346Y-67921223D01*
X158858983Y-67889983D01*
X158890223Y-67864346D01*
X158925862Y-67845296D01*
X158964532Y-67833565D01*
X159010888Y-67829000D01*
X159662112Y-67829000D01*
X159708468Y-67833565D01*
X159708468Y-67833565D01*
G37*
G36*
X153455468Y-67833565D02*
G01*
X153494138Y-67845296D01*
X153529777Y-67864346D01*
X153561017Y-67889983D01*
X153586654Y-67921223D01*
X153605704Y-67956862D01*
X153617435Y-67995532D01*
X153622000Y-68041888D01*
X153622000Y-69118112D01*
X153617435Y-69164468D01*
X153605704Y-69203138D01*
X153586654Y-69238777D01*
X153561017Y-69270017D01*
X153529777Y-69295654D01*
X153494138Y-69314704D01*
X153455468Y-69326435D01*
X153409112Y-69331000D01*
X152757888Y-69331000D01*
X152711532Y-69326435D01*
X152672862Y-69314704D01*
X152637223Y-69295654D01*
X152605983Y-69270017D01*
X152580346Y-69238777D01*
X152561296Y-69203138D01*
X152549565Y-69164468D01*
X152545000Y-69118112D01*
X152545000Y-68041888D01*
X152549565Y-67995532D01*
X152561296Y-67956862D01*
X152580346Y-67921223D01*
X152605983Y-67889983D01*
X152637223Y-67864346D01*
X152672862Y-67845296D01*
X152711532Y-67833565D01*
X152757888Y-67829000D01*
X153409112Y-67829000D01*
X153455468Y-67833565D01*
X153455468Y-67833565D01*
G37*
G36*
X151580468Y-67833565D02*
G01*
X151619138Y-67845296D01*
X151654777Y-67864346D01*
X151686017Y-67889983D01*
X151711654Y-67921223D01*
X151730704Y-67956862D01*
X151742435Y-67995532D01*
X151747000Y-68041888D01*
X151747000Y-69118112D01*
X151742435Y-69164468D01*
X151730704Y-69203138D01*
X151711654Y-69238777D01*
X151686017Y-69270017D01*
X151654777Y-69295654D01*
X151619138Y-69314704D01*
X151580468Y-69326435D01*
X151534112Y-69331000D01*
X150882888Y-69331000D01*
X150836532Y-69326435D01*
X150797862Y-69314704D01*
X150762223Y-69295654D01*
X150730983Y-69270017D01*
X150705346Y-69238777D01*
X150686296Y-69203138D01*
X150674565Y-69164468D01*
X150670000Y-69118112D01*
X150670000Y-68041888D01*
X150674565Y-67995532D01*
X150686296Y-67956862D01*
X150705346Y-67921223D01*
X150730983Y-67889983D01*
X150762223Y-67864346D01*
X150797862Y-67845296D01*
X150836532Y-67833565D01*
X150882888Y-67829000D01*
X151534112Y-67829000D01*
X151580468Y-67833565D01*
X151580468Y-67833565D01*
G37*
G36*
X143452468Y-67833565D02*
G01*
X143491138Y-67845296D01*
X143526777Y-67864346D01*
X143558017Y-67889983D01*
X143583654Y-67921223D01*
X143602704Y-67956862D01*
X143614435Y-67995532D01*
X143619000Y-68041888D01*
X143619000Y-69118112D01*
X143614435Y-69164468D01*
X143602704Y-69203138D01*
X143583654Y-69238777D01*
X143558017Y-69270017D01*
X143526777Y-69295654D01*
X143491138Y-69314704D01*
X143452468Y-69326435D01*
X143406112Y-69331000D01*
X142754888Y-69331000D01*
X142708532Y-69326435D01*
X142669862Y-69314704D01*
X142634223Y-69295654D01*
X142602983Y-69270017D01*
X142577346Y-69238777D01*
X142558296Y-69203138D01*
X142546565Y-69164468D01*
X142542000Y-69118112D01*
X142542000Y-68041888D01*
X142546565Y-67995532D01*
X142558296Y-67956862D01*
X142577346Y-67921223D01*
X142602983Y-67889983D01*
X142634223Y-67864346D01*
X142669862Y-67845296D01*
X142708532Y-67833565D01*
X142754888Y-67829000D01*
X143406112Y-67829000D01*
X143452468Y-67833565D01*
X143452468Y-67833565D01*
G37*
G36*
X149391468Y-67833565D02*
G01*
X149430138Y-67845296D01*
X149465777Y-67864346D01*
X149497017Y-67889983D01*
X149522654Y-67921223D01*
X149541704Y-67956862D01*
X149553435Y-67995532D01*
X149558000Y-68041888D01*
X149558000Y-69118112D01*
X149553435Y-69164468D01*
X149541704Y-69203138D01*
X149522654Y-69238777D01*
X149497017Y-69270017D01*
X149465777Y-69295654D01*
X149430138Y-69314704D01*
X149391468Y-69326435D01*
X149345112Y-69331000D01*
X148693888Y-69331000D01*
X148647532Y-69326435D01*
X148608862Y-69314704D01*
X148573223Y-69295654D01*
X148541983Y-69270017D01*
X148516346Y-69238777D01*
X148497296Y-69203138D01*
X148485565Y-69164468D01*
X148481000Y-69118112D01*
X148481000Y-68041888D01*
X148485565Y-67995532D01*
X148497296Y-67956862D01*
X148516346Y-67921223D01*
X148541983Y-67889983D01*
X148573223Y-67864346D01*
X148608862Y-67845296D01*
X148647532Y-67833565D01*
X148693888Y-67829000D01*
X149345112Y-67829000D01*
X149391468Y-67833565D01*
X149391468Y-67833565D01*
G37*
G36*
X163772468Y-67833565D02*
G01*
X163811138Y-67845296D01*
X163846777Y-67864346D01*
X163878017Y-67889983D01*
X163903654Y-67921223D01*
X163922704Y-67956862D01*
X163934435Y-67995532D01*
X163939000Y-68041888D01*
X163939000Y-69118112D01*
X163934435Y-69164468D01*
X163922704Y-69203138D01*
X163903654Y-69238777D01*
X163878017Y-69270017D01*
X163846777Y-69295654D01*
X163811138Y-69314704D01*
X163772468Y-69326435D01*
X163726112Y-69331000D01*
X163074888Y-69331000D01*
X163028532Y-69326435D01*
X162989862Y-69314704D01*
X162954223Y-69295654D01*
X162922983Y-69270017D01*
X162897346Y-69238777D01*
X162878296Y-69203138D01*
X162866565Y-69164468D01*
X162862000Y-69118112D01*
X162862000Y-68041888D01*
X162866565Y-67995532D01*
X162878296Y-67956862D01*
X162897346Y-67921223D01*
X162922983Y-67889983D01*
X162954223Y-67864346D01*
X162989862Y-67845296D01*
X163028532Y-67833565D01*
X163074888Y-67829000D01*
X163726112Y-67829000D01*
X163772468Y-67833565D01*
X163772468Y-67833565D01*
G37*
G36*
X147516468Y-67833565D02*
G01*
X147555138Y-67845296D01*
X147590777Y-67864346D01*
X147622017Y-67889983D01*
X147647654Y-67921223D01*
X147666704Y-67956862D01*
X147678435Y-67995532D01*
X147683000Y-68041888D01*
X147683000Y-69118112D01*
X147678435Y-69164468D01*
X147666704Y-69203138D01*
X147647654Y-69238777D01*
X147622017Y-69270017D01*
X147590777Y-69295654D01*
X147555138Y-69314704D01*
X147516468Y-69326435D01*
X147470112Y-69331000D01*
X146818888Y-69331000D01*
X146772532Y-69326435D01*
X146733862Y-69314704D01*
X146698223Y-69295654D01*
X146666983Y-69270017D01*
X146641346Y-69238777D01*
X146622296Y-69203138D01*
X146610565Y-69164468D01*
X146606000Y-69118112D01*
X146606000Y-68041888D01*
X146610565Y-67995532D01*
X146622296Y-67956862D01*
X146641346Y-67921223D01*
X146666983Y-67889983D01*
X146698223Y-67864346D01*
X146733862Y-67845296D01*
X146772532Y-67833565D01*
X146818888Y-67829000D01*
X147470112Y-67829000D01*
X147516468Y-67833565D01*
X147516468Y-67833565D01*
G37*
G36*
X157519468Y-67833565D02*
G01*
X157558138Y-67845296D01*
X157593777Y-67864346D01*
X157625017Y-67889983D01*
X157650654Y-67921223D01*
X157669704Y-67956862D01*
X157681435Y-67995532D01*
X157686000Y-68041888D01*
X157686000Y-69118112D01*
X157681435Y-69164468D01*
X157669704Y-69203138D01*
X157650654Y-69238777D01*
X157625017Y-69270017D01*
X157593777Y-69295654D01*
X157558138Y-69314704D01*
X157519468Y-69326435D01*
X157473112Y-69331000D01*
X156821888Y-69331000D01*
X156775532Y-69326435D01*
X156736862Y-69314704D01*
X156701223Y-69295654D01*
X156669983Y-69270017D01*
X156644346Y-69238777D01*
X156625296Y-69203138D01*
X156613565Y-69164468D01*
X156609000Y-69118112D01*
X156609000Y-68041888D01*
X156613565Y-67995532D01*
X156625296Y-67956862D01*
X156644346Y-67921223D01*
X156669983Y-67889983D01*
X156701223Y-67864346D01*
X156736862Y-67845296D01*
X156775532Y-67833565D01*
X156821888Y-67829000D01*
X157473112Y-67829000D01*
X157519468Y-67833565D01*
X157519468Y-67833565D01*
G37*
G36*
X145327468Y-67833565D02*
G01*
X145366138Y-67845296D01*
X145401777Y-67864346D01*
X145433017Y-67889983D01*
X145458654Y-67921223D01*
X145477704Y-67956862D01*
X145489435Y-67995532D01*
X145494000Y-68041888D01*
X145494000Y-69118112D01*
X145489435Y-69164468D01*
X145477704Y-69203138D01*
X145458654Y-69238777D01*
X145433017Y-69270017D01*
X145401777Y-69295654D01*
X145366138Y-69314704D01*
X145327468Y-69326435D01*
X145281112Y-69331000D01*
X144629888Y-69331000D01*
X144583532Y-69326435D01*
X144544862Y-69314704D01*
X144509223Y-69295654D01*
X144477983Y-69270017D01*
X144452346Y-69238777D01*
X144433296Y-69203138D01*
X144421565Y-69164468D01*
X144417000Y-69118112D01*
X144417000Y-68041888D01*
X144421565Y-67995532D01*
X144433296Y-67956862D01*
X144452346Y-67921223D01*
X144477983Y-67889983D01*
X144509223Y-67864346D01*
X144544862Y-67845296D01*
X144583532Y-67833565D01*
X144629888Y-67829000D01*
X145281112Y-67829000D01*
X145327468Y-67833565D01*
X145327468Y-67833565D01*
G37*
G36*
X146905871Y-63623464D02*
G01*
X147100052Y-63703897D01*
X147100054Y-63703898D01*
X147274813Y-63820668D01*
X147423433Y-63969288D01*
X147540203Y-64144047D01*
X147540204Y-64144049D01*
X147620637Y-64338230D01*
X147661640Y-64544369D01*
X147661640Y-64754553D01*
X147620637Y-64960692D01*
X147550725Y-65129473D01*
X147540203Y-65154875D01*
X147423433Y-65329634D01*
X147274813Y-65478254D01*
X147100054Y-65595024D01*
X147100053Y-65595025D01*
X147100052Y-65595025D01*
X146905871Y-65675458D01*
X146699732Y-65716461D01*
X146489548Y-65716461D01*
X146283409Y-65675458D01*
X146089228Y-65595025D01*
X146089227Y-65595025D01*
X146089226Y-65595024D01*
X145914467Y-65478254D01*
X145765847Y-65329634D01*
X145649077Y-65154875D01*
X145638555Y-65129473D01*
X145568643Y-64960692D01*
X145527640Y-64754553D01*
X145527640Y-64544369D01*
X145568643Y-64338230D01*
X145649076Y-64144049D01*
X145649077Y-64144047D01*
X145765847Y-63969288D01*
X145914467Y-63820668D01*
X146089226Y-63703898D01*
X146089228Y-63703897D01*
X146283409Y-63623464D01*
X146489548Y-63582461D01*
X146699732Y-63582461D01*
X146905871Y-63623464D01*
X146905871Y-63623464D01*
G37*
G36*
X170705671Y-63623464D02*
G01*
X170899852Y-63703897D01*
X170899854Y-63703898D01*
X171074613Y-63820668D01*
X171223233Y-63969288D01*
X171340003Y-64144047D01*
X171340004Y-64144049D01*
X171420437Y-64338230D01*
X171461440Y-64544369D01*
X171461440Y-64754553D01*
X171420437Y-64960692D01*
X171350525Y-65129473D01*
X171340003Y-65154875D01*
X171223233Y-65329634D01*
X171074613Y-65478254D01*
X170899854Y-65595024D01*
X170899853Y-65595025D01*
X170899852Y-65595025D01*
X170705671Y-65675458D01*
X170499532Y-65716461D01*
X170289348Y-65716461D01*
X170083209Y-65675458D01*
X169889028Y-65595025D01*
X169889027Y-65595025D01*
X169889026Y-65595024D01*
X169714267Y-65478254D01*
X169565647Y-65329634D01*
X169448877Y-65154875D01*
X169438355Y-65129473D01*
X169368443Y-64960692D01*
X169327440Y-64754553D01*
X169327440Y-64544369D01*
X169368443Y-64338230D01*
X169448876Y-64144049D01*
X169448877Y-64144047D01*
X169565647Y-63969288D01*
X169714267Y-63820668D01*
X169889026Y-63703898D01*
X169889028Y-63703897D01*
X170083209Y-63623464D01*
X170289348Y-63582461D01*
X170499532Y-63582461D01*
X170705671Y-63623464D01*
X170705671Y-63623464D01*
G37*
G36*
X166730571Y-63623464D02*
G01*
X166924752Y-63703897D01*
X166924754Y-63703898D01*
X167099513Y-63820668D01*
X167248133Y-63969288D01*
X167364903Y-64144047D01*
X167364904Y-64144049D01*
X167445337Y-64338230D01*
X167486340Y-64544369D01*
X167486340Y-64754553D01*
X167445337Y-64960692D01*
X167375425Y-65129473D01*
X167364903Y-65154875D01*
X167248133Y-65329634D01*
X167099513Y-65478254D01*
X166924754Y-65595024D01*
X166924753Y-65595025D01*
X166924752Y-65595025D01*
X166730571Y-65675458D01*
X166524432Y-65716461D01*
X166314248Y-65716461D01*
X166108109Y-65675458D01*
X165913928Y-65595025D01*
X165913927Y-65595025D01*
X165913926Y-65595024D01*
X165739167Y-65478254D01*
X165590547Y-65329634D01*
X165473777Y-65154875D01*
X165463255Y-65129473D01*
X165393343Y-64960692D01*
X165352340Y-64754553D01*
X165352340Y-64544369D01*
X165393343Y-64338230D01*
X165473776Y-64144049D01*
X165473777Y-64144047D01*
X165590547Y-63969288D01*
X165739167Y-63820668D01*
X165913926Y-63703898D01*
X165913928Y-63703897D01*
X166108109Y-63623464D01*
X166314248Y-63582461D01*
X166524432Y-63582461D01*
X166730571Y-63623464D01*
X166730571Y-63623464D01*
G37*
G36*
X142930771Y-63623464D02*
G01*
X143124952Y-63703897D01*
X143124954Y-63703898D01*
X143299713Y-63820668D01*
X143448333Y-63969288D01*
X143565103Y-64144047D01*
X143565104Y-64144049D01*
X143645537Y-64338230D01*
X143686540Y-64544369D01*
X143686540Y-64754553D01*
X143645537Y-64960692D01*
X143575625Y-65129473D01*
X143565103Y-65154875D01*
X143448333Y-65329634D01*
X143299713Y-65478254D01*
X143124954Y-65595024D01*
X143124953Y-65595025D01*
X143124952Y-65595025D01*
X142930771Y-65675458D01*
X142724632Y-65716461D01*
X142514448Y-65716461D01*
X142308309Y-65675458D01*
X142114128Y-65595025D01*
X142114127Y-65595025D01*
X142114126Y-65595024D01*
X141939367Y-65478254D01*
X141790747Y-65329634D01*
X141673977Y-65154875D01*
X141663455Y-65129473D01*
X141593543Y-64960692D01*
X141552540Y-64754553D01*
X141552540Y-64544369D01*
X141593543Y-64338230D01*
X141673976Y-64144049D01*
X141673977Y-64144047D01*
X141790747Y-63969288D01*
X141939367Y-63820668D01*
X142114126Y-63703898D01*
X142114128Y-63703897D01*
X142308309Y-63623464D01*
X142514448Y-63582461D01*
X142724632Y-63582461D01*
X142930771Y-63623464D01*
X142930771Y-63623464D01*
G37*
G36*
X174655371Y-63623464D02*
G01*
X174849552Y-63703897D01*
X174849554Y-63703898D01*
X175024313Y-63820668D01*
X175172933Y-63969288D01*
X175289703Y-64144047D01*
X175289704Y-64144049D01*
X175370137Y-64338230D01*
X175411140Y-64544369D01*
X175411140Y-64754553D01*
X175370137Y-64960692D01*
X175300225Y-65129473D01*
X175289703Y-65154875D01*
X175172933Y-65329634D01*
X175024313Y-65478254D01*
X174849554Y-65595024D01*
X174849553Y-65595025D01*
X174849552Y-65595025D01*
X174655371Y-65675458D01*
X174449232Y-65716461D01*
X174239048Y-65716461D01*
X174032909Y-65675458D01*
X173838728Y-65595025D01*
X173838727Y-65595025D01*
X173838726Y-65595024D01*
X173663967Y-65478254D01*
X173515347Y-65329634D01*
X173398577Y-65154875D01*
X173388055Y-65129473D01*
X173318143Y-64960692D01*
X173277140Y-64754553D01*
X173277140Y-64544369D01*
X173318143Y-64338230D01*
X173398576Y-64144049D01*
X173398577Y-64144047D01*
X173515347Y-63969288D01*
X173663967Y-63820668D01*
X173838726Y-63703898D01*
X173838728Y-63703897D01*
X174032909Y-63623464D01*
X174239048Y-63582461D01*
X174449232Y-63582461D01*
X174655371Y-63623464D01*
X174655371Y-63623464D01*
G37*
G36*
X150880971Y-63623464D02*
G01*
X151075152Y-63703897D01*
X151075154Y-63703898D01*
X151249913Y-63820668D01*
X151398533Y-63969288D01*
X151515303Y-64144047D01*
X151515304Y-64144049D01*
X151595737Y-64338230D01*
X151636740Y-64544369D01*
X151636740Y-64754553D01*
X151595737Y-64960692D01*
X151525825Y-65129473D01*
X151515303Y-65154875D01*
X151398533Y-65329634D01*
X151249913Y-65478254D01*
X151075154Y-65595024D01*
X151075153Y-65595025D01*
X151075152Y-65595025D01*
X150880971Y-65675458D01*
X150674832Y-65716461D01*
X150464648Y-65716461D01*
X150258509Y-65675458D01*
X150064328Y-65595025D01*
X150064327Y-65595025D01*
X150064326Y-65595024D01*
X149889567Y-65478254D01*
X149740947Y-65329634D01*
X149624177Y-65154875D01*
X149613655Y-65129473D01*
X149543743Y-64960692D01*
X149502740Y-64754553D01*
X149502740Y-64544369D01*
X149543743Y-64338230D01*
X149624176Y-64144049D01*
X149624177Y-64144047D01*
X149740947Y-63969288D01*
X149889567Y-63820668D01*
X150064326Y-63703898D01*
X150064328Y-63703897D01*
X150258509Y-63623464D01*
X150464648Y-63582461D01*
X150674832Y-63582461D01*
X150880971Y-63623464D01*
X150880971Y-63623464D01*
G37*
G36*
X82956291Y-63598064D02*
G01*
X83150472Y-63678497D01*
X83150474Y-63678498D01*
X83325233Y-63795268D01*
X83473853Y-63943888D01*
X83490825Y-63969289D01*
X83590624Y-64118649D01*
X83671057Y-64312830D01*
X83712060Y-64518969D01*
X83712060Y-64729153D01*
X83671057Y-64935292D01*
X83660535Y-64960693D01*
X83590623Y-65129475D01*
X83473853Y-65304234D01*
X83325233Y-65452854D01*
X83150474Y-65569624D01*
X83150473Y-65569625D01*
X83150472Y-65569625D01*
X82956291Y-65650058D01*
X82750152Y-65691061D01*
X82539968Y-65691061D01*
X82333829Y-65650058D01*
X82139648Y-65569625D01*
X82139647Y-65569625D01*
X82139646Y-65569624D01*
X81964887Y-65452854D01*
X81816267Y-65304234D01*
X81699497Y-65129475D01*
X81629585Y-64960693D01*
X81619063Y-64935292D01*
X81578060Y-64729153D01*
X81578060Y-64518969D01*
X81619063Y-64312830D01*
X81699496Y-64118649D01*
X81799295Y-63969289D01*
X81816267Y-63943888D01*
X81964887Y-63795268D01*
X82139646Y-63678498D01*
X82139648Y-63678497D01*
X82333829Y-63598064D01*
X82539968Y-63557061D01*
X82750152Y-63557061D01*
X82956291Y-63598064D01*
X82956291Y-63598064D01*
G37*
G36*
X126529991Y-63598064D02*
G01*
X126724172Y-63678497D01*
X126724174Y-63678498D01*
X126898933Y-63795268D01*
X127047553Y-63943888D01*
X127064525Y-63969289D01*
X127164324Y-64118649D01*
X127244757Y-64312830D01*
X127285760Y-64518969D01*
X127285760Y-64729153D01*
X127244757Y-64935292D01*
X127234235Y-64960693D01*
X127164323Y-65129475D01*
X127047553Y-65304234D01*
X126898933Y-65452854D01*
X126724174Y-65569624D01*
X126724173Y-65569625D01*
X126724172Y-65569625D01*
X126529991Y-65650058D01*
X126323852Y-65691061D01*
X126113668Y-65691061D01*
X125907529Y-65650058D01*
X125713348Y-65569625D01*
X125713347Y-65569625D01*
X125713346Y-65569624D01*
X125538587Y-65452854D01*
X125389967Y-65304234D01*
X125273197Y-65129475D01*
X125203285Y-64960693D01*
X125192763Y-64935292D01*
X125151760Y-64729153D01*
X125151760Y-64518969D01*
X125192763Y-64312830D01*
X125273196Y-64118649D01*
X125372995Y-63969289D01*
X125389967Y-63943888D01*
X125538587Y-63795268D01*
X125713346Y-63678498D01*
X125713348Y-63678497D01*
X125907529Y-63598064D01*
X126113668Y-63557061D01*
X126323852Y-63557061D01*
X126529991Y-63598064D01*
X126529991Y-63598064D01*
G37*
G36*
X130505091Y-63598064D02*
G01*
X130699272Y-63678497D01*
X130699274Y-63678498D01*
X130874033Y-63795268D01*
X131022653Y-63943888D01*
X131039625Y-63969289D01*
X131139424Y-64118649D01*
X131219857Y-64312830D01*
X131260860Y-64518969D01*
X131260860Y-64729153D01*
X131219857Y-64935292D01*
X131209335Y-64960693D01*
X131139423Y-65129475D01*
X131022653Y-65304234D01*
X130874033Y-65452854D01*
X130699274Y-65569624D01*
X130699273Y-65569625D01*
X130699272Y-65569625D01*
X130505091Y-65650058D01*
X130298952Y-65691061D01*
X130088768Y-65691061D01*
X129882629Y-65650058D01*
X129688448Y-65569625D01*
X129688447Y-65569625D01*
X129688446Y-65569624D01*
X129513687Y-65452854D01*
X129365067Y-65304234D01*
X129248297Y-65129475D01*
X129178385Y-64960693D01*
X129167863Y-64935292D01*
X129126860Y-64729153D01*
X129126860Y-64518969D01*
X129167863Y-64312830D01*
X129248296Y-64118649D01*
X129348095Y-63969289D01*
X129365067Y-63943888D01*
X129513687Y-63795268D01*
X129688446Y-63678498D01*
X129688448Y-63678497D01*
X129882629Y-63598064D01*
X130088768Y-63557061D01*
X130298952Y-63557061D01*
X130505091Y-63598064D01*
X130505091Y-63598064D01*
G37*
G36*
X122580291Y-63598064D02*
G01*
X122774472Y-63678497D01*
X122774474Y-63678498D01*
X122949233Y-63795268D01*
X123097853Y-63943888D01*
X123114825Y-63969289D01*
X123214624Y-64118649D01*
X123295057Y-64312830D01*
X123336060Y-64518969D01*
X123336060Y-64729153D01*
X123295057Y-64935292D01*
X123284535Y-64960693D01*
X123214623Y-65129475D01*
X123097853Y-65304234D01*
X122949233Y-65452854D01*
X122774474Y-65569624D01*
X122774473Y-65569625D01*
X122774472Y-65569625D01*
X122580291Y-65650058D01*
X122374152Y-65691061D01*
X122163968Y-65691061D01*
X121957829Y-65650058D01*
X121763648Y-65569625D01*
X121763647Y-65569625D01*
X121763646Y-65569624D01*
X121588887Y-65452854D01*
X121440267Y-65304234D01*
X121323497Y-65129475D01*
X121253585Y-64960693D01*
X121243063Y-64935292D01*
X121202060Y-64729153D01*
X121202060Y-64518969D01*
X121243063Y-64312830D01*
X121323496Y-64118649D01*
X121423295Y-63969289D01*
X121440267Y-63943888D01*
X121588887Y-63795268D01*
X121763646Y-63678498D01*
X121763648Y-63678497D01*
X121957829Y-63598064D01*
X122163968Y-63557061D01*
X122374152Y-63557061D01*
X122580291Y-63598064D01*
X122580291Y-63598064D01*
G37*
G36*
X118605191Y-63598064D02*
G01*
X118799372Y-63678497D01*
X118799374Y-63678498D01*
X118974133Y-63795268D01*
X119122753Y-63943888D01*
X119139725Y-63969289D01*
X119239524Y-64118649D01*
X119319957Y-64312830D01*
X119360960Y-64518969D01*
X119360960Y-64729153D01*
X119319957Y-64935292D01*
X119309435Y-64960693D01*
X119239523Y-65129475D01*
X119122753Y-65304234D01*
X118974133Y-65452854D01*
X118799374Y-65569624D01*
X118799373Y-65569625D01*
X118799372Y-65569625D01*
X118605191Y-65650058D01*
X118399052Y-65691061D01*
X118188868Y-65691061D01*
X117982729Y-65650058D01*
X117788548Y-65569625D01*
X117788547Y-65569625D01*
X117788546Y-65569624D01*
X117613787Y-65452854D01*
X117465167Y-65304234D01*
X117348397Y-65129475D01*
X117278485Y-64960693D01*
X117267963Y-64935292D01*
X117226960Y-64729153D01*
X117226960Y-64518969D01*
X117267963Y-64312830D01*
X117348396Y-64118649D01*
X117448195Y-63969289D01*
X117465167Y-63943888D01*
X117613787Y-63795268D01*
X117788546Y-63678498D01*
X117788548Y-63678497D01*
X117982729Y-63598064D01*
X118188868Y-63557061D01*
X118399052Y-63557061D01*
X118605191Y-63598064D01*
X118605191Y-63598064D01*
G37*
G36*
X114655491Y-63598064D02*
G01*
X114849672Y-63678497D01*
X114849674Y-63678498D01*
X115024433Y-63795268D01*
X115173053Y-63943888D01*
X115190025Y-63969289D01*
X115289824Y-64118649D01*
X115370257Y-64312830D01*
X115411260Y-64518969D01*
X115411260Y-64729153D01*
X115370257Y-64935292D01*
X115359735Y-64960693D01*
X115289823Y-65129475D01*
X115173053Y-65304234D01*
X115024433Y-65452854D01*
X114849674Y-65569624D01*
X114849673Y-65569625D01*
X114849672Y-65569625D01*
X114655491Y-65650058D01*
X114449352Y-65691061D01*
X114239168Y-65691061D01*
X114033029Y-65650058D01*
X113838848Y-65569625D01*
X113838847Y-65569625D01*
X113838846Y-65569624D01*
X113664087Y-65452854D01*
X113515467Y-65304234D01*
X113398697Y-65129475D01*
X113328785Y-64960693D01*
X113318263Y-64935292D01*
X113277260Y-64729153D01*
X113277260Y-64518969D01*
X113318263Y-64312830D01*
X113398696Y-64118649D01*
X113498495Y-63969289D01*
X113515467Y-63943888D01*
X113664087Y-63795268D01*
X113838846Y-63678498D01*
X113838848Y-63678497D01*
X114033029Y-63598064D01*
X114239168Y-63557061D01*
X114449352Y-63557061D01*
X114655491Y-63598064D01*
X114655491Y-63598064D01*
G37*
G36*
X98805891Y-63598064D02*
G01*
X99000072Y-63678497D01*
X99000074Y-63678498D01*
X99174833Y-63795268D01*
X99323453Y-63943888D01*
X99340425Y-63969289D01*
X99440224Y-64118649D01*
X99520657Y-64312830D01*
X99561660Y-64518969D01*
X99561660Y-64729153D01*
X99520657Y-64935292D01*
X99510135Y-64960693D01*
X99440223Y-65129475D01*
X99323453Y-65304234D01*
X99174833Y-65452854D01*
X99000074Y-65569624D01*
X99000073Y-65569625D01*
X99000072Y-65569625D01*
X98805891Y-65650058D01*
X98599752Y-65691061D01*
X98389568Y-65691061D01*
X98183429Y-65650058D01*
X97989248Y-65569625D01*
X97989247Y-65569625D01*
X97989246Y-65569624D01*
X97814487Y-65452854D01*
X97665867Y-65304234D01*
X97549097Y-65129475D01*
X97479185Y-64960693D01*
X97468663Y-64935292D01*
X97427660Y-64729153D01*
X97427660Y-64518969D01*
X97468663Y-64312830D01*
X97549096Y-64118649D01*
X97648895Y-63969289D01*
X97665867Y-63943888D01*
X97814487Y-63795268D01*
X97989246Y-63678498D01*
X97989248Y-63678497D01*
X98183429Y-63598064D01*
X98389568Y-63557061D01*
X98599752Y-63557061D01*
X98805891Y-63598064D01*
X98805891Y-63598064D01*
G37*
G36*
X94856191Y-63598064D02*
G01*
X95050372Y-63678497D01*
X95050374Y-63678498D01*
X95225133Y-63795268D01*
X95373753Y-63943888D01*
X95390725Y-63969289D01*
X95490524Y-64118649D01*
X95570957Y-64312830D01*
X95611960Y-64518969D01*
X95611960Y-64729153D01*
X95570957Y-64935292D01*
X95560435Y-64960693D01*
X95490523Y-65129475D01*
X95373753Y-65304234D01*
X95225133Y-65452854D01*
X95050374Y-65569624D01*
X95050373Y-65569625D01*
X95050372Y-65569625D01*
X94856191Y-65650058D01*
X94650052Y-65691061D01*
X94439868Y-65691061D01*
X94233729Y-65650058D01*
X94039548Y-65569625D01*
X94039547Y-65569625D01*
X94039546Y-65569624D01*
X93864787Y-65452854D01*
X93716167Y-65304234D01*
X93599397Y-65129475D01*
X93529485Y-64960693D01*
X93518963Y-64935292D01*
X93477960Y-64729153D01*
X93477960Y-64518969D01*
X93518963Y-64312830D01*
X93599396Y-64118649D01*
X93699195Y-63969289D01*
X93716167Y-63943888D01*
X93864787Y-63795268D01*
X94039546Y-63678498D01*
X94039548Y-63678497D01*
X94233729Y-63598064D01*
X94439868Y-63557061D01*
X94650052Y-63557061D01*
X94856191Y-63598064D01*
X94856191Y-63598064D01*
G37*
G36*
X90881091Y-63598064D02*
G01*
X91075272Y-63678497D01*
X91075274Y-63678498D01*
X91250033Y-63795268D01*
X91398653Y-63943888D01*
X91415625Y-63969289D01*
X91515424Y-64118649D01*
X91595857Y-64312830D01*
X91636860Y-64518969D01*
X91636860Y-64729153D01*
X91595857Y-64935292D01*
X91585335Y-64960693D01*
X91515423Y-65129475D01*
X91398653Y-65304234D01*
X91250033Y-65452854D01*
X91075274Y-65569624D01*
X91075273Y-65569625D01*
X91075272Y-65569625D01*
X90881091Y-65650058D01*
X90674952Y-65691061D01*
X90464768Y-65691061D01*
X90258629Y-65650058D01*
X90064448Y-65569625D01*
X90064447Y-65569625D01*
X90064446Y-65569624D01*
X89889687Y-65452854D01*
X89741067Y-65304234D01*
X89624297Y-65129475D01*
X89554385Y-64960693D01*
X89543863Y-64935292D01*
X89502860Y-64729153D01*
X89502860Y-64518969D01*
X89543863Y-64312830D01*
X89624296Y-64118649D01*
X89724095Y-63969289D01*
X89741067Y-63943888D01*
X89889687Y-63795268D01*
X90064446Y-63678498D01*
X90064448Y-63678497D01*
X90258629Y-63598064D01*
X90464768Y-63557061D01*
X90674952Y-63557061D01*
X90881091Y-63598064D01*
X90881091Y-63598064D01*
G37*
G36*
X86931391Y-63598064D02*
G01*
X87125572Y-63678497D01*
X87125574Y-63678498D01*
X87300333Y-63795268D01*
X87448953Y-63943888D01*
X87465925Y-63969289D01*
X87565724Y-64118649D01*
X87646157Y-64312830D01*
X87687160Y-64518969D01*
X87687160Y-64729153D01*
X87646157Y-64935292D01*
X87635635Y-64960693D01*
X87565723Y-65129475D01*
X87448953Y-65304234D01*
X87300333Y-65452854D01*
X87125574Y-65569624D01*
X87125573Y-65569625D01*
X87125572Y-65569625D01*
X86931391Y-65650058D01*
X86725252Y-65691061D01*
X86515068Y-65691061D01*
X86308929Y-65650058D01*
X86114748Y-65569625D01*
X86114747Y-65569625D01*
X86114746Y-65569624D01*
X85939987Y-65452854D01*
X85791367Y-65304234D01*
X85674597Y-65129475D01*
X85604685Y-64960693D01*
X85594163Y-64935292D01*
X85553160Y-64729153D01*
X85553160Y-64518969D01*
X85594163Y-64312830D01*
X85674596Y-64118649D01*
X85774395Y-63969289D01*
X85791367Y-63943888D01*
X85939987Y-63795268D01*
X86114746Y-63678498D01*
X86114748Y-63678497D01*
X86308929Y-63598064D01*
X86515068Y-63557061D01*
X86725252Y-63557061D01*
X86931391Y-63598064D01*
X86931391Y-63598064D01*
G37*
G36*
X159080908Y-58850781D02*
G01*
X159247767Y-58883971D01*
X159719299Y-59079286D01*
X159962029Y-59241474D01*
X160143666Y-59362839D01*
X160504562Y-59723735D01*
X160570693Y-59822708D01*
X160788115Y-60148102D01*
X160942578Y-60521009D01*
X160983430Y-60619635D01*
X161083000Y-61120208D01*
X161083000Y-61630594D01*
X161065514Y-61718501D01*
X160983430Y-62131168D01*
X160788115Y-62602700D01*
X160625927Y-62845430D01*
X160504562Y-63027067D01*
X160143666Y-63387963D01*
X159962029Y-63509328D01*
X159719299Y-63671516D01*
X159247767Y-63866831D01*
X159080908Y-63900021D01*
X158747193Y-63966401D01*
X158236807Y-63966401D01*
X157903092Y-63900021D01*
X157736233Y-63866831D01*
X157264701Y-63671516D01*
X157021971Y-63509328D01*
X156840334Y-63387963D01*
X156479438Y-63027067D01*
X156358073Y-62845430D01*
X156195885Y-62602700D01*
X156000570Y-62131168D01*
X155918486Y-61718501D01*
X155901000Y-61630594D01*
X155901000Y-61120208D01*
X156000570Y-60619635D01*
X156041422Y-60521009D01*
X156195885Y-60148102D01*
X156413307Y-59822708D01*
X156479438Y-59723735D01*
X156840334Y-59362839D01*
X157021971Y-59241474D01*
X157264701Y-59079286D01*
X157736233Y-58883971D01*
X157903092Y-58850781D01*
X158236807Y-58784401D01*
X158747193Y-58784401D01*
X159080908Y-58850781D01*
X159080908Y-58850781D01*
G37*
G36*
X107010908Y-58825381D02*
G01*
X107177767Y-58858571D01*
X107649299Y-59053886D01*
X107892029Y-59216074D01*
X108073666Y-59337439D01*
X108434562Y-59698335D01*
X108500693Y-59797308D01*
X108718115Y-60122702D01*
X108913430Y-60594234D01*
X108940672Y-60731191D01*
X109013000Y-61094808D01*
X109013000Y-61605194D01*
X109003670Y-61652097D01*
X108913430Y-62105768D01*
X108718115Y-62577300D01*
X108555927Y-62820030D01*
X108434562Y-63001667D01*
X108073666Y-63362563D01*
X107892029Y-63483928D01*
X107649299Y-63646116D01*
X107177767Y-63841431D01*
X107010908Y-63874621D01*
X106677193Y-63941001D01*
X106166807Y-63941001D01*
X105833092Y-63874621D01*
X105666233Y-63841431D01*
X105194701Y-63646116D01*
X104951971Y-63483928D01*
X104770334Y-63362563D01*
X104409438Y-63001667D01*
X104288073Y-62820030D01*
X104125885Y-62577300D01*
X103930570Y-62105768D01*
X103840330Y-61652097D01*
X103831000Y-61605194D01*
X103831000Y-61094808D01*
X103903328Y-60731191D01*
X103930570Y-60594234D01*
X104125885Y-60122702D01*
X104343307Y-59797308D01*
X104409438Y-59698335D01*
X104770334Y-59337439D01*
X104951971Y-59216074D01*
X105194701Y-59053886D01*
X105666233Y-58858571D01*
X105833092Y-58825381D01*
X106166807Y-58759001D01*
X106677193Y-58759001D01*
X107010908Y-58825381D01*
X107010908Y-58825381D01*
G37*
G36*
X146905871Y-59625504D02*
G01*
X147081699Y-59698335D01*
X147100054Y-59705938D01*
X147274813Y-59822708D01*
X147423433Y-59971328D01*
X147524579Y-60122704D01*
X147540204Y-60146089D01*
X147620637Y-60340270D01*
X147661640Y-60546409D01*
X147661640Y-60756593D01*
X147620637Y-60962732D01*
X147565929Y-61094808D01*
X147540203Y-61156915D01*
X147423433Y-61331674D01*
X147274813Y-61480294D01*
X147100054Y-61597064D01*
X147100053Y-61597065D01*
X147100052Y-61597065D01*
X146905871Y-61677498D01*
X146699732Y-61718501D01*
X146489548Y-61718501D01*
X146283409Y-61677498D01*
X146089228Y-61597065D01*
X146089227Y-61597065D01*
X146089226Y-61597064D01*
X145914467Y-61480294D01*
X145765847Y-61331674D01*
X145649077Y-61156915D01*
X145623351Y-61094808D01*
X145568643Y-60962732D01*
X145527640Y-60756593D01*
X145527640Y-60546409D01*
X145568643Y-60340270D01*
X145649076Y-60146089D01*
X145664701Y-60122704D01*
X145765847Y-59971328D01*
X145914467Y-59822708D01*
X146089226Y-59705938D01*
X146107581Y-59698335D01*
X146283409Y-59625504D01*
X146489548Y-59584501D01*
X146699732Y-59584501D01*
X146905871Y-59625504D01*
X146905871Y-59625504D01*
G37*
G36*
X142930771Y-59625504D02*
G01*
X143106599Y-59698335D01*
X143124954Y-59705938D01*
X143299713Y-59822708D01*
X143448333Y-59971328D01*
X143549479Y-60122704D01*
X143565104Y-60146089D01*
X143645537Y-60340270D01*
X143686540Y-60546409D01*
X143686540Y-60756593D01*
X143645537Y-60962732D01*
X143590829Y-61094808D01*
X143565103Y-61156915D01*
X143448333Y-61331674D01*
X143299713Y-61480294D01*
X143124954Y-61597064D01*
X143124953Y-61597065D01*
X143124952Y-61597065D01*
X142930771Y-61677498D01*
X142724632Y-61718501D01*
X142514448Y-61718501D01*
X142308309Y-61677498D01*
X142114128Y-61597065D01*
X142114127Y-61597065D01*
X142114126Y-61597064D01*
X141939367Y-61480294D01*
X141790747Y-61331674D01*
X141673977Y-61156915D01*
X141648251Y-61094808D01*
X141593543Y-60962732D01*
X141552540Y-60756593D01*
X141552540Y-60546409D01*
X141593543Y-60340270D01*
X141673976Y-60146089D01*
X141689601Y-60122704D01*
X141790747Y-59971328D01*
X141939367Y-59822708D01*
X142114126Y-59705938D01*
X142132481Y-59698335D01*
X142308309Y-59625504D01*
X142514448Y-59584501D01*
X142724632Y-59584501D01*
X142930771Y-59625504D01*
X142930771Y-59625504D01*
G37*
G36*
X150880971Y-59625504D02*
G01*
X151056799Y-59698335D01*
X151075154Y-59705938D01*
X151249913Y-59822708D01*
X151398533Y-59971328D01*
X151499679Y-60122704D01*
X151515304Y-60146089D01*
X151595737Y-60340270D01*
X151636740Y-60546409D01*
X151636740Y-60756593D01*
X151595737Y-60962732D01*
X151541029Y-61094808D01*
X151515303Y-61156915D01*
X151398533Y-61331674D01*
X151249913Y-61480294D01*
X151075154Y-61597064D01*
X151075153Y-61597065D01*
X151075152Y-61597065D01*
X150880971Y-61677498D01*
X150674832Y-61718501D01*
X150464648Y-61718501D01*
X150258509Y-61677498D01*
X150064328Y-61597065D01*
X150064327Y-61597065D01*
X150064326Y-61597064D01*
X149889567Y-61480294D01*
X149740947Y-61331674D01*
X149624177Y-61156915D01*
X149598451Y-61094808D01*
X149543743Y-60962732D01*
X149502740Y-60756593D01*
X149502740Y-60546409D01*
X149543743Y-60340270D01*
X149624176Y-60146089D01*
X149639801Y-60122704D01*
X149740947Y-59971328D01*
X149889567Y-59822708D01*
X150064326Y-59705938D01*
X150082681Y-59698335D01*
X150258509Y-59625504D01*
X150464648Y-59584501D01*
X150674832Y-59584501D01*
X150880971Y-59625504D01*
X150880971Y-59625504D01*
G37*
G36*
X174655371Y-59625504D02*
G01*
X174831199Y-59698335D01*
X174849554Y-59705938D01*
X175024313Y-59822708D01*
X175172933Y-59971328D01*
X175274079Y-60122704D01*
X175289704Y-60146089D01*
X175370137Y-60340270D01*
X175411140Y-60546409D01*
X175411140Y-60756593D01*
X175370137Y-60962732D01*
X175315429Y-61094808D01*
X175289703Y-61156915D01*
X175172933Y-61331674D01*
X175024313Y-61480294D01*
X174849554Y-61597064D01*
X174849553Y-61597065D01*
X174849552Y-61597065D01*
X174655371Y-61677498D01*
X174449232Y-61718501D01*
X174239048Y-61718501D01*
X174032909Y-61677498D01*
X173838728Y-61597065D01*
X173838727Y-61597065D01*
X173838726Y-61597064D01*
X173663967Y-61480294D01*
X173515347Y-61331674D01*
X173398577Y-61156915D01*
X173372851Y-61094808D01*
X173318143Y-60962732D01*
X173277140Y-60756593D01*
X173277140Y-60546409D01*
X173318143Y-60340270D01*
X173398576Y-60146089D01*
X173414201Y-60122704D01*
X173515347Y-59971328D01*
X173663967Y-59822708D01*
X173838726Y-59705938D01*
X173857081Y-59698335D01*
X174032909Y-59625504D01*
X174239048Y-59584501D01*
X174449232Y-59584501D01*
X174655371Y-59625504D01*
X174655371Y-59625504D01*
G37*
G36*
X166730571Y-59625504D02*
G01*
X166906399Y-59698335D01*
X166924754Y-59705938D01*
X167099513Y-59822708D01*
X167248133Y-59971328D01*
X167349279Y-60122704D01*
X167364904Y-60146089D01*
X167445337Y-60340270D01*
X167486340Y-60546409D01*
X167486340Y-60756593D01*
X167445337Y-60962732D01*
X167390629Y-61094808D01*
X167364903Y-61156915D01*
X167248133Y-61331674D01*
X167099513Y-61480294D01*
X166924754Y-61597064D01*
X166924753Y-61597065D01*
X166924752Y-61597065D01*
X166730571Y-61677498D01*
X166524432Y-61718501D01*
X166314248Y-61718501D01*
X166108109Y-61677498D01*
X165913928Y-61597065D01*
X165913927Y-61597065D01*
X165913926Y-61597064D01*
X165739167Y-61480294D01*
X165590547Y-61331674D01*
X165473777Y-61156915D01*
X165448051Y-61094808D01*
X165393343Y-60962732D01*
X165352340Y-60756593D01*
X165352340Y-60546409D01*
X165393343Y-60340270D01*
X165473776Y-60146089D01*
X165489401Y-60122704D01*
X165590547Y-59971328D01*
X165739167Y-59822708D01*
X165913926Y-59705938D01*
X165932281Y-59698335D01*
X166108109Y-59625504D01*
X166314248Y-59584501D01*
X166524432Y-59584501D01*
X166730571Y-59625504D01*
X166730571Y-59625504D01*
G37*
G36*
X170705671Y-59625504D02*
G01*
X170881499Y-59698335D01*
X170899854Y-59705938D01*
X171074613Y-59822708D01*
X171223233Y-59971328D01*
X171324379Y-60122704D01*
X171340004Y-60146089D01*
X171420437Y-60340270D01*
X171461440Y-60546409D01*
X171461440Y-60756593D01*
X171420437Y-60962732D01*
X171365729Y-61094808D01*
X171340003Y-61156915D01*
X171223233Y-61331674D01*
X171074613Y-61480294D01*
X170899854Y-61597064D01*
X170899853Y-61597065D01*
X170899852Y-61597065D01*
X170705671Y-61677498D01*
X170499532Y-61718501D01*
X170289348Y-61718501D01*
X170083209Y-61677498D01*
X169889028Y-61597065D01*
X169889027Y-61597065D01*
X169889026Y-61597064D01*
X169714267Y-61480294D01*
X169565647Y-61331674D01*
X169448877Y-61156915D01*
X169423151Y-61094808D01*
X169368443Y-60962732D01*
X169327440Y-60756593D01*
X169327440Y-60546409D01*
X169368443Y-60340270D01*
X169448876Y-60146089D01*
X169464501Y-60122704D01*
X169565647Y-59971328D01*
X169714267Y-59822708D01*
X169889026Y-59705938D01*
X169907381Y-59698335D01*
X170083209Y-59625504D01*
X170289348Y-59584501D01*
X170499532Y-59584501D01*
X170705671Y-59625504D01*
X170705671Y-59625504D01*
G37*
G36*
X118605191Y-59600104D02*
G01*
X118799372Y-59680537D01*
X118799374Y-59680538D01*
X118974133Y-59797308D01*
X119122753Y-59945928D01*
X119139725Y-59971329D01*
X119239524Y-60120689D01*
X119319957Y-60314870D01*
X119360960Y-60521009D01*
X119360960Y-60731193D01*
X119319957Y-60937332D01*
X119309435Y-60962733D01*
X119239523Y-61131515D01*
X119122753Y-61306274D01*
X118974133Y-61454894D01*
X118799374Y-61571664D01*
X118799373Y-61571665D01*
X118799372Y-61571665D01*
X118605191Y-61652098D01*
X118399052Y-61693101D01*
X118188868Y-61693101D01*
X117982729Y-61652098D01*
X117788548Y-61571665D01*
X117788547Y-61571665D01*
X117788546Y-61571664D01*
X117613787Y-61454894D01*
X117465167Y-61306274D01*
X117348397Y-61131515D01*
X117278485Y-60962733D01*
X117267963Y-60937332D01*
X117226960Y-60731193D01*
X117226960Y-60521009D01*
X117267963Y-60314870D01*
X117348396Y-60120689D01*
X117448195Y-59971329D01*
X117465167Y-59945928D01*
X117613787Y-59797308D01*
X117788546Y-59680538D01*
X117788548Y-59680537D01*
X117982729Y-59600104D01*
X118188868Y-59559101D01*
X118399052Y-59559101D01*
X118605191Y-59600104D01*
X118605191Y-59600104D01*
G37*
G36*
X114655491Y-59600104D02*
G01*
X114849672Y-59680537D01*
X114849674Y-59680538D01*
X115024433Y-59797308D01*
X115173053Y-59945928D01*
X115190025Y-59971329D01*
X115289824Y-60120689D01*
X115370257Y-60314870D01*
X115411260Y-60521009D01*
X115411260Y-60731193D01*
X115370257Y-60937332D01*
X115359735Y-60962733D01*
X115289823Y-61131515D01*
X115173053Y-61306274D01*
X115024433Y-61454894D01*
X114849674Y-61571664D01*
X114849673Y-61571665D01*
X114849672Y-61571665D01*
X114655491Y-61652098D01*
X114449352Y-61693101D01*
X114239168Y-61693101D01*
X114033029Y-61652098D01*
X113838848Y-61571665D01*
X113838847Y-61571665D01*
X113838846Y-61571664D01*
X113664087Y-61454894D01*
X113515467Y-61306274D01*
X113398697Y-61131515D01*
X113328785Y-60962733D01*
X113318263Y-60937332D01*
X113277260Y-60731193D01*
X113277260Y-60521009D01*
X113318263Y-60314870D01*
X113398696Y-60120689D01*
X113498495Y-59971329D01*
X113515467Y-59945928D01*
X113664087Y-59797308D01*
X113838846Y-59680538D01*
X113838848Y-59680537D01*
X114033029Y-59600104D01*
X114239168Y-59559101D01*
X114449352Y-59559101D01*
X114655491Y-59600104D01*
X114655491Y-59600104D01*
G37*
G36*
X122580291Y-59600104D02*
G01*
X122774472Y-59680537D01*
X122774474Y-59680538D01*
X122949233Y-59797308D01*
X123097853Y-59945928D01*
X123114825Y-59971329D01*
X123214624Y-60120689D01*
X123295057Y-60314870D01*
X123336060Y-60521009D01*
X123336060Y-60731193D01*
X123295057Y-60937332D01*
X123284535Y-60962733D01*
X123214623Y-61131515D01*
X123097853Y-61306274D01*
X122949233Y-61454894D01*
X122774474Y-61571664D01*
X122774473Y-61571665D01*
X122774472Y-61571665D01*
X122580291Y-61652098D01*
X122374152Y-61693101D01*
X122163968Y-61693101D01*
X121957829Y-61652098D01*
X121763648Y-61571665D01*
X121763647Y-61571665D01*
X121763646Y-61571664D01*
X121588887Y-61454894D01*
X121440267Y-61306274D01*
X121323497Y-61131515D01*
X121253585Y-60962733D01*
X121243063Y-60937332D01*
X121202060Y-60731193D01*
X121202060Y-60521009D01*
X121243063Y-60314870D01*
X121323496Y-60120689D01*
X121423295Y-59971329D01*
X121440267Y-59945928D01*
X121588887Y-59797308D01*
X121763646Y-59680538D01*
X121763648Y-59680537D01*
X121957829Y-59600104D01*
X122163968Y-59559101D01*
X122374152Y-59559101D01*
X122580291Y-59600104D01*
X122580291Y-59600104D01*
G37*
G36*
X98805891Y-59600104D02*
G01*
X99000072Y-59680537D01*
X99000074Y-59680538D01*
X99174833Y-59797308D01*
X99323453Y-59945928D01*
X99340425Y-59971329D01*
X99440224Y-60120689D01*
X99520657Y-60314870D01*
X99561660Y-60521009D01*
X99561660Y-60731193D01*
X99520657Y-60937332D01*
X99510135Y-60962733D01*
X99440223Y-61131515D01*
X99323453Y-61306274D01*
X99174833Y-61454894D01*
X99000074Y-61571664D01*
X99000073Y-61571665D01*
X99000072Y-61571665D01*
X98805891Y-61652098D01*
X98599752Y-61693101D01*
X98389568Y-61693101D01*
X98183429Y-61652098D01*
X97989248Y-61571665D01*
X97989247Y-61571665D01*
X97989246Y-61571664D01*
X97814487Y-61454894D01*
X97665867Y-61306274D01*
X97549097Y-61131515D01*
X97479185Y-60962733D01*
X97468663Y-60937332D01*
X97427660Y-60731193D01*
X97427660Y-60521009D01*
X97468663Y-60314870D01*
X97549096Y-60120689D01*
X97648895Y-59971329D01*
X97665867Y-59945928D01*
X97814487Y-59797308D01*
X97989246Y-59680538D01*
X97989248Y-59680537D01*
X98183429Y-59600104D01*
X98389568Y-59559101D01*
X98599752Y-59559101D01*
X98805891Y-59600104D01*
X98805891Y-59600104D01*
G37*
G36*
X94856191Y-59600104D02*
G01*
X95050372Y-59680537D01*
X95050374Y-59680538D01*
X95225133Y-59797308D01*
X95373753Y-59945928D01*
X95390725Y-59971329D01*
X95490524Y-60120689D01*
X95570957Y-60314870D01*
X95611960Y-60521009D01*
X95611960Y-60731193D01*
X95570957Y-60937332D01*
X95560435Y-60962733D01*
X95490523Y-61131515D01*
X95373753Y-61306274D01*
X95225133Y-61454894D01*
X95050374Y-61571664D01*
X95050373Y-61571665D01*
X95050372Y-61571665D01*
X94856191Y-61652098D01*
X94650052Y-61693101D01*
X94439868Y-61693101D01*
X94233729Y-61652098D01*
X94039548Y-61571665D01*
X94039547Y-61571665D01*
X94039546Y-61571664D01*
X93864787Y-61454894D01*
X93716167Y-61306274D01*
X93599397Y-61131515D01*
X93529485Y-60962733D01*
X93518963Y-60937332D01*
X93477960Y-60731193D01*
X93477960Y-60521009D01*
X93518963Y-60314870D01*
X93599396Y-60120689D01*
X93699195Y-59971329D01*
X93716167Y-59945928D01*
X93864787Y-59797308D01*
X94039546Y-59680538D01*
X94039548Y-59680537D01*
X94233729Y-59600104D01*
X94439868Y-59559101D01*
X94650052Y-59559101D01*
X94856191Y-59600104D01*
X94856191Y-59600104D01*
G37*
G36*
X126529991Y-59600104D02*
G01*
X126724172Y-59680537D01*
X126724174Y-59680538D01*
X126898933Y-59797308D01*
X127047553Y-59945928D01*
X127064525Y-59971329D01*
X127164324Y-60120689D01*
X127244757Y-60314870D01*
X127285760Y-60521009D01*
X127285760Y-60731193D01*
X127244757Y-60937332D01*
X127234235Y-60962733D01*
X127164323Y-61131515D01*
X127047553Y-61306274D01*
X126898933Y-61454894D01*
X126724174Y-61571664D01*
X126724173Y-61571665D01*
X126724172Y-61571665D01*
X126529991Y-61652098D01*
X126323852Y-61693101D01*
X126113668Y-61693101D01*
X125907529Y-61652098D01*
X125713348Y-61571665D01*
X125713347Y-61571665D01*
X125713346Y-61571664D01*
X125538587Y-61454894D01*
X125389967Y-61306274D01*
X125273197Y-61131515D01*
X125203285Y-60962733D01*
X125192763Y-60937332D01*
X125151760Y-60731193D01*
X125151760Y-60521009D01*
X125192763Y-60314870D01*
X125273196Y-60120689D01*
X125372995Y-59971329D01*
X125389967Y-59945928D01*
X125538587Y-59797308D01*
X125713346Y-59680538D01*
X125713348Y-59680537D01*
X125907529Y-59600104D01*
X126113668Y-59559101D01*
X126323852Y-59559101D01*
X126529991Y-59600104D01*
X126529991Y-59600104D01*
G37*
G36*
X130505091Y-59600104D02*
G01*
X130699272Y-59680537D01*
X130699274Y-59680538D01*
X130874033Y-59797308D01*
X131022653Y-59945928D01*
X131039625Y-59971329D01*
X131139424Y-60120689D01*
X131219857Y-60314870D01*
X131260860Y-60521009D01*
X131260860Y-60731193D01*
X131219857Y-60937332D01*
X131209335Y-60962733D01*
X131139423Y-61131515D01*
X131022653Y-61306274D01*
X130874033Y-61454894D01*
X130699274Y-61571664D01*
X130699273Y-61571665D01*
X130699272Y-61571665D01*
X130505091Y-61652098D01*
X130298952Y-61693101D01*
X130088768Y-61693101D01*
X129882629Y-61652098D01*
X129688448Y-61571665D01*
X129688447Y-61571665D01*
X129688446Y-61571664D01*
X129513687Y-61454894D01*
X129365067Y-61306274D01*
X129248297Y-61131515D01*
X129178385Y-60962733D01*
X129167863Y-60937332D01*
X129126860Y-60731193D01*
X129126860Y-60521009D01*
X129167863Y-60314870D01*
X129248296Y-60120689D01*
X129348095Y-59971329D01*
X129365067Y-59945928D01*
X129513687Y-59797308D01*
X129688446Y-59680538D01*
X129688448Y-59680537D01*
X129882629Y-59600104D01*
X130088768Y-59559101D01*
X130298952Y-59559101D01*
X130505091Y-59600104D01*
X130505091Y-59600104D01*
G37*
G36*
X86931391Y-59600104D02*
G01*
X87125572Y-59680537D01*
X87125574Y-59680538D01*
X87300333Y-59797308D01*
X87448953Y-59945928D01*
X87465925Y-59971329D01*
X87565724Y-60120689D01*
X87646157Y-60314870D01*
X87687160Y-60521009D01*
X87687160Y-60731193D01*
X87646157Y-60937332D01*
X87635635Y-60962733D01*
X87565723Y-61131515D01*
X87448953Y-61306274D01*
X87300333Y-61454894D01*
X87125574Y-61571664D01*
X87125573Y-61571665D01*
X87125572Y-61571665D01*
X86931391Y-61652098D01*
X86725252Y-61693101D01*
X86515068Y-61693101D01*
X86308929Y-61652098D01*
X86114748Y-61571665D01*
X86114747Y-61571665D01*
X86114746Y-61571664D01*
X85939987Y-61454894D01*
X85791367Y-61306274D01*
X85674597Y-61131515D01*
X85604685Y-60962733D01*
X85594163Y-60937332D01*
X85553160Y-60731193D01*
X85553160Y-60521009D01*
X85594163Y-60314870D01*
X85674596Y-60120689D01*
X85774395Y-59971329D01*
X85791367Y-59945928D01*
X85939987Y-59797308D01*
X86114746Y-59680538D01*
X86114748Y-59680537D01*
X86308929Y-59600104D01*
X86515068Y-59559101D01*
X86725252Y-59559101D01*
X86931391Y-59600104D01*
X86931391Y-59600104D01*
G37*
G36*
X90881091Y-59600104D02*
G01*
X91075272Y-59680537D01*
X91075274Y-59680538D01*
X91250033Y-59797308D01*
X91398653Y-59945928D01*
X91415625Y-59971329D01*
X91515424Y-60120689D01*
X91595857Y-60314870D01*
X91636860Y-60521009D01*
X91636860Y-60731193D01*
X91595857Y-60937332D01*
X91585335Y-60962733D01*
X91515423Y-61131515D01*
X91398653Y-61306274D01*
X91250033Y-61454894D01*
X91075274Y-61571664D01*
X91075273Y-61571665D01*
X91075272Y-61571665D01*
X90881091Y-61652098D01*
X90674952Y-61693101D01*
X90464768Y-61693101D01*
X90258629Y-61652098D01*
X90064448Y-61571665D01*
X90064447Y-61571665D01*
X90064446Y-61571664D01*
X89889687Y-61454894D01*
X89741067Y-61306274D01*
X89624297Y-61131515D01*
X89554385Y-60962733D01*
X89543863Y-60937332D01*
X89502860Y-60731193D01*
X89502860Y-60521009D01*
X89543863Y-60314870D01*
X89624296Y-60120689D01*
X89724095Y-59971329D01*
X89741067Y-59945928D01*
X89889687Y-59797308D01*
X90064446Y-59680538D01*
X90064448Y-59680537D01*
X90258629Y-59600104D01*
X90464768Y-59559101D01*
X90674952Y-59559101D01*
X90881091Y-59600104D01*
X90881091Y-59600104D01*
G37*
G36*
X82956291Y-59600104D02*
G01*
X83150472Y-59680537D01*
X83150474Y-59680538D01*
X83325233Y-59797308D01*
X83473853Y-59945928D01*
X83490825Y-59971329D01*
X83590624Y-60120689D01*
X83671057Y-60314870D01*
X83712060Y-60521009D01*
X83712060Y-60731193D01*
X83671057Y-60937332D01*
X83660535Y-60962733D01*
X83590623Y-61131515D01*
X83473853Y-61306274D01*
X83325233Y-61454894D01*
X83150474Y-61571664D01*
X83150473Y-61571665D01*
X83150472Y-61571665D01*
X82956291Y-61652098D01*
X82750152Y-61693101D01*
X82539968Y-61693101D01*
X82333829Y-61652098D01*
X82139648Y-61571665D01*
X82139647Y-61571665D01*
X82139646Y-61571664D01*
X81964887Y-61454894D01*
X81816267Y-61306274D01*
X81699497Y-61131515D01*
X81629585Y-60962733D01*
X81619063Y-60937332D01*
X81578060Y-60731193D01*
X81578060Y-60521009D01*
X81619063Y-60314870D01*
X81699496Y-60120689D01*
X81799295Y-59971329D01*
X81816267Y-59945928D01*
X81964887Y-59797308D01*
X82139646Y-59680538D01*
X82139648Y-59680537D01*
X82333829Y-59600104D01*
X82539968Y-59559101D01*
X82750152Y-59559101D01*
X82956291Y-59600104D01*
X82956291Y-59600104D01*
G37*
G36*
X170705671Y-55650404D02*
G01*
X170899852Y-55730837D01*
X170899854Y-55730838D01*
X171074613Y-55847608D01*
X171223233Y-55996228D01*
X171340003Y-56170987D01*
X171340004Y-56170989D01*
X171420437Y-56365170D01*
X171461440Y-56571309D01*
X171461440Y-56781493D01*
X171420437Y-56987632D01*
X171350525Y-57156413D01*
X171340003Y-57181815D01*
X171223233Y-57356574D01*
X171074613Y-57505194D01*
X170899854Y-57621964D01*
X170899853Y-57621965D01*
X170899852Y-57621965D01*
X170705671Y-57702398D01*
X170499532Y-57743401D01*
X170289348Y-57743401D01*
X170083209Y-57702398D01*
X169889028Y-57621965D01*
X169889027Y-57621965D01*
X169889026Y-57621964D01*
X169714267Y-57505194D01*
X169565647Y-57356574D01*
X169448877Y-57181815D01*
X169438355Y-57156413D01*
X169368443Y-56987632D01*
X169327440Y-56781493D01*
X169327440Y-56571309D01*
X169368443Y-56365170D01*
X169448876Y-56170989D01*
X169448877Y-56170987D01*
X169565647Y-55996228D01*
X169714267Y-55847608D01*
X169889026Y-55730838D01*
X169889028Y-55730837D01*
X170083209Y-55650404D01*
X170289348Y-55609401D01*
X170499532Y-55609401D01*
X170705671Y-55650404D01*
X170705671Y-55650404D01*
G37*
G36*
X150880971Y-55650404D02*
G01*
X151075152Y-55730837D01*
X151075154Y-55730838D01*
X151249913Y-55847608D01*
X151398533Y-55996228D01*
X151515303Y-56170987D01*
X151515304Y-56170989D01*
X151595737Y-56365170D01*
X151636740Y-56571309D01*
X151636740Y-56781493D01*
X151595737Y-56987632D01*
X151525825Y-57156413D01*
X151515303Y-57181815D01*
X151398533Y-57356574D01*
X151249913Y-57505194D01*
X151075154Y-57621964D01*
X151075153Y-57621965D01*
X151075152Y-57621965D01*
X150880971Y-57702398D01*
X150674832Y-57743401D01*
X150464648Y-57743401D01*
X150258509Y-57702398D01*
X150064328Y-57621965D01*
X150064327Y-57621965D01*
X150064326Y-57621964D01*
X149889567Y-57505194D01*
X149740947Y-57356574D01*
X149624177Y-57181815D01*
X149613655Y-57156413D01*
X149543743Y-56987632D01*
X149502740Y-56781493D01*
X149502740Y-56571309D01*
X149543743Y-56365170D01*
X149624176Y-56170989D01*
X149624177Y-56170987D01*
X149740947Y-55996228D01*
X149889567Y-55847608D01*
X150064326Y-55730838D01*
X150064328Y-55730837D01*
X150258509Y-55650404D01*
X150464648Y-55609401D01*
X150674832Y-55609401D01*
X150880971Y-55650404D01*
X150880971Y-55650404D01*
G37*
G36*
X146905871Y-55650404D02*
G01*
X147100052Y-55730837D01*
X147100054Y-55730838D01*
X147274813Y-55847608D01*
X147423433Y-55996228D01*
X147540203Y-56170987D01*
X147540204Y-56170989D01*
X147620637Y-56365170D01*
X147661640Y-56571309D01*
X147661640Y-56781493D01*
X147620637Y-56987632D01*
X147550725Y-57156413D01*
X147540203Y-57181815D01*
X147423433Y-57356574D01*
X147274813Y-57505194D01*
X147100054Y-57621964D01*
X147100053Y-57621965D01*
X147100052Y-57621965D01*
X146905871Y-57702398D01*
X146699732Y-57743401D01*
X146489548Y-57743401D01*
X146283409Y-57702398D01*
X146089228Y-57621965D01*
X146089227Y-57621965D01*
X146089226Y-57621964D01*
X145914467Y-57505194D01*
X145765847Y-57356574D01*
X145649077Y-57181815D01*
X145638555Y-57156413D01*
X145568643Y-56987632D01*
X145527640Y-56781493D01*
X145527640Y-56571309D01*
X145568643Y-56365170D01*
X145649076Y-56170989D01*
X145649077Y-56170987D01*
X145765847Y-55996228D01*
X145914467Y-55847608D01*
X146089226Y-55730838D01*
X146089228Y-55730837D01*
X146283409Y-55650404D01*
X146489548Y-55609401D01*
X146699732Y-55609401D01*
X146905871Y-55650404D01*
X146905871Y-55650404D01*
G37*
G36*
X142930771Y-55650404D02*
G01*
X143124952Y-55730837D01*
X143124954Y-55730838D01*
X143299713Y-55847608D01*
X143448333Y-55996228D01*
X143565103Y-56170987D01*
X143565104Y-56170989D01*
X143645537Y-56365170D01*
X143686540Y-56571309D01*
X143686540Y-56781493D01*
X143645537Y-56987632D01*
X143575625Y-57156413D01*
X143565103Y-57181815D01*
X143448333Y-57356574D01*
X143299713Y-57505194D01*
X143124954Y-57621964D01*
X143124953Y-57621965D01*
X143124952Y-57621965D01*
X142930771Y-57702398D01*
X142724632Y-57743401D01*
X142514448Y-57743401D01*
X142308309Y-57702398D01*
X142114128Y-57621965D01*
X142114127Y-57621965D01*
X142114126Y-57621964D01*
X141939367Y-57505194D01*
X141790747Y-57356574D01*
X141673977Y-57181815D01*
X141663455Y-57156413D01*
X141593543Y-56987632D01*
X141552540Y-56781493D01*
X141552540Y-56571309D01*
X141593543Y-56365170D01*
X141673976Y-56170989D01*
X141673977Y-56170987D01*
X141790747Y-55996228D01*
X141939367Y-55847608D01*
X142114126Y-55730838D01*
X142114128Y-55730837D01*
X142308309Y-55650404D01*
X142514448Y-55609401D01*
X142724632Y-55609401D01*
X142930771Y-55650404D01*
X142930771Y-55650404D01*
G37*
G36*
X166730571Y-55650404D02*
G01*
X166924752Y-55730837D01*
X166924754Y-55730838D01*
X167099513Y-55847608D01*
X167248133Y-55996228D01*
X167364903Y-56170987D01*
X167364904Y-56170989D01*
X167445337Y-56365170D01*
X167486340Y-56571309D01*
X167486340Y-56781493D01*
X167445337Y-56987632D01*
X167375425Y-57156413D01*
X167364903Y-57181815D01*
X167248133Y-57356574D01*
X167099513Y-57505194D01*
X166924754Y-57621964D01*
X166924753Y-57621965D01*
X166924752Y-57621965D01*
X166730571Y-57702398D01*
X166524432Y-57743401D01*
X166314248Y-57743401D01*
X166108109Y-57702398D01*
X165913928Y-57621965D01*
X165913927Y-57621965D01*
X165913926Y-57621964D01*
X165739167Y-57505194D01*
X165590547Y-57356574D01*
X165473777Y-57181815D01*
X165463255Y-57156413D01*
X165393343Y-56987632D01*
X165352340Y-56781493D01*
X165352340Y-56571309D01*
X165393343Y-56365170D01*
X165473776Y-56170989D01*
X165473777Y-56170987D01*
X165590547Y-55996228D01*
X165739167Y-55847608D01*
X165913926Y-55730838D01*
X165913928Y-55730837D01*
X166108109Y-55650404D01*
X166314248Y-55609401D01*
X166524432Y-55609401D01*
X166730571Y-55650404D01*
X166730571Y-55650404D01*
G37*
G36*
X174655371Y-55650404D02*
G01*
X174849552Y-55730837D01*
X174849554Y-55730838D01*
X175024313Y-55847608D01*
X175172933Y-55996228D01*
X175289703Y-56170987D01*
X175289704Y-56170989D01*
X175370137Y-56365170D01*
X175411140Y-56571309D01*
X175411140Y-56781493D01*
X175370137Y-56987632D01*
X175300225Y-57156413D01*
X175289703Y-57181815D01*
X175172933Y-57356574D01*
X175024313Y-57505194D01*
X174849554Y-57621964D01*
X174849553Y-57621965D01*
X174849552Y-57621965D01*
X174655371Y-57702398D01*
X174449232Y-57743401D01*
X174239048Y-57743401D01*
X174032909Y-57702398D01*
X173838728Y-57621965D01*
X173838727Y-57621965D01*
X173838726Y-57621964D01*
X173663967Y-57505194D01*
X173515347Y-57356574D01*
X173398577Y-57181815D01*
X173388055Y-57156413D01*
X173318143Y-56987632D01*
X173277140Y-56781493D01*
X173277140Y-56571309D01*
X173318143Y-56365170D01*
X173398576Y-56170989D01*
X173398577Y-56170987D01*
X173515347Y-55996228D01*
X173663967Y-55847608D01*
X173838726Y-55730838D01*
X173838728Y-55730837D01*
X174032909Y-55650404D01*
X174239048Y-55609401D01*
X174449232Y-55609401D01*
X174655371Y-55650404D01*
X174655371Y-55650404D01*
G37*
G36*
X122580291Y-55625004D02*
G01*
X122774472Y-55705437D01*
X122774474Y-55705438D01*
X122949233Y-55822208D01*
X123097853Y-55970828D01*
X123114825Y-55996229D01*
X123214624Y-56145589D01*
X123295057Y-56339770D01*
X123336060Y-56545909D01*
X123336060Y-56756093D01*
X123295057Y-56962232D01*
X123284535Y-56987633D01*
X123214623Y-57156415D01*
X123097853Y-57331174D01*
X122949233Y-57479794D01*
X122774474Y-57596564D01*
X122774473Y-57596565D01*
X122774472Y-57596565D01*
X122580291Y-57676998D01*
X122374152Y-57718001D01*
X122163968Y-57718001D01*
X121957829Y-57676998D01*
X121763648Y-57596565D01*
X121763647Y-57596565D01*
X121763646Y-57596564D01*
X121588887Y-57479794D01*
X121440267Y-57331174D01*
X121323497Y-57156415D01*
X121253585Y-56987633D01*
X121243063Y-56962232D01*
X121202060Y-56756093D01*
X121202060Y-56545909D01*
X121243063Y-56339770D01*
X121323496Y-56145589D01*
X121423295Y-55996229D01*
X121440267Y-55970828D01*
X121588887Y-55822208D01*
X121763646Y-55705438D01*
X121763648Y-55705437D01*
X121957829Y-55625004D01*
X122163968Y-55584001D01*
X122374152Y-55584001D01*
X122580291Y-55625004D01*
X122580291Y-55625004D01*
G37*
G36*
X94856191Y-55625004D02*
G01*
X95050372Y-55705437D01*
X95050374Y-55705438D01*
X95225133Y-55822208D01*
X95373753Y-55970828D01*
X95390725Y-55996229D01*
X95490524Y-56145589D01*
X95570957Y-56339770D01*
X95611960Y-56545909D01*
X95611960Y-56756093D01*
X95570957Y-56962232D01*
X95560435Y-56987633D01*
X95490523Y-57156415D01*
X95373753Y-57331174D01*
X95225133Y-57479794D01*
X95050374Y-57596564D01*
X95050373Y-57596565D01*
X95050372Y-57596565D01*
X94856191Y-57676998D01*
X94650052Y-57718001D01*
X94439868Y-57718001D01*
X94233729Y-57676998D01*
X94039548Y-57596565D01*
X94039547Y-57596565D01*
X94039546Y-57596564D01*
X93864787Y-57479794D01*
X93716167Y-57331174D01*
X93599397Y-57156415D01*
X93529485Y-56987633D01*
X93518963Y-56962232D01*
X93477960Y-56756093D01*
X93477960Y-56545909D01*
X93518963Y-56339770D01*
X93599396Y-56145589D01*
X93699195Y-55996229D01*
X93716167Y-55970828D01*
X93864787Y-55822208D01*
X94039546Y-55705438D01*
X94039548Y-55705437D01*
X94233729Y-55625004D01*
X94439868Y-55584001D01*
X94650052Y-55584001D01*
X94856191Y-55625004D01*
X94856191Y-55625004D01*
G37*
G36*
X114655491Y-55625004D02*
G01*
X114849672Y-55705437D01*
X114849674Y-55705438D01*
X115024433Y-55822208D01*
X115173053Y-55970828D01*
X115190025Y-55996229D01*
X115289824Y-56145589D01*
X115370257Y-56339770D01*
X115411260Y-56545909D01*
X115411260Y-56756093D01*
X115370257Y-56962232D01*
X115359735Y-56987633D01*
X115289823Y-57156415D01*
X115173053Y-57331174D01*
X115024433Y-57479794D01*
X114849674Y-57596564D01*
X114849673Y-57596565D01*
X114849672Y-57596565D01*
X114655491Y-57676998D01*
X114449352Y-57718001D01*
X114239168Y-57718001D01*
X114033029Y-57676998D01*
X113838848Y-57596565D01*
X113838847Y-57596565D01*
X113838846Y-57596564D01*
X113664087Y-57479794D01*
X113515467Y-57331174D01*
X113398697Y-57156415D01*
X113328785Y-56987633D01*
X113318263Y-56962232D01*
X113277260Y-56756093D01*
X113277260Y-56545909D01*
X113318263Y-56339770D01*
X113398696Y-56145589D01*
X113498495Y-55996229D01*
X113515467Y-55970828D01*
X113664087Y-55822208D01*
X113838846Y-55705438D01*
X113838848Y-55705437D01*
X114033029Y-55625004D01*
X114239168Y-55584001D01*
X114449352Y-55584001D01*
X114655491Y-55625004D01*
X114655491Y-55625004D01*
G37*
G36*
X90881091Y-55625004D02*
G01*
X91075272Y-55705437D01*
X91075274Y-55705438D01*
X91250033Y-55822208D01*
X91398653Y-55970828D01*
X91415625Y-55996229D01*
X91515424Y-56145589D01*
X91595857Y-56339770D01*
X91636860Y-56545909D01*
X91636860Y-56756093D01*
X91595857Y-56962232D01*
X91585335Y-56987633D01*
X91515423Y-57156415D01*
X91398653Y-57331174D01*
X91250033Y-57479794D01*
X91075274Y-57596564D01*
X91075273Y-57596565D01*
X91075272Y-57596565D01*
X90881091Y-57676998D01*
X90674952Y-57718001D01*
X90464768Y-57718001D01*
X90258629Y-57676998D01*
X90064448Y-57596565D01*
X90064447Y-57596565D01*
X90064446Y-57596564D01*
X89889687Y-57479794D01*
X89741067Y-57331174D01*
X89624297Y-57156415D01*
X89554385Y-56987633D01*
X89543863Y-56962232D01*
X89502860Y-56756093D01*
X89502860Y-56545909D01*
X89543863Y-56339770D01*
X89624296Y-56145589D01*
X89724095Y-55996229D01*
X89741067Y-55970828D01*
X89889687Y-55822208D01*
X90064446Y-55705438D01*
X90064448Y-55705437D01*
X90258629Y-55625004D01*
X90464768Y-55584001D01*
X90674952Y-55584001D01*
X90881091Y-55625004D01*
X90881091Y-55625004D01*
G37*
G36*
X126529991Y-55625004D02*
G01*
X126724172Y-55705437D01*
X126724174Y-55705438D01*
X126898933Y-55822208D01*
X127047553Y-55970828D01*
X127064525Y-55996229D01*
X127164324Y-56145589D01*
X127244757Y-56339770D01*
X127285760Y-56545909D01*
X127285760Y-56756093D01*
X127244757Y-56962232D01*
X127234235Y-56987633D01*
X127164323Y-57156415D01*
X127047553Y-57331174D01*
X126898933Y-57479794D01*
X126724174Y-57596564D01*
X126724173Y-57596565D01*
X126724172Y-57596565D01*
X126529991Y-57676998D01*
X126323852Y-57718001D01*
X126113668Y-57718001D01*
X125907529Y-57676998D01*
X125713348Y-57596565D01*
X125713347Y-57596565D01*
X125713346Y-57596564D01*
X125538587Y-57479794D01*
X125389967Y-57331174D01*
X125273197Y-57156415D01*
X125203285Y-56987633D01*
X125192763Y-56962232D01*
X125151760Y-56756093D01*
X125151760Y-56545909D01*
X125192763Y-56339770D01*
X125273196Y-56145589D01*
X125372995Y-55996229D01*
X125389967Y-55970828D01*
X125538587Y-55822208D01*
X125713346Y-55705438D01*
X125713348Y-55705437D01*
X125907529Y-55625004D01*
X126113668Y-55584001D01*
X126323852Y-55584001D01*
X126529991Y-55625004D01*
X126529991Y-55625004D01*
G37*
G36*
X86931391Y-55625004D02*
G01*
X87125572Y-55705437D01*
X87125574Y-55705438D01*
X87300333Y-55822208D01*
X87448953Y-55970828D01*
X87465925Y-55996229D01*
X87565724Y-56145589D01*
X87646157Y-56339770D01*
X87687160Y-56545909D01*
X87687160Y-56756093D01*
X87646157Y-56962232D01*
X87635635Y-56987633D01*
X87565723Y-57156415D01*
X87448953Y-57331174D01*
X87300333Y-57479794D01*
X87125574Y-57596564D01*
X87125573Y-57596565D01*
X87125572Y-57596565D01*
X86931391Y-57676998D01*
X86725252Y-57718001D01*
X86515068Y-57718001D01*
X86308929Y-57676998D01*
X86114748Y-57596565D01*
X86114747Y-57596565D01*
X86114746Y-57596564D01*
X85939987Y-57479794D01*
X85791367Y-57331174D01*
X85674597Y-57156415D01*
X85604685Y-56987633D01*
X85594163Y-56962232D01*
X85553160Y-56756093D01*
X85553160Y-56545909D01*
X85594163Y-56339770D01*
X85674596Y-56145589D01*
X85774395Y-55996229D01*
X85791367Y-55970828D01*
X85939987Y-55822208D01*
X86114746Y-55705438D01*
X86114748Y-55705437D01*
X86308929Y-55625004D01*
X86515068Y-55584001D01*
X86725252Y-55584001D01*
X86931391Y-55625004D01*
X86931391Y-55625004D01*
G37*
G36*
X82956291Y-55625004D02*
G01*
X83150472Y-55705437D01*
X83150474Y-55705438D01*
X83325233Y-55822208D01*
X83473853Y-55970828D01*
X83490825Y-55996229D01*
X83590624Y-56145589D01*
X83671057Y-56339770D01*
X83712060Y-56545909D01*
X83712060Y-56756093D01*
X83671057Y-56962232D01*
X83660535Y-56987633D01*
X83590623Y-57156415D01*
X83473853Y-57331174D01*
X83325233Y-57479794D01*
X83150474Y-57596564D01*
X83150473Y-57596565D01*
X83150472Y-57596565D01*
X82956291Y-57676998D01*
X82750152Y-57718001D01*
X82539968Y-57718001D01*
X82333829Y-57676998D01*
X82139648Y-57596565D01*
X82139647Y-57596565D01*
X82139646Y-57596564D01*
X81964887Y-57479794D01*
X81816267Y-57331174D01*
X81699497Y-57156415D01*
X81629585Y-56987633D01*
X81619063Y-56962232D01*
X81578060Y-56756093D01*
X81578060Y-56545909D01*
X81619063Y-56339770D01*
X81699496Y-56145589D01*
X81799295Y-55996229D01*
X81816267Y-55970828D01*
X81964887Y-55822208D01*
X82139646Y-55705438D01*
X82139648Y-55705437D01*
X82333829Y-55625004D01*
X82539968Y-55584001D01*
X82750152Y-55584001D01*
X82956291Y-55625004D01*
X82956291Y-55625004D01*
G37*
G36*
X98805891Y-55625004D02*
G01*
X99000072Y-55705437D01*
X99000074Y-55705438D01*
X99174833Y-55822208D01*
X99323453Y-55970828D01*
X99340425Y-55996229D01*
X99440224Y-56145589D01*
X99520657Y-56339770D01*
X99561660Y-56545909D01*
X99561660Y-56756093D01*
X99520657Y-56962232D01*
X99510135Y-56987633D01*
X99440223Y-57156415D01*
X99323453Y-57331174D01*
X99174833Y-57479794D01*
X99000074Y-57596564D01*
X99000073Y-57596565D01*
X99000072Y-57596565D01*
X98805891Y-57676998D01*
X98599752Y-57718001D01*
X98389568Y-57718001D01*
X98183429Y-57676998D01*
X97989248Y-57596565D01*
X97989247Y-57596565D01*
X97989246Y-57596564D01*
X97814487Y-57479794D01*
X97665867Y-57331174D01*
X97549097Y-57156415D01*
X97479185Y-56987633D01*
X97468663Y-56962232D01*
X97427660Y-56756093D01*
X97427660Y-56545909D01*
X97468663Y-56339770D01*
X97549096Y-56145589D01*
X97648895Y-55996229D01*
X97665867Y-55970828D01*
X97814487Y-55822208D01*
X97989246Y-55705438D01*
X97989248Y-55705437D01*
X98183429Y-55625004D01*
X98389568Y-55584001D01*
X98599752Y-55584001D01*
X98805891Y-55625004D01*
X98805891Y-55625004D01*
G37*
G36*
X118605191Y-55625004D02*
G01*
X118799372Y-55705437D01*
X118799374Y-55705438D01*
X118974133Y-55822208D01*
X119122753Y-55970828D01*
X119139725Y-55996229D01*
X119239524Y-56145589D01*
X119319957Y-56339770D01*
X119360960Y-56545909D01*
X119360960Y-56756093D01*
X119319957Y-56962232D01*
X119309435Y-56987633D01*
X119239523Y-57156415D01*
X119122753Y-57331174D01*
X118974133Y-57479794D01*
X118799374Y-57596564D01*
X118799373Y-57596565D01*
X118799372Y-57596565D01*
X118605191Y-57676998D01*
X118399052Y-57718001D01*
X118188868Y-57718001D01*
X117982729Y-57676998D01*
X117788548Y-57596565D01*
X117788547Y-57596565D01*
X117788546Y-57596564D01*
X117613787Y-57479794D01*
X117465167Y-57331174D01*
X117348397Y-57156415D01*
X117278485Y-56987633D01*
X117267963Y-56962232D01*
X117226960Y-56756093D01*
X117226960Y-56545909D01*
X117267963Y-56339770D01*
X117348396Y-56145589D01*
X117448195Y-55996229D01*
X117465167Y-55970828D01*
X117613787Y-55822208D01*
X117788546Y-55705438D01*
X117788548Y-55705437D01*
X117982729Y-55625004D01*
X118188868Y-55584001D01*
X118399052Y-55584001D01*
X118605191Y-55625004D01*
X118605191Y-55625004D01*
G37*
G36*
X130505091Y-55625004D02*
G01*
X130699272Y-55705437D01*
X130699274Y-55705438D01*
X130874033Y-55822208D01*
X131022653Y-55970828D01*
X131039625Y-55996229D01*
X131139424Y-56145589D01*
X131219857Y-56339770D01*
X131260860Y-56545909D01*
X131260860Y-56756093D01*
X131219857Y-56962232D01*
X131209335Y-56987633D01*
X131139423Y-57156415D01*
X131022653Y-57331174D01*
X130874033Y-57479794D01*
X130699274Y-57596564D01*
X130699273Y-57596565D01*
X130699272Y-57596565D01*
X130505091Y-57676998D01*
X130298952Y-57718001D01*
X130088768Y-57718001D01*
X129882629Y-57676998D01*
X129688448Y-57596565D01*
X129688447Y-57596565D01*
X129688446Y-57596564D01*
X129513687Y-57479794D01*
X129365067Y-57331174D01*
X129248297Y-57156415D01*
X129178385Y-56987633D01*
X129167863Y-56962232D01*
X129126860Y-56756093D01*
X129126860Y-56545909D01*
X129167863Y-56339770D01*
X129248296Y-56145589D01*
X129348095Y-55996229D01*
X129365067Y-55970828D01*
X129513687Y-55822208D01*
X129688446Y-55705438D01*
X129688448Y-55705437D01*
X129882629Y-55625004D01*
X130088768Y-55584001D01*
X130298952Y-55584001D01*
X130505091Y-55625004D01*
X130505091Y-55625004D01*
G37*
M02*
