<?xml version="1.0"?>
<svg xmlns="http://www.w3.org/2000/svg" height="56" width="595" viewBox="0 0 595 56" id="svg2" version="1.1">
	<style>.a{fill-opacity:1;fill-rule:nonzero;fill:#000000;stroke:none;}</style>
	<metadata id="metadata8"/>
	<g transform="matrix(1 0 0 -1 1 55)" id="g10">
		<g id="g14">
			<g id="g16">
				<path id="path22" d="m55.904 31.4c-1.222 2.078-2.872 3.605-4.949 4.582-2.016 1.039-4.277 1.528-6.721 1.528-2.627 0-5.132-0.611-7.453-1.894-2.322-1.222-4.033-3.055-5.194-5.438-1.038 2.383-2.688 4.216-4.949 5.438-2.199 1.283-4.704 1.894-7.393 1.894-2.504 0-4.826-0.55-6.903-1.711-2.139-1.161-3.789-2.871-5.01-5.132l-0.367 6.11H0V0.118h7.881v19.49c0 2.628 0.428 4.766 1.345 6.477 0.977 1.711 2.138 2.932 3.604 3.788 1.467 0.794 2.994 1.161 4.583 1.161 2.26 0 4.093-0.672 5.498-2.017 1.344-1.405 2.017-3.482 2.017-6.415V0.118h7.881v19.918c0 3.422 0.917 6.11 2.75 8.065 1.832 1.955 4.093 2.933 6.781 2.933 2.261 0 4.094-0.672 5.499-2.017 1.344-1.405 2.016-3.482 2.016-6.415V0.118h7.882v23.767c0 2.994-0.611 5.499-1.833 7.515" class="a"/>
				<path id="path24" d="M77.41 36.777V0.118h-7.82v28.777l7.82 7.882" class="a"/>
				<path id="path26" d="m73.545 42.933c1.662 0 2.945 0.43 3.849 1.283 0.904 0.856 1.357 2.065 1.357 3.631 0 1.563-0.453 2.759-1.357 3.592-0.904 0.832-2.187 1.247-3.849 1.247-1.662 0-2.959-0.415-3.887-1.247-0.928-0.833-1.393-2.029-1.393-3.592 0-1.566 0.465-2.775 1.393-3.631 0.928-0.853 2.225-1.283 3.887-1.283" class="a"/>
				<path id="path28" d="m110.28 22.419 13.991 14.358h-9.225L97.511 18.814v34.459h-7.82V0.118h7.82v9.776l7.27 7.454 11.304-17.23h9.103L110.28 22.419" class="a"/>
				<path id="path30" d="m151.338 37.51c-5.683 0-9.531-2.444-11.609-7.332l-0.611 6.599h-6.721V0.118h7.882v19.429c0 2.322 0.428 4.338 1.344 5.988 0.917 1.711 2.078 2.933 3.422 3.788 1.405 0.794 2.871 1.222 4.46 1.222 1.955 0 3.482-0.306 4.643-0.978l1.222 7.21c-0.977 0.489-2.322 0.733-4.032 0.733" class="a"/>
			</g>
		</g>
		<g id="g32">
			<g id="g34">
				<path id="path40" d="m185.674 9.65c-1.833-2.261-4.399-3.361-7.698-3.361-3.36 0-5.927 1.1-7.698 3.299-1.772 2.261-2.689 5.438-2.689 9.593 0 4.154 0.917 7.331 2.689 9.592 1.771 2.199 4.338 3.299 7.698 3.299 3.299 0 5.865-1.1 7.698-3.36 1.772-2.261 2.689-5.437 2.689-9.531 0-4.094-0.917-7.271-2.689-9.531zm5.682 23.522c-3.238 3.36-7.698 5.071-13.38 5.071-5.743 0-10.203-1.711-13.441-5.071-3.239-3.36-4.827-8.003-4.827-13.991 0-5.988 1.588-10.631 4.827-13.991 3.238-3.361 7.698-5.072 13.441-5.072 5.682 0 10.142 1.711 13.38 5.072 3.238 3.36 4.827 8.003 4.827 13.991 0 5.988-1.589 10.631-4.827 13.991" class="a"/>
				<path id="path42" d="m229.268 35.601c2.572-1.74 4.419-4.177 5.548-7.313l-3.455-1.615c-0.833 2.692-2.229 4.751-4.186 6.172-1.962 1.419-4.41 2.132-7.35 2.132-4.26 0-7.593-1.41-9.992-4.227-2.401-2.817-3.6-6.698-3.6-11.646 0-4.996 1.186-8.89 3.564-11.682 2.374-2.793 5.693-4.189 9.956-4.189 3.134 0 5.792 0.772 7.971 2.315 2.179 1.543 3.514 3.686 4.005 6.428l3.381-1.174C234.128 7.469 232.279 4.838 229.562 2.903 226.842 0.966 223.597 0 219.825 0c-5.437 0-9.675 1.69-12.712 5.071-3.036 3.38-4.554 8.057-4.554 14.033 0 5.976 1.529 10.655 4.593 14.036 3.059 3.378 7.311 5.068 12.748 5.068 3.672 0 6.795-0.869 9.368-2.607" class="a"/>
				<path id="path44" d="m249.951 30.789c-2.448-2.842-3.672-6.737-3.672-11.685 0-4.949 1.224-8.843 3.672-11.682 2.451-2.842 5.829-4.261 10.141-4.261 4.309 0 7.689 1.419 10.14 4.261 2.448 2.839 3.674 6.733 3.674 11.682 0 4.948-1.226 8.843-3.674 11.685-2.451 2.839-5.831 4.26-10.14 4.26-4.312 0-7.69-1.421-10.141-4.26zm22.962 2.312c3.111-3.403 4.666-8.071 4.666-13.997 0-5.926-1.555-10.592-4.666-13.997C269.802 1.701 265.53 0 260.092 0c-5.437 0-9.711 1.701-12.822 5.107-3.112 3.405-4.666 8.071-4.666 13.997 0 5.926 1.554 10.594 4.666 13.997 3.111 3.405 7.385 5.107 12.822 5.107 5.438 0 9.71-1.702 12.821-5.107" class="a"/>
				<path id="path46" d="m315.676 33.947c2.573-2.353 3.858-5.731 3.858-10.141V0h-3.673v22.632c0 3.916-0.957 6.833-2.866 8.743-1.91 1.909-4.533 2.866-7.863 2.866-2.351 0-4.53-0.54-6.54-1.617-2.009-1.077-3.611-2.645-4.812-4.702-1.2-2.057-1.799-4.458-1.799-7.202V0h-3.675v36.739h3.306l0.147-7.421c1.177 2.645 2.978 4.666 5.401 6.062 2.426 1.396 5.204 2.093 8.34 2.093 4.211 0 7.605-1.175 10.176-3.526" class="a"/>
				<path id="path48" d="m351.571 3.086c-0.982-0.98-2.181-1.74-3.6-2.278C346.548 0.271 344.982 0 343.267 0c-2.986 0-5.326 0.821-7.016 2.462-1.691 1.64-2.535 4.127-2.535 7.458v24.394h-7.349v3.161h7.349v9.184l3.673 1.028V37.475h13.814V34.314H337.389V10.433c0-2.301 0.552-4.052 1.654-5.251 1.102-1.202 2.706-1.801 4.813-1.801 2.448 0 4.579 0.904 6.392 2.719l1.323-3.014" class="a"/>
				<path id="path50" d="m379.05 36.224-0.955-3.453c-1.127 0.882-2.695 1.323-4.702 1.323-1.862 0-3.614-0.577-5.254-1.728-1.643-1.15-2.964-2.768-3.969-4.849-1.002-2.082-1.505-4.397-1.505-6.942V0h-3.674v36.739h3.086l0.441-7.496c1.028 2.598 2.56 4.618 4.591 6.062 2.032 1.446 4.472 2.168 7.311 2.168 1.96 0 3.503-0.417 4.63-1.249" class="a"/>
				<path id="path52" d="m389.999 30.789c-2.448-2.842-3.672-6.737-3.672-11.685 0-4.949 1.224-8.843 3.672-11.682 2.45-2.842 5.829-4.261 10.141-4.261 4.309 0 7.689 1.419 10.14 4.261 2.448 2.839 3.674 6.733 3.674 11.682 0 4.948-1.226 8.843-3.674 11.685-2.451 2.839-5.831 4.26-10.14 4.26-4.312 0-7.691-1.421-10.141-4.26zm22.962 2.312c3.111-3.403 4.666-8.071 4.666-13.997 0-5.926-1.555-10.592-4.666-13.997C409.85 1.701 405.578 0 400.14 0c-5.437 0-9.711 1.701-12.822 5.107-3.112 3.405-4.666 8.071-4.666 13.997 0 5.926 1.554 10.594 4.666 13.997 3.111 3.405 7.385 5.107 12.822 5.107 5.438 0 9.71-1.702 12.821-5.107" class="a"/>
				<path id="path54" d="m431.735 9.625c0-2.253 0.355-3.846 1.065-4.774 0.709-0.932 1.896-1.396 3.564-1.396 0.98 0 1.81 0.072 2.498 0.22 0.686 0.147 1.469 0.416 2.351 0.807L440.699 0.955C439.326 0.319 437.71 0 435.848 0c-2.645 0-4.604 0.747-5.876 2.242-1.276 1.494-1.912 3.831-1.912 7.017v45.114h3.675V9.625" class="a"/>
				<path id="path56" d="m451.866 9.625c0-2.253 0.355-3.846 1.066-4.774 0.708-0.932 1.896-1.396 3.563-1.396 0.98 0 1.811 0.072 2.498 0.22 0.686 0.147 1.469 0.416 2.351 0.807L460.831 0.955C459.457 0.319 457.842 0 455.979 0c-2.645 0-4.604 0.747-5.876 2.242-1.276 1.494-1.912 3.831-1.912 7.017v45.114h3.675V9.625" class="a"/>
				<path id="path58" d="m473.468 31.266c-2.304-2.475-3.6-5.942-3.894-10.397h25.865c-0.247 4.408-1.46 7.861-3.639 10.359-2.179 2.498-5.154 3.749-8.926 3.749-3.969 0-7.103-1.238-9.406-3.711zm25.277-13.705h-29.171c0.244-4.508 1.579-8.022 4.005-10.544 2.425-2.523 5.668-3.784 9.736-3.784 2.89 0 5.374 0.589 7.458 1.763 2.082 1.177 3.586 2.842 4.519 4.998l3.086-1.618C497.005 5.682 495.045 3.613 492.5 2.168 489.952 0.724 486.89 0 483.315 0c-5.437 0-9.689 1.69-12.748 5.071-3.064 3.38-4.593 8.057-4.593 14.033 0 5.976 1.482 10.655 4.446 14.036 2.962 3.378 7.114 5.068 12.454 5.068 4.996 0 8.915-1.665 11.757-4.996 2.84-3.331 4.261-7.741 4.261-13.226 0-0.832-0.05-1.642-0.147-2.425" class="a"/>
				<path id="path60" d="m529.456 36.224-0.955-3.453c-1.126 0.882-2.694 1.323-4.701 1.323-1.863 0-3.614-0.577-5.254-1.728-1.643-1.15-2.965-2.768-3.969-4.849-1.003-2.082-1.505-4.397-1.505-6.942V0h-3.675v36.739h3.087l0.441-7.496c1.027 2.598 2.559 4.618 4.591 6.062 2.032 1.446 4.471 2.168 7.311 2.168 1.959 0 3.503-0.417 4.629-1.249" class="a"/>
				<path id="path62" d="m532.384 3.004c0.315-0.315 0.472-0.725 0.472-1.227 0-0.505-0.157-0.914-0.472-1.229-0.315-0.314-0.724-0.472-1.228-0.472-0.503 0-0.913 0.158-1.227 0.472-0.316 0.315-0.473 0.724-0.473 1.229 0 0.502 0.157 0.912 0.473 1.227 0.314 0.315 0.724 0.473 1.227 0.473 0.504 0 0.913-0.158 1.228-0.473" class="a"/>
				<path id="path64" d="m552.751 17.458c1.323-1.211 1.984-2.948 1.984-5.216V0h-1.889v11.638c0 2.015-0.492 3.514-1.474 4.497-0.982 0.982-2.331 1.474-4.044 1.474-1.209 0-2.329-0.278-3.363-0.832-1.033-0.554-1.857-1.36-2.475-2.418-0.616-1.058-0.925-2.292-0.925-3.704V0h-1.889v18.893h1.7l0.075-3.816c0.605 1.36 1.532 2.399 2.778 3.117 1.247 0.718 2.676 1.077 4.289 1.077 2.165 0 3.911-0.604 5.233-1.813" class="a"/>
				<path id="path66" d="m563.917 16.079c-1.185-1.273-1.852-3.056-2.003-5.347h13.301c-0.127 2.267-0.75 4.042-1.871 5.327-1.12 1.284-2.651 1.928-4.59 1.928-2.041 0-3.653-0.637-4.837-1.908zm12.998-7.048h-15.001c0.126-2.318 0.812-4.125 2.06-5.423 1.247-1.297 2.914-1.945 5.007-1.945 1.486 0 2.763 0.302 3.835 0.906 1.07 0.605 1.844 1.462 2.324 2.571l1.587-0.832C576.02 2.922 575.013 1.858 573.704 1.115 572.393 0.372 570.819 0 568.981 0c-2.797 0-4.983 0.869-6.556 2.608-1.576 1.738-2.362 4.143-2.362 7.216 0 3.073 0.762 5.48 2.286 7.218 1.523 1.737 3.659 2.607 6.405 2.607 2.569 0 4.584-0.857 6.046-2.57 1.46-1.712 2.191-3.98 2.191-6.801 0-0.428-0.026-0.845-0.076-1.247" class="a"/>
				<path id="path68" d="M592.408 1.587C591.903 1.083 591.286 0.692 590.556 0.415 589.824 0.14 589.019 0 588.137 0c-1.536 0-2.739 0.422-3.608 1.266-0.869 0.844-1.303 2.122-1.303 3.835v12.545h-3.78v1.626h3.78v4.723l1.888 0.528v-5.251h7.104v-1.626h-7.104V5.365c0-1.183 0.284-2.084 0.851-2.7 0.566-0.618 1.391-0.927 2.475-0.927 1.259 0 2.355 0.466 3.287 1.399l0.681-1.55" class="a"/>
			</g>
		</g>
	</g>
</svg>
